<svg xmlns="http://www.w3.org/2000/svg" viewBox="0 0 333 135"><defs><style>.a{fill:#ecedf0;}.b{fill:#f5f5f6;}.c{fill:#dcccc8;}.d{fill:#e5dbd5;}.e{fill:#696163;}.f{fill:#eaeaee;}.g{fill:#c7bcb8;}.h{fill:#534b4a;}.i{fill:#cdc4c0;}.j{fill:#918086;}.k{fill:#eff0f2;}.l{fill:#655d5e;}.m{fill:#cec5c0;}.n{fill:#beb5b1;}.o{fill:#756d6d;}.p{fill:#524748;}.q{fill:#524a49;}.r{fill:#4e4042;}.s{fill:#edeae9;}.t{fill:#b3b8bc;}.u{fill:#dcdfe3;}.v{fill:#f2f3f5;}.w{fill:#dacbc9;}.x{fill:#e0e2e5;}.y{fill:#615c5d;}.z{fill:#c7b7b3;}.aa{fill:#4c4646;}.ab{fill:#3c3333;}.ac{fill:#564d4b;}.ad{fill:#938a8f;}.ae{fill:#e6e6eb;}.af{fill:#d4d6db;}.ag{fill:#f0f1f3;}.ah{fill:#e4e5e9;}.ai{fill:#d9dce0;}.aj{fill:#d5d8dc;}.ak{fill:#dddee3;}.al{fill:#868a8a;}.am{fill:#cdcfd3;}.an{fill:#e9e9ed;}.ao{fill:#b6b9be;}.ap{fill:#d2d5d9;}.aq{fill:#d0d3d7;}.ar{fill:#dde0e4;}.as{fill:#d6dade;}.at{fill:#d6d9de;}.au{fill:#dcdde1;}.av{fill:#cbcdd3;}.aw{fill:#c4cbcb;}.ax{fill:#e7dcd2;}.ay{fill:#d7c2bd;}.az{fill:#bfb8af;}.ba{fill:#a59892;}.bb{fill:#ede7e0;}.bc{fill:#dfd3d0;}.bd{fill:#ebe4db;}.be{fill:#7c7275;}.bf{fill:#a39394;}.bg{fill:#a59696;}.bh{fill:#867a7e;}.bi{fill:#c6cbcf;}.bj{fill:#c0c6ca;}.bk{fill:#9ea4a6;}.bl{fill:#c4b1aa;}.bm{fill:#958487;}.bn{fill:#bdb1ad;}.bo{fill:#a19193;}.bp{fill:#beadaa;}.bq{fill:#7e7275;}.br{fill:#615254;}.bs{fill:#beb1b4;}.bt{fill:#bbb8b5;}.bu{fill:#b9a7a6;}.bv{fill:#847479;}.bw{fill:#9fa3a7;}.bx{fill:#c7cdd0;}.by{fill:#b9aba8;}.bz{fill:#c8b6b0;}.ca{fill:#8a7c81;}.cb{fill:#b1a1a1;}.cc{fill:#808282;}.cd{fill:#a0a5a8;}.ce{fill:#dfe1e4;}.cf{fill:#656563;}.cg{fill:#e6e6ec;}.ch{fill:#bfc4c7;}.ci{fill:#cad0d2;}.cj{fill:#cdd2d6;}.ck{fill:#8e9497;}.cl{fill:#9fa7ab;}.cm{fill:#7c8080;}.cn{fill:#625e5d;}.co{fill:#c8cdcf;}.cp{fill:#483d3e;}.cq{fill:#a1a5aa;}.cr{fill:#a2a8ad;}.cs{fill:#9ca2a4;}.ct{fill:#ccc8c2;}.cu{fill:#a3a7a9;}.cv{fill:#aea9a6;}.cw{fill:#6a676a;}.cx{fill:#e1d2cd;}.cy{fill:#c9b7af;}.cz{fill:#e4d7d2;}.da{fill:#f1ece6;}.db{fill:#c0b7b9;}.dc{fill:#f3f1ef;}.dd{fill:#71686c;}.de{fill:#c7bfb8;}.df{fill:#a8a09f;}.dg{fill:#b8abac;}.dh{fill:#888b8d;}.di{fill:#b7b0aa;}.dj{fill:#5b5252;}.dk{fill:#cec6c4;}.dl{fill:#d2bfb7;}.dm{fill:#bdaca8;}.dn{fill:#8d8285;}.do{fill:#665c60;}.dp{fill:#3e3337;}.dq{fill:#b09fa0;}.dr{fill:#a8aeb1;}.ds{fill:#a7acb1;}.dt{fill:#cfc3be;}.du{fill:#7e7971;}.dv{fill:#d1c8c7;}.dw{fill:#97898d;}.dx{fill:#877b81;}.dy{fill:#d1bfbc;}.dz{fill:#afa0a0;}.ea{fill:#6a6263;}.eb{fill:#baadab;}.ec{fill:#a6aeb0;}.ed{fill:#9d9896;}.ee{fill:#524949;}.ef{fill:#998d8d;}.eg{fill:#a49797;}.eh{fill:#d7c3bf;}.ei{fill:#d9cac8;}.ej{fill:#d1c9c1;}.ek{fill:#7c7879;}.el{fill:#5d5b58;}.em{fill:#534e4b;}.en{fill:#b5a8a4;}.eo{fill:#c7bfb7;}</style></defs><title>44543</title><path class="a" d="M351,88q-1.5,2-3,4l-9.7,2.84c1,.93,1.5,1.44,2.1,2l-4.15,3.1.45,1.23,11.56-2.46.78,1.67L335,108c-6.51-2.08-5.8-6-1.22-10.84l-1.6-.14L325,100H314l-1-2c1.34-3.62,1.36-6.13-3.77-5.07-2.67.55-5.43.68-8.15,1-6.6-2.1-13.25-3.21-20.05-.94l-8.94-2.07L276,88c4,.15,8.08.44,12.11.42,6,0,11.94-.28,17.91-.43,10.46,1.22,20.68,5.08,31.44,3C342,90.09,346.48,89,351,88Z"/><path class="b" d="M306,88c-6,.15-11.94.41-17.91.43-4,0-8.07-.27-12.11-.42H250.11c0,.38,0,.77,0,1.15h18.14L261,92l-3.05,2.87-2.81.1C253.62,89.43,249.19,90,245,90l-5.5-.38-1.08-1.46,3.86-.69A104.12,104.12,0,0,0,228.4,84.4c-.92-.13-2,.83-3,1.29L217,79.5c.86-.38,1.77-1.18,2.55-1.07,7.89,1.13,15.76,2.38,23.62,3.67,6.8,1.12,13.54,2.81,20.38,3.36a29.83,29.83,0,0,0,12.83-1.7c9.54-3.72,17.83.07,26.37,3.11C303.81,87.26,304.91,87.62,306,88Z"/><path class="c" d="M169.36,26q1.84,4.74,3.7,9.46c-2.87,3.94,1.53,5.08,2.85,7.41l-7.39.14-3-1.6,1.2-.5-6.34-14.39-9.11,6.59L138,27l15-5.55L146,17.93l2-1c3.94-3.49,7.85-2.73,11.73.09Z"/><path class="d" d="M189,54.39,190.47,56,196,66q5.56,6.06,11.11,12.13l-.05,1.92-1.33,1a.9.9,0,0,0-.76.45L204.48,83h-5.81l2.75,2.94L195,91.13l6.94,5.71L189,94A15,15,0,0,0,191,91.07,23.66,23.66,0,0,0,192,87l1-12c1.17,1,2.2,2.36,3.55,3,2.09,1,4.21,5,7.12.22L197,73c-2.59-1.83-1.48-6.82-6-7l-7.9-5.6c-3-.41-5.57,0-6.63-1.1C175,57.78,174.78,55.14,174,53c4-1.72,7.72-1.94,11.42.81C186.3,54.43,187.81,54.21,189,54.39Z"/><path class="e" d="M34.73,81.83,39,79c3.72-.14,7.93,1.62,10.56-2.85.23-.39,1.57-.12,2.39-.16l1,.84L52.13,82l-2.09,2-8.57.52c2.86,3.8,3.42,5.66-1.15,6-1.49.13-2.82,2.22-4.23,3.42L32,91.84,32,89C36.4,88,36.89,85.39,34.73,81.83Z"/><path class="f" d="M169,127c-4.76-.61-9.52-1.47-14.3-1.75-3.21-.18-6.47.48-9.71.76l1.5-2H143l9.06-3.06,8.92.1-.85,1.11c2.78,0,5.72,0,8.67,0,2.4,0,4.8-.14,7.2-.21l.07,2Z"/><path class="g" d="M159.67,17c-3.88-2.82-7.79-3.58-11.73-.09-1.35-6.29-6.36-3.23-9.93-3.88l-1.24-2.13L130.9,9.17,134,8.05l13.17-1,10,5.66Z"/><path class="h" d="M53,69.05c3.58-4.23,7.74-8.12,10.57-12.8,3-5,7.57-7.12,12.39-9.25,0,1.35,0,2.69,0,4l-1.14.1-1.59,6L72.9,57l-1.1.15-1.87.72c-.91-.19-2.38-.84-2.64-.52C65.05,60.09,63,63.05,61,66a45.16,45.16,0,0,1-5.09,3.56C55.19,69.87,54,69.24,53,69.05Z"/><path class="i" d="M205,81.46a.9.9,0,0,1,.76-.45l2.22.88,5.18-4.72L217,79.5l8.4,6.19c.26.68.53,1.35.8,2-6.62,0-13.36.55-19.1-3.84l-.74-.86Z"/><path class="j" d="M88.7,39,102,25l3-1c.36,1.42.71,2.84,1.06,4.27l-8.2,8.93c.21-1.13.43-2.26.5-2.62Z"/><path class="k" d="M99,122l3-1,1.26.84,5.74-.89,3.37,2.32L118,122l-.11.19L116,126l-17,1c0-1,.13-1.94.14-2.91C99.13,123.39,99,122.7,99,122Z"/><path class="l" d="M32,89c0,.94,0,1.88,0,2.82a13.14,13.14,0,0,0-3.66,0c-.9.27-1.59,1.27-2.38,1.94l-13-2.28L19,88.85a29.56,29.56,0,0,1,3.93-1.8,47.42,47.42,0,0,1,5.08-1Z"/><path class="m" d="M207.11,78.13Q201.56,72.07,196,66l2.09-1a98.93,98.93,0,0,1,9.76,6.06c1.23.94,1.47,3.16,2.16,4.8Z"/><path class="n" d="M175.91,42.89c-1.32-2.33-5.72-3.47-2.85-7.41,6.86,4.48,11.81,10.67,15.84,17.67-2.27-1.64-4.55-3.25-6.79-4.91-1.35-1-2.64-2.08-4-3.12Z"/><path class="o" d="M53,69.05c1,.19,2.16.82,2.83.47A45.16,45.16,0,0,0,61,66l1.93,2.14L59,73l-6,3.84L52,76c.11-1.2.22-2.4.31-3.42l-6.64,1.19Z"/><path class="p" d="M105,24l-3,1c5.54-5.3,9-13.23,18-14.15l.94.34c.33.53,1,1.49,1,1.52-1.59,1.15-3.23,2.21-4.87,3.29l-1,.91-2.12,1a21,21,0,0,0-4,1.78C108.13,21,106.62,22.55,105,24Z"/><path class="q" d="M159.67,17c-.83-1.43-1.67-2.85-2.51-4.28L160,11c4.68,4,8.14,8.85,9.37,15Z"/><path class="r" d="M76,51c0-1.35,0-2.69,0-4l10-6.21q.91,2.2,1.85,4.41L84,46.91,82,48.07Z"/><path class="s" d="M120.92,11.19l-.94-.34,12.7-9.75c.57,3.05.94,5,1.3,6.94L130.9,9.17Z"/><path class="t" d="M133.91,124.91h-2.73c-.67-.93-1.29-2.61-2-2.66-3.73-.26-7.49-.1-11.24-.09L118,122l4.16-3-1.27-1,7.18-.66L133,119l-8.77,1.32,9.63,1.78Z"/><path class="u" d="M133.91,124.91l0-2.86,5.31-1.13L143,120l2.93-1.12,6.15,2.1L143,124Z"/><path class="v" d="M117.91,122.15c3.75,0,7.51-.17,11.24.09.74.05,1.36,1.73,2,2.66L116,126C116.64,124.71,117.27,123.43,117.91,122.15Z"/><path class="w" d="M178.15,45.12c1.32,1,2.61,2.12,4,3.12,2.24,1.66,4.52,3.27,6.79,4.91a4.72,4.72,0,0,1,.3.81c0,.13-.11.28-.17.42-1.22-.17-2.73,0-3.6-.59C181.73,51,178,51.26,174,53l-1.92-2.06C176,51,177.65,48.64,178.15,45.12Z"/><path class="x" d="M99,122c.05.7.14,1.39.13,2.08,0,1-.09,1.94-.14,2.91-4-.34-8-.61-12-1.09-.41,0-.66-1.3-1-2a85.1,85.1,0,0,1,8.94-3C96.12,120.66,97.62,121.61,99,122Z"/><path class="y" d="M45.62,73.76l6.64-1.19c-.09,1-.2,2.22-.31,3.42-.82,0-2.16-.23-2.39.16C46.93,80.62,42.72,78.86,39,79Z"/><path class="z" d="M87.79,45.2q-.93-2.21-1.85-4.41L88.7,39l9.66-4.42c-.07.36-.29,1.49-.5,2.62l-1.68,1.73L90,45Z"/><path class="aa" d="M32,89l-4-2.93,6.71-4.26C36.89,85.39,36.4,88,32,89Z"/><path class="ab" d="M198.09,65,196,66l-5.53-10C195.36,57,197.84,60.06,198.09,65Z"/><path class="ac" d="M160,11l-2.83,1.77-10-5.66Z"/><path class="ad" d="M207.11,78.13l2.9-2.27c.62-.65,1.24-1.31,1.87-2l1.25,3.27L208,81.89l-.89-1.84Z"/><path class="ae" d="M323,113l-10,5-7,1-3-2c.68-.66,1.58-2,2-1.88,5.7,1.76,9.51-2.61,14.21-4.05C320.2,110.78,321.73,112.31,323,113Z"/><path class="ae" d="M335,108l-9,3c.81-2.39,1.62-4.79,2.67-7.87-7.28.65-13.14,4.53-19.44,7.34l1.21,1.81L303,113a12.38,12.38,0,0,0-.81-1.61c-4.32,1.5-8.63,3-12.88,4.73-.3.12-.22,1.22-.31,1.87l-7-1,2-3h-4l-6.21-1.63.08-.71h19V111H281.6L293,104l7-3,11-3h2l1,2-7.61,3.59c6.61-.82,11.88-1.44,17.13-2.19.55-.08,1-.91,1.47-1.4l7.17-3,1.6.14C329.19,102,328.48,105.92,335,108Z"/><path class="af" d="M247,122l-10,1c-1.49-.44-3-1.23-4.49-1.24-4.22,0-8.45.25-12.67.41l6.82-2.81L220,117c4.71.65,8-1.8,11-5l3.9-.07,3.18,2.45L244,113h7.23L241,119l7.07,1.73Z"/><path class="ag" d="M303,113l7.44-.69-1.21-1.81c6.3-2.81,12.16-6.69,19.44-7.34-1.05,3.08-1.86,5.48-2.67,7.87l-3,2c-1.27-.69-2.8-2.22-3.77-1.93-4.7,1.44-8.51,5.81-14.21,4.05-.44-.14-1.34,1.22-2,1.88l-8,0Z"/><path class="ah" d="M247,122l1.09-1.26L241,119l15-3.8L261.9,114c3.36.34,6.72.9,10.08,1a60,60,0,0,0,8-.89h4l-2,3c-6.5-.09-13-.28-19.5-.23-3.45,0-6.56.9-6.6,5.2Z"/><path class="ai" d="M200,124,194,128,190,129c-.28-1-.56-1.91-.87-2.94l3.86-2,10-3Z"/><path class="af" d="M303,113l-8,4-6,1c.09-.65,0-1.75.31-1.87,4.25-1.68,8.56-3.23,12.88-4.73A12.38,12.38,0,0,1,303,113Z"/><path class="aj" d="M103.21,121.83,102,121c-.28-.56-.5-1.58-.84-1.62-5.79-.65-11.59-1.17-17.39-1.75A5.46,5.46,0,0,1,80,116h6.72v-.94H64.62l-.33-1.18L69,111.5l-.22-.86c-3.27.63-6.54,1.3-9.83,1.82-.23,0-.63-.95-.95-1.46l4-3.08L68,109l11,0,6.07-.23a61.79,61.79,0,0,0,6,4,44.08,44.08,0,0,0,6,2.15C99.37,117,104,117,103.21,121.83Z"/><path class="ak" d="M55.05,106c-2.11-.34-4.21-.79-6.33-1-1.66-.14-4.34-2.78-4.53,1.54l-8.58-2,.24-1.18,2.11-.77-.16-1.31-21.94,2.55,12.08-3.73,8.18-3.18c3.11.79,6.32,2.76,9-.82a1.59,1.59,0,0,0,.9-.18c1.71,1.33,3.34,2.79,5.17,3.94A35.62,35.62,0,0,0,56,102l-2.74.68,4.66,1.54Z"/><path class="al" d="M45.15,96.1c-2.71,3.58-5.92,1.61-9,.82L30,95l-4-1.21c.79-.67,1.48-1.67,2.38-1.94a13.14,13.14,0,0,1,3.66,0L36.09,94Z"/><path class="am" d="M30,95l6.16,1.88-8.18,3.18c-2.69-1.15-6.56.34-8-3.48Z"/><path class="an" d="M62.06,107.92,58,111l-7.55.7L53.91,108Z"/><path class="ao" d="M62.06,107.92l-8.15.07,1.14-2,2.84-1.77,5.19,1.92L68,109Z"/><path class="ap" d="M256,115.17,241,119l10.22-6H244l11-4.81,11-4.12c4.07-1.76,8.17-3.45,12.18-5.33.86-.4,1.37-1.53,2.05-2.32-3.67-2.09,1-2.19.83-3.44,6.8-2.27,13.45-1.16,20.05,1L300,96l-7.46,2.86.2,1.26,7.3.89-7,3-6.1-.06c.24-3-1.1-3.33-3.57-2.29-4.42,1.85-8.91,3.55-13.37,5.32l-2.89,2-13.78,4.23Z"/><path class="aq" d="M281,93c.15,1.25-4.5,1.35-.83,3.44-.68.79-1.19,1.92-2.05,2.32-4,1.88-8.11,3.57-12.18,5.33L262,101.93a19,19,0,0,1-3.4-.33,27.13,27.13,0,0,1-3.58-1.5c1.44-.82,2.92-1.61,4.28-2.56.07-.05-.84-1.5-1.28-2.3l-.12-.42L261,92c2-.1,3.95-.13,5.91-.31,1.74-.16,3.46-.49,5.19-.75Z"/><path class="ar" d="M272.08,90.9c-1.73.26-3.45.59-5.19.75-2,.18-3.94.21-5.91.31l7.26-2.8H250.1c0-.38,0-.77,0-1.15H276Z"/><path class="as" d="M300,96l1.07-2.08c2.72-.32,5.48-.45,8.15-1,5.13-1.06,5.11,1.45,3.77,5.07h-2c-1.08-.66-2.12-1.77-3.26-1.9A69,69,0,0,0,300,96Z"/><path class="at" d="M325,100c-.49.49-.92,1.32-1.47,1.4-5.25.75-10.52,1.37-17.13,2.19L314,100Z"/><path class="au" d="M226.18,87.72c-.27-.68-.54-1.35-.8-2,1-.46,2.1-1.42,3-1.29a104.12,104.12,0,0,1,13.89,3.11l-3.86.69,1.08,1.46L245,90c-.68,1-1.35,2-2,3l-3.84-.19c-1.2-1.08-2.83-1.94-3.52-3.29-1.74-3.37-2.59-.6-3.75.32l-1.08,0-3.52-1Z"/><path class="av" d="M243,93.09c.68-1,1.35-2,2-3,4.18-.05,8.61-.61,10.11,4.89l-3.15.89-1.72,1c-1.61-.77-3.24-1.51-4.83-2.31C244.58,94.11,243.79,93.58,243,93.09Z"/><path class="aw" d="M252,95.81l3.15-.88,2.81-.1.12.41Z"/><path class="ax" d="M138,27l13.24,6.12,9.11-6.59,6.34,14.39-1.2.5,3,1.6,1.76,3.48L168.12,50c-1.72-.32-3.57-1.22-5.11-.85-5.31,1.29-8.34-.56-10.25-5.66-.83-2.22-3.12-4.1-5.13-5.62-2.28-1.71-5.13-2.63-7.46-4.29-1.63-1.16-2.78-3-4.15-4.52,0-.32,0-.65,0-1Z"/><path class="ay" d="M138,27l-2,1c-1.87.57-3.79,1.74-5.62,1.62-6.08-.41-6.51,3.14-5.61,8.24L122,36a34.72,34.72,0,0,1-4.8-2.07A22,22,0,0,1,114,31L115,26c.32-.33.65-.65,1-1l1.47,3.12,6.63-5.61c-.35-5.2-.14-5.43,6-5.49l4-.06,11.91,1,7.08,3.53Z"/><path class="az" d="M168.12,50l2.16-3.44L168.52,43l7.39-.14,2.24,2.23c-.5,3.52-2.16,5.83-6.06,5.8C171.65,47,169.33,50.71,168.12,50Z"/><path class="ba" d="M146,17.93l-11.91-1Q136,15,138,13.07c3.57.65,8.58-2.41,9.93,3.88Z"/><path class="bb" d="M193,75q-.5,6-1,12c-2.74.52-5.52.88-8.21,1.59-4.06,1.07-8.4,4-12,3.18-4.5-1-6.9-.45-8.32,2.7a58.7,58.7,0,0,0-6.13-4.24,40.88,40.88,0,0,0-7.75-3.11A47.44,47.44,0,0,0,139.09,85c-3.16-.15-5.35-.24-7.31-3.52-3.88-6.51-11.16-7-17.78-8.43l-2-1,9-8-3.07,6c2.95,0,6.25-1,7.76.18,5.72,4.57,6.58-1,9.25-2.87l-.15-1.54L121,63c1.45-4.29,6.41-7.71,3.29-13.15L126,49a42.65,42.65,0,0,1,.73,6.23c-.08,3.06,4.43,9,7.12,8.57,3.5-.49,7.32-.66,10.34-2.23,3.71-1.94,5.6-.18,7.83,1.93l-.14.21.12.23-12.79,5.6.26,1.53h12.66l7,3c1,.3,2.21,1.12,2.84.79,2-1,3.58-2.77,5.56-3.76,1.54-.78,3.7-1.58,5.1-1.06s2.06,2.67,3.72,5.08c-.22-3.21-1.42-6.46-.28-8,1.33-1.83,4.68-2.18,7.16-3.16a4.36,4.36,0,0,1,.87-.13Zm-6.62,3.91a80.09,80.09,0,0,0-8.26,1.68A3.68,3.68,0,0,0,176.2,83c-.16.71.71,2.37,1.12,2.37,2.47,0,5.15.08,7.32-.88C185.66,84.05,185.69,81.35,186.38,78.91Z"/><path class="bc" d="M189,94l13,2.86L195,91.13l6.43-5.2L198.67,83h5.81L206,87c2.47,1.33,4.86,3.57,7.44,3.8,4.45.41,9-.42,13.55-.73-1.17,5.81-6.06,3.24-9.45,4.57l5.52.62c-2.56,1.63-5.9,4-8,3.16-6.79-2.72-11.19,3.8-17.13,3.42-4.47.74-9,1.43-13.4,2.26-1.43.27-3.81.66-4,1.43-1.07,4.31-4.81,2.38-7.18,3.5l-3.6,1.72-4.6.95a6.54,6.54,0,0,0-2.15-.27c-7.68,1.81-15.35,3.69-23,5.55l-8.77-1.07-2.15-1.17,18.75-1.14,0-.78L124,111c-2.23-1.58-2.52-3.28-.34-5.16,1.48-1.29,2.92-2.61,4.38-3.92,3.17-3.19,9-2.12,11.14-6.92l18.06,2.54-7.85,1.1A22.82,22.82,0,0,0,169,101.51c4.4-1.22,9-1.71,13.33-3.15C184.79,97.55,186.79,95.48,189,94Zm14.85-9.46c-.11-.11-.2-.31-.31-.31s-.22.17-.34.27c.1.11.2.31.3.32S203.71,84.62,203.83,84.52Z"/><path class="bd" d="M193,75l-8.91-11.22a4.36,4.36,0,0,0-.87.13c-2.48,1-5.83,1.33-7.16,3.16-1.14,1.55.06,4.8.28,8-1.66-2.41-2.38-4.59-3.72-5.08s-3.56.28-5.1,1.06c-2,1-3.59,2.71-5.56,3.76-.63.33-1.88-.49-2.84-.79L161.91,68c6.72.5,3.39-6.82,7-8.39a47.36,47.36,0,0,0-4.48-2,8.27,8.27,0,0,0-2.53,0l-7,4.24c.22-3.36-.88-5.58-4.52-6.47-1.31-.33-3.09-2-3.25-3.18-.56-4.22-3.74-5.31-6.83-6s-6.44-.33-9.62-.74c-3-.38-4.31.87-4.74,3.58l-1.71.85c3.12,5.44-1.84,8.86-3.29,13.15v1l-9,8a53.33,53.33,0,0,1-3.92,4.16c-.19.17-1.36-.74-2.07-1.15L111,70.29l-.87-.91-7.27,5.23c1.06-10.4,10.26-10.58,16-14.85-.74-.89-1.43-1.74-2.12-2.59,4.06-2.84.2-5.85,0-8.78l2.92,2.66c.68-2.12,1-4.43,2.12-6.31a68.46,68.46,0,0,1,7.14-10.54C130.75,32,133.6,30.71,136,29c1.37,1.53,2.52,3.36,4.15,4.52,2.33,1.66,5.18,2.58,7.46,4.29,2,1.52,4.3,3.4,5.13,5.62,1.91,5.1,4.94,7,10.25,5.66,1.54-.37,3.39.53,5.11.85,1.21.76,3.53-3,4,1L174,53c.77,2.16,1,4.8,2.47,6.31,1.06,1.1,3.68.69,6.63,1.1L191,66c-1,4.48,1.9,7.93,6,7l6.67,5.22c-2.91,4.83-5,.77-7.12-.22C195.2,77.36,194.17,76,193,75Z"/><path class="bd" d="M189,94c-2.19,1.5-4.19,3.57-6.62,4.38-4.31,1.44-8.93,1.93-13.33,3.15A22.82,22.82,0,0,1,149.4,98.6l7.85-1.1L139.18,95,136,93c-2-1.88-3.19-4.57-7.18-2.45-2.25,1.2-5.9.12-8.82-.44-2.5-.47-4.86-1.67-7.28-2.54-6.14-4.76-1.85-9.08,1.13-13.56.16-.25.1-.65.15-1,6.62,1.4,13.9,1.92,17.78,8.43,2,3.28,4.15,3.37,7.31,3.52a47.44,47.44,0,0,1,10.51,2.16,40.88,40.88,0,0,1,7.75,3.11,58.7,58.7,0,0,1,6.13,4.24c1.42-3.15,3.82-3.67,8.32-2.7,3.59.78,7.93-2.11,12-3.18,2.69-.71,5.47-1.07,8.21-1.59a23.66,23.66,0,0,1-1,4.07A15,15,0,0,1,189,94Z"/><path class="bb" d="M197,73c-4.09.92-7-2.53-6-7C195.52,66.18,194.41,71.17,197,73Z"/><path class="be" d="M206,87c-.51-1.34-1-2.68-1.51-4l.48-1.53L206.34,83c.24.59.47,1.19.71,1.78Z"/><path class="be" d="M207.06,80.05l.89,1.84L205.73,81Z"/><path class="bf" d="M52.94,76.83,59,73l3,2c-.27,1.51-.53,3-.9,5.14l4-1.27,2,5.2a8.58,8.58,0,0,0-2.68,1.24A9.43,9.43,0,0,0,63.05,88L52.13,82Z"/><path class="bg" d="M52.13,82l10.92,6-2.19,4L56,93.13,50,87l0-3Z"/><path class="bh" d="M50,84.05c0,1,0,2,0,3l0,0-1.94,1c-2.35,1.43-4.29,3-2.11,6a2,2,0,0,1,.29.94,1.65,1.65,0,0,0-.2,1,1.59,1.59,0,0,1-.9.18L36.09,94c1.41-1.19,2.74-3.28,4.23-3.41,4.57-.38,4-2.24,1.15-6Z"/><path class="bi" d="M203,121.05l-10,3c-5.62-4.78-11.28.93-16.92-.08l-.06-2,10.06-4L198,116l6.17,1.14c-.38,1.25-.77,2.5-1.15,3.74Z"/><path class="bj" d="M186.07,118,176,122c-2.4.07-4.8.18-7.2.21-2.95,0-5.89,0-8.67,0,0,0,.42-.56.85-1.11,2.77-1.19,5.59-2.27,8.29-3.6a14.18,14.18,0,0,0,2.77-2.41l13.94.89C186,116.61,186,117.28,186.07,118Z"/><path class="bk" d="M172.05,115.05a14.18,14.18,0,0,1-2.77,2.41c-2.7,1.33-5.52,2.41-8.29,3.6l-8.92-.1-6.15-2.1,24-4Z"/><path class="bl" d="M138,13.07Q136,15,134.06,17l-4,.06c-6.12.06-6.33.29-6,5.49l-6.63,5.61L116,25,116,16.91l1-.91c2.33,1.78,4.61,2.07,6.83-.19,1.18-1.21,2.21-3,3.64-3.45,3-.87,6.18-1,9.3-1.42Z"/><path class="bm" d="M136.77,10.94c-3.12.43-6.32.55-9.3,1.42-1.43.41-2.46,2.24-3.64,3.45-2.22,2.26-4.5,2-6.83.19,1.64-1.08,3.28-2.14,4.87-3.29,0,0-.62-1-1-1.52l10-2Z"/><path class="bn" d="M73.25,57.11l1.59-6L76,53,76,53l4,2q1.58,1.54,3.17,3.07l2,4.63L87,59l5.12.08c-.56,1.51-1.1,4.31-1.68,4.32-5.4.09-4.28,5.21-6.36,7.76H79.89l0-.73-3.76-.39c-.68-2.31,2.88-4.72-.18-7Z"/><path class="bo" d="M75.91,63.08c3.06,2.25-.5,4.66.18,7-.72,2.63-1.43,5.27-2.14,7.9l-2.36.35c-.45-6.18-4.53-3.76-7.78-3.28,2.22-2.46,4.44-4.92,7.5-8.29L62.88,68.1,61,66c2.08-2.91,4.1-5.87,6.34-8.66.26-.32,1.73.33,2.64.52-.61.75-1.53,1.4-1.78,2.25-.43,1.49-1.08,4.14-.55,4.45a8.85,8.85,0,0,0,5.27.9C74,65.29,74.9,63.9,75.91,63.08Z"/><path class="bp" d="M75.91,63.08c-1,.82-2,2.21-3,2.34a8.85,8.85,0,0,1-5.27-.9c-.53-.31.12-3,.55-4.45.25-.85,1.17-1.5,1.78-2.25l1.87-.72L72.9,57l.35.16Z"/><path class="bq" d="M80,55l-4-2L77,52.3,76,53l-1.17-1.88L76,51l6.06-3a4,4,0,0,1-.17.9L80,50.07c.31,1,.63,2.06.94,3.09Z"/><path class="br" d="M72.9,57l-1.1.15Z"/><path class="bs" d="M206,87l1.05-2.21a3.56,3.56,0,0,1,0-.92c5.74,4.39,12.48,3.82,19.1,3.84l1.09,1.16c-.09.4-.19.8-.28,1.2-4.53.31-9.1,1.14-13.55.73C210.86,90.58,208.47,88.34,206,87Z"/><path class="bt" d="M207.08,83.88a3.56,3.56,0,0,0,0,.92c-.24-.59-.47-1.19-.71-1.78Z"/><path class="bu" d="M115,26,114,31c-4.1-2.71-5.84.6-7.9,3.09.12,1.76.24,3.52.39,5.81l-2.94-2.56c-.52,2.28-1,4.59-1.68,7.45l-2.56-4.32L97,43.05,95.93,40l.25-1,1.68-1.73,8.2-8.94,2-1.16c.83.22,1.74.78,2.47.6A33.72,33.72,0,0,0,115,26Z"/><path class="bv" d="M108,27.1l-2,1.16c-.35-1.42-.7-2.84-1.06-4.26,1.62-1.45,3.13-3,4.87-4.31a21,21,0,0,1,4-1.78Q110.95,22.52,108,27.1Z"/><path class="bw" d="M103.21,121.83C104,117,99.37,117,97,114.94c0-.74,0-1.48,0-2.22l8.14,2.17c1.3,1.72,2.61,3.43,3.91,5.14a9.06,9.06,0,0,1-.07.91Z"/><path class="bx" d="M109,120.94A9.06,9.06,0,0,0,109,120l11.89-2.1,1.27,1L118,122l-5.7,1.3Z"/><path class="by" d="M62.88,68.1l8.43-1.37L63.81,75H62l-3-2Z"/><path class="bz" d="M108,27.1q2.91-4.59,5.8-9.19l2.12-1L116,25c-.33.33-.66.65-1,1a33.72,33.72,0,0,1-4.53,1.73C109.78,27.88,108.87,27.32,108,27.1Z"/><path class="ca" d="M87.79,45.2,90,45c0,1.06,0,2.12-.08,3.18-3-1.35-4,0-3.91,2.85l-.93-.08L84,50h0l0-3.07Z"/><path class="cb" d="M84,46.91c0,1,0,2.05,0,3.07l-2,0-.12-.11a5.87,5.87,0,0,0,0-.94,3.51,3.51,0,0,0,.18-.9Z"/><path class="cc" d="M120.91,117.93,109,120c-1.3-1.71-2.61-3.42-3.91-5.14l8.23-.93,1.88.24L128,116.86l.11.42Z"/><path class="cd" d="M131.23,115.92,140,117l3,3-3.8.94L133,119l-4.93-1.68-.11-.41Z"/><path class="ce" d="M133,119l6.17,2-5.31,1.13-9.63-1.78Z"/><path class="cf" d="M143,120l-3-3c7.67-1.86,15.34-3.74,23-5.55a6.54,6.54,0,0,1,2.15.27l4.72,3.2-24,4Z"/><path class="j" d="M89.92,48.17c0-1.06,0-2.12.08-3.18l6.18-6.06c-.08.35-.16.7-.25,1-3.35,2.12-5.42,4.5-1.7,8.11l.58,2.46-3.1-1.29c-2.11,5.63,3.15,2.27,4.2,3.93-1,.59-1.94,1.57-3,1.68-2.61.28-5.27.16-7.91.2L84,55.13,86,53Z"/><path class="af" d="M267.11,109l2.89-2a44.54,44.54,0,0,0,4.91-.43c4-.79,8-1.72,12-2.6l6.1.06-11.44,7h11.18v.65h-19l-.08.71L280,114a60,60,0,0,1-8,.89c-3.36-.05-6.72-.61-10.08-1l-1.58-1.22Z"/><path class="cg" d="M300,96a69,69,0,0,1,7.75.09c1.14.13,2.18,1.24,3.26,1.9l-11,3-7.3-.89-.2-1.26Z"/><path class="ch" d="M255.05,100.1a27.13,27.13,0,0,0,3.58,1.5,19,19,0,0,0,3.4.33l-8.51,1.95h9.3l-7.83,4.3L244,113l-5.9,1.42L234.91,112a20.82,20.82,0,0,1-3.43-1.43c-2.22-1.41-1.19-2.51.52-3.43,2.53-.5,5.26-.58,7.52-1.64,1.9-.89,3.25-2.93,4.85-4.46l1.62,0Z"/><path class="ci" d="M231,112c-3,3.18-6.29,5.63-11,5h-10c-3.56-3.42-7.92-2-12.05-2l-1-1.44a23.23,23.23,0,0,1,3.83-1.06c2.08-.24,4.2-.22,6.3-.31l2.82-.35,7,.22Z"/><path class="cj" d="M210.05,117h10l6.66,2.33-6.82,2.81L213,124c-.62-.63-1.32-1.87-1.86-1.8-3.74.46-7.45,1.18-11.16,1.82l2.95-2.94.09-.13Z"/><path class="ck" d="M231,112l-14,0,6.45-2.64L219,108c.62-.63,1.18-1.74,1.86-1.82,4.15-.46,8.32-.68,12.63-1L232,107.1c-1.71.92-2.74,2-.52,3.43a20.82,20.82,0,0,0,3.43,1.43Z"/><path class="cl" d="M267.11,109l-6.79,3.73L261.9,114,256,115.17l-2.71-1.94Z"/><path class="cm" d="M63.08,106.13l-5.19-1.92-4.66-1.54L56,102h1l12.39,0L81,106.1l4,2.69L79,109C77,105.9,67.92,104.25,63.08,106.13Z"/><path class="cn" d="M85,108.79l-4-2.69c0-.66,0-1.32,0-2l10.27,4.68L97,111.23c0,.5,0,1,0,1.49l0,2.22a44.08,44.08,0,0,1-6-2.15A61.79,61.79,0,0,1,85,108.79Z"/><path class="co" d="M63.08,106.13C67.92,104.25,77,105.9,79,109l-11,0Z"/><path class="cp" d="M57,102H56a35.62,35.62,0,0,1-4.75-2.13c-1.83-1.15-3.46-2.61-5.17-3.94a1.65,1.65,0,0,1,.2-1l2.2-.17,3.37,1.34,4.24,2.77Z"/><path class="cq" d="M286.94,104c-4,.88-8,1.81-12,2.6A44.54,44.54,0,0,1,270,107c4.46-1.77,8.95-3.47,13.37-5.32C285.84,100.64,287.18,101,286.94,104Z"/><path class="cr" d="M255,108.18l7.83-4.3h-9.3l8.51-1.95,3.93,2.13Z"/><path class="cs" d="M255.05,100.1,246,101l4.26-4.19,1.72-1,6.08-.58c.44.8,1.35,2.25,1.28,2.3C258,98.49,256.49,99.28,255.05,100.1Z"/><path class="ct" d="M227,90.08c.09-.4.19-.8.28-1.2l3.52,1c.68,1.87,1.36,3.74,2.28,6.29l-5.13,2.26,3,1.3c-6.92.5-13.77,2.21-20.78,1.41l-12.16.68c5.94.38,10.34-6.14,17.13-3.42,2.07.82,5.41-1.53,8-3.16l-5.52-.62C220.93,93.32,225.82,95.89,227,90.08Z"/><path class="cu" d="M250.25,96.85,246,101l-1.62,0-4.71-1c-.17-2.38-.35-4.75-.52-7.13l3.84.19c.81.49,1.6,1,2.44,1.45C247,95.34,248.64,96.08,250.25,96.85Z"/><path class="cv" d="M230.9,99.76l-3-1.3,5.13-2.26c-.92-2.55-1.6-4.42-2.28-6.29l1.08,0c.25.58.44,1.63.73,1.66,5.92.61,5.07,4.43,4.07,8.35Z"/><path class="cw" d="M236.66,99.94c1-3.92,1.86-7.74-4.06-8.35-.29,0-.48-1.08-.73-1.66,1.16-.92,2-3.69,3.75-.32.69,1.35,2.32,2.21,3.52,3.29.17,2.38.35,4.75.51,7.13Z"/><path class="cx" d="M136,29c-2.42,1.7-5.27,3-7.15,5.19a68.46,68.46,0,0,0-7.14,10.54c-1.09,1.88-1.44,4.19-2.12,6.31l-2.92-2.66c.23,2.93,4.09,5.94,0,8.78.69.85,1.38,1.7,2.12,2.59-5.76,4.27-15,4.45-16,14.85l7.27-5.23.87.91L106,75l-4,4a10.73,10.73,0,0,0-2.26-1.3A31.2,31.2,0,0,0,96,77c2.2-2.17,3-4.54,1.65-7.58C96.47,66.7,96.16,64,100,63l14.71-3.41c-3.54-2.29-6.87-4.25-10.65-1.65l1-6.89,4-3,2-2c3,1.48,6.16,1.85,7.86-1.31,1.37-2.54,1.48-5.76,2.15-8.67l1,0,2.79,1.9c-.9-5.1-.47-8.65,5.61-8.24,1.83.12,3.75-1,5.62-1.62C136,28.36,136,28.69,136,29Z"/><path class="cy" d="M122,36c-.32,0-.64,0-1,0-1.17,0-2.74.58-3.46,0-2.68-2.08-4.62-1-6.56,1l-4.94-3c2.06-2.49,3.8-5.8,7.9-3.09a22,22,0,0,0,3.23,3A34.72,34.72,0,0,0,122,36Z"/><path class="cz" d="M102,79l4-4c.71.41,1.88,1.32,2.07,1.15A53.33,53.33,0,0,0,112,72l2,1c0,.32,0,.72-.15,1-3,4.48-7.27,8.8-1.13,13.56,2.42.87,4.78,2.07,7.28,2.54,2.92.56,6.57,1.64,8.82.44,4-2.12,5.19.57,7.18,2.45l-15.36,3c-4,4.06-15.09,2.73-21.56-2.6l-3.74,2.76c-2-8,8.06-8.43,8.09-14.69h-3l-.76-1Z"/><path class="da" d="M126,49c.43-2.71,1.79-4,4.74-3.58,3.18.41,6.52,0,9.62.74s6.27,1.8,6.83,6c.16,1.22,1.94,2.85,3.25,3.18,3.64.89,4.74,3.11,4.52,6.47L152,63.5c-2.23-2.11-4.12-3.87-7.83-1.93-3,1.57-6.84,1.74-10.34,2.23-2.69.38-7.2-5.51-7.12-8.57A42.65,42.65,0,0,0,126,49Z"/><path class="db" d="M152,63.5,155,61.83l7-4.23c-.62,2.36-1.25,4.71-1.87,7.07l-1.35-.29L161.91,68,159.12,74l-7-3q-.07-3.57-.13-7.13l-.12-.23Z"/><path class="da" d="M121,64V63l13.79,2.78.15,1.54c-2.67,1.85-3.53,7.44-9.25,2.87-1.51-1.2-4.81-.18-7.76-.18Z"/><path class="dc" d="M186.38,78.91c-.69,2.44-.72,5.14-1.74,5.6-2.17,1-4.85.85-7.32.88-.41,0-1.28-1.66-1.12-2.37a3.68,3.68,0,0,1,1.92-2.43A80.09,80.09,0,0,1,186.38,78.91Z"/><path class="dd" d="M152,63.94q.06,3.56.13,7.13H139.47l-.26-1.53Z"/><path class="de" d="M97,111.23l-5.77-2.43c.72-2.49,2.06-3.25,4.73-2.41,1.48.47,3.32-.21,5-.37,3.48.47,7,1.14,10.46,1.33,1.48.08,3-.84,4.54-1.31,3-1.52,6-3.15,9.11-4.5.8-.34,2,.2,3,.34-1.46,1.31-2.9,2.63-4.38,3.92-2.18,1.88-1.89,3.58.34,5.16,0,.7,0,1.4,0,2.1l-8.8,1.14-1.88-.24c-.6-.66-1.1-1.76-1.81-1.92-3.74-.84-7.52-1.57-11.32-2C99.2,109.87,98.06,110.79,97,111.23Z"/><path class="df" d="M198,101.85l12.16-.69c-.07.89-.13,1.78-.2,2.67L201,106h-4l0,.62,3,1.25-7.95,2.27L181,108.84c.92,1.45,1.48,2.32,2,3.19l-6-1H173l-3.24-.28,3.6-1.72c2.37-1.12,6.11.81,7.18-3.5.2-.77,2.58-1.16,4-1.43C189,103.28,193.49,102.59,198,101.85Z"/><path class="dg" d="M128.05,101.88c-1-.14-2.19-.68-3-.34-3.1,1.35-6.08,3-9.11,4.5l6.39-7.23L120.63,96,136,93l3.18,2C137,99.76,131.22,98.69,128.05,101.88Z"/><path class="dh" d="M177.06,111.05l6,1,3,3a6.65,6.65,0,0,0-.06.89l-13.94-.89-2.16-.14-4.72-3.2,4.6-.95L173,111Z"/><path class="di" d="M124,113.06c0-.7,0-1.4,0-2.1l23.87,1.87,0,.78-18.75,1.14Z"/><path class="dj" d="M124,113.06l5.06,1.69,2.15,1.17-3.25.94-12.76-2.66Z"/><path class="be" d="M203.83,84.52c-.12.1-.24.29-.35.28s-.2-.21-.3-.32c.12-.1.24-.28.34-.27S203.72,84.41,203.83,84.52Z"/><path class="dk" d="M161.91,68l-3.19-3.59,1.35.29c.62-2.36,1.25-4.71,1.87-7.07a8,8,0,0,1,2.53,0,47.36,47.36,0,0,1,4.48,2C165.3,61.15,168.63,68.47,161.91,68Z"/><path class="dl" d="M74,78c.71-2.63,1.42-5.27,2.14-7.9l3.76.39,0,.73h4.22c-.13.76-.26,1.52-.38,2.28-1.44.66-3.81,1-4.18,2-2.17,6.17-5.92,12.36-1.68,19l5.75-1.69c-1.52,3-2.56,5.12-3.61,7.22-3.16-3.18-7.09-3.1-11.12-2.7a2.66,2.66,0,0,1-1-.24l-3.88-.16L60.86,92l2.19-4a9.43,9.43,0,0,1,1.39-2.7,8.58,8.58,0,0,1,2.68-1.24l3.48-1.32-3,3.24,5.18,3.1L75,87Z"/><path class="dm" d="M74,78,75,87l-2.29,2.06L67.56,86l3-3.24-3.48,1.32-2-5.2-4,1.27c.37-2.12.63-3.63.9-5.14h1.8c3.25-.47,7.33-2.89,7.78,3.29Z"/><path class="dn" d="M60.86,92l3.19,4.89A14.24,14.24,0,0,1,61,98.44a37.81,37.81,0,0,1-4.9.47l-4.24-2.77L53,96l3-2,0-.88Z"/><path class="bh" d="M56,93.13,56,94l-3.89.07L49,92c-.29-1-.57-2-.86-3L50,87l0,0Z"/><path class="do" d="M48.1,88.91c.29,1,.57,2,.86,3l-1.83.93L46,94c-2.18-3-.24-4.6,2.11-6A3.47,3.47,0,0,0,48.1,88.91Z"/><path class="dp" d="M46,94l1.17-1.14,1.32,1.91-2.2.17A2,2,0,0,0,46,94Z"/><path class="dq" d="M48.1,88.91a3.47,3.47,0,0,1,0-.91L50,87Z"/><path class="dr" d="M186,115.94a6.65,6.65,0,0,1,.06-.89l6-2.75,9.89-2.36,5.22,2.25c-2.1.09-4.22.07-6.3.31a23.23,23.23,0,0,0-3.83,1.06l1,1.44,0,1-12,1.91C186,117.28,186,116.61,186,115.94Z"/><path class="ds" d="M198,116l0-1c4.13,0,8.49-1.42,12.05,2l-7,3.92c.38-1.24.77-2.49,1.15-3.74Z"/><path class="dt" d="M105,51.05l-1,6.89L100,60l-1.73,1-6.11-1.88L87,59l-2-3.94c2.64,0,5.3.08,7.91-.2,1-.11,2-1.09,3-1.68l3.7-5.09,1.06,3.68Z"/><path class="du" d="M92.15,59.09,98.26,61,83.73,73.46c.12-.77.25-1.53.38-2.29,2.08-2.55,1-7.67,6.36-7.76C91.05,63.4,91.59,60.6,92.15,59.09Z"/><path class="dv" d="M85,55.07,87,59l-1.91,3.64c-.93-2.2-1.45-3.41-2-4.63,0-.65.11-1.3.16-2l.65-.93Z"/><path class="dw" d="M83.31,56.06c0,.66-.11,1.31-.16,2Q81.56,56.49,80,55l1-1.79L82,50l2,0h0c0,.33,0,.66,0,1h0c-.32.68-.63,1.35-.94,2C83.12,54,83.22,55,83.31,56.06Z"/><path class="cb" d="M82,50l-1,3.14c-.31-1-.63-2.06-.94-3.09l1.87-.16Z"/><path class="dx" d="M81.9,49.91,80,50.07,81.87,49A7.32,7.32,0,0,1,81.9,49.91Z"/><path class="bn" d="M76,53l1-.72L76,53Z"/><path class="dy" d="M105,51.05l-4.36.73L99.61,48.1l-3.7,5.09c-1-1.66-6.31,1.7-4.2-3.93l3.1,1.29c-.23-1-.41-1.71-.58-2.46Q100,48,97,43.05l2.23-2.63,2.56,4.32c.65-2.86,1.16-5.17,1.68-7.45l2.94,2.56c-.15-2.29-.27-4.05-.39-5.81L111,37l-1,3-1.33-1.67-2.41,7.93,2.81,1.78Z"/><path class="dz" d="M97,43.05q2.94,4.94-2.81,5c-3.72-3.61-1.65-6,1.7-8.11Z"/><path class="ea" d="M97,111.23c1.07-.44,2.21-1.36,3.22-1.23,3.8.47,7.58,1.2,11.32,2,.71.16,1.21,1.26,1.81,1.92l-8.23.93L97,112.72C97,112.22,97,111.73,97,111.23Z"/><path class="eb" d="M89.92,48.17,86,53V52l0-1L86,51C86,48.21,86.94,46.82,89.92,48.17Z"/><path class="bn" d="M86,52v1l-2,2.15-.65.93c-.09-1-.19-2-.28-3.05.31-.68.62-1.35.94-2h0l1.11,0L86,51,86,51C86,51.31,86,51.64,86,52Z"/><path class="cb" d="M85.08,50.94,84,51c0-.34,0-.67,0-1Z"/><path class="cc" d="M209.92,103.83c.07-.89.13-1.78.2-2.67,7,.81,13.86-.9,20.78-1.4l5.77.18,3,.09,4.72,1c-1.6,1.53-3,3.57-4.85,4.46-2.26,1.06-5,1.14-7.52,1.64l1.46-1.95c-4.31.31-8.48.53-12.63,1-.68.08-1.24,1.19-1.86,1.82l-8.17-1.16,4.83-3.76Z"/><path class="ec" d="M210.8,106.8,219,108l4.46,1.46L217,112.06l-7-.22,3-2.49-4.71.54.77-2.74Z"/><path class="ck" d="M209.05,107.15l-.77,2.74,4.71-.54-3,2.49-2.82.35-5.22-2.25,4.05-2.09Z"/><path class="ed" d="M56.06,98.91a37.81,37.81,0,0,0,4.9-.47,14.24,14.24,0,0,0,3.09-1.51l3.88.16L69,99.79l.39,2.23L57,102C56.69,101,56.38,99.94,56.06,98.91Z"/><path class="ee" d="M69.39,102,69,99.79l12.07,4-.12.33c0,.66,0,1.32,0,2Z"/><path class="ef" d="M101,106c-1.68.16-3.52.84-5,.37-2.67-.84-4-.08-4.73,2.41L81,104.12l.12-.33,1-.91,8,.09L96,104.81Z"/><path class="eg" d="M48.45,94.8l-1.32-1.91L49,92l3.14,2.12c.3.64.61,1.27.91,1.91l-1.19.15Z"/><path class="eh" d="M96,104.81,90.12,103c.13-.65.26-1.3.4-2l-4.11-.59c.54-1.55.92-2.66,1.3-3.76l-.91-.84L82,100H80c1-2.1,2.09-4.2,3.61-7.22L77.87,94.5c-4.24-6.65-.49-12.84,1.68-19,.37-1,2.74-1.38,4.18-2L98.26,61,100,60c0,1,0,2,0,3-3.85,1-3.54,3.7-2.36,6.42C99,72.46,98.2,74.83,96,77c.4,1.56.79,3.12,1.26,5L87,91.65C88.38,94.37,89.59,98.93,91,99,95.49,99.2,95.52,101.91,96,104.81Z"/><path class="ei" d="M96,104.81c-.49-2.9-.52-5.61-5-5.81-1.42-.07-2.63-4.63-4.06-7.35L97.26,82c-.47-1.89-.86-3.45-1.26-5a31.2,31.2,0,0,1,3.74.7A10.73,10.73,0,0,1,102,79l-2.37,1.48.76,1h3c0,6.26-10.07,6.65-8.09,14.69l3.74-2.76c6.47,5.33,17.52,6.66,21.56,2.6.55.93,1.11,1.86,1.7,2.84L116,106c-1.51.47-3.06,1.39-4.54,1.31-3.5-.19-7-.86-10.46-1.33Z"/><path class="ay" d="M110,40l1-3c1.94-1.93,3.88-3,6.56-1,.72.56,2.29,0,3.46,0-.67,2.92-.78,6.14-2.15,8.68-1.7,3.16-4.9,2.79-7.86,1.31l4.9-4.62C114.4,39.09,110.67,46.47,110,40Z"/><path class="ej" d="M100,63c0-1,0-2,0-3l4.08-2.06c3.78-2.6,7.11-.64,10.65,1.65Z"/><path class="cy" d="M110,40c.69,6.46,4.42-.92,5.93,1.38L111,46l-2,2-2.81-1.78,2.41-7.93Z"/><path class="ek" d="M192,112.3l-6,2.75-3-3c-.56-.87-1.12-1.74-2-3.19l11.08,1.27C192.06,110.84,192,111.57,192,112.3Z"/><path class="el" d="M192,112.3c0-.73,0-1.46.05-2.19l7.95-2.27-3-1.25,0-.62h4l5,1.88-4.05,2.09Z"/><path class="em" d="M206,107.85,201,106l8.94-2.14,5.71-.79-4.83,3.76-1.75.35Z"/><path class="ek" d="M177.06,111.05h0Z"/><path class="en" d="M80,100h2c0,1,.06,1.91.1,2.86l-1,.91L69,99.79l-1.07-2.7a2.66,2.66,0,0,0,1,.24C72.92,96.93,76.85,96.85,80,100Z"/><path class="eo" d="M53,96c-.3-.64-.61-1.27-.91-1.91L56,94Z"/><path class="cb" d="M84,51c-.32.68-.63,1.35-.94,2C83.34,52.33,83.65,51.66,84,51Z"/><path class="j" d="M86,52c0-.33,0-.66,0-1C86,51.31,86,51.64,86,52Z"/><path class="dl" d="M82.09,102.88c0-.95-.07-1.91-.1-2.86l4.81-4.18.91.84c-.38,1.1-.76,2.21-1.3,3.76l4.11.59c-.14.65-.27,1.3-.4,2Z"/><path class="a" d="M349,84.64q-1.5,2-3,4l-9.7,2.84,2.1,2-4.15,3.09.45,1.23,11.56-2.46.78,1.67L333,104.64c-6.51-2.08-5.8-6-1.22-10.84l-1.6-.14-7.17,3H312l-1-2c1.34-3.62,1.36-6.13-3.77-5.07-2.67.55-5.43.68-8.15,1-6.6-2.11-13.25-3.22-20.05-.94l-8.94-2.08,3.9-2.89c4,.15,8.08.45,12.11.43,6,0,11.94-.28,17.91-.44,10.46,1.22,20.68,5.08,31.44,3C340,86.73,344.48,85.64,349,84.64Z"/><path class="b" d="M304,84.64c-6,.16-11.94.41-17.91.44-4,0-8.07-.28-12.11-.43H248.11c0,.38,0,.77,0,1.15h18.14L259,88.6l-3.05,2.87-2.81.1c-1.5-5.5-5.93-4.93-10.11-4.89l-5.5-.38-1.08-1.46,3.86-.69a102.41,102.41,0,0,0-13.89-3.1c-.92-.14-2,.82-3,1.28L215,76.14c.86-.38,1.77-1.18,2.55-1.07,7.89,1.14,15.76,2.38,23.62,3.67,6.8,1.12,13.54,2.81,20.38,3.36a29.67,29.67,0,0,0,12.83-1.7c9.54-3.72,17.83.07,26.37,3.11C301.81,83.9,302.91,84.26,304,84.64Z"/><path class="c" d="M167.36,22.66q1.84,4.74,3.7,9.46c-2.87,3.94,1.53,5.08,2.85,7.41l-7.39.14-3-1.6,1.2-.5-6.34-14.39-9.11,6.59L136,23.65l15-5.55L144,14.57l2-1c3.94-3.49,7.85-2.73,11.73.09Z"/><path class="d" d="M187,51l1.44,1.56,5.53,10q5.56,6.06,11.11,12.13l-.05,1.92-1.33,1a.9.9,0,0,0-.76.45l-.49,1.53h-5.81l2.75,2.94L193,87.77l6.94,5.71-13-2.86A15,15,0,0,0,189,87.71a23.66,23.66,0,0,0,1-4.07l1-12c1.17,1,2.2,2.36,3.55,3,2.09,1,4.21,5,7.12.22L195,69.64c-2.59-1.83-1.48-6.82-6-7l-7.9-5.6c-3-.4-5.57,0-6.63-1.1-1.44-1.5-1.7-4.15-2.47-6.31,4-1.72,7.72-1.94,11.42.81C184.3,51.07,185.81,50.85,187,51Z"/><path class="e" d="M32.73,78.48,37,75.64c3.72-.14,7.93,1.62,10.56-2.85.23-.38,1.57-.12,2.39-.15l1,.83-.81,5.18-2.09,2-8.57.52c2.86,3.8,3.42,5.66-1.15,6.05-1.49.12-2.82,2.21-4.23,3.41L30,88.48l0-2.82C34.4,84.59,34.89,82,32.73,78.48Z"/><path class="f" d="M167,123.64c-4.76-.61-9.52-1.47-14.3-1.74-3.21-.19-6.47.47-9.71.75l1.5-2H141l9.06-3,8.92.09-.85,1.11c2.78,0,5.72,0,8.67,0,2.4,0,4.8-.14,7.2-.21l.07,2Z"/><path class="g" d="M157.67,13.68c-3.88-2.82-7.79-3.58-11.73-.08-1.35-6.3-6.36-3.24-9.93-3.89l-1.24-2.13L128.9,5.82,132,4.69l13.17-.94,10,5.65Z"/><path class="h" d="M51,65.69c3.58-4.23,7.74-8.12,10.57-12.8,3-5,7.57-7.12,12.39-9.25,0,1.35,0,2.69,0,4l-1.14.1-1.59,6-.35-.16-1.1.15-1.87.72c-.91-.19-2.38-.84-2.64-.52C63.05,56.73,61,59.69,59,62.6a45.16,45.16,0,0,1-5.09,3.56C53.19,66.51,52,65.88,51,65.69Z"/><path class="i" d="M203,78.1a.9.9,0,0,1,.76-.45l2.22.88,5.18-4.71L215,76.14l8.4,6.19c.26.68.53,1.36.8,2-6.62,0-13.36.55-19.1-3.84l-.74-.86Z"/><path class="j" d="M86.7,35.64l13.29-14,3-1c.36,1.42.71,2.85,1.06,4.27l-8.2,8.93c.21-1.13.43-2.25.5-2.62Z"/><path class="k" d="M97,118.65l3-1,1.26.84,5.74-.88,3.37,2.31,5.7-1.3-.11.19L114,122.64l-17,1c0-1,.13-1.94.14-2.91C97.13,120,97,119.34,97,118.65Z"/><path class="l" d="M30,85.66c0,.94,0,1.88,0,2.82a13.14,13.14,0,0,0-3.66,0c-.9.27-1.59,1.27-2.38,1.94l-13-2.28L17,85.5a27.22,27.22,0,0,1,3.93-1.8,47.44,47.44,0,0,1,5.08-1Z"/><path class="m" d="M205.11,74.77Q199.56,68.71,194,62.64l2.09-1a98.93,98.93,0,0,1,9.76,6.06c1.23,1,1.47,3.16,2.16,4.81Z"/><path class="n" d="M173.91,39.53c-1.32-2.33-5.72-3.47-2.85-7.41,6.86,4.48,11.81,10.68,15.84,17.67-2.27-1.64-4.55-3.25-6.79-4.91-1.35-1-2.64-2.08-4-3.12Z"/><path class="o" d="M51,65.69c1,.19,2.16.82,2.83.47A45.16,45.16,0,0,0,59,62.6l1.93,2.14L57,69.63l-6,3.84-1-.83c.11-1.21.22-2.41.31-3.43L43.62,70.4Z"/><path class="p" d="M103,20.64l-3,1c5.54-5.3,9-13.23,18-14.15l.94.34c.33.53,1,1.5,1,1.52-1.59,1.15-3.23,2.21-4.87,3.29l-1,.92-2.12,1a19.78,19.78,0,0,0-4,1.78A63.46,63.46,0,0,0,103,20.64Z"/><path class="q" d="M157.67,13.68,155.16,9.4c.94-.59,1.88-1.18,2.83-1.76,4.68,4,8.14,8.84,9.37,15Z"/><path class="r" d="M74,47.68c0-1.35,0-2.69,0-4l10-6.21q.91,2.2,1.85,4.41L82,43.55,80,44.71Z"/><path class="s" d="M118.92,7.83,118,7.49l12.7-9.75c.57,3.05.94,5,1.3,7L128.9,5.82Z"/><path class="t" d="M131.91,121.55h-2.73c-.67-.92-1.29-2.6-2-2.66-3.73-.26-7.49-.1-11.24-.09l.11-.19,4.16-3-1.27-1,7.18-.65,4.93,1.67-8.77,1.32,9.63,1.78Z"/><path class="u" d="M131.91,121.55l0-2.86,5.31-1.13,3.8-.94,2.93-1.12,6.15,2.11-9.06,3Z"/><path class="v" d="M115.91,118.79c3.75,0,7.51-.17,11.24.09.74.06,1.36,1.74,2,2.66L114,122.64C114.64,121.36,115.27,120.07,115.91,118.79Z"/><path class="w" d="M176.15,41.76c1.32,1,2.61,2.12,4,3.12,2.24,1.66,4.52,3.27,6.79,4.91a4.52,4.52,0,0,1,.3.82c0,.12-.11.27-.17.41-1.22-.17-2.73,0-3.6-.59-3.7-2.75-7.47-2.53-11.42-.81l-1.92-2.06C174,47.59,175.65,45.28,176.15,41.76Z"/><path class="x" d="M97,118.65c.05.69.14,1.38.13,2.07,0,1-.09,1.94-.14,2.91-4-.33-8-.61-12-1.08-.41,0-.66-1.31-1-2a82.78,82.78,0,0,1,8.94-3C94.12,117.3,95.62,118.25,97,118.65Z"/><path class="y" d="M43.62,70.4l6.64-1.19c-.09,1-.2,2.22-.31,3.43-.82,0-2.16-.23-2.39.15C44.93,77.26,40.72,75.5,37,75.64Z"/><path class="z" d="M85.79,41.84q-.93-2.21-1.85-4.41l2.76-1.79,9.66-4.42c-.07.37-.29,1.49-.5,2.62l-1.68,1.73L88,41.63Z"/><path class="aa" d="M30,85.66l-4-2.93,6.71-4.25C34.89,82,34.4,84.59,30,85.66Z"/><path class="ab" d="M196.09,61.64l-2.09,1-5.53-10C193.36,53.63,195.84,56.7,196.09,61.64Z"/><path class="ac" d="M158,7.64c-1,.58-1.89,1.17-2.83,1.76l-10-5.65Z"/><path class="ad" d="M205.11,74.77l2.9-2.26c.62-.66,1.24-1.32,1.87-2l1.25,3.27L206,78.53l-.89-1.84Z"/><path class="ae" d="M321,109.64l-10,5-7,1-3-2c.68-.66,1.58-2,2-1.88,5.7,1.76,9.51-2.61,14.21-4C318.2,107.42,319.73,109,321,109.64Z"/><path class="ae" d="M333,104.64l-9,3c.81-2.39,1.62-4.79,2.67-7.87-7.28.65-13.14,4.54-19.44,7.34l1.21,1.81-7.44.69a12.38,12.38,0,0,0-.81-1.61c-4.32,1.5-8.63,3-12.88,4.73-.3.12-.22,1.23-.31,1.87l-7-1c.62-.94,1.24-1.88,2-3h-4L271.74,109l.08-.71h19v-.65H279.6l11.44-7,7-3,11-3h2l1,2c-2.14,1-4.29,2-7.61,3.59,6.61-.82,11.88-1.44,17.13-2.19.55-.08,1-.91,1.47-1.4l7.17-3,1.6.14C327.19,98.67,326.48,102.56,333,104.64Z"/><path class="af" d="M245,118.61l-10,1c-1.49-.44-3-1.23-4.49-1.24-4.22,0-8.45.25-12.67.41l6.82-2.81L218,113.65c4.71.65,8-1.8,11-5l3.9-.07,3.18,2.45,5.9-1.41h7.23l-10.22,6,7.07,1.73Z"/><path class="ag" d="M301,109.64l7.44-.69-1.21-1.81c6.3-2.8,12.16-6.69,19.44-7.34-1.05,3.08-1.86,5.48-2.67,7.87l-3,2c-1.27-.69-2.8-2.22-3.77-1.92-4.7,1.43-8.51,5.8-14.21,4-.44-.14-1.34,1.22-2,1.88l-8,0Z"/><path class="ah" d="M245,118.61l1.09-1.27L239,115.61l15-3.8,5.86-1.22c3.36.34,6.72.91,10.08,1a61.67,61.67,0,0,0,8-.88h4c-.73,1.09-1.35,2-2,3-6.5-.09-13-.28-19.5-.23-3.45,0-6.56.9-6.6,5.21Z"/><path class="ai" d="M198,120.64l-6.05,4-3.95,1c-.28-1-.56-1.91-.87-2.94l3.86-2,10-3C200,118.67,199,119.65,198,120.64Z"/><path class="af" d="M301,109.64l-8,4-6,1c.09-.64,0-1.75.31-1.87,4.25-1.68,8.56-3.23,12.88-4.73A12.38,12.38,0,0,1,301,109.64Z"/><path class="aj" d="M101.21,118.47l-1.26-.84c-.28-.56-.5-1.58-.84-1.61-5.79-.66-11.59-1.17-17.39-1.75A5.47,5.47,0,0,1,78,112.66h6.72v-.94H62.62l-.33-1.18,4.74-2.4-.22-.86c-3.27.63-6.54,1.3-9.83,1.82-.23,0-.63-.95-.95-1.46l4-3.08,5.9,1.06,11,0,6.07-.23a61.79,61.79,0,0,0,6,4,44.08,44.08,0,0,0,6,2.15C97.37,113.6,102,113.64,101.21,118.47Z"/><path class="ak" d="M53.05,102.62c-2.11-.34-4.21-.79-6.33-1-1.66-.13-4.34-2.78-4.53,1.54l-8.58-2,.24-1.18L36,99.23l-.16-1.31-21.94,2.55,12.08-3.73,8.18-3.18c3.11.79,6.32,2.76,9-.82a1.59,1.59,0,0,0,.9-.18c1.71,1.33,3.34,2.79,5.17,3.94A35.62,35.62,0,0,0,54,98.63l-2.74.69,4.66,1.53Z"/><path class="al" d="M43.15,92.74c-2.71,3.58-5.92,1.61-9,.82L28,91.68l-4-1.21c.79-.67,1.48-1.67,2.38-1.94a13.14,13.14,0,0,1,3.66,0l4.11,2.19Z"/><path class="am" d="M28,91.68l6.16,1.88-8.18,3.18c-2.69-1.15-6.56.34-8-3.48Z"/><path class="an" d="M60.06,104.56l-4,3.08-7.55.7,3.43-3.71Z"/><path class="ao" d="M60.06,104.56l-8.15.07,1.14-2,2.84-1.77,5.19,1.92L66,105.62Z"/><path class="ap" d="M254,111.81l-15,3.8,10.22-6H242l11-4.82,11-4.12c4.07-1.76,8.17-3.44,12.18-5.33.86-.4,1.37-1.52,2.05-2.32-3.67-2.09,1-2.18.83-3.43,6.8-2.28,13.45-1.17,20.05.94L298,92.64l-7.46,2.86.2,1.26,7.3.89-7,3-6.1,0c.24-3-1.1-3.34-3.57-2.3-4.42,1.85-8.91,3.55-13.37,5.32l-2.89,2-13.78,4.23Z"/><path class="aq" d="M279,89.62c.15,1.25-4.5,1.34-.83,3.43-.68.8-1.19,1.92-2.05,2.32-4,1.89-8.11,3.57-12.18,5.33L260,98.57a19,19,0,0,1-3.4-.33,27.13,27.13,0,0,1-3.58-1.5c1.44-.82,2.92-1.6,4.28-2.56.07-.05-.84-1.5-1.28-2.3l-.12-.41L259,88.6c2-.1,3.95-.13,5.91-.31,1.74-.16,3.46-.49,5.19-.75Z"/><path class="ar" d="M270.08,87.54c-1.73.26-3.45.59-5.19.75-2,.18-3.94.21-5.91.31l7.26-2.8H248.1c0-.38,0-.77,0-1.15H274Z"/><path class="as" d="M298,92.64l1.07-2.08c2.72-.32,5.48-.45,8.15-1,5.13-1.06,5.11,1.45,3.77,5.07h-2c-1.08-.66-2.12-1.76-3.26-1.89A69,69,0,0,0,298,92.64Z"/><path class="at" d="M323,96.65c-.49.49-.92,1.32-1.47,1.4-5.25.75-10.52,1.37-17.13,2.19,3.32-1.56,5.47-2.57,7.61-3.59Z"/><path class="au" d="M224.18,84.36c-.27-.67-.54-1.35-.8-2,1-.46,2.1-1.42,3-1.28a102.41,102.41,0,0,1,13.89,3.1l-3.86.69,1.08,1.46,5.5.38-2,3-3.84-.18c-1.2-1.09-2.83-2-3.52-3.3-1.74-3.37-2.59-.6-3.75.32l-1.08,0-3.52-1Z"/><path class="av" d="M241,89.73l2-3c4.18,0,8.61-.61,10.11,4.89l-3.15.89-1.72,1c-1.61-.77-3.24-1.51-4.83-2.31C242.58,90.76,241.79,90.22,241,89.73Z"/><path class="aw" d="M250,92.46l3.15-.89,2.81-.1.12.41Z"/><path class="ax" d="M136,23.65l13.24,6.12,9.11-6.59,6.34,14.39-1.2.5,3,1.6,1.76,3.49-2.16,3.43c-1.72-.32-3.57-1.22-5.11-.85-5.31,1.29-8.34-.56-10.25-5.66-.83-2.22-3.12-4.1-5.13-5.62-2.28-1.71-5.13-2.63-7.46-4.29-1.63-1.16-2.78-3-4.15-4.51,0-.33,0-.66,0-1Z"/><path class="ay" d="M136,23.65l-2,1c-1.87.57-3.79,1.74-5.62,1.62-6.08-.41-6.51,3.14-5.61,8.24L120,32.64a36,36,0,0,1-4.8-2.08,21.43,21.43,0,0,1-3.23-3l1.08-5,1-1,1.47,3.12,6.63-5.61c-.35-5.2-.14-5.43,6-5.49l4-.06,11.91,1,7.08,3.53Z"/><path class="az" d="M166.12,46.59l2.16-3.43-1.76-3.49,7.39-.14,2.24,2.23c-.5,3.52-2.16,5.83-6.06,5.8C169.65,43.59,167.33,47.35,166.12,46.59Z"/><path class="ba" d="M144,14.57l-11.91-1q2-1.93,3.95-3.88c3.57.65,8.58-2.41,9.93,3.89Z"/><path class="bb" d="M191,71.64q-.5,6-1,12c-2.74.52-5.52.88-8.21,1.59-4.06,1.07-8.4,4-12,3.18-4.5-1-6.9-.45-8.32,2.7a58.7,58.7,0,0,0-6.13-4.24,40.88,40.88,0,0,0-7.75-3.11,47.44,47.44,0,0,0-10.51-2.16c-3.16-.15-5.35-.24-7.31-3.52-3.88-6.51-11.16-7-17.78-8.43l-2-1,9-8-3.07,6c2.95,0,6.25-1,7.76.18,5.72,4.57,6.58-1,9.25-2.87l-.15-1.54L119,59.65c1.45-4.3,6.41-7.72,3.29-13.16l1.71-.85a42.81,42.81,0,0,1,.73,6.23c-.08,3.06,4.43,9,7.12,8.57,3.5-.49,7.32-.66,10.34-2.23,3.71-1.94,5.6-.18,7.83,1.94l-.14.2.12.23-12.79,5.6.26,1.53h12.66l7,3c1,.3,2.21,1.12,2.84.79,2-1,3.58-2.76,5.56-3.76,1.54-.78,3.7-1.57,5.1-1.06s2.06,2.67,3.72,5.08c-.22-3.21-1.42-6.46-.28-8,1.33-1.83,4.68-2.18,7.16-3.15a3.76,3.76,0,0,1,.87-.14Zm-6.62,3.91a80.09,80.09,0,0,0-8.26,1.68,3.68,3.68,0,0,0-1.92,2.43c-.16.71.71,2.37,1.12,2.37,2.47,0,5.15.08,7.32-.88C183.66,80.7,183.69,78,184.38,75.55Z"/><path class="bc" d="M187,90.62l13,2.86L193,87.77l6.43-5.2-2.75-2.94h5.81l1.52,4c2.47,1.33,4.86,3.57,7.44,3.8,4.45.41,9-.42,13.55-.73-1.17,5.81-6.06,3.24-9.45,4.57l5.52.62c-2.56,1.63-5.9,4-8,3.16-6.79-2.72-11.19,3.8-17.13,3.42-4.47.75-9,1.43-13.4,2.26-1.43.27-3.81.66-4,1.44-1.07,4.3-4.81,2.37-7.18,3.49l-3.6,1.72-4.6.95a6.54,6.54,0,0,0-2.15-.27c-7.68,1.81-15.35,3.69-23,5.55l-8.77-1.07-2.15-1.17,18.75-1.14,0-.77L122,107.6c-2.23-1.58-2.52-3.28-.34-5.16,1.48-1.29,2.92-2.61,4.38-3.92,3.17-3.19,9-2.12,11.14-6.92l18.06,2.54-7.85,1.11A22.82,22.82,0,0,0,167,98.15c4.4-1.22,9-1.71,13.33-3.15C182.79,94.19,184.79,92.12,187,90.62Zm14.85-9.46c-.11-.11-.2-.31-.31-.31s-.22.17-.34.27c.1.12.2.31.3.32S201.71,81.26,201.83,81.16Z"/><path class="bd" d="M191,71.64l-8.91-11.22a3.76,3.76,0,0,0-.87.14c-2.48,1-5.83,1.32-7.16,3.15-1.14,1.55.06,4.8.28,8-1.66-2.41-2.38-4.58-3.72-5.08s-3.56.28-5.1,1.06c-2,1-3.59,2.72-5.56,3.76-.63.33-1.88-.49-2.84-.79l2.79-6c6.72.49,3.39-6.83,7-8.39a45.2,45.2,0,0,0-4.48-2,8.27,8.27,0,0,0-2.53,0l-7,4.24c.22-3.36-.88-5.58-4.52-6.47-1.31-.32-3.09-2-3.25-3.18-.56-4.22-3.74-5.31-6.83-6s-6.44-.32-9.62-.74c-3-.38-4.31.87-4.74,3.58l-1.71.85c3.12,5.44-1.84,8.86-3.29,13.16v1l-9,8a53.33,53.33,0,0,1-3.92,4.16c-.19.18-1.36-.74-2.07-1.15L109,66.93l-.87-.91-7.27,5.23c1.06-10.4,10.26-10.58,16-14.84l-2.12-2.6c4.06-2.83.2-5.84,0-8.78l2.92,2.66c.68-2.12,1-4.43,2.12-6.31a68.46,68.46,0,0,1,7.14-10.54c1.88-2.16,4.73-3.48,7.15-5.18,1.37,1.53,2.52,3.35,4.15,4.51,2.33,1.66,5.18,2.58,7.46,4.29,2,1.52,4.3,3.4,5.13,5.62,1.91,5.1,4.94,7,10.25,5.66,1.54-.37,3.39.53,5.11.85,1.21.76,3.53-3,4,1L172,49.62c.77,2.16,1,4.81,2.47,6.31,1.06,1.1,3.68.7,6.63,1.1l7.9,5.6c-1,4.48,1.9,7.93,6,7l6.67,5.22c-2.91,4.83-5,.77-7.12-.22C193.2,74,192.17,72.67,191,71.64Z"/><path class="bd" d="M187,90.62c-2.19,1.5-4.19,3.57-6.62,4.38-4.31,1.44-8.93,1.93-13.33,3.15a22.82,22.82,0,0,1-19.63-2.9l7.85-1.11L137.18,91.6l-3.18-2c-2-1.88-3.19-4.57-7.18-2.45-2.25,1.2-5.9.12-8.82-.44-2.5-.47-4.86-1.66-7.28-2.54-6.14-4.75-1.85-9.08,1.13-13.56a2.67,2.67,0,0,0,.15-1c6.62,1.4,13.9,1.92,17.78,8.43,2,3.28,4.15,3.37,7.31,3.52a47.44,47.44,0,0,1,10.51,2.16,40.88,40.88,0,0,1,7.75,3.11,58.7,58.7,0,0,1,6.13,4.24c1.42-3.15,3.82-3.67,8.32-2.7,3.59.78,7.93-2.11,12-3.18,2.69-.71,5.47-1.07,8.21-1.59a23.66,23.66,0,0,1-1,4.07A15,15,0,0,1,187,90.62Z"/><path class="bb" d="M195,69.64c-4.09.92-7-2.53-6-7C193.52,62.82,192.41,67.81,195,69.64Z"/><path class="be" d="M204,83.65c-.51-1.34-1-2.68-1.51-4L203,78.1l1.37,1.56c.24.59.47,1.19.71,1.78Z"/><path class="be" d="M205.06,76.69l.89,1.84-2.22-.88Z"/><path class="bf" d="M50.94,73.47l6-3.84,3,2c-.27,1.51-.53,3-.9,5.14l4-1.27,2,5.2A8.81,8.81,0,0,0,62.44,82a9.43,9.43,0,0,0-1.39,2.7l-10.92-6Z"/><path class="bg" d="M50.13,78.65l10.92,6-2.19,4L54,89.77l-6-6.12,0-3Z"/><path class="bh" d="M48,80.69c0,1,0,2,0,3l0,0-1.94,1c-2.35,1.43-4.29,3-2.11,6a2,2,0,0,1,.29.94,1.65,1.65,0,0,0-.2,1,1.59,1.59,0,0,1-.9.18l-9.06-2.07c1.41-1.2,2.74-3.29,4.23-3.41,4.57-.39,4-2.25,1.15-6.05Z"/><path class="bi" d="M201,117.69l-10,3c-5.62-4.79-11.28.92-16.92-.09l-.06-2,10.06-4,12-1.91,6.17,1.14c-.38,1.25-.77,2.5-1.15,3.74Z"/><path class="bj" d="M184.07,114.59l-10.06,4c-2.4.07-4.8.18-7.2.21-2.95,0-5.89,0-8.67,0,0,0,.42-.56.85-1.11,2.77-1.18,5.59-2.27,8.29-3.6a14.18,14.18,0,0,0,2.77-2.41l13.94.89C184,113.25,184,113.92,184.07,114.59Z"/><path class="bk" d="M170.05,111.69a14.18,14.18,0,0,1-2.77,2.41c-2.7,1.33-5.52,2.42-8.29,3.6l-8.92-.09-6.15-2.11,24-3.94Z"/><path class="bl" d="M136,9.71q-2,1.95-3.95,3.88l-4,.06c-6.12.06-6.33.29-6,5.49l-6.63,5.61L114,21.63,114,13.56l1-.92c2.33,1.78,4.61,2.07,6.83-.19,1.18-1.21,2.21-3,3.64-3.45,3-.87,6.18-1,9.3-1.42Z"/><path class="bm" d="M134.77,7.58c-3.12.43-6.32.55-9.3,1.42-1.43.42-2.46,2.24-3.64,3.45-2.22,2.26-4.5,2-6.83.19,1.64-1.08,3.28-2.14,4.87-3.29,0,0-.62-1-1-1.52l10-2Z"/><path class="bn" d="M71.25,53.75l1.59-6L74,49.67,74,49.61l4,2,3.17,3.06,2,4.63L85,55.65l5.12.08c-.56,1.51-1.1,4.31-1.68,4.32-5.4.09-4.28,5.21-6.36,7.76H77.89l0-.73-3.76-.39c-.68-2.31,2.88-4.72-.18-7Z"/><path class="bo" d="M73.91,59.72c3.06,2.25-.5,4.66.18,7-.72,2.63-1.43,5.27-2.14,7.9l-2.36.35c-.45-6.18-4.53-3.76-7.78-3.28,2.22-2.46,4.44-4.92,7.5-8.29l-8.43,1.37L59,62.6c2.08-2.91,4.1-5.87,6.34-8.66.26-.32,1.73.33,2.64.52-.61.75-1.53,1.4-1.78,2.25-.43,1.49-1.08,4.14-.55,4.45a8.85,8.85,0,0,0,5.27.9C72,61.93,72.9,60.54,73.91,59.72Z"/><path class="bp" d="M73.91,59.72c-1,.82-2,2.21-3,2.34a8.85,8.85,0,0,1-5.27-.9c-.53-.31.12-3,.55-4.45.25-.85,1.17-1.5,1.78-2.25l1.87-.72,1.1-.15.35.16Z"/><path class="bq" d="M78,51.6l-4-2L75,48.94l-1,.73-1.17-1.89,1.14-.1,6.06-3a3.87,3.87,0,0,1-.17.9L78,46.71c.31,1,.63,2.06.94,3.09Z"/><path class="br" d="M70.9,53.59l-1.1.15Z"/><path class="bs" d="M204,83.65l1.05-2.21a3.56,3.56,0,0,1,0-.92c5.74,4.39,12.48,3.82,19.1,3.84l1.09,1.16c-.09.4-.19.8-.28,1.2-4.53.31-9.1,1.14-13.55.73C208.86,87.22,206.47,85,204,83.65Z"/><path class="bt" d="M205.08,80.52a3.56,3.56,0,0,0,0,.92c-.24-.59-.47-1.19-.71-1.78C204.59,80,204.83,80.24,205.08,80.52Z"/><path class="bu" d="M113,22.61l-1.08,5c-4.1-2.71-5.84.6-7.9,3.09.12,1.76.24,3.52.39,5.81l-2.94-2.56c-.52,2.29-1,4.6-1.68,7.45l-2.56-4.32L95,39.69l-1.11-3.07.25-1,1.68-1.73c2.73-3,5.47-6,8.2-8.94l2-1.16c.83.22,1.74.78,2.47.61A35.19,35.19,0,0,0,113,22.61Z"/><path class="bv" d="M106,23.74l-2,1.16c-.35-1.41-.7-2.84-1.06-4.26a63.46,63.46,0,0,1,4.87-4.3,19.78,19.78,0,0,1,4-1.78Q108.95,19.15,106,23.74Z"/><path class="bw" d="M101.21,118.47c.74-4.83-3.84-4.87-6.22-6.89,0-.74,0-1.48,0-2.22l8.14,2.17c1.3,1.72,2.61,3.43,3.91,5.14,0,.31,0,.61-.07.92Z"/><path class="bx" d="M107,117.59c0-.31.06-.61.07-.92l11.89-2.1,1.27,1-4.16,3-5.7,1.3Z"/><path class="by" d="M60.88,64.74l8.43-1.37c-3.06,3.37-5.28,5.83-7.5,8.29l-1.8,0-3-2Z"/><path class="bz" d="M106,23.74q2.91-4.59,5.8-9.18l2.12-1,.06,8.07-1,1a35.19,35.19,0,0,1-4.53,1.74C107.78,24.52,106.87,24,106,23.74Z"/><path class="ca" d="M85.79,41.84,88,41.63c0,1.06,0,2.12-.08,3.18-3-1.35-4,0-3.91,2.85l-.93-.08-1.07-1h0l0-3.07Z"/><path class="cb" d="M82,43.55c0,1,0,2.05,0,3.07l-2,0-.12-.11a5.92,5.92,0,0,0,0-.94,3.42,3.42,0,0,0,.18-.9Z"/><path class="cc" d="M118.91,114.57,107,116.67c-1.3-1.71-2.61-3.42-3.91-5.14l8.23-.93,1.88.24L126,113.5l.11.42Z"/><path class="cd" d="M129.23,112.56l8.77,1.07,3,3-3.8.94-6.17-2-4.93-1.67-.11-.42Z"/><path class="ce" d="M131,115.59l6.17,2-5.31,1.13-9.63-1.78Z"/><path class="cf" d="M141,116.62l-3-3c7.67-1.86,15.34-3.74,23-5.55a6.54,6.54,0,0,1,2.15.27l4.72,3.2-24,4Z"/><path class="j" d="M87.92,44.81c0-1.06,0-2.12.08-3.18l6.18-6.06c-.08.35-.16.7-.25,1-3.35,2.12-5.42,4.51-1.7,8.11l.58,2.46-3.1-1.29c-2.11,5.63,3.15,2.27,4.2,3.93-1,.59-1.94,1.57-3,1.68-2.61.28-5.27.16-7.91.2L82,51.77l2-2.15Q86,47.22,87.92,44.81Z"/><path class="af" d="M265.11,105.64l2.89-2a44.54,44.54,0,0,0,4.91-.43c4-.79,8-1.72,12-2.59l6.1,0-11.44,7h11.18v.65h-19l-.08.71,6.21,1.64a61.67,61.67,0,0,1-8,.88c-3.36,0-6.72-.61-10.08-1l-1.58-1.22Z"/><path class="cg" d="M298,92.64a69,69,0,0,1,7.75.1c1.14.13,2.18,1.23,3.26,1.89l-11,3-7.3-.89-.2-1.26Z"/><path class="ch" d="M253.05,96.74a27.13,27.13,0,0,0,3.58,1.5,19,19,0,0,0,3.4.33l-8.51,2h9.3l-7.83,4.3-11,4.82-5.9,1.41-3.18-2.45a20.82,20.82,0,0,1-3.43-1.43c-2.22-1.41-1.19-2.51.52-3.43,2.53-.5,5.26-.58,7.52-1.64,1.9-.89,3.25-2.93,4.85-4.45l1.62,0Z"/><path class="ci" d="M229,108.67c-3,3.18-6.29,5.63-11,5h-10c-3.56-3.42-7.92-2-12.05-2l-1-1.44a24.26,24.26,0,0,1,3.83-1.06c2.08-.24,4.2-.22,6.3-.3l2.82-.36,7,.22Z"/><path class="cj" d="M208.05,113.64h10l6.66,2.33-6.82,2.81L211,120.61c-.62-.63-1.32-1.87-1.86-1.8-3.74.46-7.45,1.18-11.16,1.83,1-1,2-2,2.95-3l.09-.13Z"/><path class="ck" d="M229,108.67l-14,0,6.45-2.64L217,104.6c.62-.63,1.18-1.74,1.86-1.82,4.15-.46,8.32-.68,12.63-1L230,103.74c-1.71.92-2.74,2-.52,3.43a20.82,20.82,0,0,0,3.43,1.43Z"/><path class="cl" d="M265.11,105.64l-6.79,3.73,1.58,1.22L254,111.81l-2.71-1.94Z"/><path class="cm" d="M61.08,102.77l-5.19-1.92-4.66-1.53L54,98.63h1l12.39,0L79,102.74l4,2.69-6.07.23C75,102.54,65.92,100.89,61.08,102.77Z"/><path class="cn" d="M83,105.43l-4-2.69c0-.66,0-1.32,0-2l10.27,4.68L95,107.87c0,.5,0,1,0,1.49l0,2.22a44.08,44.08,0,0,1-6-2.15A61.79,61.79,0,0,1,83,105.43Z"/><path class="co" d="M61.08,102.77c4.84-1.88,13.93-.23,15.88,2.89l-11,0Z"/><path class="cp" d="M55,98.64H54a35.62,35.62,0,0,1-4.75-2.13c-1.83-1.15-3.46-2.61-5.17-3.94a1.65,1.65,0,0,1,.2-1l2.2-.17,3.37,1.34,4.24,2.77Z"/><path class="cq" d="M284.94,100.62c-4,.87-8,1.8-12,2.59a44.54,44.54,0,0,1-4.91.43c4.46-1.77,8.95-3.47,13.37-5.32C283.84,97.28,285.18,97.63,284.94,100.62Z"/><path class="cr" d="M253,104.82l7.83-4.3h-9.3l8.51-2L264,100.7Z"/><path class="cs" d="M253.05,96.74l-9.06.94,4.26-4.19,1.72-1,6.08-.58c.44.8,1.35,2.25,1.28,2.3C256,95.14,254.49,95.92,253.05,96.74Z"/><path class="ct" d="M225,86.72c.09-.4.19-.8.28-1.2l3.52,1,2.28,6.29-5.13,2.26,3,1.3c-6.92.5-13.77,2.21-20.78,1.41L196,98.49c5.94.38,10.34-6.14,17.13-3.42,2.07.83,5.41-1.53,8-3.16l-5.52-.62C218.93,90,223.82,92.53,225,86.72Z"/><path class="cu" d="M248.25,93.49,244,97.68l-1.62,0-4.71-1c-.17-2.38-.35-4.75-.52-7.12l3.84.18c.81.49,1.6,1,2.44,1.45C245,92,246.64,92.72,248.25,93.49Z"/><path class="cv" d="M228.9,96.4l-3-1.3,5.13-2.26-2.28-6.29,1.08,0c.25.58.44,1.64.73,1.67,5.92.6,5.07,4.42,4.07,8.34Z"/><path class="cw" d="M234.66,96.58c1-3.92,1.86-7.74-4.06-8.34-.29,0-.48-1.09-.73-1.67,1.16-.92,2-3.69,3.75-.32.69,1.35,2.32,2.21,3.52,3.3.17,2.37.35,4.74.51,7.12Z"/><path class="cx" d="M134,25.66c-2.42,1.7-5.27,3-7.15,5.18a68.46,68.46,0,0,0-7.14,10.54c-1.09,1.88-1.44,4.19-2.12,6.31L114.69,45c.23,2.94,4.09,5.95,0,8.78l2.12,2.6c-5.76,4.26-15,4.44-16,14.84L108.09,66l.87.91L104,71.65l-4,4a10.73,10.73,0,0,0-2.26-1.3,31.2,31.2,0,0,0-3.74-.7c2.2-2.17,3-4.54,1.65-7.57-1.18-2.73-1.49-5.42,2.36-6.43l14.71-3.41c-3.54-2.29-6.87-4.25-10.65-1.65l1-6.89,4-3,2-2c3,1.48,6.16,1.85,7.86-1.31,1.37-2.54,1.48-5.76,2.15-8.67l1,0,2.79,1.89c-.9-5.1-.47-8.65,5.61-8.24,1.83.12,3.75-1.05,5.62-1.62C134,25,134,25.33,134,25.66Z"/><path class="cy" d="M120,32.64l-1,0c-1.17,0-2.74.57-3.46,0-2.68-2.08-4.62-1-6.56,1l-4.94-3c2.06-2.49,3.8-5.8,7.9-3.09a21.43,21.43,0,0,0,3.23,3A36,36,0,0,0,120,32.64Z"/><path class="cz" d="M100,75.64l4-4c.71.41,1.88,1.33,2.07,1.15A53.33,53.33,0,0,0,110,68.64l2,1a2.67,2.67,0,0,1-.15,1c-3,4.48-7.27,8.81-1.13,13.56,2.42.88,4.78,2.07,7.28,2.54,2.92.56,6.57,1.64,8.82.44,4-2.12,5.19.57,7.18,2.45l-15.36,3c-4,4.06-15.09,2.73-21.56-2.6l-3.74,2.76c-2-8,8.06-8.43,8.09-14.69h-3l-.76-1Z"/><path class="da" d="M124,45.64c.43-2.71,1.79-4,4.74-3.58,3.18.42,6.52,0,9.62.74s6.27,1.8,6.83,6c.16,1.22,1.94,2.86,3.25,3.18,3.64.89,4.74,3.11,4.52,6.47L150,60.15c-2.23-2.12-4.12-3.88-7.83-1.94-3,1.57-6.84,1.74-10.34,2.23-2.69.38-7.2-5.51-7.12-8.57A42.81,42.81,0,0,0,124,45.64Z"/><path class="db" d="M150,60.15,153,58.47l7-4.23c-.62,2.36-1.25,4.71-1.87,7.07L156.72,61l3.19,3.6-2.79,6-7-3c0-2.38-.09-4.75-.13-7.13l-.12-.23Z"/><path class="da" d="M119,60.64v-1l13.79,2.77.15,1.54c-2.67,1.85-3.53,7.44-9.25,2.87-1.51-1.2-4.81-.18-7.76-.18Z"/><path class="dc" d="M184.38,75.55c-.69,2.44-.72,5.15-1.74,5.6-2.17,1-4.85.85-7.32.88-.41,0-1.28-1.66-1.12-2.37a3.68,3.68,0,0,1,1.92-2.43A80.09,80.09,0,0,1,184.38,75.55Z"/><path class="dd" d="M150,60.58c0,2.38.08,4.75.13,7.13H137.47l-.26-1.53Z"/><path class="de" d="M95,107.87l-5.77-2.43C89.94,103,91.28,102.2,94,103c1.48.47,3.32-.21,5-.37,3.48.48,7,1.14,10.46,1.33,1.48.08,3-.84,4.54-1.3,3-1.53,6-3.16,9.11-4.5.8-.35,2,.2,3,.33-1.46,1.31-2.9,2.63-4.38,3.92-2.18,1.88-1.89,3.58.34,5.16,0,.7,0,1.4,0,2.1l-8.8,1.14-1.88-.24c-.6-.66-1.1-1.76-1.81-1.92-3.74-.84-7.52-1.57-11.32-2C97.2,106.51,96.06,107.43,95,107.87Z"/><path class="df" d="M196,98.49l12.16-.68c-.07.88-.13,1.77-.2,2.66L199,102.61h-4l0,.63,3,1.24-7.95,2.27L179,105.48c.92,1.45,1.48,2.32,2,3.19l-6-1H171l-3.24-.28,3.6-1.72c2.37-1.12,6.11.81,7.18-3.49.2-.78,2.58-1.17,4-1.44C187,99.92,191.49,99.24,196,98.49Z"/><path class="dg" d="M126.05,98.52c-1-.13-2.19-.68-3-.33-3.1,1.34-6.08,3-9.11,4.5l6.39-7.24-1.71-2.84,15.37-3,3.18,2C135,96.4,129.22,95.33,126.05,98.52Z"/><path class="dh" d="M175.06,107.69l6,1,3,3a6.65,6.65,0,0,0-.06.89l-13.94-.89-2.16-.13-4.72-3.21,4.6-.95,3.24.28Z"/><path class="di" d="M122,109.7c0-.7,0-1.4,0-2.1l23.87,1.88,0,.77-18.75,1.14Z"/><path class="dj" d="M122,109.7l5.06,1.69,2.15,1.17-3.25.94-12.76-2.66Z"/><path class="be" d="M201.83,81.16c-.12.1-.24.29-.35.28s-.2-.2-.3-.32c.12-.1.24-.28.34-.27S201.72,81.05,201.83,81.16Z"/><path class="dk" d="M159.91,64.62,156.72,61l1.35.29c.62-2.36,1.25-4.71,1.87-7.07a8,8,0,0,1,2.53,0,45.2,45.2,0,0,1,4.48,2C163.3,57.79,166.63,65.11,159.91,64.62Z"/><path class="dl" d="M72,74.59c.71-2.63,1.42-5.27,2.14-7.9l3.76.39,0,.73h4.22c-.13.76-.26,1.52-.38,2.28-1.44.66-3.81,1-4.18,2-2.17,6.17-5.92,12.36-1.68,19l5.75-1.69c-1.52,3-2.56,5.12-3.61,7.22-3.16-3.18-7.09-3.1-11.12-2.69a2.91,2.91,0,0,1-1-.25l-3.88-.15-3.19-4.9,2.19-4A9.43,9.43,0,0,1,62.44,82a8.81,8.81,0,0,1,2.68-1.24l3.48-1.32-3,3.24,5.18,3.1L73,83.67Z"/><path class="dm" d="M72,74.59,73,83.67l-2.29,2.06-5.18-3.1,3-3.24-3.48,1.32-2-5.2-4,1.27c.37-2.11.63-3.63.9-5.14l1.8,0c3.25-.48,7.33-2.9,7.78,3.28Z"/><path class="dn" d="M58.86,88.68c1.06,1.63,2.13,3.26,3.19,4.9A14.19,14.19,0,0,1,59,95.08a37.81,37.81,0,0,1-4.9.47l-4.24-2.77L51,92.63l3-2,0-.88Z"/><path class="bh" d="M54,89.77l0,.88-3.89.07L47,88.6c-.29-1-.57-2-.86-3L48,83.63l0,0Z"/><path class="do" d="M46.1,85.55c.29,1,.57,2,.86,3l-1.83.93L44,90.67c-2.18-3-.24-4.6,2.11-6A3.47,3.47,0,0,0,46.1,85.55Z"/><path class="dp" d="M44,90.67l1.17-1.14,1.32,1.91-2.2.17A2,2,0,0,0,44,90.67Z"/><path class="dq" d="M46.1,85.55a3.47,3.47,0,0,1,0-.91l1.94-1Z"/><path class="dr" d="M184,112.58a6.65,6.65,0,0,1,.06-.89l6-2.75,9.89-2.36,5.22,2.26c-2.1.08-4.22.06-6.3.3A24.26,24.26,0,0,0,195,110.2l1,1.44,0,1-12,1.91C184,113.92,184,113.25,184,112.58Z"/><path class="ds" d="M196,112.68l0-1c4.13,0,8.49-1.42,12.05,2l-7,3.92c.38-1.24.77-2.49,1.15-3.74Z"/><path class="dt" d="M103,47.69l-1,6.89L98,56.64l-1.73,1-6.11-1.88L85,55.65l-2-3.94c2.64,0,5.3.08,7.91-.2,1-.11,2-1.09,3-1.68l3.7-5.09,1.06,3.69Z"/><path class="du" d="M90.15,55.73l6.11,1.88L81.73,70.1c.12-.77.25-1.53.38-2.29,2.08-2.55,1-7.67,6.36-7.76C89.05,60,89.59,57.24,90.15,55.73Z"/><path class="dv" d="M83,51.71l2,3.94-1.91,3.64c-.93-2.2-1.45-3.41-2-4.63,0-.65.11-1.3.16-2l.65-.93Z"/><path class="dw" d="M81.31,52.7c0,.66-.11,1.31-.16,2L78,51.6l1-1.8,1-3.14,2,0h0c0,.33,0,.67,0,1h0c-.32.68-.63,1.35-.94,2C81.12,50.67,81.22,51.69,81.31,52.7Z"/><path class="cb" d="M80,46.66,79,49.8c-.31-1-.63-2.06-.94-3.09l1.87-.16Z"/><path class="dx" d="M79.9,46.55,78,46.71l1.84-1.1A7.38,7.38,0,0,1,79.9,46.55Z"/><path class="bn" d="M74,49.67l1-.73L74,49.61Z"/><path class="dy" d="M103,47.69l-4.36.74-1.06-3.69-3.7,5.09c-1-1.66-6.31,1.7-4.2-3.93l3.1,1.29c-.23-1-.41-1.71-.58-2.46q5.74-.09,2.81-5l2.23-2.63,2.56,4.32c.65-2.85,1.16-5.16,1.68-7.45l2.94,2.56c-.15-2.29-.27-4.05-.39-5.81l4.94,3-1,3L106.65,35c-.74,2.45-1.51,5-2.41,7.93l2.81,1.78Z"/><path class="dz" d="M95,39.69q2.94,5-2.81,5c-3.72-3.6-1.65-6,1.7-8.11Z"/><path class="ea" d="M95,107.87c1.07-.44,2.21-1.36,3.22-1.23,3.8.47,7.58,1.2,11.32,2,.71.16,1.21,1.26,1.81,1.92l-8.23.93L95,109.36C95,108.86,95,108.37,95,107.87Z"/><path class="eb" d="M87.92,44.81Q86,47.23,84,49.62v-1l0-1,0,0C84,44.86,84.94,43.46,87.92,44.81Z"/><path class="bn" d="M84,48.61v1l-2,2.15-.65.93c-.09-1-.19-2-.28-3.05.31-.68.62-1.35.94-2h0l1.11,0,.93.08,0,0C84,48,84,48.28,84,48.61Z"/><path class="cb" d="M83.08,47.58l-1.11,0c0-.33,0-.67,0-1Z"/><path class="cc" d="M207.92,100.47c.07-.89.13-1.78.2-2.66,7,.8,13.86-.91,20.78-1.41l5.77.18,3,.09,4.72,1c-1.6,1.52-3,3.56-4.85,4.45-2.26,1.06-5,1.14-7.52,1.64l1.46-1.95c-4.31.31-8.48.53-12.63,1-.68.08-1.24,1.19-1.86,1.82l-8.17-1.16,4.83-3.76Z"/><path class="ec" d="M208.8,103.44,217,104.6l4.46,1.46L215,108.7l-7-.22,3-2.49-4.71.54.77-2.74Z"/><path class="ck" d="M207.05,103.79l-.77,2.74L211,106l-3,2.49-2.82.36-5.22-2.26,4.05-2.09Z"/><path class="ed" d="M54.06,95.55a37.81,37.81,0,0,0,4.9-.47,14.19,14.19,0,0,0,3.09-1.5l3.88.15L67,96.43l.39,2.23L55,98.64C54.69,97.61,54.38,96.58,54.06,95.55Z"/><path class="ee" d="M67.39,98.66,67,96.43l12.07,4-.12.32c0,.66,0,1.32,0,2Z"/><path class="ef" d="M99,102.67c-1.68.15-3.52.83-5,.36-2.67-.83-4-.08-4.73,2.41L79,100.76l.12-.32,1-.92,8,.1L94,101.45Z"/><path class="eg" d="M46.45,91.44l-1.32-1.91L47,88.6l3.14,2.12c.3.64.61,1.27.91,1.91l-1.19.15Z"/><path class="eh" d="M94,101.45l-5.89-1.83c.13-.65.26-1.3.4-2l-4.11-.59c.54-1.55.92-2.66,1.3-3.76l-.91-.84L80,96.66H78c1-2.1,2.09-4.2,3.61-7.22l-5.75,1.69c-4.24-6.65-.49-12.84,1.68-19,.37-1,2.74-1.38,4.18-2L96.26,57.61l1.73-1c0,1,0,2,0,3-3.85,1-3.54,3.7-2.36,6.43,1.32,3,.55,5.4-1.65,7.57.4,1.56.79,3.12,1.26,5L85,88.29C86.38,91,87.59,95.57,89,95.64,93.49,95.85,93.52,98.55,94,101.45Z"/><path class="ei" d="M94,101.45c-.49-2.9-.52-5.6-5-5.81C87.59,95.57,86.38,91,85,88.29l10.31-9.63c-.47-1.9-.86-3.46-1.26-5a31.2,31.2,0,0,1,3.74.7,10.73,10.73,0,0,1,2.26,1.3l-2.37,1.49.76,1h3c0,6.26-10.07,6.65-8.09,14.69L97.08,90c6.47,5.33,17.52,6.66,21.56,2.6.55.93,1.11,1.86,1.7,2.84L114,102.69c-1.51.46-3.06,1.38-4.54,1.3-3.5-.19-7-.85-10.46-1.33Z"/><path class="ay" d="M108,36.66l1-3c1.94-1.93,3.88-3,6.56-1,.72.56,2.29,0,3.46,0-.67,2.91-.78,6.13-2.15,8.67-1.7,3.16-4.9,2.79-7.86,1.31l4.9-4.62C112.4,35.73,108.67,43.11,108,36.66Z"/><path class="ej" d="M98,59.64c0-1,0-2,0-3l4.08-2.06c3.78-2.6,7.11-.64,10.65,1.65Z"/><path class="cy" d="M108,36.66c.69,6.45,4.42-.93,5.93,1.37L109,42.65l-2,2-2.81-1.78c.9-3,1.67-5.48,2.41-7.93Z"/><path class="ek" d="M190,108.94l-6,2.75-3-3c-.56-.87-1.12-1.74-2-3.19l11.08,1.27C190.06,107.48,190,108.21,190,108.94Z"/><path class="el" d="M190,108.94c0-.73,0-1.46.05-2.19l7.95-2.27-3-1.24,0-.63h4l5,1.88-4.05,2.09Z"/><path class="em" d="M204,104.49l-5-1.88,8.94-2.14,5.71-.79-4.83,3.76-1.75.35Z"/><path class="ek" d="M175.06,107.69h0Z"/><path class="en" d="M78,96.67h2c0,1,.06,1.91.1,2.86l-1,.92L67,96.43l-1.07-2.7a2.91,2.91,0,0,0,1,.25C70.92,93.57,74.85,93.49,78,96.67Z"/><path class="eo" d="M51,92.63c-.3-.64-.61-1.27-.91-1.91L54,90.65Z"/><path class="cb" d="M82,47.62c-.32.68-.63,1.35-.94,2C81.34,49,81.65,48.3,82,47.62Z"/><path class="j" d="M84,48.61c0-.33,0-.66,0-1C84,48,84,48.28,84,48.61Z"/><path class="dl" d="M80.09,99.52c0-1-.07-1.9-.1-2.86l4.81-4.18.91.84c-.38,1.1-.76,2.21-1.3,3.76l4.11.59c-.14.65-.27,1.3-.4,2Z"/></svg>