<svg xmlns="http://www.w3.org/2000/svg" viewBox="0 0 1130.2 439.3">
  <defs>
    <style>
      .a{fill:#d3f8ce}.b{fill:#43423f}.c{fill:#484948}.d{fill:#51554b}.e{fill:#606a5f}.f{fill:#e1f6e1}.g{fill:#d5f3d3}.h{fill:#c0f0b3}.i{fill:#e6f7ea}.j{fill:#c5f1b9}.k{fill:#87a983}.l{fill:#444644}.m{fill:#cbf4c1}.n{fill:#7d887a}.o{fill:#3b4139}.p{fill:#a1aaa5}.q{fill:#b8c3bf}.r{fill:#c8d0d0}.s{fill:#b2e1a7}.t{fill:#b8f1a8}.u{fill:#c7a692}.v{fill:#8f7159}.w{fill:#a0d494}.x{fill:#afdfa4}.y{fill:#b4e1ae}.z{fill:#65c571}.aa{fill:#a8eb98}.ab{fill:#97df89}
    </style>
  </defs>
  <path class="a" d="m598 411-3 2-12-2-8-2c-4-2-9 2-12-3l-2 1-9-2c-2-1-4-2-6-1-3 2-4 1-5-3l6-1c4-2 8 6 12 0 4 6 7-1 10-1l5 6 1-8 3 4 4-5h-1l-1-10-4-2c1-4 9-7 2-12l20-1c3 0 4 0 3-4a16 16 0 0 1 0-3c-4 0-8 2-11 1a55 55 0 0 0-22-1c-6 1-7 1-4 7l-2 2a11 11 0 0 1-9-5h-2l-12-2h-3c-6-1-12-2-19-1-5 0-8-1-8-7a3 3 0 0 1 2 0c4 2 9 4 12-2 5 1 11 2 17 1a1 1 0 0 1 1 0c5 3 9 3 13-1h4c3 1 7 4 10 0h23c3 0 5-2 6 2h18c9 0 18 3 26-4h11c5 0 10 4 13-2 3 4 4 7 7 9 2 3 3 8 8 8v2a38 38 0 0 1-11-2c-5-1-11-3-15 2l-9 3c-6 0-13-2-19 1a25 25 0 0 0-3 1l3 3 8 1 3 4-4 2-12 1c-10-3-19 0-29 2 8 3 17 3 24 8l6 3h9c1 2-1 2-3 3l-11 3a9 9 0 0 1-6 2c-5-1-10-1-13 3Z"/>
  <path class="b" d="m385 231-1-23-2-4c-3-3-3-5 0-8l11-15 8-6 7 8 15 7 1 1c0 4 3 2 6 3l1 1 2 5 4 8-3-2c-2-4-4-9-9-10l-1 6h-1l-4-7c-1-5-1-5-6-4a51 51 0 0 0 1 5l3 5a25 25 0 0 1 1 3l2 6c1 3 11 4 13 3l7 3-2-4-1-5 4 1c-1-2 4-4 0-7l-3-28c0-6 1-7 6-9l15-6 9-6c0-2 4-2 7-2h2l8-1 1 2a24 24 0 0 0-4 2 10 10 0 0 0-2 2l3 2 1 6h-2c-2-3-5-3-8-2l3 16 9 1c4 3 4 1 4-2l1-2c2 0 3 1 5-1l10-2c4 0 8-1 10-4l4-3 3 2-2 1v5l-2 3c-3-2-3-2-7 1-5 0-8 3-11 6l-3 2-6 1c-3-1-6 0-7 2a14 14 0 0 0-1 7l3 7c-3 6-5 13-2 21l1-1c4-5 4-5 10-1 4 3 5 3 9-2a11 11 0 0 1 2-2l1 3c5 2 13-3 14-8v-3h1c1 1-1 6 3 4l3 3-5 4-8 3a18 18 0 0 0-4 2l-7 3v1h18v1l-28 1c-4-1-2 2-3 4h-20l-4-3-3-2 8-1h6c3 0 4-3 2-6 0-5 1-12-7-14l1-2 3-5v-8l-2-4-31-14h-4l4 18v2l1 23 1 1v10h16c-2 4-5 2-7 2-3 0-7-1-8 3l-7 1h-2c-5-4-10-2-15 0l-3-1a13 13 0 0 0-4 0l-9 1c-4 1-9 0-12-3 1-3 3-6 2-8a7 7 0 0 0-8-3l1 10 2 1-7 2a33 33 0 0 1-1-3Zm9-42c-3 2-4 4-3 7 0 2 2 4 4 3 4 0 7 0 8 4l3 1 7 3v-1c-3-4-2-11-10-10v-1l3-1c-4-10-7-11-12-5Zm69-13c1 4 8 8 13 8l-11-23-10 2c-3 2-7 2-8 7l10 2Zm-74 29a60 60 0 0 1 0 8c-1 3 1 5 4 6a112 112 0 0 1 14 5l5 5 4 3c2-8 0-14-6-17l-7-4c-4-2-8-6-14-6Zm48 26c5-2 3-5 3-8 0-2-2-4-4-5l-13-2c-3-1-4 1-4 3a45 45 0 0 0 1 8 26 26 0 0 0 2 5c2-1 4-1 5-3 5-5 8-4 10 2Z"/>
  <path class="c" d="M105 83c-1-1-3-2-1-5l-1-2c-2-3 0-6 3-8a8 8 0 0 0 2-1l14-12a41 41 0 0 1 4-3l1 1-2 2-7 8c-5 4-7 10-8 16 5 1 9 1 12-3l18-18 4-2c3 2 3 2 0 5-1 1-4 1-2 4l20 5 85 24 39 11c3 1 4 2 3 4a58 58 0 0 0-2 7l-10-3-37-11 1 17 3 10v6l-4 5-19 9-3-2 10-5a96 96 0 0 0 9-6c3-2 3-4 1-7l-1-18a21 21 0 0 0-2-8l-4-3-2 1v13l-6 11a35 35 0 0 0-4 2l-8 8a78 78 0 0 1-8 6l-22 13c-3-3-5-2-8 1l-4 7a45 45 0 0 0-3 5 17 17 0 0 0-1 4 13 13 0 0 0 4-1l13-5 1 2-1 2-3 4c-5 2-9 5-15 4h-1l-2-4c-2-9 0-14 7-19a59 59 0 0 1 7-4c3-2 4-4 3-8l-13-4-1-4 1-1 4 2c6 2 16-1 16-9v-2l1-4-3-10 6 2 2 9-5 17-1 6 7-2 5-3 7-4 3-2 8-6c11-8 10-18 7-29l4 5-1-6-16-5h-1a26 26 0 0 0-4-2c-8-2-16-4-25-2-1-5-5-3-8-3l-1-3-38-6-4 2-6 3c-5 4-11 3-17 2Zm85-1 13 4 1-1c-4-3-10-4-14-5l-49-11-4 1v1a35 35 0 0 0 4 2l28 6 21 3Z"/>
  <path class="d" d="M164 177c6 1 10-2 15-4v1l-1 3c-4 0-8 2-10 6l-9 18-17 35-1 2 16 18 19 22 1 2v2l-10 13-5 3-6 6c-4 0-5 3-6 5-2 0-3 0-3 3a72 72 0 0 1-7 1l-2-2v-3c-2-2-1-5 0-8l5-6 5-11a55 55 0 0 0-4-5l-11-12a50 50 0 0 0-3-6c-6-7-15-12-19-20l-2-1a15 15 0 0 0-19 2 53 53 0 0 1-6 5h-3l2-4 5-5-1-2-9 2-8-2a4 4 0 0 0-3 1l-11 12-5 4-1-3 10-13 1-2c-4-3-1-6-1-10l6-3 1-2a8 8 0 0 0 2-1l20-19 21-20 31-27 2-4 12-9c2-1 3-3 2-6-3-6-2-11-1-17a16 16 0 0 0 1-3h3l-1 3-1 12c0 5 2 6 6 6l1 4c1 3-1 2-3 3l-10 7-39 36-11 9-25 25-7 5-2 6 5 1 24 1 24 3 2 1h2c6 0 4-4 5-7l2 1c2 3 4 4 5 0l13-28c4-4 8-8 9-14 1-4 2-7 5-9v-1Zm-8 104-1 4-4 5c-3 4-7 8-8 14l1 1 10-9c5-2 11-3 12-10 2-1 5-2 6-4l-3-6a35 35 0 0 0-4-5l-7-7-3-3-15-17c-6-6-13-5-21-5l3 4 7 8 16 19 10 8 1 3Z"/>
  <path class="a" d="M447 421h-2l-3-1h-17l2-4a28 28 0 0 0-4-1l-21-2h-13l-9-1-4-1c-4-2-9-2-10-9l5-1 25 4h1c10 1 20-3 29 0l12 2 15 1c10 2 19-2 27-6 2-1 5-3 7 1h3c4-2 7-4 11-4 4-1 8-1 10 2l-13 2 1 4h7c4-2 7 0 10 2 2 1 3 2 6 1l11 2c5 0 9 2 13 3-1 5 2 8 6 11-7 1-14 3-21 1a52 52 0 0 0 6-5l1-3-3-1-21 5-2 1h-7l-21-1-20 1c1-2 0-3-2-2s-5 0-6-1c-3-2-6-1-9 0Z"/>
  <path class="e" d="M770 130a11 11 0 0 0-2 2c-1 2 1 5-3 4v4c2 5 0 10-1 14-2 4-2 6 0 10l4 10 5 18 4 15h-2l-5-15-6-16c-1-5-4-8-8-7-3 1-7 3-6 7-1 7 2 14 6 20l9 17-1-1-7-9-5-7-6-10c-1-3-2-7-5-9-3-3-8-4-14-7l4 6c-5-1-6 2-6 6l-2 10-2 19c0 6 0 7 6 7l8 1 10 2v1a44 44 0 0 0-5 0h-13l-8-1-2-1h-27l2-1c-7-1-14-3-21 0-8 0-15-3-23 1l5 2c-5 2-2 5-1 8l3 7-2 4c-1 2-2 4-5 3l-5-3-11-1-2-3 1-3 9 3c4 1 7-2 7-5 0-1 2-1 1-2a39 39 0 0 0-1-7h-2l-1-6c0-2 2-4 1-5l-5-14 1-1c5 2 5 6 6 10 2 6 2 6 8 7l54 3c6 0 6 0 6-6l1-25v-10l2-3a33 33 0 0 0 0-5 28 28 0 0 0-1-5v-3c7 0 7 0 8-7l1-8h-3l1-3 6-8 4-3 5-7c5 2 7-2 8-6l7 2c7 1 12 4 16 10Zm-39 17c-2 3-2 7 1 10h3l1 5c-3 3-4 6-1 9 2 2 4 2 6-1l2-8a4 4 0 0 1 2-2l7-3c3-1 4-3 6-5a106 106 0 0 0 3-10 21 21 0 0 0-3-16c-4-5-6-5-8-1l-9 4c-3 2-3 5-5 7l-5 11Z"/>
  <path class="d" d="m690 220 8 1h21l8 1 16 3 3-3h3c0 3 1 4 4 4h16v-1h-8l-8-3h15l1-4 6-3v-2l-4-1 2-1a28 28 0 0 1 5 2l2 6c1 3 2 4 5 4l23 2-1 1-10 4v1l18 1-3-4h5c3 0 4 0 4-3l17 1c5 1 5 0 4-4l-1-3 1-15-2-53 6-2 1 5-1 1-3 2 3 8 1 3 3 53 1 12 1 10 3 6-5 4h-8l-5 1 6-5-1-6v-5l-1-6c-1-2-11-1-13 2l-4-2-13 2h-22l-3 1a1 1 0 0 0-1 0l-4-2c-12-2-24-4-36-2l-9-1c-3-1-7-2-10-1l-4 3c-1 6-1 13 2 19l3-3v6h11a57 57 0 0 1 6 1l11 1 31-2a11 11 0 0 0 4-1l1-2 2-1a14 14 0 0 1 3 2l1 3-11 3-32 2h-10c-2-1-4-4-6 0a26 26 0 0 0-4-2 13 13 0 0 0-3 0l-10 1-3-20v-3c0-3 0-6-3-7a26 26 0 0 0-9-1l-43 1h-10l1-5h3l20 1c1 0 4 0 3-3l1-2Zm155-2-1 20a36 36 0 0 0 1 8l2 2 1-3-2-27-1-35h-2l2 35Zm-66 5v-1l-4-3-4 1 2 3h6Z"/>
  <path class="f" d="m1031 313 4-1 3-1c3 4 6 2 9 1a28 28 0 0 1 5-2l11-1c4-1 8-2 12-1a9 9 0 0 1 6 4c1 2 0 5-1 8a18 18 0 0 1 4 1 17 17 0 0 1 3 1l-3 3-22 3a11 11 0 0 0-2 1l-7 3c-2 2-4 4-7 4l-4 3c1 3 0 4-2 5-3 2-5 2-8-1v5l-9-3c4 6 2 9-2 11l-7 1c-2-6 2-11 4-17 1-3 1-5-2-6l-8-2c-3-1-5 0-5 3s-2 4-4 5l-4 2c-2 3-5 4-8 6l-1-1c-2-4-1-6 3-7a99 99 0 0 0 10-4v-1l-4-1c0-6 0-6-7-7l-14-4v-1l13-5v-1l-7-2c-2 0-4 0-5-2-3-3-6-5-10-3-2 2-3 1-3-2h2l6-2 2 2c5 2 11 4 17 3a5 5 0 0 1 3 0l13 5c3 2 7 3 9 2 4-2 8-3 13-2 1 1 4 1 4-2Zm20 3-10-1a15 15 0 0 0-5 1l-10 5c-3 1-3 2-3 5 2 3 5 3 7 3h5c2 2 4 1 7 1l18-3c3-1 5-2 3-4a12 12 0 0 0-5-4l-7-3ZM654 371c4-5 10-3 15-2a38 38 0 0 0 11 2l2 2c10 4 20 4 30-1 4-3 8-9 14-6l2-1 5-1 22 3c3 0 7 1 7 6-7-5-14-1-22-1a7 7 0 0 0 5 3c6 2 12 2 15 9l4 1 9-1 17-1c2 0 5-2 8 1h2l6-1 12 1 4 1-3 3-8 1c-3 2-5 2-8 2a9 9 0 0 0-7 2l-2 7-29 1-4-2-12 3h-3c0-5 2-7 5-8l5-1 6-2-6-3c-5-4-9-9-16-6a16 16 0 0 1-6 0c-8-1-16 1-22-6l-4 8-7-4a26 26 0 0 0-9 3 4 4 0 0 0-2 3c1 3 9 7 12 5 4-2 4 0 4 4h-14l-5-3-1-4-8-5 6-1-2-4-6-1c-6-3-12-6-19-4-1 1-2-1-3-2Z"/>
  <path class="g" d="m1087 260 8 4c5 3 5 3 3 8l-2 1c-1 3-2 4-6 3l-5 2-3 2-13 1a90 90 0 0 0-9 2c-2-2-8-2-9 1-2 2-4 2-6 2h-3c-3 3-5 1-7-1l-9 1c-8 1-16-1-23 3l-3-1 4-5c4 0 8 0 12-2 6-2 12 1 18-2a33 33 0 0 0 4-3l-12-2 5-15c5-1 10 1 14-3l9-2 2 2 3-2h10v-1l-9-2 6-6 10-4v6c0 2 2 4 4 5 3 1 6 3 2 7Zm-14 5-11 1-20 1-3 2 2 2a42 42 0 0 0 6 0l24 2 2-8Z"/>
  <path class="h" d="m144 346-4-4v-2a58 58 0 0 0-3-8l-7-11 11-2 10-1c6-2 13-1 20-2h22l5 2-3 3c-2 2-1 4 0 5l9-3c5 0 9 0 13-4h1l1 6-23 5v2l6 1 1 2a35 35 0 0 0-5 1 25 25 0 0 0-6 2l1 4-17 2-3-3c2-5-1-5-4-6-3-2-7-4-10 0l-7 9h-2c-3-2-4-2-6 2Z"/>
  <path class="f" d="M948 365c0 8-10 15-17 14-4-1-7-1-9 2-3 4-11 4-15 2s-4 1-5 2l2 6-1 1c-8-5-16-1-23 0l-6-2c-2-3-4-2-7-2l-30 4a8 8 0 0 1-4-9c15 2 29-2 42-6 5-2 8-1 13-1l-1-4 4 1c5-2 10-4 15-4l17-2 14-2c1 4 3 3 5 2l6-2Z"/>
  <path class="e" d="m846 149-6 2-3-1h-2l-7-3c-7-5-13-12-15-21a4 4 0 0 0 0-1l-17-29c-2-4-2-8-1-12a16 16 0 0 1 2-6c3-4 4-9 4-14l4-7c1-2 1-5 6-4l2-2c4-1 9 0 12-5l4-2-6-1 1-1 32-2 3 3v5l17 5 3 4a32 32 0 0 0 6 13c3 3 3 6 1 11a77 77 0 0 0-2 8l-6-2v2l2 3c5 6 5 7 2 11a29 29 0 0 1-2-4l-2-6c-2-5-4-10-3-16l1 5 2 3a72 72 0 0 0 5-5l-2-3c-3 0-3-2-3-4v-5l-3 2-2-9c0-4-2-6-6-4h-6c-4 0-5-1-5-5 0-11 0-11-11-10-7 1-11 3-13 8l8 13-1 1-11-3 1-1c-3 0-5 6-8 0l-5 3V53a15 15 0 0 0-8 10l-3 10c-1 5-4 8-7 11a6 6 0 0 0-1 4c-1 6 2 9 7 12a16 16 0 0 1 9 12l5 18c2 8 9 11 15 16 4 3 9 0 14 0Z"/>
  <path class="b" d="m291 237 11-9a36 36 0 0 1 6-3c1 1 2 2 4 1l15-5c1 4 0 6-5 6l2 2 8-4c2-2 5-3 9-1a46 46 0 0 0-6 3l-1 3h3c3-4 6-3 9-1-1 3 1 5 4 6l14 3 1-4 7 6 4 10-2 5c-3 0-5 1-4 4l-2-4c1-2 1-2-3-3v4l-1 8-1 2-1 2c-5 1-10 2-14-2-3-5-4-12-11-10l-10-1-21 1-7-1-6-7-1 1v9h-4l1 1-2 4a5 5 0 0 0-1 0l-2-2v-4l3-1a31 31 0 0 0 2-8c1-3 2-3 4-3a47 47 0 0 0 4 3l6 2h39l4-1c4-5 8-2 13-1l6 2c-2-5-4-9-8-11l-13-3c-9-2-18-1-26-3-11-2-18 2-25 9l-6 2c-1-4 2-5 4-7Zm72 16c-2-1-4-2-6-1s-1 3-2 4a6 6 0 0 0-1 3l1 2a3 3 0 0 0 3-1l5-7Z"/>
  <path class="i" d="m1000 288 3 1c7-4 15-2 23-3l9-1c2 2 4 4 7 0h3c2 1 4 1 6-1 1-3 7-3 9-1a90 90 0 0 1 9-2l13-1 3-2 5-2c4 1 5 0 6-3l2-1c4 6 1 13-8 15-2-3-5-3-11-1a17 17 0 0 1-9 1c-2 0-4 0-5 4l15 1c-2 5-6 7-9 10-5-6-10-6-17-5-6 1-13 2-18 0-6-3-11 0-17-1a39 39 0 0 0-6 0l-5 1-9-1h-13v-2l2-1 3-2Z"/>
  <path class="a" d="m200 368-1-1 20-2 2-6c2 1 5 3 6 2 6-2 12 0 18 0 6-1 10 5 16 3v2l-11 2c1 9 1 9-8 9l-15 3 5 3 7-1c2 5-2 6-4 9a71 71 0 0 0-8-2l-13-1h-25c0-2-5-3-1-7 2 4 9 5 16 3l6-1c4 0 3-1 2-4l-2-6c0-4-1-5-4-5Z"/>
  <path class="i" d="M115 336c-3 2-5 0-6-2l-7-8c1-5 1-5-11-5 1-4 5-2 7-3 3-2 7 1 9-4l-3-1c-9 3-20 0-29 4h-7c0-4 2-5 6-5h12a5 5 0 0 0-4-2h-5l-4-2a20 20 0 0 1 3-3h2l10-2-2-4 4-2 10-5 7-3 4-2 3 6 3-6c3 1 4 4 4 7l-26 7 1 2 27-8 1 5c1 3 0 4-2 6l-8 4 3 3-4 6-4 2ZM365 410c0 3-2 3-5 4-5 2-10-1-15 4-2 2-4 1-6-3l-4 4-2 1c-14-2-28 3-42 0l-1-5-4 1c-5 3-7 2-12-1h-9a26 26 0 0 1-6 0 101 101 0 0 1-11-3l-3-3c0-3-2-3-4-3s-3-2-4-3c4-1 8-2 12 2 1 2 4 2 7 3l5 1c2 2 4 2 7 2l12 1a77 77 0 0 0 9-1l9-1 12-1 5-4h2v2l7-2 3 4 8-1c1-2 4-1 7 0 4 1 8 2 12 1 4-2 8 0 11 1ZM654 371c1 1 2 3 3 2 7-2 13 1 19 4l6 1 2 4-6 1 8 5 1 4-7-2-12-2a92 92 0 0 0-13-1 95 95 0 0 0-9 1h-6l-4 1v2l8 1c-2 3-7 2-5 7l-8 1h-9l-6-3 6-4-7-2 6-4 13-1 3-2-3-4-7-1-4-3a25 25 0 0 1 3-1c6-3 13-1 19-1l9-3Z"/>
  <path class="a" d="M706 395c0-4 0-6-4-4-3 2-11-2-12-5a4 4 0 0 1 2-4 26 26 0 0 1 9-2l7 4 4-8c6 7 14 5 22 6a16 16 0 0 0 6 0c7-3 11 2 16 6l6 3-6 2-5 1c-3 1-5 3-5 7h-3c0-2-1-4-5-3a35 35 0 0 1-6 2c-5 0-10-3-14 1h-3c0-4-3-4-6-5v-2Z"/>
  <path class="i" d="M833 383a8 8 0 0 0 4 9h-16c-6-2-10 4-16 4l-2 5-5-3-2 3-2-1 2-7a9 9 0 0 1 7-2c3 0 5 0 8-2l8-1 3-3-4-1-12-1-6 1h-2c-3-3-6-1-8-1l-17 1-9 1-4-1c-3-7-9-7-15-9a7 7 0 0 1-5-3c8 0 15-4 22 1l8 1h2c3 4 6 3 9 3a11 11 0 0 0 3 1l18-1c4-1 8-2 12-1l19 7Z"/>
  <path class="j" d="m239 382-7 1-5-3 15-3c9 0 9 0 8-9l11-2v-1c-6 1-10-5-16-4-6 0-12-2-18 0-1 1-4-1-6-2l-37-1 3-2 10-1c-11-3-22 1-34 3l-6-2v-1l44-4 5 1c5 5 11 5 17 3h1l-3-2 4-4c1 2 0 5 4 3l1 1c1 1 3 3 5 3l18 2h5l-1-4h6l-2 3a20 20 0 0 0 3 1h5v5l6 1 9-1-3 4a13 13 0 0 1-6 0c-4 0-6 2-8 5a5 5 0 0 1-2 3c-4 1-5 3-6 6h-2l1-4-10 2-2 2Z"/>
  <path class="i" d="m1014 357 7-1c4-2 6-5 2-11l9 3v-5c3 3 5 3 8 1 2-1 3-2 3-5-1-1 2-3 3-3 3 0 5-2 7-4l7-3-1 1-3 6 3 1c2-1 6 0 7-4 0-1 2-2 3-1a62 62 0 0 1 8 2 16 16 0 0 1 3 1l-2 3c-4 2-8 3-11 6-4 2-6 6-9 9a5 5 0 0 1-3 1l-15 3-17 2-7 3-2-5Z"/>
  <path class="g" d="m948 365-6 2c-2 1-4 2-5-2l3-6h5l10-2c6 0 12 1 17-1 6-1 11-3 17-2h2v-1l-6-2 2-3c3-2 6-3 8-6l4-2c2-1 4-2 4-5s2-4 5-3l8 2c3 1 3 3 2 6-2 6-6 11-4 17-3 0-7 0-7 5l-2-2c0-2 0-4-3-4l-20 2-1 1h-2l-24 1 3 4Z"/>
  <path class="a" d="M229 352c-4 2-3-1-4-3l-4 4 3 2h-1c-6 2-12 2-17-3l-5-1v-4l-20 2a16 16 0 0 1-6 0c-3-1-7-2-11 0-2 1-5-1-8-1l3-3c-2-2-5 3-7-1l7-9c3-4 7-2 10 0 3 1 6 1 4 6l3 3 17-2 8 1h14c10-2 17 2 25 6l1 2a27 27 0 0 0-5-1c-2 1-5-2-7 2Zm-12 0v-2l-7 1v2Z"/>
  <path class="k" d="m981 228 7-2-1 3v1l9-2 1-1 1 3-2 5h1l6-3c4 7-5 8-7 13h8l1 3-10 6-13 5 6 4-13 2-1-3 11-12 8-1a15 15 0 0 0-7-1c-3 1-6 0-6-4 4-2 8-3 10-8l-1-1-9 9c-6 3-12 3-19 2v-1l2-1 3-2v-1l6-1c2 2 6 2 8-1l2-4-4-1a3 3 0 0 1 0-1c1-2 5-2 3-5Z"/>
  <path class="l" d="m178 177 1-3a24 24 0 0 0 4-1l7-3 14-3c8-1 14 2 20 6 9 7 15 16 23 24l11 10v6l-4-4-31-29c-6-6-13-11-23-8l-3 1-8 3 19 19-1 3-7-4a16 16 0 0 0-12-9l-9-5-1-3Z"/>
  <path class="d" d="M516 167c-2 3-6 4-10 4l-10 2c-2 2-3 1-5 1l-7-11-1-6 7-2 1-1-5-3-1-2 10-2h1c3-5 9-1 14-2 2-1 5-2 6 2a58 58 0 0 0-6 0c-3 0-6 1-6 4h-1a30 30 0 0 0-4 1 15 15 0 0 0 3 2h2c3 4 7 2 11 2l-3 2 4 4a37 37 0 0 0-3 2 20 20 0 0 0-2 2l3 1a8 8 0 0 0 2 0Zm-15-1 1 2 1-1-2-1 1-1-1-5h-4a30 30 0 0 0 2 5l2 1Z"/>
  <path class="i" d="m730 134-6 8-6-12-3-1-6-1v-1l10-1a5 5 0 0 0 3-2l4-7-5-2-1 4a6 6 0 0 1-4-8c1-2 4-2 6-1a7 7 0 0 0 5 0l9-6-6-5c1-2 3-5 4-4 2 0 4 3 5 4l1 7 6 9-7 7c-5 0-9 6-9 12Z"/>
  <path class="m" d="m239 382 7-1h13l5 5-1 1-11 2v1l6 1-5 4v2l14 2c4 0 5 1 4 5a57 57 0 0 0-6-2 14 14 0 0 0-5 0v2a10 10 0 0 0 4 3 58 58 0 0 0 9 1 34 34 0 0 0 5 0h6l3 2 2 1a77 77 0 0 1-9 1l-12-1c-3 0-5 0-7-2l-5-1c-3-1-6-1-7-3-4-4-8-3-12-2h-3c0-3 1-4 4-4 4 0 5-2 6-5l-9-3c2-3 6-4 4-9Z"/>
  <path class="i" d="m1087 260-5-1c4-4 1-6-2-7l-4-5v-6a8 8 0 0 1 2-1l34-5c-6 0-11-2-16-6l19 1c3 0 5-2 7-3a55 55 0 0 1 7 3c2 2 2 4-1 5l-17 5-11 5-5 2c-3 0-4 1-4 4 1 4-1 6-4 9Zm4-15 6-2-1-2c-2 0-4-1-5 4Z"/>
  <path class="c" d="M11 289c-5-4-5-5 0-9l21-13 7-4 4-4 1 4-5 8-10 3-7 2c-4 2-7 4-7 8l-2 4 6-1 21-6a28 28 0 0 0 14-10l7-6 12-12 2 3-2 2a15 15 0 0 0-3 2 49 49 0 0 0-9 12c-3 5-8 8-12 12-2 3-4 6-8 3l-2 1-13 2c-5 2-10 3-15-1Z"/>
  <path class="f" d="m546 415-12-3-12-2c-3 1-4 0-6-1-3-2-6-4-10-2h-6c-2 0-2-3-2-4l13-2h6l18 3 3-3h3c1 4 2 5 5 3 2-1 4 0 6 1l9 2 2-1c3 5 8 1 12 3l8 2c-1 2-3 2-5 2h-14a48 48 0 0 1-9-1 8 8 0 0 0-9 3Z"/>
  <path class="n" d="m372 240-7-6-1-4 21 1a33 33 0 0 0 1 3l7-2h3c3 3 8 4 12 3l9-1a13 13 0 0 1 4 1c0 3 2 4 4 4a143 143 0 0 0 15-1l1-3 7-1v1l-1 1a13 13 0 0 0 6 1h41c3 0 3-2 2-3l14 1v3h-15c-2 0-3 1-4 3l-8-1-11-1h-6l-3 1-13-1-33 1-11-1-8 1-12-1-8-1 2-3c-4-2-6-2-8 2v3Z"/>
  <path class="j" d="M1096 229c5 4 10 6 16 6l-34 5a8 8 0 0 0-2 1l-10 4a21 21 0 0 0-5 1 61 61 0 0 0-5 4l-7-1 9-9-1-1-4 2-7-1v-7h5l3 1h29a21 21 0 0 0 3 0v-1h-13l-5-2a33 33 0 0 0 5 0l6-3Z"/>
  <path class="f" d="m485 423 20 1h7c3 0 4 1 4 3l-19 3-29 4c-15 1-31 7-47 5h-4l3-3c9 0 17-2 25-5 5-2 11-2 16-2h19l5-6Z"/>
  <path class="c" d="m159 116 1-3h-3l-7-2 8-7 9-6 9-3 5 1c4 6 7 8 15 8a63 63 0 0 0 6 0c4-1 6 1 8 5l-12 1-13-2-2 2c-4-1-8-2-11 1-4 0-6 2-8 5Z"/>
  <path class="o" d="M504 151c0-4 3-4 6-4a58 58 0 0 1 6 0l6 6c7 5 12 11 12 21v16c0 4-2 4-5 3v-2c2-1 3-1 1-3l-1-2c3-4 0-4-3-5l-1-1v-8h-4v-5l2-1-3-2c0-3-2-2-4-2l-4-4 3-2c-4 0-8 2-11-2v-3Z"/>
  <path class="l" d="m364 230 1 4-1 4-14-3c-3-1-5-3-4-6-3-2-6-3-9 1h-3l1-3a46 46 0 0 1 6-4c-4-2-7 0-9 2l-8 4-2-2c5 0 6-2 5-6 5 0 9-1 11-6l3-1 13 3c3 1 5 2 4 6s2 6 6 7Z"/>
  <path class="d" d="M258 213v-6l28 26 5 4c-2 1-5 3-4 7l-1 1 1-1 6-2v3c-2 0-3 0-4 3a31 31 0 0 1-2 8l-3 1c-1-2 0-4-3-4l-13 1-10-11 11 4 2 3a22 22 0 0 0 7-2c2-1 5-2 4-6 3-1 4-3 0-5l-2-1-3-4-19-19Z"/>
  <path class="i" d="m176 95-9 3-9 6c0-7 0-7-6-9l-5-4v-2a38 38 0 0 1 6 1c3 1 5 0 4-3 0-2-2-5-4-5l-25-4 4-2 38 6-5 1-5 1v1h11c3 0 7-1 8 3ZM235 391l9 3c-1 3-2 5-6 5-3 0-4 1-4 4l-3 1c-7-4-16 0-23-4l-2-3-4-4a9 9 0 0 1 3-1 58 58 0 0 1 6 0c2 0 3-1 3-4l13 1a71 71 0 0 1 8 2Z"/>
  <path class="n" d="M8 311H3v-6l5-1c2-1 5-2 6-1 4 2 7 0 10-1a60 60 0 0 0 7-3c3-1 5-2 6 2l2 1 4 2-11 2v1h9c3 3 6 0 9-1a15 15 0 0 1 2 0l-3 6h-2l-4 1-15 1c-6-5-12-5-20-3Z"/>
  <path class="p" d="m143 148-2 4-30 27-22 20-20 19a8 8 0 0 1-2 1l4-8 16-15 31-28 21-17a28 28 0 0 1 4-3Z"/>
  <path class="d" d="M770 130c-4-6-9-9-16-10a19 19 0 0 1-3-2l-5-8-5-5 7 2c3 1 5 0 7-2l9-6 2 2-1 1c-5 3 0 4 1 6l-2 5 10 11h1c3 3 5 6 4 10Zm-15-22v1h4l1-4h-1Z"/>
  <path class="m" d="M986 294v2l-4 4-3-1-2-1c-3 2-6 2-9 2-4 0-5 2-4 7l-2 1-16 2-2 4-4-2 7-9h2l15-6c4-3 5-5 2-10l1-1 6 1c2 3 7 2 9 7l2-3 2 3Z"/>
  <path class="i" d="M554 226c4-4 9-4 14-5a121 121 0 0 0 20-4 13 13 0 0 0 6-7c3-6 8-6 12-8s10-2 14-3l-3 2-22 12c-3 3-4 6-2 9l4 5-8-1a33 33 0 0 0-5 2h-1Z"/>
  <path class="g" d="M24 302c-3 1-6 3-10 1-1-1-4 0-6 1l-5 1v-15l4 2c1 0 4 1 4-3 5 4 10 3 15 1l13-2-3 3-3 4-2 2Z"/>
  <path class="d" d="m597 227-4-5c-2-3-1-7 2-9l22-12 4-2 16-3 4 1-1 2-4 5c-5 3-11 4-16 6a22 22 0 0 1 3-3l13-4-1-2c-11 3-21 6-31 11l-1 2c-3 0-6 0-6 4-2 2-1 4 2 3h3l6 7-2 3h-1l-1-5a35 35 0 0 1-4 1 20 20 0 0 1-3 0Z"/>
  <path class="e" d="m118 63 7-8 2-2-1-1a41 41 0 0 0-4 3l-14 12a8 8 0 0 1-2 1l3-5 19-16 3 1 19-16 17-11 2 2-22 17c-6 5-13 10-18 18-4 1-6 6-11 5Z"/>
  <path class="i" d="m979 299 3 1-1 6c6-2 12-2 16 3l5 1 7-1c2 0 5 3 7 0 4 3 9 1 14 3a7 7 0 0 1 1 1c0 3-3 3-4 2-5-1-9 0-13 2-2 1-6 0-9-1l-13-6a5 5 0 0 0-2 0c-7 1-13-1-18-3l-2-2Z"/>
  <path class="n" d="M981 228c2 3-2 3-3 5l-2-1-10-1-60 1h-8l-4-2-23-2 14-1 39 1 52 1 5-1Z"/>
  <path class="f" d="M365 410c-3-1-7-3-11-1-4 1-8 0-12-1-3-1-6-2-7 0l-8 1-3-4 9-2h3l5-1h18c1 2 2 3 4 0h3c1 7 6 7 10 9l4 1a40 40 0 0 1-6 4l-3-1a69 69 0 0 1-6-5ZM200 368h6c3 0 4 1 4 5l2 6c1 3 2 4-2 4l-6 1c-5-6-10-8-17-7a12 12 0 0 1-6-1c6-3 13-2 20-2-8-3-15-2-22-1l-16 2a14 14 0 0 1-3 0v-1l35-4 5-2Z"/>
  <path class="e" d="M142 65c-2-3 1-3 2-4 3-3 3-3 0-5a32 32 0 0 1 3-4l35-32c2 4-1 5-3 7a47 47 0 0 1-3 3v1l5-1-23 21-16 14Z"/>
  <path class="q" d="m837 150 3 1 2 53-1 15-1-5-4-57 1-7Z"/>
  <path class="f" d="m184 358 37 1-2 6-20 2-2-2c-5 2-8-1-11-3l-9-1a30 30 0 0 1-5-1Zm30 4ZM631 400l8-1 3 1-5 3c1 5-2 9-8 9h-24a72 72 0 0 1-7-1c3-4 8-4 13-3a9 9 0 0 0 6-2l11-3c2 0 4 0 3-3Z"/>
  <path class="d" d="M529 193c3 1 5 1 5-3l5 3c-8 4-2 9-2 14v5l3 8c0 2-3 4 0 6 1 4-3 3-4 4h-3l-1-3c4 0 4-2 4-5l-3-7h-4l-3-3v-3l3 1h2a3 3 0 0 0 1-2l-1-6-4 1 1-1-5-2v-1l2-3c0-4 2-1 4-1v-2Z"/>
  <path class="r" d="m244 129-3-10-1-17 37 11h-10l-16-2c-5-1-7 1-6 7l2 12Z"/>
  <path class="p" d="m221 149 19-9 2 2-13 8c-2 1-4 2-4 5l-17 7-4-1-10 2 14-9 3-1c4 1 7-2 10-4Z"/>
  <path class="q" d="M1 120a26 26 0 0 1-1-5V2a26 26 0 0 1 0-3h1l1 4v117Z"/>
  <path class="c" d="m181 30-5 1v-1a47 47 0 0 0 3-3c2-2 5-3 3-7 0-3-1-4-4-2l-9 5-2-2 12-11h5c7 6 6 14-3 20Z"/>
  <path class="e" d="m878 124-6 8a77 77 0 0 0-7 4l-10 9v-3l-7 3a9 9 0 0 1 2-2l14-11a79 79 0 0 0 10-10c3-3 4-7 6-10h3l-3 7-2 5Z"/>
  <path class="r" d="m764 99-9 6c-2 2-4 3-7 2l-7-2-1 1-1-7c10 0-1-4 3-6l3 3c6 6 6 5 13 1l7-2-1 4Z"/>
  <path class="n" d="M778 213a28 28 0 0 0-5-2l-2 2h-6l-9-17c-4-6-7-12-6-20l2 2 8 20c4 9 5 9 15 9h2l1 6Z"/>
  <path class="g" d="m115 336-6-15c3 0 5 1 6 5s3 10 9 12c1-4 3-4 6-3l10 5v2c-5-1-11-4-17-3-2 1-5-2-8-3Z"/>
  <path class="r" d="m179 10-12 11-17 11-3-1 11-10 17-12c2-2 3-2 4 1Z"/>
  <path class="g" d="m86 299 2 4-10 2h-2a20 20 0 0 0-3 3l4 2h5a5 5 0 0 1 4 2H74c-4 0-6 1-6 5l-3-1c1-2 2-4-1-5 0-3 1-4 3-5l13-5 1-1Z"/>
  <path class="e" d="M775 124h-1c-1-5 0-9 3-14l2-14-1-2h1c1 1 3 0 3 3l3 4 1 2-6 16Z"/>
  <path class="s" d="m1068 231 5 2h13v1a21 21 0 0 1-3 0h-29l-3-1 1-1c-2-1-4-2-5 1h-1l-4-2h-10v-1h10l3-2h13c0 2 0 3 2 3h8Z"/>
  <path class="m" d="M709 396c3 1 6 2 6 6l1 5c-5 0-9 3-13 6l-1-1 2-7v-3c-1-4 2-5 5-6Z"/>
  <path class="q" d="M1032 230v1l-10 1-4-1-20-1-1-3 4-5 1 1-1 3a62 62 0 0 0 7 0c3 0 6-1 10 1h6l4 1Z"/>
  <path class="r" d="M1 120h1l1 46v45H2v-25l-2-50 1-16Z"/>
  <path class="e" d="M536 230c1-1 5 0 4-4h14l29 2-3 1-25 1-15 1Z"/>
  <path class="j" d="M516 427c0-2-1-3-4-3l2-1 21-5 3 1-1 3a52 52 0 0 1-5 5Z"/>
  <path class="q" d="M338 215c-2 5-6 6-11 6l-15 5c-2 1-3 0-4-1a9 9 0 0 1 2-1c4 0 5-1 5-5a15 15 0 0 1 0-3h1c4 4 7 4 12 0 2-2 6-1 10-1Z"/>
  <path class="e" d="m44 263-1-4-4 4-7 4 18-18 1 3 5-4c-3 6-6 12-12 15Z"/>
  <path class="f" d="M134 362h6c5 1 8 0 12-3 2-2 3-1 4 1l2 5c-10 3-21 3-24-3Z"/>
  <path class="r" d="M8 311c8-2 14-2 20 3l-10 3-3 1c-3-5-8-2-12-2l-2-2a51 51 0 0 0 6-1l1-2Z"/>
  <path class="f" d="m716 407-1-5 3-1c4-4 9-1 14-1a35 35 0 0 0 6-2c4-1 5 1 5 4a18 18 0 0 1-4 0h-16v5Z"/>
  <path class="r" d="m786 103-1-2c0-2 1-5-1-6-1-2-5-3-7-5l-2-2 3-7h1c2 7 11 9 10 17 0 2-2 4-3 5Z"/>
  <path class="c" d="m871 228 23 2 4 2-32 1a21 21 0 0 1-4-1l4-4ZM883 112h-3l2-9c3-4 3-5-2-11l-2-3v-2l6 2c6 4 4 10 2 15l-3 8Z"/>
  <path class="r" d="m775 124 5-5 2 2c-2 4 1 6 3 8s4 4 2 7l-8-2c1-4-1-7-4-10ZM225 155c0-3 2-4 4-5l13-8 2-2h3l3 4a3 3 0 0 1-1 1l-20 9a26 26 0 0 1-4 1Z"/>
  <path class="i" d="m981 359 1-1 20-2c3 0 3 2 3 4-7-3-13-2-18 4-1 2-4 2-5-1a16 16 0 0 1-1-4Z"/>
  <path class="p" d="m147 31 3 1-19 16-3-1Z"/>
  <path class="g" d="m184 358-12 2c-3 0-7 3-9-2 12-2 23-6 34-3l-10 1-3 2Z"/>
  <path class="f" d="M105 83c6 1 12 2 17-2l6-3c1 3-1 4-3 6-5 4-10 3-15 3-3 0-5 0-5-4Z"/>
  <path class="i" d="m958 364-3-4 24-1c-1 1-2 3-4 3l-17 2Z"/>
  <path class="r" d="M723 145h3l-1 8c-1 7-1 7-8 7 1-6 4-10 6-15Z"/>
  <path class="e" d="M1068 231h-8c-3 0-2-1-2-3 7-3 14-1 21 0l-6 3a33 33 0 0 1-5 0Z"/>
  <path class="f" d="M64 311c3 1 2 3 1 5H52l-5-2v-2h2c3 1 6 3 9-1Z"/>
  <path class="i" d="M657 413c3 0 6 0 6 4s-2 4-5 5c-4 0-5-3-6-6 0-4 3-3 5-3Z"/>
  <path class="n" d="m855 145 10-9a77 77 0 0 1 7-4l-15 16-5 1 3-4Z"/>
  <path class="f" d="M447 421c3-1 6-2 9 0h6c2-1 3 1 2 3-5 3-11 3-16 0l-1-3Z"/>
  <path class="n" d="m866 228-4 4-11 1v-12l1 2c-1 6 3 6 7 5h7ZM204 161l4 1-5 3-13 5-7 3a24 24 0 0 1-4 1v-1l3-4 13-4a92 92 0 0 0 9-4Z"/>
  <path class="g" d="M162 388c6-9 14-3 21-5v2Z"/>
  <path class="e" d="m812 228 3 4-18-1v-1l10-3 1-2h3ZM764 99l1-4 1-1a15 15 0 0 0 2-1c4-3 5-3 6 2l-9 6Z"/>
  <path class="p" d="M60 224c0 4-3 7 1 10l-1 2-2-1c-6-3-6-4-2-9a38 38 0 0 1 4-2Z"/>
  <path class="f" d="M1007 362c0-6 4-5 7-5l2 5c-3 4-6 4-9 0Z"/>
  <path class="r" d="m878 124 2-5 9-4a47 47 0 0 0 5-4c1 3-9 11-16 13Z"/>
  <path class="e" d="M441 201c4 3-1 5 0 7l-4-1-4-7-2-5 5 5c1 2 3 3 5 1Z"/>
  <path class="n" d="m71 211-4 8-1 2-6 3c2-6 6-10 11-13ZM774 95c-1-5-2-5-6-2a15 15 0 0 1-2 1c-1-3 1-4 5-5a35 35 0 0 0 4-1l2 2 2 4h-1ZM1032 230l-4-2h17l-2 2h-11Z"/>
  <path class="p" d="m852 149 5-1-5 9c-4 2-4 0-4-3Z"/>
  <path class="q" d="M848 154c0 3 0 5 4 3l1 3c-4 1-4 4-4 7l-2 1v-3l-1-10 1-1Z"/>
  <path class="f" d="M61 359c-4 4-8 4-12-1Z"/>
  <path class="q" d="m190 170 13-5 1 2ZM812 228l-1-3c3-2 7 0 10 0 0 3-1 3-4 3h-5Z"/>
  <path class="p" d="M247 140h-3v-11l3 1c2 3 1 6 0 10Z"/>
  <path class="i" d="M674 393h-13c3-3 10-3 13 0Z"/>
  <path class="f" d="M545 226h-5c-3-2 0-4 0-6Z"/>
  <path class="k" d="M717 161v2l-1 4 2 6-2 3c-3-5-3-10 1-15ZM825 46c-3 5-8 4-12 5l1-2 11-3Z"/>
  <path class="e" d="M537 212v-5l6-1 1 1Z"/>
  <path class="p" d="m996 228-9 2v-1l1-3Z"/>
  <path class="a" d="M144 346c2-4 3-4 6-2-2 2-3 3-6 2Z"/>
  <path class="q" d="m828 147 7 3c-3 3-4 3-7-3ZM842 222c1 4 1 5-4 4Z"/>
  <path class="f" d="m442 420 3 1c-1 2-2 1-3-1Z"/>
  <path class="g" d="M47 312v2l-4-1Z"/>
  <path class="d" d="M477 150h-2Z"/>
  <path class="h" d="M680 369c-5 0-6-5-8-8-3-2-4-5-6-9-4 6-9 2-14 2h-11c-7 7-17 4-26 4h-18c-1-4-3-2-6-2h-23c-3 4-7 1-10 0h-4c-4 4-8 4-13 1a1 1 0 0 0-1 0c-6 2-11 0-17-1 0-7 1-8 8-9h7v-7l5-2 30 1-2 4 2 1 2-2v-4h10l4 8c3 1 7 3 10-1 1-1 3 0 4 1l7 3v-5l9 3 7-8 1 1-1 8 8-5c3 2 6 1 10-1s1-6 1-8a1 1 0 0 1 0-1l29 1v4h-1c-1 1-4 3-3 5l4 10-5 1c4 4 8 4 11 4l3 9Z"/>
  <path class="t" d="M541 401h-3a25 25 0 0 0-1-5 4 4 0 0 0-3-2l-2 2a16 16 0 0 0-1 3l-9-4c-6-3-7-4-2-10 2-1 3-3 0-4-1-7-5-8-10-9 0-4 3-3 5-2 3 1 6 1 8-2h2c3 5 8 4 11-2h3c0 3 2 5 5 5s7 1 8-3h1a11 11 0 0 0 9 5v1c3 3 3 5 0 7l-2 2a7 7 0 0 1-4 0l-6-1c-3-1-6 3-10 1l-1 1c-2 4 1 9 5 10l6 1-3 5Z"/>
  <path class="j" d="M536 366c-3 6-8 7-11 2h-2c-2 3-5 3-8 2-2-1-5-2-5 2l-15-3 2-7c-1-4 0-7 5-7l10-2a2 2 0 0 0 2-1l-1-2-7-2c-5 1-6 0-7-3l-22 1 1-10h6c2-1 5-1 5 3l3 2c4 1 6-1 7-4h7c2 5 6 4 10 4 2 3 5 5 9 3a5 5 0 0 1 3-1c6 2 6 2 6-4l4 1v7l-7 1c-7 0-8 1-8 8-3 6-8 4-12 2a3 3 0 0 0-2 0c0 6 3 7 9 7 6-1 12 0 18 1Z"/>
  <path class="m" d="m547 400 3-5-6-1c-4-1-7-7-5-10l1-1c4 2 7-2 10-1l6 1a7 7 0 0 0 4 0l2-2c3-2 3-4 0-7v-1l2-2 14 1c7 5-1 8-2 12l4 2 1 10h1l-4 5-3-4-1 8-5-6c-3 0-6 7-10 1-4 6-8-2-12 0ZM680 369l3-1h2l2-1c6-3 7 1 8 4l7-2 3-1c3-4 10-2 12-8h26l5 1 11 2 11 11-8-1c0-5-4-6-7-6l-23-3-5 1-1 1c-7-3-10 3-14 6-10 5-20 5-30 1l-2-2v-2Z"/>
  <path class="f" d="m578 372-14-1c-3-5-2-6 4-7a55 55 0 0 1 22 1c4 1 7-1 11-1a16 16 0 0 0 0 3c1 4 0 4-3 4l-20 1ZM621 387l-6 4 7 2-6 4c-7-5-16-5-24-8 10-2 19-5 29-2Z"/>
  <path class="j" d="M552 368c-1 4-5 3-8 3s-5-2-5-5Z"/>
  <path class="u" d="M474 208c8 2 7 9 7 14l-4 1a61 61 0 0 1-8-3l-15-6c-1-1-5 0-6 1-1 2 1 4 3 4a101 101 0 0 1 9 5l5 5-2 1h-16v-11l-1-1-1-23 11 7-3 3 6 4c3-2 5-4 9-3l6 2ZM477 201l-2 5a25 25 0 0 0-3-2l-27-11-4-18h4l31 14 2 4-14-4a53 53 0 0 0-7-1h-4l1-3-7-2-1 2 7 4 14 10v-1l-1-3Z"/>
  <path class="e" d="M523 199v9h-1l-2-6c-5 0-4 4-5 7-5 0-4 4-5 6l-2-4h-1v5a11 11 0 0 0-2 2c-4 5-5 5-9 2-6-4-6-4-10 1l-1 1c-3-8-1-15 2-22l4-1h4l-5 9h5c3-2 3 0 4 2l4 2 3-5 4-4 13-4Z"/>
  <path class="u" d="M389 205c6 0 10 4 14 6l7 4c6 3 8 9 6 17l-4-3-5-5a112 112 0 0 0-14-5c-3-1-5-3-4-6a60 60 0 0 0 0-8Z"/>
  <path class="k" d="m536 230 4 1 8 1 17 1a66 66 0 0 0 9 0c4 0 9 1 11-3h3c0 3 1 4 3 3l4 2-2 3c-5-1-10-1-14 3-1-5-4-7-9-6l-14 2-2-1-7-1-9-1-33-2a100 100 0 0 1-10-2l28-1 10 1Z"/>
  <path class="v" d="M437 231c-3-6-5-7-10-2-1 2-3 2-5 3a26 26 0 0 1-2-5 45 45 0 0 1-1-8c0-2 1-4 4-3l14 2c1 1 3 3 3 5 0 3 2 6-3 8ZM433 213c-2 1-12 0-13-3l-2-6a25 25 0 0 0-1-3l-3-5a51 51 0 0 1-1-5c5-1 5-1 6 4l4 7h1l1-6c5 1 7 6 9 10l-5-1ZM465 229l-5-5a101 101 0 0 0-9-5c-2 0-4-2-3-4 1-1 5-2 6-1l15 6a61 61 0 0 0 8 3l4-1c2 3 1 6-3 6-1-6-6-2-9-3l4 3Z"/>
  <path class="u" d="m457 172-10-2c1-5 5-5 8-7l10-2 11 23c-5 0-12-4-13-8l4-4-7-5Z"/>
  <path class="e" d="m445 193 27 11a25 25 0 0 1 3 2l-1 2-6-2c-4-1-6 1-9 3l-6-4 3-3-11-7Z"/>
  <path class="u" d="M403 195v1c8-1 8 6 10 10v1l-7-3-3-1c-1-4-4-4-8-4-2 1-4-1-4-3-1-3 0-5 3-7Z"/>
  <path class="e" d="M495 230a100 100 0 0 0 10 2l33 2-1 3-27-2-13-1h-5c1-2-1-5 3-4Z"/>
  <path class="d" d="M490 176c0 3 0 5-4 2l-9-1-3-16c3-1 6-1 8 2l4 13ZM491 199l-4 2-3-7a14 14 0 0 1 1-7c1-2 4-3 7-2l6-1 1 6c-6 0-8 3-8 9Z"/>
  <path class="e" d="m499 190-1-6 3-2 6 3 1 3-1 5c3-2 5-2 5 2v1l-2 1h1c0 3-1 4-4 3v-2l-5-3c0-2 0-4-3-5Z"/>
  <path class="w" d="M492 234h4c1 1 1 3-2 3h-41a13 13 0 0 1-6-1l1-1 23-1Z"/>
  <path class="v" d="M529 215h4l3 7c1 2 0 5-4 5l-2-1-4-2 2-3-4-2Z"/>
  <path class="e" d="M521 172h4v6l-7 2-7 4h-2l3-8c4-3 4-3 7-1ZM471 233l-23 2v-1c1-4 5-3 8-3 2 0 5 3 7-2h2l3 2 3 2Z"/>
  <path class="v" d="M510 215c1-2 0-6 5-6 2 4 4 3 7 2-1 5-9 10-14 8l-1-3v-5h1l2 4a2 2 0 0 0-1 0v1Z"/>
  <path class="e" d="m524 219 4 2-2 3 4 2 2 1 1 3-10-1v-1l1-4a13 13 0 0 0-4-1l-8 1a18 18 0 0 1 4-2l8-3Z"/>
  <path class="v" d="M523 208v-8l5 2-1 1 4-1 1 6a3 3 0 0 1-1 2h-2l-3-1v3c-4 2-2-3-3-4Z"/>
  <path class="u" d="M396 232h-3l-2-1-1-10a7 7 0 0 1 8 3c1 2-1 5-2 8Z"/>
  <path class="n" d="m403 195-9-6c5-6 8-5 12 5Z"/>
  <path class="x" d="m441 235-1 3a143 143 0 0 1-15 1c-2 0-4-1-4-4h18Z"/>
  <path class="v" d="M457 188a53 53 0 0 1 7 1l14 4-1 8-11-6 9 2v-2c-5-3-11-5-17-6ZM512 176l-3 7 2 1-3 4-1-3-6-3c3-3 6-6 11-6ZM512 224l8-1a13 13 0 0 1 4 1l-1 4h-18v-1Z"/>
  <path class="d" d="m457 172 3-5 7 5-4 4Z"/>
  <path class="v" d="M490 176h-4l-4-13h2l7 11Z"/>
  <path class="u" d="M522 211c-3 1-5 2-7-2 1-3 0-7 5-7l2 6v3Z"/>
  <path class="d" d="m433 213-4-8 5 1 3 1 1 5 2 4Z"/>
  <path class="k" d="m486 151 5 3-1 1-7 2-3-2a10 10 0 0 1 2-2 24 24 0 0 1 4-2Z"/>
  <path class="n" d="M439 235h-14c4-2 9-4 14 0Z"/>
  <path class="v" d="M516 162c2 0 4-1 4 2l-4 3a8 8 0 0 1-2 0l-3-1a20 20 0 0 1 2-2 37 37 0 0 1 3-2Z"/>
  <path class="n" d="m473 228-4-3c3 1 8-3 10 3Z"/>
  <path class="v" d="m446 218 1 1Z"/>
  <path class="r" d="M238 129c2 3 2 5-1 7a96 96 0 0 1-9 6l-10 5-14 7-22 11-13 5a13 13 0 0 1-4 1 17 17 0 0 1 1-4 45 45 0 0 1 3-5l7-1c4-1 6-3 5-7l22-13a78 78 0 0 0 8-6l8-8a35 35 0 0 1 4-2c1 3 3 4 6 3l2 3Z"/>
  <path class="p" d="m152 148 10-7c2-1 4 0 3-3l13 4c1 4 0 6-3 8a59 59 0 0 0-7 4c-7 4-9 10-7 18l2 5-12 2 4-9v-8l-7-5 6-5a29 29 0 0 0 3-3Z"/>
  <path class="i" d="m169 23 9-5c3-2 4-1 4 2l-35 32a32 32 0 0 0-3 4l-4 2-10 3-1-3c5-8 12-12 18-18l22-17Z"/>
  <path class="r" d="M164 116c2-3 4-5 8-5 7 0 10 4 11 10l2 3v2l-5 2c-4 1-7 3-11 3l-4-7-1-6ZM129 58l1 3 10-3-18 18c-3 4-7 4-12 3 1-6 3-12 8-16 5 1 7-4 11-5Z"/>
  <path class="q" d="m208 92-9-1-10-1 7 14c-8 0-11-2-15-8l-5-1 3-7c9-2 17 0 25 2a26 26 0 0 1 4 2ZM238 129l-7 2-1-3c-3-5 1-7 5-8l-6-6v-13l2-1 4 3a21 21 0 0 1 2 8l1 18Z"/>
  <path class="v" d="m190 82-21-3-29-6a35 35 0 0 1-3-2v-1l4-1 49 12v1Z"/>
  <path class="f" d="m191 121-2-9c2-3 4-3 5 0a18 18 0 0 1 2 4l8 19-6 4-4-12a48 48 0 0 0-3-6Z"/>
  <path class="e" d="m182 165 22-11 14-7 3 2c-3 2-6 5-10 4l-3 1-14 9-11 4-1-2Z"/>
  <path class="n" d="m164 118 1 6 4 7c4 0 7-2 10-3l5-2c1 8-9 11-15 9l-4-2c-4-4-5-11-1-15ZM191 121a48 48 0 0 1 3 6l3 12-5 3c0-4-4-2-6-4ZM204 135l-8-19a18 18 0 0 0-2-4c-1-3-3-3-5 0l-6-2 2-2 13 2 7 22 2 1ZM155 170l-4 9 12-2h1v1c-3 2-4 5-5 9l-3-1-7-6 1-6 4-4Z"/>
  <path class="p" d="M181 154c1 4-1 6-5 7l-7 1 4-7c2-3 5-4 8-1ZM229 114l6 6c-4 1-8 3-6 8-3 1-5 0-6-3l6-11Z"/>
  <path class="o" d="M164 118c-4 4-3 11 1 15l-1 1c-4 0-6-1-6-6l1-12h5v2Z"/>
  <path class="n" d="m185 124-2-3c-1-6-4-10-11-10 3-3 7-1 11-1l3 10-1 4Z"/>
  <path class="q" d="M222 98a18 18 0 0 1-13-6l16 5 1 6ZM183 167l11-4 10-2a92 92 0 0 1-9 4l-13 4Z"/>
  <path class="e" d="M190 82v-1c4 0 10 1 13 4v1Z"/>
  <path class="p" d="M186 138c2 2 6 0 6 4l-7 2 1-6Z"/>
  <path class="e" d="M171 85h-11v-1l6-1 4-1Z"/>
  <path class="q" d="M244 135v5l-2 2-2-2Z"/>
  <path class="g" d="M121 294c0-3 0-6-4-7l-3 6-3-6-4 2-7 3-19 5h-4l-4-5c3 0 6 2 8-2l-9-3v-3l3-3 3 1a40 40 0 0 0 5-2l3-3c1-6 1-6 7-4l-2-4 4-5-3-2 2-2c0-4 0-8 4-10 5-3 9-1 14 0a17 17 0 0 0 4 1l10 9 7 6 11 12a53 53 0 0 1 4 5c-5-1-11-2-13-9-2-4-5-5-9-4l-8 2-2 3 5 1c-1 3-3 6 1 6a55 55 0 0 0 8 0c0 4-6 6-5 11l-2 2Z"/>
  <path class="r" d="m152 148 4 1a29 29 0 0 1-3 3l-5 5c-7 4-13 9-16 16l1 2 11-6v5c0 4-5 6-7 6-5-1-8 2-11 5l-8 12-6 6c-5 0-6 3-7 7l-1 1c-5 0-6 5-9 9l14 2c3 0 6-3 8-5 6-3 12-4 15-8 4-5 8-10 7-18-1-3 1-6 4-8a19 19 0 0 1 5 0c3 1 4 4 2 6-5 5-7 11-9 18-1 2-2 4-5 4s-6 1-7 4l-6 8 2 2 5 2c-1 4 1 8-5 8h-2l-2-1c2-4-2-4-4-5l-30-1a11 11 0 0 1-2 0l-3-7-1-1-2 4-1-1-1-5 25-25v3l1 1 10-13Z"/>
  <path class="f" d="m153 243 8-2h11l33-1h4v1l-8 1 2 2-2 3-11 2a4 4 0 0 0-2 4c1 3-1 6 2 9a64 64 0 0 1 5 6l1 8a18 18 0 0 0 1 3c2 3 1 7-3 8a19 19 0 0 1-8-1l-9-4v-2l1-1-2-1-19-22 2-5Z"/>
  <path class="h" d="m177 282 9 4a19 19 0 0 0 8 1c4-1 5-5 3-8a18 18 0 0 1-1-3l4 2 1 2 4 2-2 2-2 6v4l4 3 2-4c-1-3 0-5 1-7l6-8 9-7 12-4-3-2c7-1 8-1 11 4l-3 1c-8 0-11 3-12 11l-6 1c-4 4-2 7 2 9-3 4-6 9-11 11l-3 2-30 2-16-2a51 51 0 0 0-7 0h-2l7-6 4 4 1-7Z"/>
  <path class="i" d="M116 251a17 17 0 0 1-4-1c-5-1-9-3-14 0-4 2-4 6-4 10l-2 2 3 2-4 5 2 4c-6-2-6-2-7 4l-3 3a40 40 0 0 1-5 2l-3-1c-2-5-7-6-11-8l9-15 2-2 9-10a53 53 0 0 0 6-5 15 15 0 0 1 19-2c0 5 3 9 7 12Zm-22-10c1 5 3 6 8 4l2-2-3-3-7 1Z"/>
  <path class="m" d="m123 295 2-2c-1-5 5-6 5-11a55 55 0 0 1-8 0c-4 0-2-3-1-6l-5-1 2-3 8-2c5-1 8 0 9 4 2 7 8 8 13 9l-5 11-5 6c-2 3-2 6 0 8v3c-6-1-11-2-16 1h2c-1 5-5 7-11 7l4-6-3-3 8-4c3-2 3-3 2-6l-1-5Z"/>
  <path class="p" d="M44 263c6-3 9-9 12-15l11-12a4 4 0 0 1 3-1l8 2c0 2 0 4 3 4l2 1-2 4-8 7-12 12-7 6c-4-4-8-1-11 2-3 2-4 1-4-2Z"/>
  <path class="q" d="m155 278-10-8-16-19-7-8-3-4c8 0 15-1 21 5l15 17 3 3v6l-3 8Z"/>
  <path class="k" d="M124 312h-3c6-3 11-2 17-1l2 2a72 72 0 0 0 7-1l3 2 15-3 6 1a19 19 0 0 0 15-1h-6l-2-2 2-3 30-2-8 5h6v1l-11 1 3 1-7 4h-22c-7 1-14 0-20 2l-10 1-8-1 3-6Zm61-3v2l12-2-1-2Z"/>
  <path class="q" d="m125 225-2-2 6-8c1-3 4-4 7-4s4-2 5-4c2-7 4-13 9-18 2-2 1-5-2-6a19 19 0 0 0-5 0l6-3 7 6 3 1c-1 6-5 10-9 14l-6 6c-5 8-10 15-19 18Z"/>
  <path class="p" d="m77 218 1 5 1 1 2-4 1 1 3 7a11 11 0 0 0 2 0l30 1c2 1 6 1 4 5l-24-3-24-1-5-1 2-6 7-5Z"/>
  <path class="n" d="M125 225c9-3 14-10 19-18l6-6-13 28c-1 4-3 3-5 0l-2-2Z"/>
  <path class="p" d="M166 286c-1 7-7 8-12 10l-3-6 4-5a39 39 0 0 0 4-2l5-3 2 5a4 4 0 0 1 0 1Z"/>
  <path class="n" d="M166 286a4 4 0 0 0 0-1l-2-5-5 3a39 39 0 0 1-4 2l1-4 7-7-5-4v-6l7 8a35 35 0 0 1 4 4l3 6c-1 2-4 3-6 4Z"/>
  <path class="q" d="m153 243 6 8-2 5-16-18 1-2 6 5 5 2Z"/>
  <path class="n" d="M116 251c-4-3-7-7-7-12l2 1c4 8 13 13 19 20a50 50 0 0 1 3 6l-7-6-10-9Z"/>
  <path class="k" d="m151 290 3 6-10 9-1-1c1-6 5-10 8-14Z"/>
  <path class="e" d="m165 311-15 3-3-2c0-3 1-3 3-3l10-2 1 3ZM73 253l8-7h3l-9 10Z"/>
  <path class="p" d="m158 270 5 4-7 7-1-3 3-8Z"/>
  <path class="q" d="m83 242-2-1c-3 0-3-2-3-4l9-1 1 1-5 5Z"/>
  <path class="p" d="m113 184-10 13-1-1v-3Z"/>
  <path class="k" d="m160 307-10 2c1-2 2-5 6-5h1v1Z"/>
  <path class="n" d="m167 295-1 7-4-4Z"/>
  <path class="p" d="M123 235h2Z"/>
  <path class="h" d="m176 278 2 1-1 1Z"/>
  <path class="p" d="m66 221 1-2Z"/>
  <path class="j" d="M520 381c3 1 2 3 0 4-5 6-4 7 2 10l9 4a16 16 0 0 1 1-3l2-2a4 4 0 0 1 3 2 25 25 0 0 1 1 5c-2-1-3 0-3 3l-18-3h-6c-2-3-6-3-10-2-4 0-7 2-11 4h-3c-2-4-5-2-7-1-8 4-17 8-27 6l-15-1-12-2 4-3a72 72 0 0 1 8-1v-1l-6-2 1-5 4 1c3 4 5 5 9 3l8-3c2-1 7-2 7-6-1-4-5-3-8-3-4 0-7-2-11-5 4-2 8-4 11-3 4 1 6 1 8-2 2 2 4 4 6 4l7-3v3l23 3-2-4 1-1a34 34 0 0 1 4 3c2 2 4 4 7 1 2 1 5 2 6 1 3-2 5-1 7-1Z"/>
  <path class="m" d="m433 393-1 5 6 2v1a72 72 0 0 0-8 1l-4 3c-9-3-19 1-29 0h-1l-25-4-5 1h-25l-5 1h-3l-9 2-7 2v-2l1-3c2-2 5-3 6-6 3-6 7-10 14-10l1 6-1 2 2 3a26 26 0 0 0 7-2l4-2 10-1c4 0 8-2 10 0 6 4 12-1 19 0 5 0 10-2 16-1 1 1 4 0 6-1l-2-4-2-6-17 4v-6a14 14 0 0 0-2 2c-2 4-5 6-10 4a9 9 0 0 0-3-1c-3 0-5-2-6-5l14-1 3-2c8 4 15 2 23 2 6 0 8 0 11 5l-2 3 7 1Z"/>
  <path class="j" d="m718 239 3 20 10-1 1 3h-14l-1 4c-4-2-7-2-10 2-3 3-2 5 0 8a6 6 0 0 1 0 5l-4 1h-4v4a4 4 0 0 0 0 2l-2 5-4 4h-10l-7 1-15-2-10-2-2-7 1-1c-2-6 0-7 5-6l11 4 13 2v-4l8-1-5-5c0-2 2-4 4-6h-4l-5-2-3-1 2-1c0-6-5-5-8-7-2-1-5-1-6 3v2l-10-1 1-2c2-2 3-3 1-6s-5-2-7 0l-3 4-11-1c-1-4-6 0-8-3v-12l17 4 6-2c3 1 4-1 5-3l2-4c2 3 4 4 7 2l3-1 2 1 13-2 4 4-4 2v1h20c4 2 4 3 0 6l-2 4c1 2 4 5 5 4a50 50 0 0 0 10-8l-2-6a5 5 0 0 1 0-1l3-3Zm-37 15c1 4-2 9 3 11a38 38 0 0 1 11 7h7c2-1 2-5 1-7l-4-2c-4 0-7-2-8-6a42 42 0 0 0-2-6c-2 6-2 6-8 3Z"/>
  <path class="r" d="M749 222h-3l-11-3v-8l-1-11-3-4c-1 2-3 3-3 5l-1 17c-6 0-7 0-6-7l2-19 2-10c0-4 1-7 6-6l-4-6c6 3 11 4 14 7 3 2 4 6 5 9l6 10 5 7 7 9 4 10h-15Z"/>
  <path class="y" d="M700 244h-20v-1l4-2-4-4 7-1v-1l-26-3 4 6-3 1c-3 3-5 1-7-2l-3-7 1-1h10l43-1a26 26 0 0 1 9 1c3 1 3 4 3 7l-22-2-1 1 9 2-4 4Z"/>
  <path class="r" d="M775 207c-10 0-11 0-15-9l-8-20 3-3 4 4 5-3 6 16 5 15ZM758 126a21 21 0 0 1 3 16 106 106 0 0 1-3 10l-11 1-8 1v-5l4-5-4-2v-1l3-4 2-3 2 7c0 1 1 4 3 2 3-3 5-7 6-10a9 9 0 0 1 3-7Z"/>
  <path class="q" d="m644 217 1 6c-2 4-2 7 2 9 0 3-3 6-7 5l-8-3-9-6 2-1 3-3 5 4v-6c3 0 3-2 3-5l-1-8 3-2a23 23 0 0 1 3 3l3 7Z"/>
  <path class="n" d="m623 228 9 6-2 3 2 3-5-1a6 6 0 0 0-1-1l-6-4 5 1v-1l-17-6-6-7h2c3-4 6-3 11-2 3 0 6 2 8-2h2l1-2 7 3 3-1c0 3 0 5-3 5l-1-3-4 5-3 3a12 12 0 0 1-1-2c-2-3-5-3-8-2Z"/>
  <path class="p" d="m739 154 8-1 11-1-6 5-7 3a4 4 0 0 0-2 2l-3 8c-1 3-3 4-5 1-3-3-2-6 1-9l-1-5v-3ZM727 218l1-17c0-2 2-3 3-5l3 4 1 11v8Z"/>
  <path class="q" d="M758 126a9 9 0 0 0-3 7c-1 4-3 7-6 10-2 2-3-1-3-2l-2-7 2-1c6-1 7-3 4-8 2-4 4-4 8 1Z"/>
  <path class="p" d="m644 217-3-7a23 23 0 0 0-3-3l-3 2-5 2h-2l-9 1v-2c6-2 12-3 17-6l4-5 5 13c1 1-1 3-1 5ZM750 125c3 5 2 7-4 8l-2 1-2 3-3 4c-4 1-1-4-3-5l5-7c2-2 6-2 9-4Z"/>
  <path class="r" d="m627 239 5 1 12 1 4 3-6 2-17-4c-2 0-6 0-6-4Z"/>
  <path class="o" d="m681 221-1 2-27-1-5-2c8-4 15-1 23-1Z"/>
  <path class="n" d="m740 106 1-1 5 5 5 8a19 19 0 0 0 3 2l-7-1c-1 3-3 7-8 5v-2l7-7Z"/>
  <path class="p" d="m764 176-5 3-4-4-3 3-2-2c-1-4 3-6 6-7 4-1 7 2 8 7Z"/>
  <path class="v" d="M653 222h27c1 3-2 3-3 3l-20-1h-3l-1-2Z"/>
  <path class="k" d="m768 222-4-10 2 1h9v2l-6 3-1 4Z"/>
  <path class="v" d="m681 221-10-2c7-3 14-1 21 0l-2 1Z"/>
  <path class="p" d="M733 157h-1c-3-3-3-7-1-10h3l1 7ZM739 122v2l-5 7-4 3c0-6 4-12 9-12Z"/>
  <path class="v" d="m745 222-2 3-16-3h13a44 44 0 0 1 5 0Z"/>
  <path class="q" d="M734 147h-3l5-11c2 1-1 6 3 5v1l-2 2Z"/>
  <path class="p" d="M647 232c-4-2-4-5-2-9h2a39 39 0 0 1 2 7l-2 2Z"/>
  <path class="v" d="M719 221h-21l19-1 2 1Z"/>
  <path class="q" d="m718 173-2-6 1-4a28 28 0 0 1 1 5 33 33 0 0 1 0 5Z"/>
  <path class="n" d="m653 222 1 2-1 5-1 1c-1-3-4-6 1-8ZM733 157l2-3v3Z"/>
  <path class="r" d="m791 251-1 3a11 11 0 0 1-4 1l-31 1-11-1-3-5-4-8-1-3v-9l10 1 1 2 23 4 12 4a17 17 0 0 1 1-3 18 18 0 0 1 2-3 1 1 0 0 1 1 0l2 6c1 3 4 5 0 8Z"/>
  <path class="x" d="m837 254 5-1v2h-11v2l8 2-2 5c-4 0-4 3-4 5 0 5-4 11 2 15l1-5c-1-5 0-5 5-4l4 1v5c-3 2-7 3-10 6-2 1-2 4-3 6v6h-2c-2-4-5-4-8 0l-9-1-7-1 4-6c1-5 3-7 8-7a69 69 0 0 0 8-2l1-1-9-7 9-11-5-13h10Z"/>
  <path class="r" d="m754 260 32-2 1 8c-2 1-1 2 2 4v2h-7c0 4 1 10-5 10l-8-3-7 3-2-1 3-4-9-17Z"/>
  <path class="w" d="m851 233 11-1a21 21 0 0 0 4 1l32-1h8l-1 1a21 21 0 0 1-14 2l-11 1-4 2a89 89 0 0 0-9-3l-5 2 3 4c6 0 11 3 16-1l5 2 1-3h1l1 7h-8a69 69 0 0 0-7 1c-5-3-11-2-16 2h-3l-3-6-1-10Z"/>
  <path class="p" d="M736 230v9l1 3 4 9 3 4a57 57 0 0 0-6-1h-11v-6l-3 3c-3-6-3-13-2-19l4-3c3-1 7 0 10 1Z"/>
  <path class="e" d="m732 261-1-3a13 13 0 0 1 3 0 26 26 0 0 1 4 2v5l13 20 3 1 10 6a2 2 0 0 1 0 2 3 3 0 0 1-2 1 50 50 0 0 1-5 0c0-5-3-5-7-3l-6-1 2 3-7 3-6-3 6-4c2-2 4-3 7-2h4l-8-10-10-17ZM855 249h3c5-4 11-5 16-2l2 3-2 4h-3c-4 0-7 0-10 3a8 8 0 0 1-10 0h-8l-1-2v-2h8l5-4Z"/>
  <path class="s" d="M828 234c2-3 12-4 13-2l1 6-4 3-4 3-10-1h-8v-4h3c1 3 3 2 4-1l2-1Z"/>
  <path class="q" d="M785 235a18 18 0 0 0-2 3 17 17 0 0 0-1 3l-12-4-23-4-2-2c12-2 24 0 36 2l4 2Z"/>
  <path class="p" d="m754 260 9 17-3 4-9-10c-1-3-2-6-5-7l-1-3Z"/>
  <path class="k" d="m754 286-3-1-13-20v-5c2-4 4-1 6 1l2 3 1 7 1 3 6 12ZM819 239h-3l-11-2h-6l-1 4c-2-2-6-3-5-7h19a16 16 0 0 0 3 1l10 2-2 1Z"/>
  <path class="e" d="m846 218 2 27-1 3-2-2a36 36 0 0 1-1-8l1-20Z"/>
  <path class="w" d="m700 241 4-4-9-2 1-1 22 2v3l-4 2h-14Z"/>
  <path class="n" d="m791 251-3-2c4-3 1-5 0-8l-2-6 3-1 6 11 1 7a14 14 0 0 0-3-2l-2 1ZM787 266l-1-8 11-3 2 3v2c-4-1-6 2-7 6h-3Z"/>
  <path class="k" d="m799 258-2-3-1-3-1-7 2-1c1 2 3 3 3 5 0 4 2 7 7 6-2 5-2 5-8 3Z"/>
  <path class="w" d="m824 243 10 1 4-3 4-3v5l-2 3-4 3c1-3-2-4-4-4h-8Z"/>
  <path class="n" d="M846 218h-1l-2-35h2l1 35Z"/>
  <path class="z" d="M848 154h-1l-1-5v-3l2-1 7-3v3l-3 4-4 5Z"/>
  <path class="n" d="m836 249 4-3 2-3 1 6-6 5-5-4Z"/>
  <path class="p" d="m797 244-2 1-6-11h4c-1 4 3 5 5 7Z"/>
  <path class="e" d="m825 236-10-1a16 16 0 0 1-3-1l12-2 4 2ZM749 222h4l8 3h8v1l-7 1-9-1c-3 0-4-1-4-4Z"/>
  <path class="q" d="M779 223h-6l-2-3 4-1 4 3Z"/>
  <path class="n" d="M846 155v10l-3-8 3-2Z"/>
  <path class="e" d="m746 264-2-3h1Z"/>
  <path class="g" d="m944 314 2-4 16-2c0 2 1 3 3 2 4-3 7-1 10 2 1 2 3 2 5 2l7 2v1l-13 5v1l14 4c7 1 7 1 7 7l4 1v2a99 99 0 0 1-10 3c-4 1-5 3-3 8l-6 1h-7c0-8 0-8-9-10l-6-4h10a4 4 0 0 0 3-2 86 86 0 0 0 1-9 68 68 0 0 1-9 1c-4 0-6 1-6 5a18 18 0 0 1-3-3c-1-3 0-7-4-8ZM1051 316l7 3a12 12 0 0 1 5 4c2 2 0 3-3 4l-18 3c-3 0-5 1-7-1h-5c-2 0-5 0-7-3 0-3 0-4 3-5l10-5a15 15 0 0 1 5-1l10 1Z"/>
  <path class="y" d="m980 349 6-2 1 1-2 3 6 2v1h-2c-6-1-11 1-17 2-5 2-11 1-17 1l4-2 15-3a40 40 0 0 0 6-3Z"/>
  <path class="g" d="m979 299-9 6-6 2c-1-5 0-7 4-7 3 0 6 0 9-2l2 1Z"/>
  <path class="t" d="m986 294-2-3-2 3c-2-5-7-4-9-7-1-2 1-5-2-5-8 0-12 4-13 11 0 2-1 4-4 2l-5-5c-1-4-3-2-6-1l-10 4-2-1 3-3v-1a14 14 0 0 0-10 3h-2l1-1c1-3 1-9 7-6h2l8-4-3-4 4-1 6 2 10-4h7l7-1c0 4 3 5 6 5h6l15 1c4 0 6 1 6 5l-4 5-9 3-3 3Z"/>
  <path class="j" d="M1004 283c0-4-2-5-7-5l-15-1h-5c-3 0-6-1-6-5l13-2 6-1c5 0 10-1 12 4l8-3c3 0 5-2 5-5h2c2-1 6-1 7-3 1-4 4-3 7-3l-5 15 12 2a33 33 0 0 1-4 3c-6 3-12 0-18 2-4 2-8 2-12 2Z"/>
  <path class="f" d="m1073 265-2 8-24-2a42 42 0 0 1-6 0l-2-2 3-2 20-1 11-1Z"/>
  <path class="y" d="M1031 259c-3 0-6-1-7 3-1 2-5 2-7 3v-4c3-4 9-2 11-8l4-1 5-1-3-2 4-3h10l-5 5c-1 1-2 2-1 3l3 1a7 7 0 0 0 0 1c-4 4-9 2-14 3Z"/>
  <path class="p" d="M1045 256a7 7 0 0 1 0-1c-2-4 1-5 4-6l7 1-2 4Z"/>
  <path class="k" d="m1054 254 2-4a61 61 0 0 1 5-4 21 21 0 0 1 5-1l-6 6c-1 1-5 0-1 3l-3 2-2-2Z"/>
  <path class="q" d="M1059 254c-4-3 0-2 1-3l9 2v1Z"/>
  <path class="t" d="M229 352c2-4 5-1 7-2a27 27 0 0 1 5 1l-1-2c-8-4-15-8-25-6h-14l-8-1-1-4a25 25 0 0 1 6-2 35 35 0 0 1 4-1v-2l-6-1v-2l23-5c3 0 5 0 4-4l3-2 12 2c-1 6-4 9-10 10l-3 2a11 11 0 0 0 2 3l6 2 2-4 8 8 4-3 4 3c-1 4 1 4 3 5h12l2 4 9-4 2-5 6-1c-2 2-2 6 0 7 3 2 3 5 4 8l-11-1c-4-2-7-1-9 3h-5a20 20 0 0 1-3-1l2-3h-7a33 33 0 0 1-4 0l-8-2-15 1Z"/>
  <path class="j" d="M124 312h12l-3 6-10 1v1l7 1 7 11a58 58 0 0 1 3 8l-10-5c-3-1-5-1-6 3-6-2-8-7-9-12s-3-5-6-5l4-2c6 0 10-2 11-7Z"/>
  <path class="m" d="m238 321-12-2-3 2c1 4-1 4-4 4l-1-6h-1c-4 4-8 4-13 4l-9 3c-1-1-2-3 0-5l3-3 11-4h6l24-3c-1 5 5 3 7 6l-6 4Z"/>
  <path class="aa" d="m239 311-24 3h-6l-11 4-5-2 7-4-3-1 11-1v-1h-6l8-5 3-3a33 33 0 0 0 5 2 49 49 0 0 0 5 0l-4 4h18l9 1 9 1v3Z"/>
  <path class="n" d="m130 321-7-1v-1l10-1 8 1Z"/>
  <path class="h" d="m833 383-19-7c-4-1-8 0-12 1l-18 1a11 11 0 0 1-3-1v-1l12-3a11 11 0 0 1 3-1h25c3 2 6 2 7 0l26 1a1 1 0 0 0 1 0c3-3 6-5 11-1-2-5-4-6-8-5-2 0-5 2-5-2 7 0 14-2 21 2l3-1c8-1 15-3 23 0 1 1 3-1 4-1l3 4c-6 0-11 1-16 4l-4-1 1 4c-4 0-8-1-13 1-13 4-27 8-42 6Z"/>
  <path class="j" d="m906 369-2-4a12 12 0 0 0-3-1l-25-1h-4c-2-5-5-2-8-2h-4l-4-2a15 15 0 0 1 4-2h5l6-3h14l31-2 11 2a18 18 0 0 1 4 1l1 2c-8 1-13 3-14 6l14-4h8l-3 6-14 2-17 2Z"/>
  <path class="z" d="m882 103-2 9c-2 3-3 7-6 10a79 79 0 0 1-10 10l-14 11a9 9 0 0 0-2 2l-2 1c-4 0-9 3-13 0-6-5-13-8-15-16l-5-18a16 16 0 0 0-9-12c-5-3-8-6-7-12a6 6 0 0 1 1-4c3-3 6-6 7-11l3-10a15 15 0 0 1 8-10v10l5-3c3 6 5 0 8 0l-1 1 11 3v-1l-7-13c2-5 6-7 13-8 11-1 11-1 11 10 0 4 1 5 5 5h6c4-2 5 0 6 4l2 9 3-2v5c0 2 0 4 3 4l2 3a72 72 0 0 1-5 5l-2-3-1-5c-1 6 1 11 3 15l2 7a29 29 0 0 0 2 4Zm-51 12a20 20 0 0 0 0 3l2 1 1 3c-3 1-4 2-3 5 0 3 0 7-5 7 5 5 8 10 16 10l-4-8a48 48 0 0 0 7-4 3 3 0 0 0 0-3c-4-4-4-9-4-14s-4-9-9-9v4l-3 1-2-2a19 19 0 0 1 1-5c1-7 1-7-6-9a15 15 0 0 1-3-1h-1l1 4c1 3 4 6 4 9l-1 19a40 40 0 0 0 0 5h1l1-5c0-5 1-10 7-11Zm31-15c1-5 0-7-7-8Z"/>
  <path class="ab" d="m240 270 3-1 6-2c4-1 2-3 1-5l3 1c2 4 5 3 8 0l3 4h16c2-1 6 0 6-4a5 5 0 0 1 1 0l7 2 1 1-6 2 2 4 1-2 6 1c2 5 11 1 11 8l1 1 9 1c-1 4-1 7 3 8l2 2a42 42 0 0 1-6 0l-11-2c-7 0-12 5-20 4l-9 2c-2-3-5-5-9-6a37 37 0 0 1-6-2c2-3 5 1 8 0a21 21 0 0 0 3-1l-2-3-14-2h-12l2-4-7-3Z"/>
  <path d="M293 245v-3c7-7 14-11 25-9 9 2 18 1 26 2l13 4c4 2 6 6 8 11l-6-2c-5-1-9-4-13 1l-3 1h-40l-6-2a47 47 0 0 1-4-3Z" style="fill:#b53940"/>
  <path class="x" d="M348 266c4 4 9 3 14 2l12 1c4 0 9 1 11-3 4 0 5-1 4-6l6 3a26 26 0 0 0 4 2 25 25 0 0 0 3 1c0 3-2 5-5 6s-6 2-7 6h-2a15 15 0 0 0-4-2 79 79 0 0 0-10-1 77 77 0 0 0-9 0h-3c-6-2-8-2-11 4l-3 1h-4l-9-4a28 28 0 0 1 3-1 31 31 0 0 1 3-1v-1h-3c-6-3-11 0-16 2h-3c-2-1-3-3-5-3-3-1-4-2-4-5h21c6-4 11-3 17-1Z"/>
  <path class="aa" d="M286 263c0 4-4 3-6 4h-16l-3-4c-3 3-6 4-8 0l-3-1c1 2 3 4-1 5l-6 2c-3-5-4-5-11-4l3 2-12 4-3-1-7 2c1-5 1-11 7-13l-2-5h2c3 2 6 5 9 4s7-2 7-7h1c1 4 4 5 7 5h12l6-1 3 3 4-1 4 1c3 5 7 3 11 3Z"/>
  <path class="w" d="M348 266c-6-2-11-3-17 1h-21c0 3 1 4 4 5 2 0 3 2 5 3h3c5-2 10-5 16-2h3v2a31 31 0 0 0-3 0 28 28 0 0 0-3 1c-4 3-8 7-14 5l-2 1-9-2-1-1c0-7-9-3-11-8h-6l-1 1-2-4 6-2-1-1 5-10 7 1c-1 3 3 3 4 5 2 3 5 4 9 4l15-2 3-7c8-2 8 5 11 10Z"/>
  <path class="h" d="M402 266a25 25 0 0 1-3-1 26 26 0 0 1-4-2l-6-3c1 5 0 6-4 6l-1-5c3-4 2-7 2-11-2-4-4-5-8-2l1 4-1 1-2-3-4-10v-2h6l8 1c0 4 1 7 5 8l9 1 1-5 4-1 2 7-2 2-1-3-1 1 2 13h1c0 4-2 4-4 4Z"/>
  <path class="y" d="m337 256-3 7-15 2c-4 0-7-1-9-5-1-1-5-1-4-5h21l10 1Z"/>
  <path class="c" d="m376 250 2 3 1-1-1-4c4-3 6-2 7 2s2 7-1 10l-6 2-1-3-3-4Z"/>
  <path class="d" d="m299 255-5 10-7-2 2-4-1-1h4v-9l1-1Z"/>
  <path class="k" d="M385 266c-2 4-7 3-11 3l-12-1 1-2 2-1-1-1 1-8 3-1 2 4v1l-2 7 17-1Z"/>
  <path class="x" d="M284 261c-4 0-8 2-11-3l-4-1-1-3 13-1c3 0 2 2 3 4v4Z"/>
  <path class="e" d="m363 253-5 7a3 3 0 0 1-3 1l-1-2a6 6 0 0 1 1-3l2-5c1-1 4 1 6 2Z"/>
  <path class="o" d="M370 260v-1c-1-3 1-4 4-4l3 4-6 1Z"/>
  <path class="c" d="m368 255-3 1v-4c4 1 4 1 3 3ZM364 264l1 1-2 1 1-2Z"/>
  <path class="m" d="m988 294 3-3Z"/>
  <path class="p" d="m123 295-27 8-1-2 26-7Z"/>
  <path class="k" d="m81 297 19-5-10 5-4 2-5 1Z"/>
  <path class="ab" d="m318 402-1 3h-2l-5-1-8 2h-17l2-5a23 23 0 0 1-2-4c-1-3-1-6 3-7l9-3 27-4-6 19Z"/>
  <path class="t" d="M285 406h17l8-2 5 1-5 4-12 1-9 1-2-1-3-2ZM770 374l-11-11c2-3 5-1 5 0 2 5 6 5 9 3l3 4c3 1 3 3 3 5-3 1-4-4-7-1Z"/>
  <path class="m" d="M772 374c3-3 4 2 7 1h1l1 1v1c-3 0-6 1-9-3Z"/>
  <path class="t" d="m318 402 6-19-27 4h-14a35 35 0 0 0-9 3l-2 3a40 40 0 0 0 4 2l5 1v1h-9l6 10a2 2 0 0 1 0 1 34 34 0 0 1-5 0 58 58 0 0 1-9-1 10 10 0 0 1-4-3v-2a14 14 0 0 1 5 0 57 57 0 0 1 6 2c1-4 0-5-4-5l-14-2v-2l5-4-6-1v-1l11-1 1-2-5-4c1-4 2-6 6-7a5 5 0 0 0 2-3c2-3 4-5 8-4a13 13 0 0 0 6-1l3-4 5 2 14-1 8 1a37 37 0 0 0 6-1l1 1c2-3 5-4 8-2s5 1 5-2l15-1a27 27 0 0 0-2 3 29 29 0 0 0-1 4l4-1c3-3 14-3 18-2l8 1h6c5 1 12 0 16-4l-10-4a18 18 0 0 0-2-3 12 12 0 0 1-3-11l9 6v-1l2 5h1l1-4 2 8 3 2a83 83 0 0 0 8-4h1l2 2 7-2 1 1-5 9c0 4-1 5-4 3l-3 1 2 3c5 2 9-2 15-4l-8-1c4-4 11-2 12 1l-3 2c1 2 1 5 3 6l6 1 7-2c4 0 6-2 6-5l-3-2a58 58 0 0 1 4-6l-9-2-8-12h-4a46 46 0 0 1-5 0c-6 0-8-6-11-8v-4l4-5c-5-1-7-1-8 4l-2 5-2-1a9 9 0 0 1 3-8l6-6 3-3 10 2 3 1c0 4 4 6 7 8l4-2h8c4-4 8-4 12-4 3 0 5 0 6 2l3 1c6-1 9 3 13 6l-2 10 22-1c1 3 2 4 7 3l8 2v2a2 2 0 0 1-2 1l-10 2c-5 0-6 3-5 7 1 2-1 4-2 7l15 3v4l-8 1 5 5c-3 3-5 0-7-2a34 34 0 0 0-4-3l-1 1 2 4-23-3v-3l-7 3c-2 0-4-2-6-4-2 3-4 3-8 2-3-1-7 2-11 3 4 4 7 5 11 5 3 0 7-1 8 3s-4 5-7 6l-8 3c-4 2-6 1-8-3 3-2 3-8 0-12h-5l-7 4h-7l2-4c-3-5-5-5-11-5-7 0-15 2-23-1a11 11 0 0 0-11-4h-7c-1-1-3 0-4 1s1 2 1 3a9 9 0 0 0 1 2h-18l-24 2v2a36 36 0 0 0 5 0c4 0 7 1 9 4h-1c-7 0-11 4-14 10-1 3-4 4-6 6Zm147-54c0 4 4 2 6 3l5-4-1-2-4 1-6 2 5-5-5-3-2 3-7-13-15 9c3 2 4 4 6 4 4 0 7 1 7 5Zm-36-6 2-8c-4 2-5-4-10-2l4 4-4 3Z"/>
  <path class="m" d="M331 361c0 3-2 4-5 2s-6-1-8 2l-1-1a37 37 0 0 1-6 1l-8-1-14 1-5-2-9 1-6-1v-5c2-4 5-5 9-3l11 1 7 2 32 1 3 2Z"/>
  <path class="a" d="m230 353 14-1 8 2a33 33 0 0 0 5 0l1 4h-5l-18-2c-2 0-4-2-5-3Z"/>
  <path class="t" d="M257 381h-11l2-2 10-2-1 4Z"/>
  <path class="k" d="m932 357-1-2a18 18 0 0 0-4-1h11l1-2-8-4 24 2v1l-3 2v1l5-1c4-3 8-2 12-3l4-1h7a40 40 0 0 1-6 3l-15 3-4 2-10 2 3-7-6 2c-2 1-5 1-5 5h-5v-2Z"/>
  <path class="y" d="M937 359c0-4 3-4 5-4l6-2-3 6h-5Z"/>
  <path class="j" d="m217 352-7 1v-2l7-1Z"/>
  <path class="w" d="m1022 232 10-1h10l4 2-22 2v1l4 2-2 2-9 1-2 2 3 2c-2 5-7 4-11 5l5 3c4-3 9-3 15-1l-9 4-10 1v-2h1-1l-10 2-3-3 10-6 2-4 4-3 2-1 2-2-1-1-1 3-2 1-4 3-3 1h-8c2-5 11-6 7-13l-6 3h-1l2-5 20 1-2 4 2 1Z"/>
  <path class="ab" d="M966 241v1l-3 2-2 1-6 3-33-3 2-4 5-2a27 27 0 0 1 12-1c5 1 11 0 16-1l10 2-1 2ZM957 273l-10 4-6-2v-9h12c4 2 6-1 8-3l13-1 1 3-16 6-2 2Z"/>
  <path class="n" d="M961 263c-2 2-4 5-8 3v-4l6-1 11-10-4-2-6 2v-2l1-3c7 1 13 1 19-2 0 4 2 5 6 4a15 15 0 0 1 7 1l-8 1c-3 0-6-1-8 1l-16 12Z"/>
  <path class="w" d="m957 273 2-2 16-6 13-2a47 47 0 0 1 7 0l5 1-12 2c-2 0-3 3-4 4l-13 2-7 1ZM961 263l16-12c2-2 5-1 8-1l-11 12Z"/>
  <path class="n" d="m1000 264-5-1a47 47 0 0 0-7 0l-6-4 13-5 3 3 10-2v2l-2 3-4 4h-2ZM978 234l4 1-2 4c-2 3-6 3-8 1Z"/>
  <path class="e" d="m978 234-6 6-6 1 1-2 5-4 1-1 3-2 2 1a3 3 0 0 0 0 1ZM961 246l-1 3-7 3 2-4 6-3v1Z"/>
  <path class="n" d="m980 244 9-9 1 1c-2 5-6 6-10 8ZM1004 245l3-1-2 4-1-3ZM963 244l3-2Z"/>
  <path class="e" d="M208 195a72 72 0 0 1 6 5c13 14 28 26 43 37l1 5h-1l-9-7-15-13-9-6-17-18 1-3ZM200 194c-3 1-5-2-7-4l-5-5a16 16 0 0 1 12 9Z"/>
  <path class="v" d="m501 166-2-1a30 30 0 0 1-2-5h4l1 5-1 1ZM504 151v3h-2a15 15 0 0 1-3-2 30 30 0 0 1 4-1h1ZM501 166l2 1-1 1-1-2Z"/>
  <path class="aa" d="M278 408a2 2 0 0 0 0-1l-6-10h9v-1l-5-2a40 40 0 0 1-4-1l2-3a35 35 0 0 1 9-3h14l-9 3c-4 1-4 4-3 7a23 23 0 0 0 2 4l-2 5-1 2Z"/>
  <path class="q" d="M39 271c0 3 1 4 4 2 3-3 7-6 11-2a28 28 0 0 1-14 10l-21 6-6 1 3-4 13-10Z"/>
  <path class="e" d="m64 273-9 9-6 3c4-5 9-8 12-13a49 49 0 0 1 9-12 15 15 0 0 1 3-2l-9 15ZM29 274l-14 10c0-4 3-6 7-8l7-2Z"/>
  <path class="a" d="M535 404c0-3 1-4 3-3v1Z"/>
  <path class="aa" d="m483 240 8 1a10 10 0 0 0 3 1 35 35 0 0 0 4 1v2l-14 2 5 4c2 4 3 8 9 5a16 16 0 0 1-3 4l-4 4h-3l-3-2-16 4c0-3-1-5-4-6s-8 3-8 5l-3 1-5-3c-2-2-4-2-6 1a36 36 0 0 0-10 1l-8 4v-1l2-6h-1l-2 1-6-2h-7c2-5 7-5 10-6l9-3v-1c-6 1-9-2-10-7 6 1 13 0 19 2s11 1 16-1l8-2 3-4h2l1 1 1-1h2c0 4 0 8 5 9Z"/>
  <path class="w" d="m491 264 4-4a16 16 0 0 0 3-4c-6 3-7-1-9-5l-5-4 14-2v-2a35 35 0 0 1-4 0 10 10 0 0 1-3-2c1-2 2-3 4-3h15a37 37 0 0 0 5 2c5 1 10-1 15 3v4l-11 2-1 3c-2 3-5 2-7 1-4-2-6-2-9 2l7 2c4 0 5 3 7 4s6-1 9-1l-3 7h-4l-10-2c-4-1-8-3-13 0l-4-1Z"/>
  <path class="t" d="M420 244c1 5 4 8 10 7v1l-9 3c-3 1-8 1-10 6h-2l-2-1-1 2h-1l-2-13 1-1 1 3 2-2-3-7 2-3 11 1Z"/>
  <path class="h" d="m420 244-3-4 33-1 13 1v3l-8 2c-5 2-10 3-16 1s-12-1-19-2Z"/>
  <path class="ab" d="M530 243c-5-4-10-2-15-3a37 37 0 0 1-5-2v-3l27 2 8 3c-4 2-8 2-9 7h-2c0-3-1-4-4-4Z"/>
  <path class="x" d="m401 243-1 5-9-1c-4-1-5-4-5-8l12 1v3Z"/>
  <path class="w" d="m483 240-6 8c-5-1-5-5-5-9Zm-5 3h-1v1l1-1Z"/>
  <path class="k" d="M401 243h-3v-3l8-1-2 3Z"/>
  <path class="p" d="M378 238h-6v-1c2-4 4-4 8-3Z"/>
  <path class="w" d="M463 243v-3l3-1ZM470 239l-1 1-1-1Z"/>
  <path class="h" d="M372 237v1-1Z"/>
  <path class="x" d="M1040 246h-2l-3-1-9-2 6-5 14 2 7 1-5 4Z"/>
  <path class="y" d="m1046 240-14-2h-4l-4-2v-1l22-2v7Z"/>
  <path class="n" d="m1048 245 5-4 4-2 1 1-9 9c-3 1-6 2-4 6l-3-1c-1-1 0-2 1-3l5-5v-1Z"/>
  <path class="w" d="M1047 233c2-3 3-2 5-1l-1 1Z"/>
  <path class="d" d="m508 188 3-4 7-4 7-2v2c-6 1-2 5-2 7v1c-9 0-9 0-9 8l-3-1c1-4-1-4-4-2l1-5Z"/>
  <path class="v" d="M514 196c0-8 1-8 9-9l2 6c1-3 2-5 4-2v2l-1 2c-1 0-4-3-4 1Z"/>
  <path class="d" d="M529 191c-2-3-3-1-4 2l-2-6c4 1 5 0 4-4l-1-2c3 1 6 1 3 5l1 2c2 2 1 2-1 3Z"/>
  <path class="v" d="m526 181 1 2c1 5 0 5-4 4 0-2-4-6 2-7Z"/>
  <path class="y" d="m258 242-1-5h3l20-1 2 1c4 2 3 4 0 5l-13 5-11-4a1 1 0 0 0 0-1Z"/>
  <path class="k" d="M258 242a1 1 0 0 1 0 1l10 11 1 3-4 1-3-3-6-7-2-3 3-3Z"/>
  <path class="f" d="m280 236-20 1c1-4 4-4 8-4l9-1Z"/>
  <path class="n" d="m269 247 13-5c1 4-2 5-4 6a22 22 0 0 1-7 2l-2-3Z"/>
  <path class="b" d="m287 244-1 1 1-1Z"/>
  <path class="f" d="m282 237-2-1Z"/>
  <path class="p" d="m43 300 9-3-6 6 15-4 1 1 15-3h4v3l-1 1-3-1a48 48 0 0 0-6 1 66 66 0 0 0-7 2l-12 3a15 15 0 0 0-2 0c-3 1-6 4-9 1l2-3-4-2Z"/>
  <path class="q" d="m43 300-4 2-2-1c-1-4-3-3-6-2a60 60 0 0 1-7 3l7-5 2-2 13-2a17 17 0 0 1 7 0Z"/>
  <path class="g" d="m52 306 12-3a66 66 0 0 1 7-2l-10 6-3 4c-3 4-6 2-9 1Z"/>
  <path class="r" d="m43 304-2 3h-9v-1Z"/>
  <path class="p" d="m774 95 4-1 1 2-2 14c-3 5-4 9-3 14l-10-11 1-5c4 1 4-2 5-4l-5-2 1-1Z"/>
  <path class="e" d="m765 102 5 2c-1 2-1 5-5 4 0-2-5-3 0-6Z"/>
  <path class="n" d="m755 108 4-3h1l-1 4h-4Z"/>
  <path class="h" d="m937 276 3 4-8 4h-2c-6-3-6 3-7 6l-1 1c-5 0-5 1-3 5a10 10 0 0 1 0 5 46 46 0 0 1 0 5l17-2 3-1 7-1v1l-6 9 4 2 6 5-2 8a16 16 0 0 0-1-2l-2-4a27 27 0 0 0-4 3 30 30 0 0 0-2 4l1-8-2-5-5 1a44 44 0 0 0-6 5c-2-1-4-3-5-2-3 1-1 3-1 4l-2 3a93 93 0 0 1-11-1l3-2-1-1h-5c-4 3-9 4-13 1 0-3 1-6 5-7 4 0 9-3 11 3l10-4-6-2-10-1c-5-1-5-1-4-6h-9c0-3 1-4 3-4 4 1 7 1 7-4l3-2c0 3-2 7 2 6 2 0 3-3 5-5v-3c3-2 3-5 1-7a5 5 0 0 1-1-3l6-2a18 18 0 0 1 2-1l17-5ZM954 295c3 2 4 0 4-2 1-7 5-11 12-11 4 0 2 3 3 5l-7-1v1c3 5 2 7-2 10l-15 6 1-8Z"/>
  <path class="t" d="m950 295-1 8h-2v-1a24 24 0 0 1-1-4 23 23 0 0 1 0-5Z"/>
  <path class="x" d="M585 230c-2 4-7 3-11 3a66 66 0 0 1-9 0l-17-1-8-1 15-1 25-1 3-1h1l1 2Z"/>
  <path class="b" d="m585 230-1-2a33 33 0 0 1 5-2l8 1a20 20 0 0 0 3 0 35 35 0 0 0 4-1l1 5-17-1Z"/>
  <path class="n" d="M619 210v2l-16 2 1-2c10-5 20-8 31-11v2l-12 4a22 22 0 0 0-4 3Z"/>
  <path class="p" d="m626 215-1 2h-2c-2 4-5 2-8 2-5-1-8-2-11 2h-5c-4 1-4-1-2-3 9-3 19-3 28-4Z"/>
  <path class="w" d="m588 230 17 1h1l4 2 1 2a17 17 0 0 1-4 1l-12-1-4-2c-2 1-3 0-3-3Z"/>
  <path class="e" d="M625 214c-9 1-19 1-28 4 0-4 3-4 6-4l16-2 9-1-3 3Z"/>
  <path class="l" d="m610 233-4-2 2-4 17 7v1l-5-1Z"/>
  <path class="m" d="m905 233 1-1 60-1v2l-2 1-7 1-11-1h-37a28 28 0 0 1-4-1Z"/>
  <path class="y" d="M966 234v-3l10 1-3 2Z"/>
  <path class="a" d="M359 402h4c-2 3-3 2-4 0ZM214 362Z"/>
  <path class="b" d="M514 196h11l-2 3-13 4-3 4c-2 1-2 3-3 5l-2-5-3 3c-1-1-1-3-4-2h-5l5-9 1-1v-1l-1 2h-4c0-6 2-9 8-9 3 1 3 3 3 5a34 34 0 0 0-1 4 19 19 0 0 0-1 3 16 16 0 0 0 3-1 36 36 0 0 0 4-2c3 2 4 1 4-2v-2Z"/>
  <path class="k" d="m58 311 3-4 10-5a48 48 0 0 1 6-2l3 1-13 5c-2 1-3 2-3 5Z"/>
  <path class="d" d="m779 94-2-4c2 2 6 3 7 5 2 1 1 4 1 6l-3-4c0-3-2-2-3-3Z"/>
  <path class="n" d="m1022 232-5 4-1-1 2-4Z"/>
  <path class="o" d="m645 334-17 1-2-1c-4-1-8-2-11-1l-60 3-24 2h-23l4-6c2-2 5-2 6-4 2-1 2-3 3-5 2-2 4-4 7-4l20-6 6 2 9 2h8l19 3a17 17 0 0 1 6 2 23 23 0 0 0 16 4l13 3 2 2 11-1h8l-1 4Z"/>
  <path class="t" d="M685 368h-2l-3-10c16 0 16 0 18 3l-3 1v1l11-1c-4-4-3-6 4-12l-5-7-2 6c-2-2-2-3-1-6l3-6a32 32 0 0 0 5 2c2 1 6 2 8 1 3-2 5-1 7 0 5 3 6 3 6-3l3 8c-2 4 0 6 2 9l2 6h-21c-2 6-9 4-12 8l-3 1-7 2c-1-3-2-7-8-4Z"/>
  <path class="aa" d="m705 337-3 6c-1 3-1 4 1 6l2-6 5 7c-7 6-8 8-4 12l-11 1-1-1 4-1c-2-3-2-3-18-3-3 0-7 0-11-4l5-1-4-10c-1-2 2-4 3-5h1v-4h11l4-2 3-2 7 3 1 4Z"/>
  <path class="x" d="m628 335 17-1c0 3 2 6-1 8s-7 3-10 1l-8 5 1-8-1-1-7 8-9-3-2-3 2-5Z"/>
  <path class="w" d="m628 335-18 1a35 35 0 0 0-5 0h-10c-2 0-4-1-6 1l-4 1h-10l-2 1-30-1-5 2-4-1-3-1 24-2 60-3c3-1 7 0 11 1l2 1Z"/>
  <path class="t" d="m585 338 4-1c2-2 4-1 6-1h10a35 35 0 0 1 5 0l-2 5 2 3-1 5-6-3-4-1c-3 4-7 2-10 1Z"/>
  <path class="s" d="m689 332-4 2h-40l1-4a45 45 0 0 0 6 1l37 1Z"/>
  <path class="t" d="m573 339 2-1v4l-2 2-2-1Z"/>
  <path class="w" d="m507 381-5-4 8-1v-4c5 1 9 2 10 9-2 0-5-1-7 1-1 1-4 0-6-1Z"/>
  <path class="m" d="M478 336c-3-3-6-7-12-6l-3-2c-2-1-3-2-6-1-5 0-8 0-12 4h-8l-4 2c-3-2-7-4-7-8h16c-3-3-5-6-8-7-3-3-3-3 0-7a21 21 0 0 0 4-7c1-1-1-3-2-4l-3 3c-1 1-2 4-3 3-3 0-6-2-11-4a29 29 0 0 0 4-2 2 2 0 0 0 0-2l-1-1c-4 3-5 1-7-2a15 15 0 0 0-1 2c-3 4-6 6-11 5l-2 1c-2 4-7 3-10 5l-9-7 1-2 1-3a15 15 0 0 0-4 1l-6 5v-1l-4-2c-3 2-8-1-10 4h-3l-12-2-6-3c0-10 0-11-8-13 4-2 6-6 10-2l3-3h4a8 8 0 0 1 0 1c-2 3-4 7 2 9 2 1 4 4 0 7 3 1 5 4 6 0 2-4 5-3 8-2 2 2 4 2 6 1l5-2a55 55 0 0 0 6-4l-7-5h-2c-3 0-5-2-5-5 6 0 12-3 18 0l3-2h15c5 0 10-2 15 1a10 10 0 0 0 7 1c4-2 6 1 8 3l6 9-10 7c5 2 10-8 13 3l4-2c5 3 10 4 15-1h5c1-3 3-4 6-1a3 3 0 0 0 2 1l19-3a4 4 0 0 1 3 2l2 4 7-8 27 2 5 2-21 1h-4a14 14 0 0 0-3 6l4 3 4 1c-10 1-20 2-29 9l4 1c4 2 7 6 11 2h2l8 1a36 36 0 0 1 6 1 97 97 0 0 1-8 7c-3 2-5 4-5 7h-7c0 3-3 5-7 4l-3-2c0-4-3-4-5-3h-6Zm-87-45 25-8c-6-3-18 0-25 8Z"/>
  <path class="w" d="M506 337c0-3 2-5 4-7a97 97 0 0 0 8-7h2l-2 5c-1 2-4 3-6 4s-3 4-4 6h23l-4 1-11 2c-4 0-8 1-10-4Z"/>
  <path class="h" d="m516 341 11-2 4-1 3 1c0 6 0 6-6 5a5 5 0 0 0-3 0c-4 2-7 0-9-3Z"/>
  <path class="aa" d="M780 375h-1c0-2 0-4-3-5l-3-4c-3 2-7 2-9-3 0-1-3-3-5 0l-11-2 3-13h7l-5-6 10-3v2l-3 4c1 2 3 1 5 0s7 3 9 5c-3 0-6-2-8 2h11v3l7 3 1-2 1 1-1 6 3 1-2 3-6 8Z"/>
  <path class="ab" d="m753 342 5 6h-7l-3 13-5-1h-5l-2-5c-2-4-4-6-2-10 4 1 7 1 10-2s5-2 8-1Z"/>
  <path class="h" d="m685 368 2-1Z"/>
  <path class="aa" d="M741 360h2Z"/>
  <path class="n" d="M466 194v1l1 3v1l-14-10v-1h4l1 1Z"/>
  <path class="v" d="M453 188v1l-7-4 1-2 6 2v3ZM499 210l3-3 2 5Z"/>
  <path class="aa" d="M536 247c1-5 5-5 9-7 4 2 7-1 11-3l14-2c5-1 8 1 9 6 4-4 9-4 14-3l7 11a6 6 0 0 0 2 2l5 3a6 6 0 0 0 6 1l12-1c2 3 7-1 8 3-2 0-5 2-6 1-3-3-5-1-7 1a25 25 0 0 1-4 1h-6c-3-4-7-1-10-4l-7-1c-4-2-7 0-10 1-5 2-10 3-15-1h-11c-2 1-4 4-8 2l-6-2c-2 0-3 2-5 3v-3l6-6c-2-4-5-2-8-2Z"/>
  <path class="t" d="m625 254-12 1a6 6 0 0 1-6-1l-5-3a6 6 0 0 1-2-2l-7-11 2-3 12 1a17 17 0 0 0 4-1l8 3c0 4 4 4 6 4v12Z"/>
  <path class="n" d="M556 237c-4 2-7 5-11 3l-8-3 1-3 9 1 7 1 2 1Z"/>
  <path class="v" d="M507 199a36 36 0 0 1-4 2 16 16 0 0 1-3 1 19 19 0 0 1 1-3 34 34 0 0 1 1-4l5 3v1Z"/>
  <path class="d" d="M512 196v1h-2Z"/>
  <path class="e" d="m510 215-1 1v-1a2 2 0 0 1 1 0Z"/>
  <path class="u" d="m466 194-8-5c6 1 12 2 17 6v2Z"/>
  <path class="q" d="M144 174v-5l-11 6-1-2c3-7 9-12 16-16l7 5v2l-6 3 5 3-4 4Z"/>
  <path class="k" d="m154 170-5-3 6-3v6ZM155 164v-2 2Z"/>
  <path class="i" d="M144 174h6l-1 6-6 3c-3 2-5 5-4 8 1 8-3 13-7 18-3 4-10 5-15 8 3-4 5-8 10-11a4 4 0 0 0 2-1l6-16a12 12 0 0 0 0-4l-4 1-8 9-5 2 8-12c3-3 6-6 11-5 2 0 7-2 7-6Z"/>
  <path class="m" d="M220 254h-2c-4 0-6 1-7 6l-5-2a30 30 0 0 1 1 5 16 16 0 0 1 0 3l-3-1a43 43 0 0 1-3-6l-4 4c-1-3-3-5-3-8-1-1 1-2 1-2 5 1 9-2 13-5l7-5 5-1c3 0 7 1 9-3h3l4 2 6-1c4 0 6 4 8 7h-7v1l-6 3h-1c-2-2-4-2-7 0a8 8 0 0 1-5 1c-2 0-4 0-4 2Z"/>
  <path class="p" d="M250 247c-2-3-4-7-8-7v-2l-10-12-8-10 9 6 15 12 9 7-3 4 2 3Z"/>
  <path class="a" d="m215 243-7 5c-4 3-8 6-13 5 0 0-2 1-1 2 0 3 2 5 3 8l-2 5a64 64 0 0 0-5-6c-3-3-1-6-2-9a4 4 0 0 1 2-4l11-2 2-3 8-1a24 24 0 0 1 4 0Z"/>
  <path class="f" d="M229 239c-2 4-6 3-9 3l-6-1c5-3 10-2 15-2ZM242 238v2l-7 1-3-2Z"/>
  <path class="i" d="m77 297-14 3c-1 1-2-1-2-1l4-1c2-1 4-3 2-5a53 53 0 0 1-1-6l1-6c2-1 4 0 5 3v3l9 2c-2 5-5 3-8 3ZM104 211c1 5 3 6 7 6h6c-2 2-5 5-8 5l-14-2c3-4 4-9 9-9ZM112 203c0 5-2 7-7 7 1-4 2-7 7-7Z"/>
  <path class="t" d="m195 268 2-5 4-4a43 43 0 0 0 3 6l3 1a16 16 0 0 0 0-3 30 30 0 0 0-1-5l5 2c1-5 3-6 7-6l2 5c-6 2-6 8-7 13l-9 2-4 4-4-2Z"/>
  <path class="ab" d="M255 312v-3l-9-1-9-1h-18l4-4a49 49 0 0 1-5 0 33 33 0 0 1-5-2c5-1 8-6 11-10l12-6c3-1 5 0 5 3-2 5-6 5-10 5-3 0-5 0-4 3l4 4a12 12 0 0 0 5 1h14c7 3 12 1 18-3l4-2-3 8a1 1 0 0 1-1 0l-4 3c-3 1-4 5-4 8l-4-2-1-1Z"/>
  <path class="t" d="M241 288c0-3-2-4-5-3l-12 6c-4-2-6-5-2-9l6-1c1-8 4-11 12-11l1 4 7 4-2 4 12-1-1 5c-6 0-11 0-16 2Z"/>
  <path class="aa" d="m200 278 4-4 10 4-6 8c-1 2-2 4-1 7l-2 4-4-3v-4l2-6 2-2-4-2-1-2Z"/>
  <path class="n" d="M157 305v-1a51 51 0 0 1 7 0l16 2-2 3 2 2-9 1-6-1-4-1-1-3-3-2Z"/>
  <path class="ab" d="m214 278-10-4 9-2 7-2 3 1Z"/>
  <path class="p" d="m94 241 7-1 3 3-2 2c-5 2-7 1-8-4Z"/>
  <path class="w" d="m171 312 9-1h6a19 19 0 0 1-15 1ZM185 309l11-2 1 2-12 2Z"/>
  <path class="n" d="M157 305Z"/>
  <path class="aa" d="m426 386 7-4c2-2 3-2 5 0 3 3 3 10 0 12l-5-1Z"/>
  <path class="g" d="M363 378h7c1 3 3 5 6 5a9 9 0 0 1 3 1c5 2 8 0 10-4a14 14 0 0 1 2-2v6l17-4 2 5 2 5c-2 1-5 2-6 1-6-1-11 1-16 1-7-1-13 4-19 0-2-2-6 0-10 0l-10 1-4 2a26 26 0 0 1-7 2l-2-3 1-2-1-6 23-1-4-3Z"/>
  <path class="h" d="M370 378h-3a9 9 0 0 1-1-2l-1-3 3-1c3 1 5 0 8-1a11 11 0 0 1 11 4l-3 2-14 1Z"/>
  <path class="y" d="m732 261 10 17 8 10h-4c-3-1-5 0-7 2l-6 4c-2-3-7-3-7-7a27 27 0 0 0-2 0l-2-5c0-5-2-8-7-9l-1 4c-2-5 1-8 3-12l1-4Zm0 23-1-2-7-3c-1 4 2 4 4 5h4Z"/>
  <path class="l" d="M620 259c2-2 4-3 7-1 2 1 4-1 6-1l11 1 2 4 2 2 19 4 7 1-2 3h-52c-3 0-4-1-3-4l3-9Z"/>
  <path class="n" d="M692 296a7 7 0 0 1 1 0l19 2 20 2h13l9-1c4-1 7-2 10 1l-7 1-6 1v1l8 1v4l-6 1-3-1-17-1a16 16 0 0 0-4 0l-6 3v-2l-2-2-13-1 3-3c-5-2-6-2-8 3l-18-2 4-3 3-4Z"/>
  <path class="aa" d="M669 272h3v2l2 3 1 2-3 1c-2 0-5 0-6 3l-11-4c-5-1-6 0-5 6l-1 1-4-2c-2 4-6 5-10 5l-8 3h-1l-4-4a31 31 0 0 1-2-3l12-1c5 0 9-4 8-9l-1-3h27l2 2Z"/>
  <path class="w" d="m754 299-9 1h-13l-20-2-19-2 4-4 2-5 13 3 5-5 3 4c2 1 4 1 4-2a27 27 0 0 1 3 0c-1 4 4 4 6 7l6 3Z"/>
  <path class="x" d="M724 287c0 3-2 3-4 2l-3-4-5 5-13-3a4 4 0 0 1 0-1v-5h4l4-1a6 6 0 0 0 0-5c-2-3-3-5 0-8 3-4 6-4 10-2-2 4-5 7-3 12l1-4c5 1 7 4 7 9l2 5Z"/>
  <path class="a" d="M681 254c6 3 6 3 8-3a42 42 0 0 1 2 6c1 4 4 6 8 6l4 2c1 2 0 6-1 7s-6 1-7 0a38 38 0 0 0-11-7c-5-2-2-7-3-11Z"/>
  <path class="p" d="m708 305 13 1 2 2a185 185 0 0 0-33-1l-6 1-12-3-1-1 1-2 15-4-4-2h10l-4 4-4 3 18 2Z"/>
  <path class="t" d="M700 241h14l-3 2a5 5 0 0 0 0 1l2 6a50 50 0 0 1-10 8c-1 1-4-2-5-4l2-4c4-3 4-4 0-6Z"/>
  <path class="k" d="m651 293 10 2-5 4-1 5-15-2a11 11 0 0 1 1-3 60 60 0 0 1 3-5Z"/>
  <path class="t" d="M666 283c1-3 4-3 6-3l3-1-1-2-2-3c5 2 7-4 10-5h4l-4 6 5 5-8 1v5Z"/>
  <path class="w" d="M682 269c-3 1-5 7-10 5v-2l2-3-7-1-19-4-2-2h6l10 1v-2l12 5 3 1 5 2Z"/>
  <path class="y" d="m651 293-7 1-11-1 2-4c4 0 8-1 10-5l4 2Z"/>
  <path class="p" d="m656 299 5-4 15 2-2 3-2 2-6-1c-3-3-6-2-10-2Z"/>
  <path class="k" d="m665 238-4-6 26 3v1l-7 1-13 2-2-1Z"/>
  <path class="g" d="M652 262h-6l-2-4 3-4c2-2 4-2 7 0s1 5-1 6l-1 2Z"/>
  <path class="t" d="m674 266-12-5c1-4 4-4 6-3 3 2 8 1 8 7l-2 1Z"/>
  <path class="n" d="m672 302 2-2 2-3 7-1 4 2Z"/>
  <path class="p" d="m737 144 2-2 4 2-4 5c-5 0-2-3-2-5Z"/>
  <path class="n" d="M737 144c0 2-3 5 2 5v5h-4l-1-7Z"/>
  <path class="p" d="M742 137Z"/>
  <path class="u" d="m630 211 5-2 1 8-3 1-1-4-2-3Z"/>
  <path class="p" d="m623 228-7-5c3-1 6-1 8 2a12 12 0 0 0 1 2Z"/>
  <path class="d" d="m628 224 4-5 1 3v6Z"/>
  <path class="e" d="m619 238-8-3-1-2 10 1 6 4a6 6 0 0 1 1 1Z"/>
  <path class="q" d="m630 211 2 4 1 3-7-3-1-1 3-3Z"/>
  <path class="y" d="M843 257h8v5l9 1c5 1 9 2 13-1a7 7 0 0 1 2 1c4 2 7 2 11-1h6v5c-1 3-4 2-7 2a46 46 0 0 0-7 0l-10 1c-4 0-5 1-4 6a26 26 0 0 1 0 4h1l2 6-3-2c-2-2-3-1-4 1l-4-2-11-2v-5l-4-1c-5-1-6 0-5 4l-1 5c-6-4-2-10-2-15 0-2 0-5 4-5l2-5ZM792 266c1-4 3-7 7-7l2 7 5 2c-4 2-5 4-5 7l5 4v-6l5 1 2 2a26 26 0 0 0 4-2h1l9 7-1 2a69 69 0 0 1-8 1c-5 0-7 2-8 7l-4 6-13-4v-4l1-4v-13l-1-3Z"/>
  <path class="l" d="m845 281 11 2 4 2a10 10 0 0 0 2 2l14 5a15 15 0 0 0-3 1 39 39 0 0 0-4 3h-8l-3-2a83 83 0 0 0-11 0 79 79 0 0 0-9 1l-6-2c1-2 1-5 3-6 3-3 6-4 10-6Zm11 9 2-3a7 7 0 0 0-3-2s-2 1-1 2l2 3Z"/>
  <path class="w" d="M818 274h-7l-5-1v-5c5 0 5-5 7-8l2 4c3-6 0-8-3-11l6-1-1-6 4-1 1 5 5 13Z"/>
  <path class="e" d="m813 298 9 1h19l5 2-4 2c-4-2-9-2-14 0a4 4 0 0 1-2 1l-11-1-3 2-5 1c-2-3-5-1-7-1-6 0-7 0-7-6a24 24 0 0 0 4 2c2 0 5 2 6-1 4 2 7 1 10-2Z"/>
  <path class="n" d="M813 298c-3 3-6 4-10 2-1 3-4 1-6 1a24 24 0 0 1-4-2v-6l13 4Z"/>
  <path class="h" d="m822 250-1-5h11c2 0 5 1 4 4l-4 1Z"/>
  <path class="w" d="M841 299h-9v-6l6 2Z"/>
  <path class="k" d="m843 257-4 2-8-2v-2h11Z"/>
  <path class="w" d="M830 299h-8c3-4 6-4 8 0Z"/>
  <path class="d" d="m754 299-15-2 7-3-2-3 6 1c4-2 7-2 7 3a50 50 0 0 0 5 0 3 3 0 0 0 2-1 2 2 0 0 0 0-3l-10-5-6-12-1-3h4l9 10 2 1a101 101 0 0 1 5 10c2 3 5 6 9 6l4 2-9 1a29 29 0 0 0-5 2v2l12-1a10 10 0 0 0 8-4l4-1 1 4-7 5-8 1a44 44 0 0 0-5 1l-12-2v-4l-8-1v-1l6-1 7-1c-3-3-6-2-10-1Z"/>
  <path class="q" d="M776 298c-4 0-7-2-9-6a101 101 0 0 0-5-10l7-3 8 3c6 0 5-6 5-10h7v13l-4 2c-3 0-3 1-3 3l-6 8Z"/>
  <path class="l" d="M789 285v-19h3l1 3-1 5 1 15v10c0 6 1 6 7 6 2 0 5-2 7 2l5-2 4 1 1 3h-7c-7-1-15-3-22 0l-2-1h-2l7-5-1-4-1-14Z"/>
  <path class="q" d="M789 266v4c-3-2-4-3-2-4Z"/>
  <path class="k" d="m955 248-2 4h-4l-4-2-6 1-27 1a17 17 0 0 0-3 1v1h29l-10 1-21 1-14 1h-3c-3-2-5-1-8 0-2 1-3 1-3-2 2-1 5-3 8-3 6 2 12 0 19-3h-18l-12 1-2-3a69 69 0 0 1 7-1l8 1h26a5 5 0 0 0 3-2l4-4h2l-2 4Z"/>
  <path class="y" d="m892 246-3 1-1-8h-1l-1 3-5-1-1-5h11a21 21 0 0 0 14-3 28 28 0 0 0 4 1h38l10 1v2c-5 1-11 2-16 1a27 27 0 0 0-12 1l-5 2h-2l-4-3-11 3a46 46 0 0 1-5-1 7 7 0 0 0-10 6Z"/>
  <path class="t" d="m880 236 1 5c-5 3-10 0-16 0l-3-4 5-2a89 89 0 0 1 9 3Z"/>
  <path class="w" d="M873 262c-4 3-8 2-13 1l-9-1v-5a8 8 0 0 0 10 0c3-3 6-3 10-3h3l1 4Z"/>
  <path class="n" d="m875 258-1-4 2-4 12-1h18c-7 2-13 5-19 3-3 0-6 2-8 3ZM873 254h-2Z"/>
  <path class="ab" d="M824 245h-3l-4 1a24 24 0 0 0-4-1h-10l2-8 11 2v4h8ZM819 239l4-1c-1 3-3 3-4 1Z"/>
  <path class="e" d="M751 271h-4l-1-7c3 1 4 4 5 7Z"/>
  <path class="x" d="m805 237-2 8h10a24 24 0 0 1 4 1l1 6-6 1c3 3 6 5 3 11l-2-4c-2 3-2 8-7 8l-5-2-2-6v-2c6 2 6 2 8-3-5 1-7-2-7-6 0-2-2-3-3-5l1-3 1-4Z"/>
  <path class="e" d="m846 146 2-1Z"/>
  <path class="m" d="M892 323c4 3 9 2 13-1l5-1 1 2-3 2a93 93 0 0 0 11 1l2-3c0-1-2-4 1-4 1-1 3 1 5 2a44 44 0 0 1 6-5l5-1 2 5-1 8a30 30 0 0 1 2-4 27 27 0 0 1 4-3l2 4a16 16 0 0 1 1 2l2-8c4 1 3 5 4 8a18 18 0 0 0 3 3v2l-4 2-6 4-1-6h-6l2 4h-2l-2 5a8 8 0 0 1-3 3 56 56 0 0 1-7 3c-4-1-9-2-12-6a21 21 0 0 0-8-8l-17-7Z"/>
  <path class="t" d="M928 347a56 56 0 0 0 7-3 8 8 0 0 0 3-3l2-5h2l-2-4h6l1 6 6-3 4-1 1 1 6 4c9 2 9 1 9 10l-4 1c-4 2-8 0-12 3l-5 1v-1l3-2v-1l-24-1Z"/>
  <path class="f" d="m958 335-1-1v-4c0-4 2-5 6-5a68 68 0 0 0 9-1 86 86 0 0 1-1 9 4 4 0 0 1-3 2h-10Z"/>
  <path class="aa" d="m875 258 4-3c0 3 1 3 3 2 3-1 5-2 8 0h3l14-1-3 3c-1 1-3 2-3 4s2 3 3 3c5-1 10 4 15 1l7-1 2 1 13-1v9l-4 1h-3a11 11 0 0 0-2-1l-10-4-10 2-11-2c0-3-2-4-5-4h-4v-5h-7c-3 3-6 3-10 1a7 7 0 0 0-2-1ZM950 295l-4-2a23 23 0 0 0 0 5 24 24 0 0 0 1 4l-8 1-3 1-17 2a46 46 0 0 0 1-5 10 10 0 0 0-1-5c-2-4-2-5 3-5h2a14 14 0 0 1 10-3v1l-3 3 2 1 10-4c3-1 5-3 6 1l5 5Z"/>
  <path class="y" d="M984 270c1-1 2-4 4-4l12-2 2 1 12-2 1 2c0 3-2 5-5 5l-8 3c-2-5-7-4-12-4l-6 1Z"/>
  <path class="n" d="m1015 265-1-2 3-2v4ZM1028 238h4l-6 5-7 5c6 4 12 3 16-3l3 1-4 3 3 2-5 1-4 1c-2 6-8 4-11 8l1-5 9-4c-6-2-11-2-15 1l-5-3c4-1 9 0 11-5l8-5Z"/>
  <path class="w" d="M1048 245v1h-8Z"/>
  <path class="aa" d="m331 361-3-2-32-1-7-2c-1-3 0-5-4-8-2-1-2-5 0-7a35 35 0 0 1 22 2h6l8-1 6-1h7a76 76 0 0 1 9 3v-1l-3-4 7-4-1-3 11-7c1 1 3 2 5 1l2-4c1-3 2-7 6-6a9 9 0 0 0 3 0l-5-5 14-1c4 3 4 11 11 10l3 2 2 2 4-5c8 0 8 0 8 6l-6 5a9 9 0 0 0-3 9l2 1 2-5c1-5 3-5 8-4l-4 5v4c3 2 5 8 11 8a46 46 0 0 0 5 0h4l8 12 9 2a58 58 0 0 0-4 6l3 2c0 3-2 5-6 5l-7 2-6-1-3-6 3-2c-1-3-8-5-12-1l8 1c-6 2-10 6-15 4l-2-3 3-1c3 2 4 1 4-3l5-9-1-2-8 2-1-1h-1a83 83 0 0 1-8 4l-3-2-2-8-1 4h-1l-2-5v1l-9-6a12 12 0 0 0 3 10 18 18 0 0 1 2 4l-4 2h-23l-12 1Zm56-24c3 5 7 6 10 2-3-4-5-5-10-2Zm-18-19c3 6 5 7 9 2Z"/>
  <path class="ab" d="m368 311 5 5a9 9 0 0 1-3 0c-4-1-5 3-6 6l-2 4c-2 1-4 0-5-1l-11 7 1 3-7 4 3 4v1a76 76 0 0 0-9-3h-7l-6 1-8 1h-6a35 35 0 0 0-22-2l-6 1c-1-1-2-3-5-1l-8 6h-12c-2 0-4-1-3-5l12-1-5-3c-3-2-4-6-2-7 4-2 3-4 3-6h2l4 5 3-6 6 1 1-2-2-1 4-6 10-1c5 2 11 3 16-1h20a13 13 0 0 0 4-1l11-3h14l5 2 11-1Z"/>
  <path class="aa" d="M259 325c0 2 1 4-3 6-2 1-1 5 2 7l5 3-12 1-3-3-4 3-9-8-2 4-5-2a11 11 0 0 1-3-3l3-2c6-1 10-4 10-10h2v6l4-4 4-1c3 5 7 3 11 3ZM266 347l8-6c3-2 4 0 5 1l-2 5-9 4-2-4Z"/>
  <path class="t" d="M259 325c-4 0-8 2-11-3l-4 1-4 4v-6l6-4c-2-3-8-1-7-6l16 1 1 1 4 2c1 5 4 2 6 2l4 2-9 6ZM780 375l7-8 2-3-4-1 1-6 8 5-5 4 1 1h4l5-1c4 2 7 2 11 1l12-2c0 3 2 3 4 3l26-3h1c0 4 3 3 5 2 4-1 6 0 8 5-5-4-8-2-11 1a1 1 0 0 1-1 0l-26-1c-1 2-4 2-7 0h-25a11 11 0 0 0-3 1l-12 3Z"/>
  <path class="y" d="M853 365h-1l-17-1h-3l1-3c3-2 7-4 10-4a9 9 0 0 0 8-3h20l-6 3h-5a15 15 0 0 0-4 2l4 2h4c3 0 6-3 8 2h4l25 1a12 12 0 0 1 3 1c-1 0-3 2-4 1-8-3-15-1-23 0l-3 1c-7-4-14-2-21-2Z"/>
  <path class="l" d="M871 354h-20l-8-1v-2h26a11 11 0 0 0-6-2l-17-1h-5l-6-2v-1l5-2v-1l-8-5 3-5c7-4 13-11 21-12l3-2c3-4 6-4 9-1a41 41 0 0 0 4 4c1 6 7 5 10 6h4v-2a8 8 0 0 0-4-1c-1 1-3 1-3-2 5-3 8 2 12 4l-5 7-11-4-3 1a17 17 0 0 1 1 2v2a51 51 0 0 0-6-2c-2-1-5-1-3 2 0 2-1 5 2 5l13 2 7 2c0 7 4 2 7 2v5l-12-2h-3l-13-3c3 3 9 2 8 8Zm-30-12c3 0 5 4 8 0l7 3-2-4 8 2c-2-6-7-3-11-5l6-1c-7-4-11 0-16 5Zm12-14c2 3 4 3 6 2a13 13 0 0 1 5-2 45 45 0 0 1 5 0v-1c-5 1-10-3-16 1Zm15 13v2l8 1v-1Z"/>
  <path class="o" d="M893 350v-5c-3 0-7 5-7-2l-7-2c-4-2-8-4-13-2-3 0-2-3-2-5l12 2a13 13 0 0 1 3 0c9-1 18 3 28 4a8 8 0 0 1 4 3c4 5 9 7 15 8l2 3h-1l-11-2c-1-2-10-4-13-3l-10 1Z"/>
  <path class="e" d="m893 350 10-1c3-1 12 1 13 3l-31 2h-12c1-7-5-6-8-9l13 3h3Z"/>
  <path class="p" d="M932 357v2l-14 4c1-3 6-5 14-6Z"/>
  <path class="ab" d="M832 110v-4c5 0 9 4 9 9s0 10 4 14a3 3 0 0 1 0 3 48 48 0 0 1-7 4l-2-8-2-6-1-3Z"/>
  <path class="e" d="M831 115c-6 1-7 6-7 11v5h-2a40 40 0 0 1 0-5l1-19c0-3-3-6-4-9l-1-4h1a15 15 0 0 0 3 1c7 2 7 2 6 9a19 19 0 0 0-1 5l2 2 2 4ZM834 122l2 6 2 8 4 8c-8 0-11-5-16-10 5 0 5-4 5-7-1-3 0-4 3-5ZM862 100l-7-8c7 1 8 3 7 8Z"/>
  <path class="c" d="m831 115-2-4 3-1 1 9-2-1a20 20 0 0 1 0-3Z"/>
  <path class="l" d="M266 317c-2 0-5 3-6-2 0-3 1-7 4-8l4-3a1 1 0 0 0 1 0l3-1 6-8 9-2c8 1 13-4 20-4l11 2a42 42 0 0 0 6 0 23 23 0 0 0 4 3l11 4 6 3 4 3 11 3a15 15 0 0 1-3 2 32 32 0 0 1-5 1h-14l-12 3a13 13 0 0 1-3 1h-20l-13-1-3 2-11 1Z"/>
  <path class="z" d="m278 295-6 8-3 1 3-8-4 2c-6 4-11 6-18 3h-15a12 12 0 0 1-4-1l-5-4c0-3 2-3 4-3 5 0 9 0 11-5 5-2 10-2 16-2l6 2a37 37 0 0 0 6 1c4 1 7 3 9 6Z"/>
  <path class="aa" d="m339 298-11-4a23 23 0 0 1-4-3l-2-2c-4-1-4-4-3-8h2c6 2 10-2 14-5l9 4-3 3c-4-4-6 0-10 2 8 2 8 3 8 13ZM263 288l-6-2 1-5 14 2 2 3a21 21 0 0 1-3 1c-3 1-6-3-8 1Z"/>
  <path class="y" d="m446 300-4 2c-3-11-8-1-13-3l10-7-6-9c-2-2-4-5-8-4a10 10 0 0 1-7-1c-5-2-10 0-15 0h-12c0-4 3-5 6-6s5-3 5-6c2 0 4 0 4-4l3-1h2c3 4 5 4 7 0l6 2 2-1h1l-2 6-6-2v6l5 1 1-4 8-4a36 36 0 0 1 10-1c2-3 4-3 6-1 0 6-2 8-8 7a7 7 0 0 0-4 2 3 3 0 0 0 0 2 17 17 0 0 0 4 1h3l6 2 1-1 7 5-1 3-3 5c-4-1-6-4-4-10l-3 2-1 15v4Z"/>
  <path class="g" d="M367 280c0 3 2 5 5 5h2l7 5a55 55 0 0 1-6 4l-5 2c-2 1-4 1-7-1-2-1-5-2-7 2-1 4-3 1-6 0 4-3 2-6 0-7-6-2-4-6-2-9a8 8 0 0 0 0-1l3-1 7 2c2-1 5 3 6-1Z"/>
  <path class="h" d="M367 280h-3c-2-3-4-2-6 1l-7-2c3-6 5-6 11-3h3a77 77 0 0 1 9-1 79 79 0 0 1 10 1 15 15 0 0 1 4 2l-3 2c-6-3-12 0-18 0ZM250 247l6 1 6 7-6 1h-12c-3 0-6-1-7-5l6-3v-1ZM220 254c0-2 2-2 4-2a8 8 0 0 0 5-1c2-2 4-2 7 0 0 5-4 7-7 7s-6-2-9-4Z"/>
  <path class="x" d="M370 260h1l7 2 6-2 1 6h-17Z"/>
  <path class="k" d="m378 262-7-2 6-1Z"/>
  <path class="g" d="M391 308c3-2 8-1 10-5l2-1c5 1 8-1 11-5a15 15 0 0 1 1-2c2 3 3 5 7 2l1 1a2 2 0 0 1 0 2 29 29 0 0 1-4 3l11 3c1 1 2-2 3-3l3-3c1 1 3 3 2 4a21 21 0 0 1-4 7c-3 4-3 4 0 7l8 7h-16l-3-1 5-4c-2-3-4-7-8-5-5 2-7 2-12-1-3-2-9-2-13-2Z"/>
  <path class="h" d="m346 360 12-1h23l4-2 10 4c-4 4-12 5-16 4h-6l-8-1c-4-2-15-1-18 2l-4 1a29 29 0 0 1 1-4 27 27 0 0 1 2-3Z"/>
  <path class="aa" d="M465 348h-11c0-4-3-5-7-5-2 0-3-2-6-4l15-9 7 13 2-3 5 3-6 5Z"/>
  <path class="m" d="m363 378-6 4 4 3-23 1c-1-4-4-4-8-4a36 36 0 0 1-5-1v-1l24-3 14 1ZM395 312c4 0 10 0 13 2 5 3 7 3 12 1 4-2 6 2 8 5l-5 4-10-2-3 3c0-6 0-6-8-6l-7-5Z"/>
  <path class="aa" d="m429 342-8-3 4-3-4-4c5-2 6 4 10 2l-2 8ZM465 348l6-2 4-1 1 2-5 4c-2-1-6 1-7-3Z"/>
  <path class="d" d="m928 354-2-3c-6-1-11-3-15-8a8 8 0 0 0-5-3c-9-1-18-5-27-4a13 13 0 0 0-3 0l-4-2 1-2a17 17 0 0 0-1-2l3-1 11 4 5-7 17 7a21 21 0 0 1 8 8c3 5 8 5 12 6l3 2 8 3-1 2Z"/>
  <path class="k" d="m1018 256-1 5-3 2-12 2a7 7 0 0 1 0-1l4-4 2-3Z"/>
  <path class="x" d="m1026 240-8 5-3-2 2-2 9-1Z"/>
  <path class="n" d="m1011 241-4 3 4-3ZM1013 240l1-3 1 1-2 2ZM1013 240l-2 1 2-1ZM1008 255h1-1Z"/>
  <path class="k" d="M957 237v-2l7-1 8 1-4 4ZM941 266l-13 1-2-1 15-2a25 25 0 0 0 5-2h7v4ZM960 251l6-2 4 2-11 10-5 1h-1c0-5 3-9 7-11Z"/>
  <path class="w" d="M960 251c-4 2-7 6-7 11h-7v-1l7-9 7-3ZM1002 264a7 7 0 0 0 0 1l-2-1ZM972 235l-8-1 2-1 7 1Z"/>
  <path class="r" d="M67 293c1 2 0 4-2 5l-4 1-15 4 6-6Z"/>
  <path class="ab" d="m639 272 1 3c1 5-3 9-8 9l-12 1-1-2-3-1-11 6a11 11 0 0 0-7-2 12 12 0 0 1-2 0c-4-1-10 2-13-3h-5l-1-6-7-1c-1-1-2 1-5 2l5 2v1l-9 1h-3l-2-1c-5-3-10-2-12 2-4 1-8 3-12-1l-8-1h-8l-11 3-2-3c-3 0-7 0-9 3h-1l-5-4-2 7c-7 1-12-1-16-6a20 20 0 0 0-3-3c-1-7-8-3-12-6 4-3 0-4-1-6l3-1 12 1 16-4 3 2-7 4a14 14 0 0 1-4 2c-4 0-6 3-8 6h78l-6-4-15-3-8-2h4c4-3 9-4 8-11l8-1v3c2-1 3-3 5-3l6 2c4 2 6-1 8-3h7l4 1c5 4 10 3 15 1 3-2 6-3 10-1l7 1c3 3 7 0 9 4h7a25 25 0 0 0 4-1l-3 9c-1 2 0 4 3 4h19Z"/>
  <path class="o" d="m518 267 8 2 15 3 6 4h-78c2-3 4-6 8-6a14 14 0 0 0 4-2l7-4h3l4 1c5-3 9-1 13 0l10 2Z"/>
  <path class="w" d="M454 266c1 2 5 3 1 6 4 3 11-1 12 6v5c-5-4-5-4-9-2l-7-5-1 1-6-2h-3a17 17 0 0 1-4-1 3 3 0 0 1 0-2 7 7 0 0 1 4-2c6 1 8-1 8-7Z"/>
  <path class="t" d="m469 266-12-1c0-2 5-6 8-5s4 3 4 6Z"/>
  <path class="w" d="m425 269-1 4-5-1v-6l6 2Z"/>
  <path class="h" d="M418 261c-2 4-4 4-7 0h3Z"/>
  <path class="t" d="M418 261h-4 4ZM530 256c1 7-4 8-8 11l3-7c-4 0-7 2-9 1s-3-4-7-4l-7-2c3-4 5-4 9-2 2 1 5 2 7-1Z"/>
  <path class="j" d="m530 256-12-4v-3l12-2h6c3 0 6-2 8 2l-6 6Z"/>
  <path class="aa" d="M534 247h-4v-4c3 0 4 1 4 4Z"/>
  <path class="h" d="m409 261-3 1 1-2Z"/>
  <path class="aa" d="m478 243-1 1v-1h1Z"/>
  <path class="w" d="M1035 245c-4 6-10 7-16 3l7-5Z"/>
  <path class="x" d="M872 321a41 41 0 0 1-4-4c-3-3-6-3-9 1l-3 2-1-3 3-4h22l1-2-2-1v-2l9 1v-1l-20-4-16-2 3-1h9a27 27 0 0 0 5-2c-7-2-14 2-21-1l13-1 8-1h5c3 0 4-1 2-4l-13-5a10 10 0 0 1-3-2c1-2 2-3 4-1l3 2 18 2a9 9 0 0 0 1 3c4 5 4 5-2 8v2l5 5h9c-1 5-1 5 4 6l10 1 6 2-10 4c-2-6-7-3-11-3-4 1-5 4-5 7l-1 3c-4-2-7-7-12-4Z"/>
  <path class="t" d="m889 306-5-5v-2c6-3 6-3 2-8a9 9 0 0 1-1-3h2c2 3 8 3 10 1l-4-4c0-3-1-5 3-7 2-1 5-3 5-7l11 2 10-2 10 4a11 11 0 0 1 2 1l-16 5a18 18 0 0 0-3 1l-6 2a5 5 0 0 0 1 3c2 2 2 5-1 7v3c-1 2-3 5-5 5-4 1-2-3-2-6l-3 2c0 5-3 5-6 4-3 0-4 1-4 4Z"/>
  <path class="e" d="m495 199 1-2v1l-1 1Z"/>
  <path class="m" d="m689 332-37-1a45 45 0 0 1-6-1h-8c-4-3-8-3-13-1-4-1-9-3-13-2a23 23 0 0 1-15-4 17 17 0 0 0-7-3l-19-3c-1-5-6-10-11-9-8 0-14-3-20-7l-2-3h12c4 2 7 1 9-2l6 5v-2l5-2v5c3 0 3 0 4-4l3 2a14 14 0 0 1 1-2l2-1 1 3 4 6 12-1 2 2 3 3 13-4 5 1a68 68 0 0 0 7-2l3 1c4 2 7 6 13 4l10-1h4c6-4 9-1 13 2l5-2 15 6c-1 5 1 8 5 11l-3 4Z"/>
  <path class="g" d="m538 298 2 3c6 4 12 7 20 7 5-1 10 4 11 9h-8l-9-2-6-2-20 5-7 5h-2a36 36 0 0 0-6-2h-10c-4 4-7 0-11-2l-4-1c9-8 19-8 29-9l-4-1-4-3a14 14 0 0 1 3-6h4l21-1Z"/>
  <path class="w" d="M625 329c4-2 9-2 13 1l-11 1-2-2Z"/>
  <path class="aa" d="M784 308h2l1 1v3h-8l-1 8c5-5 7-1 9 0v10l-2 1-3-6a30 30 0 0 1-1-4l-4 4c0 5-3 5-8 6l3-5c-4-3-15-3-18-1l-1 6 4 1-1-4 1-2 4 3h5a29 29 0 0 1 1 4 4 4 0 0 1-1 3h-3a9 9 0 0 1-2-1l-6 3c-3 1-3 2-3 4-3-1-6-2-8 1s-6 3-10 2l-3-8 1-5 4-3-1-1c-4 0-7-1-8-6 0-2 1-4 4-3a10 10 0 0 0 3 1c3 0 5 0 6 3s3 2 5 1l7-7c2 0 4 1 4-2l10-2-2 4c3-2 4 0 5 2l7-4c0-2-1-5-5-5a44 44 0 0 1 5-1l8-1Z"/>
  <path class="j" d="m732 332-1 5c0 6-1 6-6 3-2-1-4-2-7 0-2 1-6 0-8-1a32 32 0 0 1-5-2h-5l-1-4-7-3 3-4c7 2 14 3 21 0 2-1 6 1 8 3 2 3 4 4 8 3Z"/>
  <path class="t" d="M538 298h-1l-5-2-27-2 2-5h-1l-2-5 12-3 3 3 8 2h5a1 1 0 0 0 0-1v-3c4 4 8 2 12 1l8 1c3 2 5 0 6-3h3l1 4c4-3 8-1 10 2l6-4h5c3 5 9 2 13 3a12 12 0 0 0 2 0c1 4-3 5-6 7-3 1-4 3-2 5l-5 8-4-6-1-3-2 1a14 14 0 0 0-1 2l-3-2c-1 4-1 4-4 4v-5l-5 2v2l-6-5c-2 3-5 4-9 2h-12Z"/>
  <path class="h" d="m505 284 1 5h1l-2 5-7 8-2-4a4 4 0 0 0-3-2l-19 3a3 3 0 0 1-2-1c-3-3-5-2-6 1h-5c-5 5-10 4-15 1v-4l2-2c3-4 6-1 9 0l1-1-4-4 3-5 1-3c4-2 4-2 8 2l1-5a20 20 0 0 1 3 3c4 5 9 7 16 6 1 3 3 3 5 1a25 25 0 0 0 2-4h1l5 1c2 0 4 0 4-3Z"/>
  <path class="t" d="M395 312v2l7 5-4 5-2-2-3-2c-7 1-7-7-11-10a31 31 0 0 0-6-1l-16-2-11-3-4-3 12 2h3c2-5 7-2 10-4l4 2v1l6-5a15 15 0 0 1 4-1l-1 3-1 2 9 7Z"/>
  <path class="y" d="M391 291c7-8 19-11 25-8Z"/>
  <path class="t" d="M752 342c0-2 0-4 3-4l6-3a9 9 0 0 0 2 1h3a4 4 0 0 0 1-3 29 29 0 0 0-1-4h-5l-4-3-1 2 1 4-4-1 1-6c3-2 15-2 18 1l-3 5c5-1 8-1 8-6l4-4a30 30 0 0 0 1 4l3 6 2-1v-10c-2-1-4-5-8 0v-8h8v1c1 1 2 2 1 3 0 3 2 7 5 7s6 2 8 4l-1 1c-4-1-8 0-8 6-1 4-3 4-5 4l-2 8h4l3 8h-3c-4-3-4-3-4 2l-1 2-7-3v-3h-11c2-4 5-2 8-2-2-2-8-6-9-5-2 1-4 2-5 0l3-4v-2l-10 3Z"/>
  <path class="h" d="M785 356c0-5 0-5 4-2h12a9 9 0 0 1 3 1l2 1c4-2 7 0 10 0h3l5 8-2 1-12 2c-4 1-7 1-11-1l-5 1h-5v-1l5-4-8-5Z"/>
  <path class="z" d="m268 304-4 3Z"/>
  <path class="aa" d="m256 313-1-1Z"/>
  <path class="x" d="M732 284h-4c-2-1-5-1-4-5l7 3 1 2Z"/>
  <path class="w" d="m669 272-1 1-2-1Z"/>
  <path class="t" d="M732 332c-4 1-6 0-8-3-2-2-6-4-8-3-7 3-14 1-21 0-4-3-6-6-5-11l5 2 4 1a60 60 0 0 0 2-8l-4-1-7-2a185 185 0 0 1 33 1v2l-4 5 8 7c1 5 4 6 8 6l1 1Z"/>
  <path class="ab" d="m727 322-8-7 4-5 6-3a6 6 0 0 0 7 4 12 12 0 0 1 3 1l9 2c3 0 4 1 4 3l-7 7c-2 1-4 2-5-1s-3-3-6-3a10 10 0 0 1-3-1c-3-1-4 1-4 3Z"/>
  <path class="w" d="M752 317c0-2-1-3-4-3l-9-2a12 12 0 0 0-3-1 6 6 0 0 1-7-4 16 16 0 0 1 4 0l17 1 3 1 3 6c0 2-2 2-4 2Z"/>
  <path class="y" d="m756 315-3-6 6-1 12 2c4 0 5 3 5 5l-7 4c-1-2-2-4-5-2l2-4Z"/>
  <path class="e" d="M708 305h-5c2-5 3-5 8-3Z"/>
  <path class="k" d="M627 305a68 68 0 0 1-7 2l-5-1 2-4 3-3a22 22 0 0 0 4-3 27 27 0 0 0 3-4l8-3-2 4 3 5Z"/>
  <path class="n" d="M627 292a27 27 0 0 1-3 4 22 22 0 0 1-4 3l-6 3-4-2 5-4h-10l1-4c4 2 8 1 11 0a3 3 0 0 1 3 0c2 2 4 2 6 0Z"/>
  <path class="w" d="M625 292c-1 2-3 2-5 0a3 3 0 0 0-3 0c-3 1-7 2-11 0l13-9 1 2a31 31 0 0 0 2 3l3 4Z"/>
  <path class="y" d="m675 309-5 2c-4-3-8-6-13-2h-4l-11 1c-5 2-8-2-12-4l10-4 15 2a22 22 0 0 0 5 1l11-1 1 1Z"/>
  <path class="j" d="m675 309-3-4 12 3 6-1 7 2 4 2a60 60 0 0 1-2 7l-4-1-5-2Z"/>
  <path class="n" d="m671 304-11 1a22 22 0 0 1-5-1l1-5c4 0 7-1 10 2l6 1ZM640 302l-10 4-3-1 9-7-3-5 11 1a60 60 0 0 0-3 5 11 11 0 0 0-1 3Z"/>
  <path class="j" d="M901 271c0 4-3 6-5 7-4 2-3 4-3 7l-6 3h-2l-18-2-3-6a26 26 0 0 0 0-4c-1-5 0-6 4-6l10-1a46 46 0 0 1 7 0c3 0 6 1 7-2h4c3 0 5 1 5 4Z"/>
  <path class="n" d="m793 288-1-14 1-5 1 3v13l-1 3Z"/>
  <path class="x" d="M806 268v11l-5-4c0-3 1-5 5-7ZM811 274h6a26 26 0 0 1-4 2l-2-2Z"/>
  <path class="k" d="m861 297-13 1c7 3 14-1 21 1a27 27 0 0 1-5 1l-9 1-3 1v3l6 3 4 2-33-1v-1l17 1v-2l-30-1-4-1 3-2 11 1a4 4 0 0 0 2-1c5-2 10-2 14 0l3-2-4-2-3-4a79 79 0 0 1 9-1 83 83 0 0 1 11 0l3 3ZM876 292c2 3 1 4-2 4h-5a39 39 0 0 1 4-3 15 15 0 0 1 3-1Z"/>
  <path class="e" d="m856 290-2-3c-1-1 1-2 1-2a7 7 0 0 1 3 2l-2 3Z"/>
  <path class="p" d="m789 285 1 14-4 1h-6l-4-2 6-8c0-2 0-3 3-3l4-2Z"/>
  <path class="o" d="M780 300h6a10 10 0 0 1-8 4l-12 1v-2a29 29 0 0 1 5-2l9-1Z"/>
  <path class="aa" d="M801 327c-2-2-5-4-8-4s-5-4-5-7c1-1 0-2-1-3 6-2 5 6 10 7l9-7 4-4h7l19 3-2 7c-1 4-2 6-6 5s-1-4-2-6c-6-1-13 3-19-2 1 5-1 9-6 11Z"/>
  <path class="e" d="m836 312-19-3-1-3 30 1v2l-17-1v1l33 1-4-2h6l15 2 2 1-1 2h-22Z"/>
  <path class="w" d="m810 309-4 4-9 7c-5-1-4-9-10-7v-4a8 8 0 0 1 1 0c7-3 15-1 22 0Z"/>
  <path class="d" d="M788 309a8 8 0 0 0-1 0l-1-1Z"/>
  <path class="ab" d="M946 261v1a25 25 0 0 1-5 2l-15 2-7 1c-5 3-10-2-15-1l-3-3 3-4 3-3 21-2 10-1h-29v-1a17 17 0 0 1 3 0l27-1 6-1 4 2-4 5c-1 2-3 4 1 4ZM907 241l11-3 4 3-4 4a5 5 0 0 1-3 2h-13l3-3 2-3Z"/>
  <path class="aa" d="m907 241-2 3-3 2h-10a7 7 0 0 1 10-6 46 46 0 0 0 5 1Z"/>
  <path class="e" d="M946 261c-4 0-2-2-1-4l4-5h4Z"/>
  <path class="g" d="M957 332v2l-4 1Z"/>
  <path class="k" d="m360 307 16 2a31 31 0 0 1 6 1l-14 1-11 1-5-2a32 32 0 0 0 5-1 15 15 0 0 0 3-2Z"/>
  <path class="t" d="M387 337c5-3 7-2 10 2-3 4-7 3-10-2Z"/>
  <path class="ab" d="m369 318 9 2c-4 5-6 4-9-2Z"/>
  <path class="aa" d="m266 317 11-1-4 6 2 1-1 2-6-1-3 6-4-5 9-6Z"/>
  <path class="n" d="m287 315 3-2 13 1c-5 4-11 3-16 1Z"/>
  <path class="k" d="m822 365 2-1 4-3c1-3 3-4 6-4 2 0 4-2 5-3l4-1 8 1a9 9 0 0 1-8 3c-3 0-7 2-10 4l-1 3h3l17 1-26 3c-2 0-4 0-4-3Z"/>
  <path class="ab" d="m836 312 22 1-3 4 1 3c-8 1-14 8-21 12l-4 1c-2 3-4 3-7 2l-8-3v10l-4 1c1 5 1 10 4 13-3 0-6-2-10 0l-2-1a9 9 0 0 0-3-1h-8l-4-8c1-4 2-8 8-5 2 1 6-4 4-5-2-3-1-6-1-8l1-1c5-2 7-6 6-11 6 5 13 1 19 2 1 2-2 5 2 6s5-1 6-5l2-7Zm-30 13v2h7l4-5-1-1Z"/>
  <path class="d" d="M816 356c-3-3-3-8-4-13l4-1c6 0 11-1 16-5l9 5-1 1-4 2-1 1 6 2h5v3h-3a40 40 0 0 0-20 1c0-3-1-4-4-4-1 2-2 4 1 7l-1 1Z"/>
  <path class="z" d="M832 337c-5 4-10 5-16 5v-10l8 3c2 1 5 1 7-2l4-1Z"/>
  <path class="n" d="M841 342c5-5 9-9 16-5l-6 1c4 2 9-1 11 5l-8-2 2 4-7-3c-3 4-5 0-8 0Z"/>
  <path class="b" d="M820 355c-3-3-2-5-1-7 3 0 4 1 4 4a40 40 0 0 1 20-1v2l-4 1Z"/>
  <path class="n" d="M846 351v-3l17 1a11 11 0 0 1 6 2Z"/>
  <path class="d" d="m872 321 7 1c0 3 2 3 3 2a8 8 0 0 1 4 1v2h-4c-3-1-9 0-10-6Z"/>
  <path class="e" d="M853 328c6-4 11 0 16-1v1a45 45 0 0 0-5 0 13 13 0 0 0-5 2c-2 1-4 1-6-2ZM873 334l3 2-12-2c-2-3 1-3 3-2a51 51 0 0 1 6 2Z"/>
  <path class="d" d="M866 339c5-2 9 0 13 2Z"/>
  <path class="e" d="m868 341 8 2v1l-8-1Z"/>
  <path class="w" d="m454 289 4 4-1 1c-3-1-6-4-9 0l-2 2 1-15 3-2c-2 6 0 9 4 10Z"/>
  <path class="m" d="M358 281c2-3 4-4 6-1-1 4-4 0-6 1Z"/>
  <path class="w" d="m606 292-1 4-6 1c-3-3-5 0-8 2l5 2h4l-3 4-12 1 5-8c-2-2-1-4 2-5 3-2 7-3 6-7a11 11 0 0 1 7 2c0 2-3 4 1 4ZM578 283l-6 4c-2-3-6-5-10-2l-1-4h9v-1l-5-3c3 0 4-2 5-2l7 2 1 6Z"/>
  <path class="aa" d="M532 282v3a1 1 0 0 1 0 1h-5l-8-2-3-3h8Z"/>
  <path class="w" d="M558 281c-1 3-3 5-6 3l-8-1c2-4 7-5 12-3l2 1Z"/>
  <path class="k" d="M606 292c-4 0-1-2-1-4l11-6 3 1Z"/>
  <path class="x" d="M493 284a25 25 0 0 1-2 4c-2 2-4 2-5-1l2-7ZM503 282c0 3-2 3-4 3l-5-1c2-3 6-2 9-2Z"/>
  <path class="n" d="M852 305v-3l16 2 20 3v2l-9-1Z"/>
  <path class="w" d="m852 305 27 3v2l-15-2h-6Z"/>
  <path class="aa" d="m887 288 6-3 4 4c-2 2-8 1-10-1Z"/>
  <path class="k" d="m597 305 3-4c4 0 5-2 5-5l9-1 1 1-5 4 4 2-5 3-1-4-9 5Z"/>
  <path class="y" d="m599 307 9-6 1 4 5-3 6-3-3 3-2 4-13 4Z"/>
  <path class="aa" d="M800 328c0 2-1 5 1 8 2 1-2 6-4 5-6-3-7 1-8 5h-4l2-8c2 0 5 0 5-4 0-6 4-7 8-6Z"/>
  <path class="y" d="m820 355 19-1c-1 1-3 3-5 3-3 0-5 1-6 4l-4 3-5-8Z"/>
  <path class="aa" d="m806 325 10-4 1 1-4 5h-7v-2Z"/>
  <path class="d" d="M823 352Z"/>
  <path class="n" d="M605 296c0 3-1 5-5 5h-4l3-4Z"/>
  <path class="k" d="m599 297-3 4-5-2c3-2 5-5 8-2Z"/>
</svg>
