<svg id="Calque_1" data-name="Calque 1" xmlns="http://www.w3.org/2000/svg" viewBox="0 0 805.1 461.18"><defs><style>.cls-1{fill:#9c4e38}.cls-2{fill:#aa6957}.cls-3{fill:#d8d9d9}.cls-4{fill:#d8d8d8}.cls-5{fill:#ececec}.cls-6{fill:#ecebeb}.cls-7{fill:#a96c5c}.cls-8{fill:#353433}</style></defs><title>logo-une-taupe-chez-vous</title><path class="cls-1" d="M810.07 459.6c.55 1.42 1.1 2.84 1.66 4.26-9.71.21-19.42.48-29.13.63-10.82.18-21.64.24-32.46.36q-15.17.15-30.32.33c-10.77.11-21.53.31-32.3.32H478.34a16.26 16.26 0 0 0-2.07.26q-15.33 0-30.65.05l-120.17-.1c-.76 0-1.53-.06-2.29-.1a8.38 8.38 0 0 0-1.8-.42H204.95a9.43 9.43 0 0 0-1.58.24l-8.59-.17-6.92-.19-7.3-.13h-.3l-1.66-.05-4.93-.13-9.27-.23h-1.64l-5.92-.18-5.3-.13h-1.33L146 464l-6.61-.22-4.94-.16-4-.21-3.31-.19-2.29-.16-2-.14h-.64l-1.3-.13c-20.47-1.72-40.35-5.76-58.78-15.3Q32.63 432.23 20 401.54c-5.28-12.73-8.35-26-10.26-39.63a273.83 273.83 0 0 1-3-45.86 4 4 0 0 1 .53-2.16c6.64-9.25 13.5-18.33 21.73-26.27a58.85 58.85 0 0 1 5.49-4.74c3.93-2.95 8-5.23 13.21-5.69 9.35-.81 18.25-3.92 27-7.18 16.52-6.16 32.93-12.62 49.4-18.93 3.18-1.21 6.42-2.27 9.59-3.5a22 22 0 0 1 11.64-1.12c5.37.84 10.81 1.21 16.21 1.85 1.12.14 1.4-.47 1.75-1.27 4.71-10.6 9.24-21.28 14.19-31.76 12.43-26.31 26.36-51.83 41.16-76.88 5.15-8.7 10.16-17.51 15.78-25.91a93 93 0 0 1 11.46-13.33c15.75-15.86 34.25-27.66 54.65-36.56 10.14-4.42 20.47-8.38 31.32-10.6a122.43 122.43 0 0 1 24.62-2c13 0 26 .25 38.93-.11 14.18-.4 28.33-1.36 42.5-2.08.32 0 .65-.09 1.24-.17-.79-1.56-1.61-3-2.24-4.47-1.73-4.08-3.8-8.08-5-12.33-1.35-4.95 1.45-9.52 6.19-11.36a120.42 120.42 0 0 1 32.34-8.17 45 45 0 0 1 6.25-.11 13.93 13.93 0 0 1 9.19 3.92c4.72 4.49 8.18 9.88 11.45 15.44 1.6 2.69 3.32 5.31 4.94 8a1.84 1.84 0 0 0 2.25 1q30.49-5.38 60.33-13.51 27.67-7.6 54.57-17.6c2.47-.92 4.91-1.91 7.35-2.9 4.31-1.75 8.32.82 7.59 5.68-.57 3.79-1.25 7.58-2.16 11.3-2.44 10-4.79 20-7.62 29.86q-5 17.51-10.83 34.77a343.43 343.43 0 0 1-22.53 52.49c-10.12 18.91-22.08 36.5-37.71 51.38s-33.5 25.37-54.61 30.1c-2.37.53-4.78.9-7.15 1.44a2.19 2.19 0 0 0-1.41 1.05c-5.18 14-11.3 27.66-17.76 41.14v.38a10.42 10.42 0 0 0 6.88 1c3.86-.72 7-2.9 9.93-5.29a36.37 36.37 0 0 0 3.82-3.4c7.12-7.68 16.14-11.8 26.14-14.11a126.69 126.69 0 0 1 24.7-2.81c16.19-.53 32.32.55 48.46 1.51a3.81 3.81 0 0 1 2.5 1.2c5.43 6.77 10.87 13.53 16.11 20.45s10.29 14.41 15.72 21.39a55.68 55.68 0 0 0 8.74 8.69 25.87 25.87 0 0 0 7.22 3.82 266.48 266.48 0 0 1 51 25.31 34.31 34.31 0 0 1 3.88 3.06 6 6 0 0 1 2.39 5 12.4 12.4 0 0 0 1.4 4.85c3.24 7.51 7.67 14.35 12.25 21.07a561.49 561.49 0 0 0 61 74.84c6.2 6.37 12.93 12.25 19.71 18 2.88 2.45 6.53 4 9.84 5.91l.86.28 3.46-.85c.24.77.48 1.54.71 2.3.05.22.1.45.16.67zm-473.29-90.52a18.74 18.74 0 0 1 2.07 1 51.42 51.42 0 0 0 18 7c2.71.53 5.45.86 8.18 1.28.28.25.56.7.85.71 2.38.09 4.77.14 7.15.09.5 0 1-.52 1.5-.8a3.44 3.44 0 0 1 .91-.25c3.52.06 6.79-1.12 9.95-2.39 5.3-2.12 9.69-5.73 13.56-9.82 4.19-4.43 8-9.21 12-13.84v-.72L409 344.4l-.12-1c0-1.08-.07-2.16-.1-3.23l.2-.69c.91-3.18 3.91-4.11 6.31-1.91.72.65 1.29.79 2 .06 3.19-3.47 6.64-6.74 9.49-10.47 3.93-5.16 7.56-10.57 11.06-16 4.3-6.73 8.43-13.57 12.48-20.46 2.75-4.68 5.35-9.46 7.81-14.3 4.06-8 8.07-16.09 11.88-24.24 3.4-7.28 6.53-14.68 9.7-22.07 1.2-2.79 2.19-5.67 3.34-8.69-2.47-.24-4.72-.37-6.93-.69-8.63-1.25-17.28-2.36-25.85-3.88a149.14 149.14 0 0 1-26.79-7.3 68.17 68.17 0 0 1-16.76-8.61c-2.18-1.62-4.22-3.43-6.43-5.24-2.26 3.45-4.41 6.91-5.24 11a1.8 1.8 0 0 1-1.29 1.1 35.44 35.44 0 0 1-4.12 0c-2.21-.06-2.39-.31-1.94-2.43a33.44 33.44 0 0 1 5.53-12.36c2.76-3.92 5.61-7.81 8.72-11.46a45.71 45.71 0 0 1 11.8-9.53 32.48 32.48 0 0 1 6.25-2.41c.79-.27 1.71-.23 1.8 1 .12 1.7.23 3.4.36 5.09.08 1-.26 1.45-1.28 1.73a12 12 0 0 0-4.24 1.73c-3.52 2.76-6.85 5.77-10.26 8.69-1.19 1-1 1.95 0 3 3.72 3.94 8.42 6.33 13.21 8.65a111.79 111.79 0 0 0 18.94 6.59c4.2 1.16 8.47 2.06 12.75 2.89 5.34 1 10.72 1.9 16.1 2.76 2.1.34 4.23.48 6.35.68 4.59.45 9.21.76 13.79 1.37a26.66 26.66 0 0 0 11.79-.8c5.79-1.88 11.62-3.68 17.24-6a92.52 92.52 0 0 0 20.94-12.54c3.59-2.77 6.94-5.85 10.28-8.93 2.85-2.63 5.6-5.39 8.25-8.23 2.34-2.53 4.58-5.16 6.69-7.88a178.42 178.42 0 0 0 14.65-21.31c3.47-6.15 7.26-12.16 10.29-18.52 4.85-10.19 9.27-20.59 13.72-31 1.89-4.42 3.47-9 5.08-13.52s3.12-9.21 4.61-13.83a25.7 25.7 0 0 0 1.64-6c.22-3.16-.14-6.36-.15-9.54a2.26 2.26 0 0 0-1.8-2.25c-.92-.34-1.9-.52-2.84-.82-2.74-.9-5.54-1.68-8.2-2.79a4.54 4.54 0 0 1-3-5c.27-2.22.61-4.44 1.06-6.64.51-2.49.39-3.45-1.78-4.74-3.16-1.86-6.45-3.52-9.75-5.13a3.77 3.77 0 0 0-2.39 0c-2.58.71-5.11 1.64-7.7 2.32-11.44 3-22.84 6.12-34.34 8.88-9.11 2.18-18.35 3.8-27.5 5.86-3.26.74-6.84.42-9.71 2.63a.83.83 0 0 1-.48.07 50.43 50.43 0 0 0-5.64.1c-8.21 1.1-16.4 2.31-24.6 3.49-1.7.24-3.39.53-5.15.81.56 3.1 1 6 1.59 8.79.9 4.28 1.66 8.61 2.91 12.79 2.48 8.33 4.57 16.72 4.94 25.43.43 10.33-1.48 20.15-6.71 29.21A51 51 0 0 1 460.33 142c-6.61 5.66-14.26 9.62-22.32 12.82-3.46 1.37-6.87 2.07-10.07-.59-3.5-2.91-7.09-5.73-10.44-8.81a81.73 81.73 0 0 1-17.72-22.35c-2.51-4.82-4.5-9.77-4.06-15.38a15.15 15.15 0 0 1 5.81-11c4.22-3.37 8.77-6.32 13.07-9.59 5.75-4.35 11.6-8.6 17-13.34a87.28 87.28 0 0 0 13.94-15.29l2.46-3.13h-2.26c-6.25.3-12.49.65-18.74.93-10.86.48-21.72 1.13-32.59 1.31-14.13.24-28.27 0-42.4.1A93.21 93.21 0 0 0 323.6 62a200.88 200.88 0 0 0-43.52 19.75A159.22 159.22 0 0 0 245 110.86a32.84 32.84 0 0 0-3.64 4.46c-4.25 6.78-8.46 13.58-12.53 20.47-5 8.4-9.84 16.86-14.67 25.35-3.45 6.05-6.89 12.1-10.11 18.27-5.72 11-11.39 21.94-16.86 33-3.85 7.81-7.4 15.78-11 23.72-2.43 5.38-4.68 10.85-7 16.28a8.59 8.59 0 0 0-.5 5.44c1.13 5.25 2.12 10.53 3.17 15.79.34 1.69.15 1.9-1.6 1.76-3.07-.23-6.13-.5-9.2-.67-.89 0-2.11-.09-2.63.42-1.26 1.25-2.87 2.71-3.13 4.28-.75 4.58-.9 9.25-1.29 14 2.71.16 5.37.36 8 .46 4.16.16 8.33.23 12.5.38a12.62 12.62 0 0 1 1.89.37v.54c-1.46.71-2.9 1.44-4.37 2.13-5.12 2.38-10.16 5-15.69 6.37-4.3 1.1-8.85 1.72-12.81 3.58a251.27 251.27 0 0 0-22.3 12 127.21 127.21 0 0 0-21.68 16.17c-5.49 5.14-10.28 10.74-13.59 17.55-.5 1-.33 1.43.58 2.07 5 3.45 10.17 6.7 14.82 10.58 10.79 9 19.62 19.76 27.19 31.57a3.36 3.36 0 0 0 1.94 1.31 18.66 18.66 0 0 0 4.23.38c7.18-.07 14.37-.16 21.56-.36a65.84 65.84 0 0 0 7.67-.7c4.74-.67 9.47-1.5 14.2-2.23 1.38-.21 2.4-.73 2.56-2.27l.2-.69.09-.64.54-1.35.12-.63.54-1.35 2.09-4.6.25-.68a41.51 41.51 0 0 1 8.48-11.71 100.82 100.82 0 0 1 10.25-8.31c2.76-1.9 5.95-3.17 8.95-4.73l.7-.18c2.17-.88 4.33-1.8 6.52-2.62 4-1.5 8.09-2.92 12.12-4.43 1.94-.72 3.83-1.55 5.74-2.34l.7-.18c9.26-5 19.43-6.18 29.66-7.08l.7-.17c1.4-.18 2.81-.38 4.21-.54 4.67-.54 9.32-1.28 14-1.54a41.49 41.49 0 0 1 14.6 1.6 24.7 24.7 0 0 1 10.42 6c2.61 2.59 5.22 5.2 7.92 7.7 3.45 3.2 7 6.31 10.51 9.45.25.18.51.35.77.52l5.17 3.77zm95.56-12.85h-9.55a6.36 6.36 0 0 0-4.52 2c-5.3 5.17-10.43 10.57-16.08 15.33-6.52 5.49-13.53 10.38-20.3 15.58a2.52 2.52 0 0 0-1 1.59c-.08 4.71-.33 9.45 0 14.14a68.17 68.17 0 0 0 9.08 29.3c5.76 10.07 13.53 18.34 22.31 25.74a9.55 9.55 0 0 0 4.09 2.14 16.23 16.23 0 0 0 4.88-.33 18.16 18.16 0 0 0 2.69-.65c.86-.24 1.06-.82.82-1.65-.44-1.47-.86-3-1.27-4.43a255.09 255.09 0 0 1-8-42.17 3.67 3.67 0 0 1 .65-2.42 7.44 7.44 0 0 1 4.76-3c2.37-.38 5.28 1 5.92 2.8 4.46 12.76 9.38 25.34 16.69 36.78 3.21 5 7 9.68 10.61 14.43a3.79 3.79 0 0 0 2.48 1.32 61.58 61.58 0 0 0 8.15 0 19.88 19.88 0 0 0 15.25-8.49 2.81 2.81 0 0 0 .42-3.06c-1-2.14-1.65-4.45-2.79-6.49-4.62-8.3-9.48-16.46-14-24.79-2.39-4.37-4.39-8.95-6.49-13.48a3.45 3.45 0 0 1 .37-3.67c2.39-3.6 5.89-5.06 9.85-5.88 2.07-.43 3.91-.57 5.41 1.47 1.72 2.33 3.88 4.35 5.57 6.7 5.11 7.14 10.08 14.37 15.13 21.55.39.56.86 1.31 1.44 1.48a11.41 11.41 0 0 0 15-9c1.17-5.54 2.76-10.89-1.66-16.3-5.21-6.39-9.48-13.55-14.14-20.39-7-10.23-16.06-17.56-28-21.26a101.83 101.83 0 0 0-33.77-4.89zm38.39-253.75c0-8-1.2-15-4.22-24.71a57.23 57.23 0 0 1-1.79-5.77c-1.07-5.42-2-10.89-3-16.33-.45-2.51-.74-2.72-3.2-2a3.79 3.79 0 0 0-1.64 1.43c-.64.9-1.18 1.9-1.78 2.9a99.71 99.71 0 0 1-12.33 15.71c-2.3 2.43-4.75 4.73-7.26 6.93-2.93 2.56-5.9 5.09-9 7.39-6.32 4.63-12.83 9-19.13 13.66-3.18 2.35-5 5.57-4 9.73a33.73 33.73 0 0 0 2.2 6.68c5.75 11.84 14.87 20.82 25 28.86a5.06 5.06 0 0 0 5.13.71c1.28-.47 2.56-1 3.78-1.54 5.32-2.58 10.55-5.26 15.13-9.12a47.94 47.94 0 0 0 9-9.64 42.21 42.21 0 0 0 7.11-24.89zm24.69-61.66c-2.22-3.68-4.12-7.15-6.33-10.4a115.65 115.65 0 0 0-7.09-9.24c-1.16-1.39-2.56-2.79-4.64-2.8a60.71 60.71 0 0 0-7.39.07 118.57 118.57 0 0 0-29.51 7.67 2.35 2.35 0 0 0-1.69 2.52 7.35 7.35 0 0 0 .35 2.42q3.43 7.57 7 15.05a1.65 1.65 0 0 0 1.33.6c1.52 0 3-.31 4.55-.25 1.22 0 1.7-.5 2.23-1.46a36.43 36.43 0 0 1 3.7-6c2.15-2.57 4-3.32 6.51-1.13 1.68 1.46 2.08 3.54 2.59 5.58.12.49.74 1.25 1.08 1.23 3-.27 6.05-.66 9.07-1.06 3.66-.48 7.31-1 11-1.52 2.37-.34 4.75-.83 7.24-1.28z" transform="translate(-6.67 -5)"/><path class="cls-2" d="M476.27 465.78a16.26 16.26 0 0 1 2.07-.26h209.18c10.77 0 21.53-.21 32.3-.32q15.16-.17 30.32-.33c10.82-.12 21.64-.18 32.46-.36 9.71-.15 19.42-.42 29.13-.63.16 2-.14 2.33-2.3 2.32h-83.46l-247.58-.22c-.71-.05-1.39-.15-2.12-.2zM203.37 465.43a9.43 9.43 0 0 1 1.58-.24h116.41a8.38 8.38 0 0 1 1.8.42c-.71.05-1.42.14-2.12.14l-113.59-.1c-1.36.01-2.72-.14-4.08-.22zM187.86 465.07l6.92.19zM139.34 463.81l6.66.19zM151.54 464.17l5.3.13zM173.67 464.75l4.93.13zM130.44 463.44l4 .21zM809.28 457.29c-.23-.76-.47-1.53-.71-2.3.27.08.77.15.78.25a20.06 20.06 0 0 1-.07 2.05zM124.84 463.09l2.29.16zM162.76 464.48h1.64zM810.07 459.6l-.63-1.64zM120.87 462.77l1.3.13zM805.11 455.84l-.86-.28zM122.5 462.94zM150.21 464.16zM180.26 464.93h.3l-.15.05z" transform="translate(-6.67 -5)"/><path class="cls-3" d="M267.69 341.77c-10.23.9-20.4 2.08-29.66 7.08l-.7.18c-1.91.79-3.8 1.62-5.74 2.34-4 1.51-8.09 2.93-12.12 4.43-2.19.82-4.35 1.74-6.52 2.62l-.7.18c-3 1.56-6.19 2.83-8.95 4.73a100.82 100.82 0 0 0-10.25 8.31 41.51 41.51 0 0 0-8.48 11.71l-.25.68-2.09 4.6-.54 1.35-.12.63L181 392l-.11.63-.2.69c-.16 1.54-1.18 2.06-2.56 2.27-4.73.73-9.46 1.56-14.2 2.23a65.84 65.84 0 0 1-7.67.7c-7.19.2-14.38.29-21.56.36a18.66 18.66 0 0 1-4.23-.38 3.36 3.36 0 0 1-1.94-1.31c-7.57-11.81-16.4-22.58-27.19-31.57-4.65-3.88-9.82-7.13-14.82-10.58-.91-.64-1.08-1.05-.58-2.07 3.31-6.81 8.1-12.41 13.59-17.55a127.21 127.21 0 0 1 21.68-16.17 251.27 251.27 0 0 1 22.3-12c4-1.86 8.51-2.48 12.81-3.58 5.53-1.41 10.57-4 15.69-6.37 1.47-.69 2.91-1.42 4.37-2.13v-.54a12.62 12.62 0 0 0-1.89-.37c-4.17-.15-8.34-.22-12.5-.38-2.67-.1-5.33-.3-8-.46.39-4.72.54-9.39 1.29-14 .26-1.57 1.87-3 3.13-4.28.52-.51 1.74-.46 2.63-.42 3.07.17 6.13.44 9.2.67 1.75.14 1.94-.07 1.6-1.76-1.05-5.26-2-10.54-3.17-15.79a8.59 8.59 0 0 1 .5-5.44c2.35-5.43 4.6-10.9 7-16.28 3.58-7.94 7.13-15.91 11-23.72 5.47-11.08 11.14-22.06 16.86-33 3.22-6.17 6.66-12.22 10.11-18.27 4.83-8.49 9.69-16.95 14.67-25.35 4.07-6.89 8.28-13.69 12.53-20.47a32.84 32.84 0 0 1 3.64-4.46 159.22 159.22 0 0 1 35.13-29.12A200.88 200.88 0 0 1 323.6 62a93.21 93.21 0 0 1 28.4-4.31c14.13-.07 28.27.14 42.4-.1 10.87-.18 21.73-.83 32.59-1.31 6.25-.28 12.49-.63 18.74-.93h2.26l-2.38 3.34A87.28 87.28 0 0 1 431.63 74c-5.42 4.74-11.27 9-17 13.34-4.3 3.27-8.85 6.22-13.07 9.59a15.15 15.15 0 0 0-5.81 11c-.44 5.61 1.55 10.56 4.06 15.38a81.73 81.73 0 0 0 17.72 22.35c3.35 3.08 6.94 5.9 10.44 8.81 3.2 2.66 6.61 2 10.07.59 8.06-3.2 15.71-7.16 22.32-12.82a51 51 0 0 0 11.13-13.32c5.23-9.06 7.14-18.88 6.71-29.21-.37-8.71-2.46-17.1-4.94-25.43-1.25-4.18-2-8.51-2.91-12.79-.59-2.83-1-5.69-1.59-8.79 1.76-.28 3.45-.57 5.15-.81 8.2-1.18 16.39-2.39 24.6-3.49a50.43 50.43 0 0 1 5.64-.1.83.83 0 0 0 .48-.07c2.87-2.21 6.45-1.89 9.71-2.63 9.15-2.06 18.39-3.68 27.5-5.86 11.5-2.76 22.9-5.87 34.34-8.88 2.59-.68 5.12-1.61 7.7-2.32a3.77 3.77 0 0 1 2.39 0c3.3 1.61 6.59 3.27 9.75 5.13 2.17 1.29 2.29 2.25 1.78 4.74-.45 2.2-.79 4.42-1.06 6.64a4.54 4.54 0 0 0 3 5c2.66 1.11 5.46 1.89 8.2 2.79.94.3 1.92.48 2.84.82a2.26 2.26 0 0 1 1.8 2.25c0 3.18.37 6.38.15 9.54a25.7 25.7 0 0 1-1.64 6c-1.49 4.62-3 9.25-4.61 13.83s-3.19 9.1-5.08 13.52c-4.45 10.37-8.87 20.77-13.72 31-3 6.36-6.82 12.37-10.29 18.52a178.42 178.42 0 0 1-14.65 21.31c-2.11 2.72-4.35 5.35-6.69 7.88-2.65 2.84-5.4 5.6-8.25 8.23-3.34 3.08-6.69 6.16-10.28 8.93A92.52 92.52 0 0 1 516.59 207c-5.62 2.31-11.45 4.11-17.24 6a26.66 26.66 0 0 1-11.79.8c-4.58-.61-9.2-.92-13.79-1.37-2.12-.2-4.25-.34-6.35-.68-5.38-.86-10.76-1.73-16.1-2.76-4.28-.83-8.55-1.73-12.75-2.89a111.79 111.79 0 0 1-18.94-6.59c-4.79-2.32-9.49-4.71-13.21-8.65-1-1.1-1.23-2 0-3 3.41-2.92 6.74-5.93 10.26-8.69a12 12 0 0 1 4.24-1.73c1-.28 1.36-.77 1.28-1.73-.13-1.69-.24-3.39-.36-5.09-.09-1.24-1-1.28-1.8-1a32.48 32.48 0 0 0-6.25 2.41 45.71 45.71 0 0 0-11.88 9.49c-3.11 3.65-6 7.54-8.72 11.46a33.44 33.44 0 0 0-5.53 12.36c-.45 2.12-.27 2.37 1.94 2.43a35.44 35.44 0 0 0 4.12 0 1.8 1.8 0 0 0 1.29-1.1c.83-4.13 3-7.59 5.24-11 2.21 1.81 4.25 3.62 6.43 5.24a68.17 68.17 0 0 0 16.76 8.61 149.14 149.14 0 0 0 26.79 7.3c8.57 1.52 17.22 2.63 25.85 3.88 2.21.32 4.46.45 6.93.69-1.15 3-2.14 5.9-3.34 8.69-3.17 7.39-6.3 14.79-9.7 22.07-3.81 8.15-7.82 16.21-11.88 24.24-2.46 4.84-5.06 9.62-7.81 14.3-4.05 6.89-8.18 13.73-12.48 20.46-3.5 5.46-7.13 10.87-11.06 16-2.85 3.73-6.3 7-9.49 10.47-.67.73-1.24.59-2-.06-2.4-2.2-5.4-1.27-6.31 1.91l-.2.69c0 1.07.06 2.15.1 3.23l.12 1 2.07 6.91v.72c-4 4.63-7.8 9.41-12 13.84-3.87 4.09-8.26 7.7-13.56 9.82-3.16 1.27-6.43 2.45-9.95 2.39a3.44 3.44 0 0 0-.91.25h-9.5c-2.73-.42-5.47-.75-8.18-1.28a51.42 51.42 0 0 1-18-7 18.74 18.74 0 0 0-2.07-1l-.8-.5-5.17-3.77c-.26-.17-.52-.34-.77-.52-3.51-3.14-7.06-6.25-10.51-9.45-2.7-2.5-5.31-5.11-7.92-7.7a24.7 24.7 0 0 0-10.42-6 41.49 41.49 0 0 0-14.6-1.6c-4.67.26-9.32 1-14 1.54-1.4.16-2.81.36-4.21.54z" transform="translate(-6.67 -5)"/><path class="cls-4" d="M432.34 356.23a101.83 101.83 0 0 1 33.71 4.9c12 3.7 21.07 11 28 21.26 4.66 6.84 8.93 14 14.14 20.39 4.42 5.41 2.83 10.76 1.66 16.3a11.41 11.41 0 0 1-15 9c-.58-.17-1-.92-1.44-1.48-5-7.18-10-14.41-15.13-21.55-1.69-2.35-3.85-4.37-5.57-6.7-1.5-2-3.34-1.9-5.41-1.47-4 .82-7.46 2.28-9.85 5.88a3.45 3.45 0 0 0-.37 3.67c2.1 4.53 4.1 9.11 6.49 13.48 4.56 8.33 9.42 16.49 14 24.79 1.14 2 1.8 4.35 2.79 6.49a2.81 2.81 0 0 1-.42 3.06 19.88 19.88 0 0 1-15.33 8.61 61.58 61.58 0 0 1-8.15 0 3.79 3.79 0 0 1-2.48-1.32c-3.62-4.75-7.4-9.41-10.61-14.43-7.31-11.44-12.23-24-16.69-36.78-.64-1.8-3.55-3.18-5.92-2.8a7.44 7.44 0 0 0-4.76 3 3.67 3.67 0 0 0-.65 2.42 255.09 255.09 0 0 0 8 42.17c.41 1.48.83 3 1.27 4.43.24.83 0 1.41-.82 1.65a18.16 18.16 0 0 1-2.69.65 16.23 16.23 0 0 1-4.88.33 9.55 9.55 0 0 1-4.09-2.14c-8.78-7.4-16.55-15.67-22.31-25.74a68.17 68.17 0 0 1-9.08-29.3c-.34-4.69-.09-9.43 0-14.14a2.52 2.52 0 0 1 1-1.59c6.77-5.2 13.78-10.09 20.3-15.58 5.65-4.76 10.78-10.16 16.08-15.33a6.36 6.36 0 0 1 4.52-2c3.35-.15 6.51-.13 9.69-.13z" transform="translate(-6.67 -5)"/><path class="cls-5" d="M470.73 102.48a42.21 42.21 0 0 1-7.09 24.9 47.94 47.94 0 0 1-9 9.64c-4.58 3.86-9.81 6.54-15.13 9.12-1.22.59-2.5 1.07-3.78 1.54a5.06 5.06 0 0 1-5.13-.71c-10.17-8-19.29-17-25-28.86a33.73 33.73 0 0 1-2.2-6.68c-1-4.16.84-7.38 4-9.73 6.3-4.66 12.81-9 19.13-13.66 3.13-2.3 6.1-4.83 9-7.39 2.51-2.2 5-4.5 7.26-6.93A99.71 99.71 0 0 0 455.1 58c.6-1 1.14-2 1.83-2.91a3.79 3.79 0 0 1 1.64-1.43c2.46-.76 2.75-.55 3.2 2 1 5.44 1.88 10.91 3 16.33a57.23 57.23 0 0 0 1.79 5.81c2.97 9.67 4.16 16.64 4.17 24.68zm-26.94 1.35a7.37 7.37 0 0 0-7.9 6.57 7.52 7.52 0 0 0 7.64 8.17c4.24-.13 7.49-2.95 7.54-7.37a7.3 7.3 0 0 0-7.28-7.37z" transform="translate(-6.67 -5)"/><path class="cls-6" d="M495.42 40.82c-2.49.45-4.87.94-7.26 1.3-3.65.55-7.3 1-11 1.52-3 .4-6 .79-9.07 1.06-.34 0-1-.74-1.08-1.23-.51-2-.91-4.12-2.59-5.58-2.48-2.19-4.32-1.44-6.42 1.11a36.43 36.43 0 0 0-3.7 6c-.53 1-1 1.51-2.23 1.46-1.51-.06-3 .23-4.55.25a1.65 1.65 0 0 1-1.33-.6q-3.6-7.48-7-15a7.35 7.35 0 0 1-.35-2.42 2.35 2.35 0 0 1 1.69-2.52A118.57 118.57 0 0 1 470 18.45a60.71 60.71 0 0 1 7.39-.07c2.08 0 3.48 1.41 4.64 2.8a115.65 115.65 0 0 1 7.11 9.24c2.16 3.25 4.06 6.72 6.28 10.4z" transform="translate(-6.67 -5)"/><path class="cls-7" d="M365.08 378.33h9.5c-.5.28-1 .78-1.5.8-2.38.05-4.77 0-7.15-.09-.29-.04-.57-.46-.85-.71zM181.69 390l.54-1.35zM181 392l.54-1.35zM409 344.4l-.12-1zM408.74 340.15l.2-.69zM267.69 341.77l.7-.17zM237.33 349l.7-.18zM180.72 393.28l.2-.69zM184.32 384l.25-.68zM336 368.58l.8.5zM330 364.29c.25.18.51.35.77.52-.22-.17-.48-.34-.77-.52zM212.25 358.6l.7-.18zM411 352v-.72.72z" transform="translate(-6.67 -5)"/><path class="cls-8" d="M443.79 103.83a7.3 7.3 0 0 1 7.28 7.37c-.05 4.42-3.3 7.24-7.54 7.37a7.52 7.52 0 0 1-7.64-8.17 7.37 7.37 0 0 1 7.9-6.57z" transform="translate(-6.67 -5)"/></svg>