<svg id="Calque_1" data-name="Calque 1" xmlns="http://www.w3.org/2000/svg" viewBox="0 0 602.87 351.16"><defs><style>.cls-1{fill:#9c4f39;}.cls-2{fill:#9c513c;}.cls-3{fill:#994c37;}.cls-4{fill:#8e4533;}.cls-5{fill:#9d533f;}.cls-6{fill:#9f5c48;}.cls-7{fill:#d9dad9;}.cls-8{fill:#dfdad7;}.cls-9{fill:#d8dad9;}.cls-10{fill:#e3f0f4;}.cls-11{fill:#934431;}.cls-12{fill:#923620;}.cls-13{fill:#93402b;}.cls-14{fill:#e3e2db;}.cls-15{fill:#f8f4f1;}.cls-16{fill:#dcdbda;}.cls-17{fill:#dfe1e0;}.cls-18{fill:#e1e1e3;}.cls-19{fill:#964833;}.cls-20{fill:#2a2a2a;}</style></defs><title>logo-une-taupe-chez-vous</title><path class="cls-1" d="M375.47,179.85c5.42-1.24,10.81-3.39,16.25-3.55,13.51-.38,27,.25,40.57.25,4,0,6.27,2.29,8.35,5.09q9.81,13.14,19.54,26.34c3.67,5,8.58,8,14.24,10.47,11.33,5.05,22.34,10.84,33.42,16.46,3.55,1.81,5.22,4.93,6.75,8.77a92.62,92.62,0,0,0,9.93,17.92C539.18,282.83,555.23,303,574,320.8c5.33,5.06,10.25,11.13,18.37,12.29.59.08.91,2,1.35,3.06l-.2,3.78-2.61,0-.18-2.29h-.88c-.06.76-.13,1.53-.19,2.29-1.91.18-3.81.52-5.71.52q-111.4,0-222.79,0c-2.11,0-4.23-.37-6.34-.57l-2.53-1.59-.39-4.17.13.16,1.26-1.45-.18-.11,1.12-.11-.77-.78c-1.05-7.67-5.44-13.65-9.9-19.59h0q-1.17-2-2.35-4l-.12-.09a53.2,53.2,0,0,1-2.94-7.06,62.93,62.93,0,0,1-1.14-7.92l9.62-2.93c5.09,6.63,10.16,13.11,15.1,19.69,3,4,6.59,4.58,10.14,1.4,4-3.56,5.11-12,2.08-16.42-5.11-7.35-10.31-14.63-15.47-21.95a23.09,23.09,0,0,0,0-5.12c-.22-1-1.43-2.61-2.23-2.64-6.34-.2-11.45-4.43-16.29-4.51-2-3.16-3.07-6.56-4.89-7.06-1.66-.44-4.17,2.26-6.27,3.56-3.5-6.67-8.71-3.88-13.66,1.41-.6-3.83-8-1-6.34-7.19l9,2.22c-.92-3.84-1.51-6.3-2.15-8.94,1.24-4.8,9.76-1.58,9.94-8.81.12-4.68,2-9.32,3.32-14.94l9.13-.81c-.26-3.15-.37-6.49-.84-9.77-.61-4.28,1.55-10,4.55-10,5.14.05,7.89-3.83,11.72-5.94l2.57-1c0,2.88,0,6.27,4.24,4.84,1.89-.65,4.17-3.07,4.45-5,.83-5.65,4.09-6.12,9.34-4.56C374.64,185.49,375.06,182.67,375.47,179.85Z"/><path class="cls-1" d="M131.7,339.44c-21.26,0-42.52.09-63.41-4.89C39.2,327.62,20.14,310.37,12.64,281a194.18,194.18,0,0,1-5.56-45.9,17.48,17.48,0,0,1,2.8-8.82,85.51,85.51,0,0,1,8.73-11.13,42.33,42.33,0,0,1,22.44-13.75c16.54-4.2,32.54-10.66,48.55-16.77,8.55-3.26,16.82-6.33,26.1-3.7,4,1.13,6-.62,7.66-4.49,13.67-32.74,30.75-63.73,49.8-93.57C182.94,67.55,198,57.63,214,49.36c17.26-8.92,35.27-14.2,55.06-13,11.77.74,23.62.09,35.44.07-1.32.84-2.65,1.67-3.95,2.55s-2.54,1.8-3.8,2.71l-3.83.08-1.31-1.51c-12.9,0-25.8,0-38.69,0-1.89,0-4.58-1.15-5.13,2.22-8.88,3.18-17.93,5.94-26.59,9.63-17.92,7.63-33,19.25-44.24,35.16-7.21,10.24-13.37,21.3-19.25,32.39-9.34,17.63-17.89,35.68-27.1,53.38-4.24,8.13-6.19,16.26-3.36,25.21a8.35,8.35,0,0,1,0,2.4c-11.26-.28-13.3,2.11-11.81,13.17,4.52,2.48,9.84-.95,14.34,1.25L130,217l-16.4,5.12c-.68-.41-1.49-1.28-2-1.14-7.11,1.75-14,4-18.51,10.38l.08-.07c-6.16.17-10.67,4-14.77,7.72-3.42,3.11-8.35,5.49-8.68,11.16l-4.2,7.07c8.13,8,15.77,15.52,23.4,23.05-1.76,2-.3,2.3,1.34,2.48a3.14,3.14,0,0,1,.24,1.14l3,3.92.86,1.14c-.18,1.2-.35,2.39-.67,4.57l7-1.64,15.47-.19,5.15.27a2.65,2.65,0,0,1,1.15-.22l9.2-1.38-.12.07c1.41-.59,3.47-.77,4.1-1.82A120.41,120.41,0,0,0,141.57,277c.18-.4-.66-1.28-1-1.94,4.19-3.6,7.86-8.31,12.68-10.57,10.84-5.06,22.24-8.92,33.43-13.22a11.43,11.43,0,0,1,3.16-.53c9.53-.72,19.05-1.66,28.59-2,4-.13,8.14,1.06,10.13,5.44-.57,3.39.95,4.6,4.2,4a.69.69,0,0,1,.82.51c1,4.28,2.07,8.57,3.15,13.06,1.69-.12,4.5-.86,7.07-.37a40.94,40.94,0,0,1,9.42,3.52c2.43,1.14,1.89,3.33,1.51,5.55-.1.61,1.66,2.2,2.55,2.19a66.81,66.81,0,0,0,9.11-1c3-.46,5.95-1.11,8.24-1.55l4.93,12.68-.66,2.25c.38,3.73.58,7.49,1.18,11.18A20.92,20.92,0,0,0,288.12,320H288l1.25,1.47-.07-.08c.41,2.75.64,5.63,4.23,6.2l-.07.35v-.36l2.58,2.56-.07,0,2.44,1.65,1.14,1.11,1.5,1.47,1.16.9,2.4,4.61-21.95,0c-1.26-2.27-2.51-2.25-3.77,0a25.87,25.87,0,0,1-3.76.56q-63.33-.15-126.64-.37c-1.71,0-3.41-.28-5.11-.42Z"/><path class="cls-2" d="M279.53,292.74l-4.93-12.68c-2.29.44-5.25,1.09-8.24,1.55a66.81,66.81,0,0,1-9.11,1c-.89,0-2.65-1.58-2.55-2.19.38-2.22.92-4.41-1.51-5.55a40.94,40.94,0,0,0-9.42-3.52c-2.57-.49-5.38.25-7.07.37-1.08-4.49-2.11-8.78-3.15-13.06,2.56,1.42,5.88,2.24,7.55,4.36,6.16,7.77,14.59,11.28,23.73,12.87,10.43,1.82,20.64,1.34,27.72-8.6,1.08-1.51,2.82-2.57,4.31-3.78,3.61-2.94,6.24-5.84,4.29-11.3-1.55-4.36-.46-4.91,4.8-5.77a7,7,0,0,0,4-2.74c6.54-9.27,13.47-18.34,19.23-28.08,9.79-16.55,18.85-33.53,24.68-52.1-7.63-1.72-14.8-3.38-22-4.94-6.26-1.35-12.7-2.14-18.8-4-6.87-2.1-13.5-5.06-17.64-10.94-4.48,1.69-2.11,10.06-9.3,8.14.83-12.07,14.12-26.94,24.55-27,.29,7.35-9,7.74-10.21,14.95,15.62,12.27,34.5,14.57,53.8,15.52,10.93,3.42,20.18-.83,29.15-6.39l0,.11,2.64-1.39,0,.08,6.37-4-.08,0,1.45-1.29-.05.12,1.41-1.3v.07l1.33-1.31v.11l2.44-1.54-.07,0,1.4-1.38,0,.08,6.55-6.4-.29-.17.26.21,2.77-2.73,1-1,1.55-2.73.1.1,3.58-4.1-.07,0,2.7-3.87-.09,0,1.54-2.46-.33,0h.33l8.87-14.32-.07.06c.56-.89,1.13-1.77,1.7-2.66,4.39-9.89,9.14-19.64,13.05-29.72,2.58-6.66,4-13.79,5.88-20.71l7.29-1.3c-9,31-20.54,60.82-42,85.66-5.24,6.08-11.86,11-17.85,16.43l-1.8,1.24-11.24,6.51-2.9,1.31.09-.07-1.52.88-10.46,3.42-3.68.73c-1.77,1.3-4.38,2.22-5.18,4-4.17,9-7.88,18.27-12,28.1l5.61.87c-3.83,2.11-6.58,6-11.72,5.94-3,0-5.16,5.68-4.55,10,.47,3.28.58,6.62.84,9.77L329,221c-1.32,5.62-3.2,10.26-3.32,14.94-.18,7.23-8.7,4-9.94,8.81.64,2.64,1.23,5.1,2.15,8.94l-9-2.22c-1.65,6.16,5.74,3.36,6.34,7.19,4.95-5.29,10.16-8.08,13.66-1.41,2.1-1.3,4.61-4,6.27-3.56,1.82.5,2.85,3.9,4.89,7.06,4.84.08,9.95,4.31,16.29,4.51.8,0,2,1.61,2.23,2.64a23.09,23.09,0,0,1,0,5.12,41.29,41.29,0,0,0-22.21-10.77c-7.09-1.18-14.45-.6-21.62-1.41-3.88-.45-6.3.8-9,3.3-6.61,6-13.62,11.6-20.48,17.35-2.43-2.18-2.28,0-2.51,1.5L280,286.73c-.34,1.76-.68,3.51-1,5.27A.89.89,0,0,1,279.53,292.74Z"/><path class="cls-3" d="M456.47,45.46l-7.29,1.3c-1.14-4.51-2.37-8.72-7.89-10-3-.7-3.63-3.49-2.66-6.18,1.49-4.19-.57-6.32-4-7.94-1.13-.54-2.21-1.18-3.31-1.78l1.52-.55c-.14-.14-.34-.42-.4-.39-.48.23-.94.52-1.4.79L414,25.28,398.66,28.6c-1.72-1.76-3.05-1.89-3.68.89l-13.1,2.92c-2.81-1.1-5.78-3.14-7.69,1.27l-2.58,1.59-2.6,0-6.67.74-.6-1.17-.57.94-5.06,1.77c-1.72-3.14-3.05-3.21-5.13-.27l-6.15,3.2c1.66,6.29,3.36,12.76,5.06,19.22,2,9,2.77,17.94.8,27l.11-.07-2.91,7.53-.08,0L345.63,97l.06,0-4.12,4.9.19.15-1.88,1.43c-5.51,3.11-11,6.28-16.54,9.3-3.79,2.07-7.23,1.58-10.44-1.52-2.89-2.79-6-5.3-9.09-7.93-3.56-5.28-7.57-10.33-10.56-15.92-3.84-7.19-2.13-13,4.29-18l9.95-7.8.19-.1,6.21-5,.45-.15c6.21-3.78,10.64-9.18,15.44-16.42L311,41.57l-2.6.1-2.85,1.11a2,2,0,0,0-1,.21l-2.59.08-5.13-1.33c1.26-.91,2.51-1.84,3.8-2.71s2.63-1.71,3.95-2.55l18.22-1.78c-1.48-3.41-3-6.42-4.12-9.58-2.05-5.94-.89-9.39,4.81-11.21a194.47,194.47,0,0,1,23-5.63c9.47-1.81,14.52,4.7,17.71,11.8,3,6.73,6.57,10.06,14,7.71l1.22-.14,5.25-1.18,3.91.7L388,25.93l50.71-13.7,1.23-.34h0l1.33,19.39c0,2.79,2,2.57,3.86,2.57,1.77,1.09,3.44,2.87,5.33,3.14,4.37.61,5.82,3.23,6.24,7C456.62,44.52,456.54,45,456.47,45.46ZM339.35,39.2l-1.63-.06a28.51,28.51,0,0,0-2.39,2.9c-6.46,10.08-15,18.05-24.75,24.9-2.8,2-5.66,3.85-8.4,5.9-6,4.45-7,7.22-3.27,13.61a75.09,75.09,0,0,0,10.79,14.24c8.8,9.13,9.84,9.14,20.65,2.36,8.77-5.5,14.46-13.15,15.62-23.79C347.51,65.19,340.61,52.73,339.35,39.2Zm24.75-9.35c-2.42-4-4.39-7.48-6.58-10.8-2.76-4.19-6.27-6.62-11.79-5.86-3.9.54-7.9-.14-11.45,2.4-1.32.94-3.2,1.19-4.86,1.51-6.82,1.3-6.41,1.23-5.76,8.21a10.25,10.25,0,0,0,6,8.5c3.75,1.82,5.18-2.43,7-4.88.12-.17.27-.32.73-.85,2.07.82,5.38-.82,6.18,3.38.1.52,1.75,1.17,2.59,1.06C352,31.76,357.86,30.81,364.1,29.85Zm-18.3-20c-.3.22-.8.4-.85.67s.28.69.44,1l1.22-1Z"/><path class="cls-2" d="M456.7,44.05c-.42-3.82-1.87-6.44-6.24-7-1.89-.27-3.56-2-5.33-3.14,0-2.77-2-2.59-3.86-2.57L439.94,11.9c6.11-2.42,12.18-4.91,18.33-7.23s8.69-.3,7.29,6.16c-2,9.14-4.43,18.18-6.76,27.25C458.27,40.11,457.4,42.06,456.7,44.05Zm-5.12-30.83c2.11,0,4.3.33,6.31-.14,1.3-.3,2.34-1.76,3.5-2.7l-.89-1.11c-2.15.7-4.34,1.32-6.43,2.15a12.2,12.2,0,0,0-2.49,1.8,1.84,1.84,0,0,0-.49.23c-.08.07-.07.24-.11.37Zm3.23,17.35h-1.18v4.73h1.18Z"/><path class="cls-1" d="M332.89,339.84,317,339.9l-4.19-.76c1.83-1.95,3.72-3.57-.06-4.68q-1.66-5.18-3.32-10.35l-2.31-10.31-.27-2.59c-.28-2.74-.91-5.5-.71-8.2.12-1.62,1.25-4.12,2.44-4.47,1.56-.45,3.71.65,5.43,1.45.82.38,1.25,1.59,1.86,2.42h-.08a69.29,69.29,0,0,0,11.89,25.71l-.05,0c0,.4.05.8.07,1.2l-.63.81,1,.24-.17,0,1.32,1.43-.06-.1,2.17,2.73a.76.76,0,0,1,.55.65Z"/><path class="cls-2" d="M375.47,179.85c-.41,2.82-.83,5.64-1.32,9-5.25-1.56-8.51-1.09-9.34,4.56-.28,1.89-2.56,4.31-4.45,5-4.2,1.43-4.22-2-4.24-4.84C362.58,189,367.19,181.8,375.47,179.85Z"/><path class="cls-4" d="M312.71,334.46c3.78,1.11,1.89,2.73.06,4.68l4.19.76-12.47,0-2.4-4.61C305.77,336.87,309.42,338,312.71,334.46Z"/><path class="cls-4" d="M332.89,339.84l-1-4.78c4.12,5.24,9.46,3.29,14.61,2.47l.61.77,1.2,1.2.27.3Z"/><path class="cls-4" d="M131.7,339.44l11.56.16Z"/><path class="cls-4" d="M351.87,334.13l.39,4.17h0c-.43.51-.87,1-1.3,1.54l-2.39-.05-.27-.3-1.2-1.2-.61-.77,3.45-2.83v.06Z"/><path class="cls-4" d="M593.49,339.93l.2-3.78C594.68,337.47,597.89,338.91,593.49,339.93Z"/><path class="cls-4" d="M278.77,339.83c1.26-2.25,2.51-2.27,3.77,0Z"/><path class="cls-4" d="M352.26,338.3l2.53,1.59h-2.66l.12-1.57Z"/><path class="cls-5" d="M388,25.93l.47,1.24-3.91-.7Z"/><path class="cls-4" d="M589.63,340c.06-.76.13-1.53.19-2.29h.88l.18,2.29Z"/><path class="cls-6" d="M365.15,161.57l3.68-.73Z"/><path class="cls-6" d="M380.72,156.61l2.9-1.31Z"/><path class="cls-2" d="M440,11.89l-1.23.34Z"/><path class="cls-5" d="M379.32,27.65l-1.22.14A1.22,1.22,0,0,1,379.32,27.65Z"/><path class="cls-1" d="M352.25,338.31l-.12,1.57-.59.22-.59-.25C351.38,339.33,351.82,338.82,352.25,338.31Z"/><path class="cls-5" d="M394.86,148.79l1.8-1.24Z"/><path class="cls-6" d="M379.29,157.42l1.52-.88Z"/><path class="cls-7" d="M312.71,334.46c-3.29,3.53-6.94,2.41-10.62.8l-1.16-.9-1.5-1.47-1.14-1.11-2.44-1.65.07,0-2.58-2.56v.36l.07-.35-4.23-6.2.07.08L288,320h.13c-2.56-7.75-5.1-15.51-7.73-23.24-.23-.68-1-1.17-1.52-1.75l.66-2.25A.89.89,0,0,0,279,292c.33-1.76.67-3.51,1-5.27l2.65-3.75,2.51-1.5c6.86-5.75,13.87-11.33,20.48-17.35,2.74-2.5,5.16-3.75,9-3.3,7.17.81,14.53.23,21.62,1.41A41.29,41.29,0,0,1,358.49,273c5.16,7.32,10.36,14.6,15.47,21.95,3,4.38,1.89,12.86-2.08,16.42-3.55,3.18-7.15,2.59-10.14-1.4-4.94-6.58-10-13.06-15.1-19.69L337,293.22c-.89.82-2.66,1.82-2.53,2.43,1,4.77,1.81,9.75,6.61,12.55l.12.09c-.93,2.33,0,3.54,2.35,4h0a37.34,37.34,0,0,0,1.77,5.7c2.58,5.34,7.08,10.09,4.64,16.81v-.06c-.85-.05-1.95-.46-2.52-.08-5.71,3.81-10.8,1.83-15.79-1.49-.57-2.3-.62-5-4-5.05l.05,0c-1.21-3.48-2.12-7.11-3.7-10.42-2.49-5.21-5.44-10.21-8.19-15.29h.08c.25-1.62.51-3.25.75-4.76-4.29-2.51-8.19-2.35-12.05.78,0,3.2-.2,6.42.1,9.59.11,1.12,1.42,2.13,2.18,3.19l.27,2.59c-2.5,4.17-1.33,7.52,2.31,10.31Q311.06,329.29,312.71,334.46Z"/><path class="cls-8" d="M349.94,334.76c2.44-6.72-2.06-11.47-4.64-16.81a37.34,37.34,0,0,1-1.77-5.7c4.46,5.94,8.85,11.92,9.9,19.59a.7.7,0,0,0-.35.89l.18.11L352,334.29l-.13-.16Z"/><path class="cls-8" d="M341.1,308.2c-4.8-2.8-5.62-7.78-6.61-12.55-.13-.61,1.64-1.61,2.53-2.43a62.93,62.93,0,0,0,1.14,7.92A53.2,53.2,0,0,0,341.1,308.2Z"/><path class="cls-8" d="M343.57,312.26c-2.3-.43-3.28-1.64-2.35-4Q342.41,310.27,343.57,312.26Z"/><path class="cls-4" d="M352,334.29l1.26-1.45Z"/><path class="cls-4" d="M353.08,332.73a.7.7,0,0,1,.35-.89l.77.78Z"/><path class="cls-9" d="M369,35.23l2.6,0c.78.64,1.69,1.94,2.31,1.82,10.86-2.27,21.73-4.52,32.47-7.25,2.75-.69,5.1-3,7.63-4.56l17.05-4.59.28.15c1.1.6,2.18,1.24,3.31,1.78,3.4,1.62,5.46,3.75,4,7.94-1,2.69-.31,5.48,2.66,6.18,5.52,1.3,6.75,5.51,7.89,10-1.92,6.92-3.3,14.05-5.88,20.71-3.91,10.08-8.66,19.83-13.05,29.72-.57.89-1.14,1.77-1.7,2.66l.07-.06c-5.08,3.45-7.79,8.38-8.87,14.32h-.33l.33,0-1.54,2.46.09,0c-3.19-.3-2.85,1.85-2.7,3.87l.07,0c-2.79,0-4.39,1-3.58,4.1l-.1-.1-1.55,2.73-1,1-2.77,2.73-.26-.21.29.17c-4,.23-7.77.78-6.55,6.4l0-.08-1.4,1.38.07,0-2.44,1.54V140l-1.33,1.31v-.07l-1.41,1.3.05-.12-1.45,1.29.08,0c-3,0-6-.05-6.37,4l0-.08L383.35,149l0-.11c-2.43.47-5,.56-7.25,1.46-7.06,2.84-14.11,5.48-21.9,4.93-19.3-.95-38.18-3.25-53.8-15.52,1.18-7.21,10.5-7.6,10.21-14.95-10.43.07-23.72,14.94-24.55,27,7.19,1.92,4.82-6.45,9.3-8.14,4.14,5.88,10.77,8.84,17.64,10.94,6.1,1.86,12.54,2.65,18.8,4,7.21,1.56,14.38,3.22,22,4.94C348,182.1,339,199.08,329.17,215.63c-5.76,9.74-12.69,18.81-19.23,28.08a7,7,0,0,1-4,2.74c-5.26.86-6.35,1.41-4.8,5.77,2,5.46-.68,8.36-4.29,11.3-1.49,1.21-3.23,2.27-4.31,3.78-7.08,9.94-17.29,10.42-27.72,8.6-9.14-1.59-17.57-5.1-23.73-12.87-1.67-2.12-5-2.94-7.55-4.36a.69.69,0,0,0-.82-.51l-4.2-4c-2-4.38-6.09-5.57-10.13-5.44-9.54.31-19.06,1.25-28.59,2a11.43,11.43,0,0,0-3.16.53c-11.19,4.3-22.59,8.16-33.43,13.22-4.82,2.26-8.49,7-12.68,10.57l-9,15.48.12-.07-9.2,1.38a2.65,2.65,0,0,0-1.15.22l-5.15-.27-15.47.19L94.34,289l-.86-1.14-3-3.92a3.14,3.14,0,0,0-.24-1.14c-.44-.83-.89-1.66-1.34-2.48-7.63-7.53-15.27-15.05-23.4-23.05l4.2-7.07L93.1,231.33l-.08.07,20.55-9.24L130,217l-.13-1.87c-4.5-2.2-9.82,1.23-14.34-1.25-1.49-11.06.55-13.45,11.81-13.17a8.35,8.35,0,0,0,0-2.4c-2.83-8.95-.88-17.08,3.36-25.21,9.21-17.7,17.76-35.75,27.1-53.38,5.88-11.09,12-22.15,19.25-32.39,11.2-15.91,26.32-27.53,44.24-35.16,8.66-3.69,17.71-6.45,26.59-9.63l6.34.18c2,.47,3.93,1.34,5.9,1.36,14,.12,27.93.07,41.89.07L304.5,43a2,2,0,0,1,1-.21l2.85-1.11,2.6-.1c.76,2.76,1.6,5.51,2.26,8.29.49,2.11.75,4.27,1.11,6.4l-.45.15-6.72-.6c.22,2.4.36,4,.51,5.61l-.19.1c-4.34,1.91-9.81,2.81-12.71,6s-4.16,2.29-7,.69c0,7.46-2.25,14.92,2.8,21.39l-3.22,6.27,9.43,1.57a52.67,52.67,0,0,0,.09,7c.15,1,1.12,2.45,2,2.63s2.08-.81,3-1.51a14.42,14.42,0,0,0,2-2.33c3,2.63,6.2,5.14,9.09,7.93,3.21,3.1,6.65,3.59,10.44,1.52,5.56-3,11-6.19,16.54-9.3l1.88-1.43-.19-.15c4.89,1.33,4.24-2,4.12-4.9l-.06,0c2.06,0,3.07-.71,2.18-2.89l.08,0c4.86-1,2.51-4.8,2.91-7.53l-.11.07c.94-1.57,2.7-3.14,2.68-4.7-.11-7.43-.71-14.86-1.13-22.3-.48-2.26-.31-5-1.57-6.69-2.94-3.91-2.51-7.85-1.76-12.52,4-.5,7.83-.72,11.53-1.51C363.47,38.29,367.41,39.31,369,35.23Z"/><path class="cls-10" d="M302,44.19c-14,0-27.93.05-41.89-.07-2,0-3.93-.89-5.9-1.36,2.73-.23,5.45-.62,8.18-.66,9.77-.17,19.54-.23,29.31-.33l1.3,0,3.83-.08,5.13,1.33C301.94,43.44,302,43.81,302,44.19Z"/><path class="cls-11" d="M93.1,231.33,69.65,250.21c.33-5.67,5.26-8.05,8.68-11.16C82.43,235.32,86.94,231.5,93.1,231.33Z"/><path class="cls-12" d="M291.65,41.77c-9.77.1-19.54.16-29.31.33-2.73,0-5.45.43-8.18.66l-6.34-.18c.55-3.37,3.24-2.21,5.13-2.22,12.89-.09,25.79,0,38.69,0Z"/><path class="cls-4" d="M278.87,295c.52.58,1.29,1.07,1.52,1.75,2.63,7.73,5.17,15.49,7.73,23.24a20.92,20.92,0,0,1-8.07-13.81C279.45,302.48,279.25,298.72,278.87,295Z"/><path class="cls-11" d="M113.57,222.16,93,231.4c4.55-6.35,11.4-8.63,18.51-10.38C112.08,220.88,112.89,221.75,113.57,222.16Z"/><path class="cls-13" d="M131.52,290.49l9-15.48c.37.66,1.21,1.54,1,1.94a120.41,120.41,0,0,1-5.95,11.72C135,289.72,132.93,289.9,131.52,290.49Z"/><path class="cls-2" d="M228.53,254.16l4.2,4C229.48,258.76,228,257.55,228.53,254.16Z"/><path class="cls-13" d="M94.34,289l6.33,2.93-7,1.64Z"/><path class="cls-4" d="M289.17,321.36l4.23,6.2C289.81,327,289.58,324.11,289.17,321.36Z"/><path class="cls-13" d="M122.44,291.8l9.2-1.38Z"/><path class="cls-13" d="M90.43,284l3,3.92Z"/><path class="cls-13" d="M116.14,291.75l5.15.27Z"/><path class="cls-4" d="M293.34,327.55l2.58,2.56Z"/><path class="cls-13" d="M88.85,280.33c.45.82.9,1.65,1.34,2.48C88.55,282.63,87.09,282.35,88.85,280.33Z"/><path class="cls-4" d="M295.85,330.13l2.44,1.65Z"/><path class="cls-4" d="M299.43,332.89l1.5,1.47Z"/><path class="cls-3" d="M291.65,41.77V40.31L293,41.82Z"/><path class="cls-4" d="M288,320l1.25,1.47Z"/><path class="cls-14" d="M354.24,155.25c7.79.55,14.84-2.09,21.9-4.93,2.25-.9,4.82-1,7.25-1.46C374.42,154.42,365.17,158.67,354.24,155.25Z"/><path class="cls-14" d="M419.75,114.11c1.08-5.94,3.79-10.87,8.87-14.32Z"/><path class="cls-14" d="M400.17,137.27c-1.22-5.62,2.51-6.17,6.55-6.4Z"/><path class="cls-14" d="M386,147.66c.37-4.1,3.36-4.08,6.37-4Z"/><path class="cls-14" d="M412.09,124.54c-.81-3.11.79-4.13,3.58-4.1Z"/><path class="cls-14" d="M415.6,120.47c-.15-2-.49-4.17,2.7-3.87Z"/><path class="cls-4" d="M285.14,281.48l-2.51,1.5C282.86,281.45,282.71,279.3,285.14,281.48Z"/><path class="cls-4" d="M280,286.73c-.34,1.76-.68,3.51-1,5.27C279.3,290.24,279.64,288.49,280,286.73Z"/><path class="cls-14" d="M406.69,130.91l2.77-2.73Z"/><path class="cls-14" d="M396.44,140.06l2.44-1.54Z"/><path class="cls-14" d="M383.35,149l2.64-1.39Z"/><path class="cls-14" d="M410.44,127.17l1.55-2.73Z"/><path class="cls-14" d="M418.21,116.62l1.54-2.46Z"/><path class="cls-14" d="M428.55,99.85c.56-.89,1.13-1.77,1.7-2.66C429.68,98.08,429.11,99,428.55,99.85Z"/><path class="cls-14" d="M398.81,138.57l1.4-1.38Z"/><path class="cls-14" d="M395.1,141.26l1.33-1.31Z"/><path class="cls-14" d="M393.7,142.49l1.41-1.3Z"/><path class="cls-14" d="M392.3,143.66l1.45-1.29Z"/><path class="cls-15" d="M364.1,29.85c-6.24,1-12.06,1.91-17.91,2.67-.84.11-2.49-.54-2.59-1.06-.8-4.2-4.11-2.56-6.18-3.38-.46.53-.61.68-.73.85-1.85,2.45-3.28,6.7-7,4.88a10.25,10.25,0,0,1-6-8.5c-.65-7-1.06-6.91,5.76-8.21,1.66-.32,3.54-.57,4.86-1.51,3.55-2.54,7.55-1.86,11.45-2.4,5.52-.76,9,1.67,11.79,5.86C359.71,22.37,361.68,25.85,364.1,29.85Z"/><path class="cls-16" d="M303.81,103.26a14.42,14.42,0,0,1-2,2.33c-.89.7-2.12,1.7-3,1.51s-1.81-1.63-2-2.63a52.67,52.67,0,0,1-.09-7l-9.43-1.57,3.22-6.27c-5.05-6.47-2.82-13.93-2.8-21.39,2.82,1.6,4.19,2.4,7-.69s8.37-4.12,12.71-6l-9.95,7.8c-6.42,5-8.13,10.83-4.29,18C296.24,92.93,300.25,98,303.81,103.26Z"/><path class="cls-16" d="M314.34,56.26c-.36-2.13-.62-4.29-1.11-6.4-.66-2.78-1.5-5.53-2.26-8.29l18.81-1.73C325,47.08,320.55,52.48,314.34,56.26Zm9-12.54-1.67-1-1.52,3.09,1.38.75Z"/><path class="cls-17" d="M369,35.23c-1.6,4.08-5.54,3.06-8.57,3.71-3.7.79-7.52,1-11.53,1.51-.75,4.67-1.18,8.61,1.76,12.52,1.26,1.68,1.09,4.43,1.57,6.69h-2.35c-1.7-6.46-3.4-12.93-5.06-19.22l6.15-3.2,5.13.27,5.06-1.77a5.77,5.77,0,0,0,1.17.23Z"/><path class="cls-17" d="M414,25.28c-2.53,1.57-4.88,3.87-7.63,4.56-10.74,2.73-21.61,5-32.47,7.25-.62.12-1.53-1.18-2.31-1.82l2.58-1.59,7.69-1.27L395,29.49l3.68-.89Z"/><path class="cls-18" d="M349.89,59.66h2.35c.42,7.44,1,14.87,1.13,22.3,0,1.56-1.74,3.13-2.68,4.7C352.66,77.6,351.92,68.61,349.89,59.66Z"/><path class="cls-16" d="M307.68,61.42c-.15-1.6-.29-3.21-.51-5.61l6.72.6Z"/><path class="cls-19" d="M381.88,32.41l-7.69,1.27C376.1,29.27,379.07,31.31,381.88,32.41Z"/><path class="cls-19" d="M356.11,37.51,351,37.24C353.06,34.3,354.39,34.37,356.11,37.51Z"/><path class="cls-18" d="M350.8,86.59c-.4,2.73,1.95,6.53-2.91,7.53Z"/><path class="cls-18" d="M345.69,96.93c.12,2.89.77,6.23-4.12,4.9Z"/><path class="cls-5" d="M441.27,31.29c1.87,0,3.86-.2,3.86,2.57C443.27,33.86,441.27,34.08,441.27,31.29Z"/><path class="cls-1" d="M345.8,9.8l.81.75-1.22,1c-.16-.35-.5-.73-.44-1S345.5,10,345.8,9.8Z"/><path class="cls-18" d="M347.81,94.08c.89,2.18-.12,2.93-2.18,2.89Z"/><path class="cls-19" d="M398.66,28.6l-3.68.89C395.61,26.71,396.94,26.84,398.66,28.6Z"/><path class="cls-19" d="M431.07,20.69c.46-.27.92-.56,1.4-.79.06,0,.26.25.4.39l-1.52.55Z"/><path class="cls-16" d="M302,44.19c0-.38,0-.75,0-1.12L304.5,43Z"/><path class="cls-16" d="M308.37,41.67l-2.85,1.11Z"/><path class="cls-19" d="M362.34,36a5.77,5.77,0,0,1-1.17-.23l.57-.94Z"/><path class="cls-18" d="M341.76,102l-1.88,1.43Z"/><path class="cls-5" d="M451.58,13.22a12.2,12.2,0,0,1,2.49-1.8c2.09-.83,4.28-1.45,6.43-2.15l.89,1.11c-1.16.94-2.2,2.4-3.5,2.7-2,.47-4.2.14-6.31.14Z"/><path class="cls-5" d="M454.81,30.57v4.74h-1.18V30.58Z"/><path class="cls-5" d="M451.58,13.22l-.6.6c0-.13,0-.3.11-.37a1.84,1.84,0,0,1,.49-.23Z"/><path class="cls-8" d="M315.75,302.4c2.75,5.08,5.7,10.08,8.19,15.29,1.58,3.31,2.49,6.94,3.7,10.42A69.29,69.29,0,0,1,315.75,302.4Z"/><path class="cls-8" d="M306.81,311.21c-.76-1.06-2.07-2.07-2.18-3.19-.3-3.17-.1-6.39-.1-9.59,3.86-3.13,7.76-3.29,12.05-.78-.24,1.51-.5,3.14-.75,4.76-.61-.83-1-2-1.86-2.42-1.72-.8-3.87-1.9-5.43-1.45-1.19.35-2.32,2.85-2.44,4.47C305.9,305.71,306.53,308.47,306.81,311.21Z"/><path class="cls-8" d="M331.62,333.13c5,3.32,10.08,5.3,15.79,1.49.57-.38,1.67,0,2.52.08l-3.45,2.83c-5.15.82-10.49,2.77-14.61-2.47a.76.76,0,0,0-.55-.65c0-.32-.06-.64-.07-1Z"/><path class="cls-8" d="M309.39,324.11c-3.64-2.79-4.81-6.14-2.31-10.31Z"/><path class="cls-8" d="M327.59,328.08c3.41,0,3.46,2.75,4,5.05l-.37.31-2.1-1.76.06.1-1.32-1.43.17,0a1,1,0,0,0-.4-1.05C327.64,328.88,327.62,328.48,327.59,328.08Z"/><path class="cls-4" d="M329.15,331.68l2.1,1.76c0,.33,0,.65.07,1Z"/><path class="cls-4" d="M327.89,330.35l1.32,1.43Z"/><path class="cls-4" d="M327.66,329.28a1,1,0,0,1,.4,1.05l-1-.24Z"/><path class="cls-1" d="M347.09,338.3l1.2,1.2Z"/><path class="cls-20" d="M322.13,77.39l8.85.94c1.22,3.39,1.09,6-1.73,7.21-1.7.7-4.74.94-5.73-.06-1.63-1.62-2.08-4.43-3-6.73Z"/><path class="cls-9" d="M323.33,43.72l-1.81,2.82-1.38-.75,1.52-3.09Z"/></svg>