<svg xmlns="http://www.w3.org/2000/svg" viewBox="0 0 202.52 65.49"><title>Sans titre - 1</title><path d="M45.47,31.72,43,33.61c-3.6,2.85-7.19,5.71-10.82,8.52a1.17,1.17,0,0,0-.42,1.52,22.69,22.69,0,0,0,4.74,8.49,17.4,17.4,0,0,1,2,3.63,1.36,1.36,0,0,1-.2,1.26c-.22.21-.86.1-1.25,0-1.8-.66-2.6-2.28-3.49-3.79-.67-1.13-1.16-2.38-1.89-3.46a2.58,2.58,0,0,0-1.59-1,12.21,12.21,0,0,0-8.55,1.38c-2.75,1.69-5.43,3.52-8.24,5.1A55,55,0,0,1,7,58.15a5.37,5.37,0,0,1-4.42-.46c-1.28-.62-1.3-1.6-.15-2.38a32.27,32.27,0,0,1,11.14-4.79c4-.89,7.77-2.09,10.81-5a28.73,28.73,0,0,1,3.49-2.7,1.16,1.16,0,0,0,.45-1.64,20.09,20.09,0,0,1-1-2,3.93,3.93,0,0,1,0-1.33c.4,0,.95-.1,1.19.11a8.76,8.76,0,0,1,1.61,1.88c.43.69.77.77,1.4.23,1.15-1,2.38-1.86,3.55-2.81.86-.7,1.67-1.46,2.53-2.16,2.46-2,4.95-4,7.39-6a10.12,10.12,0,0,0,1.79-1.91,1.51,1.51,0,0,1,2.19-.52,1.74,1.74,0,0,1,1,2.26c-1.63,4.62-3.19,9.27-4.76,13.91a1.59,1.59,0,0,0,0,1.17c.48-.56,1-1.11,1.44-1.69a1.87,1.87,0,0,1,2.55-.56,2.3,2.3,0,0,1,1.49,2.37c-.09.87-.25,1.73-.37,2.6a2.33,2.33,0,0,0,.05,1c1.28-1.19,3.1-1.82,3.6-3.72a1.65,1.65,0,0,0-.09-1c-.54-1-.1-1.39.91-1.62,3.63-.84,7.25-1.74,10.86-2.61l-.23.71a21.72,21.72,0,0,1,2.84-1.32,15.49,15.49,0,0,1,2.66-.37l0,.38c-1.62.73-3.22,1.49-4.85,2.18-2.09.88-4.19,1.71-6.3,2.55-.67.26-1.36.46-2,.7-1.26.45-1.3.56-.86,2,3-.56,5.75-3,9.41-1.8a3.56,3.56,0,0,1-.58.51c-2.76,1.32-5.53,2.61-8.28,3.95a3.85,3.85,0,0,0-1.82,4.52c1.63-1,3.27-1.91,4.82-3s3-2.5,4.65-3.42c1-.52,1.62-.91,1.86-2.05.16-.75,1.58-.73,2.37.08a1.16,1.16,0,0,0,1.4.39c1.51-.42,3,1.58,2.41,3.19-.21.58-.5,1.13-.78,1.74a4.12,4.12,0,0,0,3.1-1.76c1.32-1.86,1.38-4.09,2.1-6.11A5,5,0,0,1,80,39c3.13-1.34,6.42-2.32,9.64-3.47,1.15-.42,2.26-1,3.42-1.37a3.22,3.22,0,0,1,1.57,0c.28.06.51.36.76.56-.24.25-.43.62-.72.72-2,.73-3.9,1.43-5.88,2.06a25.57,25.57,0,0,0-7.37,3.34,4,4,0,0,0-2,3.26A24,24,0,0,0,83,43c1.08-.56,1.61-.14,2.21.73-1.27,1-2.48,2-3.79,2.84-1.94,1.26-2.4,3.17-2.55,5.25a3.84,3.84,0,0,0,.26,1.07l4.27-2.39a7.21,7.21,0,0,0,1.53-.89A37.62,37.62,0,0,0,88,46.19c.82-1,1.42-2.22,2.21-3.27a8.14,8.14,0,0,1,1.35-1.09c.77-.68,1.52-1.37,2.26-2.08s1-1.57,2.13-1.12a2.67,2.67,0,0,1,1.75,2.48c.05.79,0,1.59,0,2.71.37-.45.5-.75.7-.82.57-.2,1.32-.59,1.74-.38a1.57,1.57,0,0,1,.93,2c-.61,2.16-1,4.41-1.37,6.63,0,.19.13.42.25.74,2.17-2,4.37-3.76,4.8-6.83a15.19,15.19,0,0,1,.7-2.54c.26-.78.78-.93,1.51-.52,1.28.73,1.43,1.38,1,2.84a10.29,10.29,0,0,0-.39,3.31,29.49,29.49,0,0,0,.74,4.84,13.88,13.88,0,0,0,1.17,2.26A9.48,9.48,0,0,1,110,56.9c-.48.05-1.14.32-1.42.11a8.07,8.07,0,0,1-2.16-2.24,20.61,20.61,0,0,1-1.22-3.68c-.57.64-1.06,1.22-1.57,1.78s-.77.82-1.17,1.21a2.5,2.5,0,0,1-3,.74c-1.24-.65-2.41-1.53-2.31-3.2a46.91,46.91,0,0,0,.18-4.75c-.45,2.29-.92,4.58-1.35,6.87-.16.86-.21,1.74-.41,2.6a1,1,0,0,1-.63.69c-.74.13-2.2-1.64-2-2.36.61-2.22,1.24-4.43,1.86-6.64a2.33,2.33,0,0,0,0-.49,5.43,5.43,0,0,0-4.53,1.66,43.69,43.69,0,0,0-4.11,5.68c-.79,1.24-1.54,1.42-2.52.27-.28-.34-.52-.7-.92-1.23-1.63,1.17-3.26,2.29-4.83,3.49-.61.47-1.09,1.06-2,.5a2.26,2.26,0,0,1-1.31-2.34,21.74,21.74,0,0,0,.3-4l-.79.71c-1.41,1.23-2.78,2.51-4.25,3.68-1.1.87-1.71-.3-2.44-.8s-.49-1.26-.13-1.92c.58-1.06,1.19-2.12,1.79-3.18l-.4-.23c-.75,1.22-1.49,2.45-2.25,3.67S65,55.7,64.25,56.78c-.18.26-.69.61-.84.53a6.83,6.83,0,0,1-2.07-1.45c-.5-.61-.19-1.35.43-1.9a8.39,8.39,0,0,0,2.55-3.72L64.07,50c-1.25.8-2.56,1.53-3.74,2.42-2.15,1.62-4.21,3.38-6.36,5a17.08,17.08,0,0,1-2.63,1.51c-.55.28-2.08-.64-2.39-1.41s.17-1.28.87-1.54c1.89-.72,1.91-2.54,2.57-4a1.14,1.14,0,0,0-1.74.26c-1.48,1.82-1.91,1.81-3.88.59-1-.59-.68-1.42-.6-2.2a10.82,10.82,0,0,1,.44-1.74,5.9,5.9,0,0,0,.24-1.76c-1.73,2.07-4,3.69-4.58,6.55-.19,1-.73,1.33-1.7,1-1.73-.69-2-1.25-1.41-2.76,1.16-3.1,2.27-6.21,3.36-9.34,1-2.78,1.9-5.59,2.81-8.4a22.21,22.21,0,0,0,.48-2.18ZM14.23,52.48,14,52C12,51.9,7.19,54.17,6.32,56Zm15.29-8.33-3.29,2.72.23.43,4.2-.3ZM93,44.78l.21.42c.56-.13,1.47-.1,1.62-.43a7.09,7.09,0,0,0,.28-2.29l-.42-.13Z"/><path d="M152.69,49.27c1.14-.64,2.2-1.26,3.28-1.83.87-.46.78-1,.35-1.77-.59-1-1.19-2-1.7-3a4.92,4.92,0,0,1-.43-1.61c-.11-.92.42-1.29,1.24-1.06,1,.3,1.87.7,2,2.11.39,3.17,1.3,3.49,3.75,1.59.34-.27.61-.63.92-.93,1.06-1,2.21-1.9,3.16-3a6.56,6.56,0,0,0,1.91-5.27,17.72,17.72,0,0,1,.54-4.93,2.1,2.1,0,0,1,2-1.67c1.4-.18,2.77-.37,4,.6s1.45,2,.45,3.54a55.21,55.21,0,0,1-3.54,5,3.91,3.91,0,0,0-.93,2.82c.14,5.52.17,11,.26,16.55a16.52,16.52,0,0,0,.29,2.72c.26,1.48-.16,2-1.63,1.71s-2.05-1.36-1.87-2.86c.28-2.4.32-4.84.4-7.27.09-2.87.11-5.74.16-8.62a5.82,5.82,0,0,0-.15-.79,2.48,2.48,0,0,0-.56.26c-1.93,1.79-3.84,3.6-5.8,5.36a1.19,1.19,0,0,0-.25,1.75,47,47,0,0,1,2.26,4.48,2.14,2.14,0,0,1,0,1.75c-.2.32-1.12.44-1.6.28a6.5,6.5,0,0,0-5.83.66c-.7.43-1.77.24-2.77.35,0,.84-.34,1.54-1.57,1.17-1.5-.45-1.87-1.21-1.63-2.51a35.78,35.78,0,0,0,.31-4.28,5.9,5.9,0,0,0,.06-.83c0-.45-.1-.9-.15-1.35a8.63,8.63,0,0,0-1.36.28A5,5,0,0,0,144.75,53c-.1.81-1.59,1.55-2.71,1.45a2.87,2.87,0,0,1-2.49-2.34,31.31,31.31,0,0,1,0-11.66,1.29,1.29,0,0,0,0-.48,3.81,3.81,0,0,0-.25-.63A26.32,26.32,0,0,0,138.07,42c-.85,2.52-1.58,5.09-2.46,7.6a2,2,0,0,1-1.24,1.17c-1,.13-2.32-.95-2.2-1.7.31-2,.77-4,1.14-6,.57-3.06,1.1-6.12,1.64-9.18,0-.13,0-.28-.38-.51-.7,1.56-1.5,3.09-2.07,4.71-1.7,4.81-3.35,9.63-4.91,14.49-.61,1.89-.93,3.87-1.36,5.82-.37,1.63-.94,2.12-2.31,1.94a2,2,0,0,1-1.79-2.52c.3-1.62,1-3.17,1.42-4.77s.87-3.41,1.3-5.12l-.52-.13c-.27,1.19-.6,2.37-.81,3.57a4.1,4.1,0,0,1-2.58,2.82,2.5,2.5,0,0,1-2.72-.35,1,1,0,0,1-.47-1.4c1-2.89,2.12-5.75,3-8.68.81-2.74,1.31-5.57,2-8.33.55-2.07,1.34-4.07,1.9-6.14s.91-3.93,1.33-5.91c.55-2.59,1.13-5.18,1.59-7.79.52-2.9.93-5.82,1.36-8.73A11.43,11.43,0,0,0,129,4.79,1.56,1.56,0,0,1,130.9,3a3.78,3.78,0,0,1,3.25,4.11,83.58,83.58,0,0,0-.78,9.18c.06,4.53-.69,9-1,13.46,0,.32,0,.63,0,1.14a19.8,19.8,0,0,0,2.36-2,1.72,1.72,0,0,1,2.23-.54,2,2,0,0,1,1.48,2.19,21.58,21.58,0,0,0-.19,4,12.29,12.29,0,0,0,1-1.39c.37-.71.74-1.38,1.71-1.11s1.81.85,1.87,1.93a30.54,30.54,0,0,1-.13,4.17c-.27,2.87-.62,5.72-.89,8.58a10.09,10.09,0,0,0,.18,1.82c.81-.54,1.65-.8,2-1.36,1.32-2.25,2.42-4.63,3.7-6.89a18.35,18.35,0,0,0,1.9-7.71c0-.16.24-.45.31-.43a6.35,6.35,0,0,1,2.23.63,2.15,2.15,0,0,1,.55,1.61c0,3.51-.15,7-.18,10.53,0,.32.51.67.81,1s.81.77,1.21,1.15a5.79,5.79,0,0,1-1.17.58C152.38,47.89,152.41,48.45,152.69,49.27Zm7,3.18c-.55-1.16-1-2.11-1.46-3-.07-.12-.61-.14-.79,0-1.12.75-2.22,1.53-3.28,2.36a3,3,0,0,0-.86,1.11c-.1.21.07.61.23.84a.64.64,0,0,0,.62.07A8.4,8.4,0,0,1,159.68,52.45Zm9.92-18,.31,0c.59-.92,1.18-1.83,1.75-2.75a1.43,1.43,0,0,0,.24-.67,4,4,0,0,0-.2-.86c-.31.1-.79.11-.9.31a23.41,23.41,0,0,0-1.3,2.89A3,3,0,0,0,169.6,34.47Zm-19.73,8-.47-.08-1.34,3.32c.85.18,1.6.35,1.77-.46A13.56,13.56,0,0,0,149.87,42.51Z"/><path d="M186.18,43.38,190.09,42c1.55-.53,2.4-.18,3.27,1.44l-3.77,1.74c-.68.32-1.39.61-2,1-1.1.65-1.87,1.51-1.48,2.93.51,1.84,1,3.69,1.55,5.52.22.72.74.86,1.42.49,1.68-.9,3.36-1.8,5.06-2.66.57-.28,1.2-.45,1.76-.66.47.74-1.3,1.19.3,1.82-2,1.28-3.84,2.41-5.64,3.57-1.19.77-2.34,1.58-3.54,2.34-1.86,1.18-3.93,1.18-4.64-1.36-.84-3-1.51-6-2.28-9.05-.23-.87-.59-1.71-.79-2.27a37.33,37.33,0,0,0-3.82.72c-.34.1-.68.81-.71,1.26-.11,1.91-.09,3.83-.17,5.74,0,.73.23,1.74-1,1.79a2.06,2.06,0,0,1-2-1.83,21.32,21.32,0,0,1,0-3c.09-1.35.24-2.7.4-4a7,7,0,0,0-.63-4,3.85,3.85,0,0,1,0-3.79c.15-.26.59-.61.77-.55a3,3,0,0,1,2.21,1.8c.29.88.73,1.7,1.08,2.57.15.39.23.81.35,1.22a3.22,3.22,0,0,0,2.69-3.42,36.19,36.19,0,0,1-.09-4.29c.08-1.27.84-1.55,2-.94a3.81,3.81,0,0,1,1.9,3.73,8.16,8.16,0,0,1-.66,2.9,5.64,5.64,0,0,0,.28,4.35,3.11,3.11,0,0,0,1-3.76,4.79,4.79,0,0,1,2.09-5.94,1,1,0,0,1,.77-.07,14.14,14.14,0,0,0,9.84-.47,7.52,7.52,0,0,1,1.27-.26c.42-.11.83-.28,1.25-.39s1.14-.27,1.68-.4c.5.81.91,1.61-.21,2-2.57.95-5.13,1.93-7.77,2.63a9.68,9.68,0,0,1-3.56-.26c-1.57-.23-2,0-2,1.63C186.17,42.31,186.18,42.74,186.18,43.38Z"/><path d="M167,22c0-.13-.06-.45-.11-.76-.11-.72-.06-1.36.78-1.63.18-.06.41-.19.46-.34.33-1,1.07-1,1.78-.56s1.67,1.07,1.1,2.31a14.83,14.83,0,0,0-.76,2.15c-.21.73-.29,1.6-1.27,1.63-.82,0-2-1.38-2-2.25C167,22.47,167,22.35,167,22Z"/></svg>