<svg xmlns="http://www.w3.org/2000/svg" viewBox="0 0 224.73 52.15"><defs><style>.a{fill:#dcdcdc;}.b{fill:#dedede;}.c{fill:#c5c5c5;}.d{fill:#eee;}.e{fill:#c8c8c8;}.f{fill:#c7c7c7;}.g{fill:#e1e1e1;}.h{fill:#d8d8d8;}.i{fill:#e2e2e2;}.j{fill:#d6d6d6;}.k{fill:#c3c3c3;}.l{fill:#979797;}.m{fill:#8c8c8c;}.n{fill:#cfcfcf;}.o{fill:#a6a6a6;}.p{fill:#909090;}.q{fill:#131313;}.r{fill:#d2d2d2;}.s{fill:#afafaf;}.t{fill:#cecece;}.u{fill:#868686;}.v{fill:#d7d7d7;}.w{fill:#b7b7b7;}.x{fill:#121212;}.y{fill:#1c1c1c;}.z{fill:#767676;}.aa{fill:#737373;}.ab{fill:#4a4a4a;}.ac{fill:#cdcdcd;}.ad{fill:#787878;}.ae{fill:#8e8e8e;}.af{fill:#616161;}.ag{fill:#4e4e4e;}.ah{fill:#676767;}.ai{fill:#bababa;}.aj{fill:#acacac;}.ak{fill:silver;}.al{fill:#a1a1a1;}.am{fill:#797979;}.an{fill:#6a6a6a;}.ao{fill:#7f7f7f;}.ap{fill:#888;}.aq{fill:#6f6f6f;}.ar{fill:#4d4d4d;}.as{fill:#959595;}.at{fill:#8b8b8b;}.au{fill:#595959;}.av{fill:#bcbcbc;}.aw{fill:#757575;}.ax{fill:#ababab;}.ay{fill:#333;}.az{fill:#9c9c9c;}.ba{fill:#cacaca;}.bb{fill:#848484;}.bc{fill:#4b4b4b;}.bd{fill:#646464;}.be{fill:#8d8d8d;}.bf{fill:#ddd;}.bg{fill:#151515;}.bh{fill:#545454;}.bi{fill:#f0f0f0;}.bj{fill:#a3a3a3;}.bk{fill:#373737;}.bl{fill:#575757;}.bm{fill:#bdbdbd;}.bn{fill:#696969;}.bo{fill:#505050;}.bp{fill:#d0d0d0;}.bq{fill:#e0e0e0;}.br{fill:#323232;}.bs{fill:#2d2d2d;}.bt{fill:gray;}.bu{fill:#6b6b6b;}.bv{fill:#424242;}.bw{fill:#cbcbcb;}.bx{fill:#7d7d7d;}.by{fill:#535353;}.bz{fill:#e3e3e3;}.ca{fill:#e4e4e4;}.cb{fill:#dadada;}.cc{fill:#919191;}.cd{fill:#d9d9d9;}.ce{fill:#a9a9a9;}.cf{fill:#2a2a2a;}</style></defs><title>Sans titre - 2</title><path class="a" d="M185.17,31.15l.73.32c-.34.28-.54.47-.77.62-1.17.76-2.35,1.5-3.53,2.24-.29.18-.46.39-.34.74-.84.19-.84.19-.71.92a2.88,2.88,0,0,0,2-.67c.48-.34,1-.61,1.52-.92l-.43.74c.72-.14,1.27-.09,1.77-.55.74-.68,1-.58,1.38.38a1.17,1.17,0,0,0,.29-.17c.86-.86.91-.87,1.66.13a.59.59,0,0,0,.89.16c1.09-.75,2.42-.67,3.61-1a1.38,1.38,0,0,1,.57-.07c.48,0,.7.43.4.79a5.93,5.93,0,0,1-1,.93c-.48.37-1,.7-1.49,1a.6.6,0,0,0-.26.88l-.72.2-.7-.24c0-.4-.11-.66-.56-.56s-.85.23-1.27.35l-2.77.67-.9.27-1.64.18-.07-.25,1.46-.65.69-.24,1.9-.28c.4-.07.59-.28.43-.81a8,8,0,0,0-1.55,0,19,19,0,0,0-2,.59l-.67.49c-.86-.28-1.4.46-2.1.66l-.21.24c-.5,0-1,.06-1.14.71l-.93.43-1.62.07a1.64,1.64,0,0,1,.62-1.4c.51-.37.41-.75.1-1.16a5.09,5.09,0,0,0,.74-.46,6.77,6.77,0,0,0,.62-.68c-.55-.55-1-.18-1.37.21A11.1,11.1,0,0,1,175,37c.22-.5.39-.85.55-1.21l2.29-1.38c.12.06.28.19.35.15.66-.34,1.31-.71,1.95-1.07h0l4.61-2.29Z"/><path class="b" d="M196.67,37.14a1.89,1.89,0,0,0,2.14-.28c.25-.23.46-.48.8-.84l.35,1.06a9.71,9.71,0,0,0,1.19-.26c1.35-.5,2.68-1.08,4-1.55,1-.36,2.12-.6,3.18-.89l1.11-.28a4.37,4.37,0,0,1,1.21-.18A4.5,4.5,0,0,1,208.82,35a24.76,24.76,0,0,0-3.89,1.24c-1.19.58-2.49.93-3.73,1.41-.19.08-.32.33-.48.51.18.11.36.32.54.32,1.87,0,3.73-.08,5.6-.13a3,3,0,0,1,2.26.36c-1.53.63-3,.11-4.38.46a37.49,37.49,0,0,1-4.23.62V40a16.8,16.8,0,0,0,1.86.21c.8,0,1.6-.06,2.4,0a6.14,6.14,0,0,1,1.11.19l-.26.72-2.85.18c-.15,0-.35,0-.44,0-.65-.6-1.45-.38-2.2-.4-1,0-2,0-3,0-.8,0-.8,0-1.2.95a1.72,1.72,0,0,0,1.48.34,9.88,9.88,0,0,1,4.16-.14,24.55,24.55,0,0,0,3.54,0c.71,0,1.42.09,2.32.15-.52.7-1.1.42-1.57.51h-.69c-1.09,0-2.19,0-3.28.1-1.28.07-2.55.22-3.82.29s-2.5.1-3.75.13c-.52,0-1.05,0-1.57-.07a1.56,1.56,0,0,1,1.39-.3,1.21,1.21,0,0,0,1.4-.33,3.38,3.38,0,0,0-2.59-.26c-.14-.36.12-.45.37-.55l1.54-.59,2.25-1c.34-.16.69-.31,1-.49a13.35,13.35,0,0,0,1.44-.9c.2-.16.27-.49.4-.74a3.21,3.21,0,0,0-.79-.22,8.78,8.78,0,0,0-1.13.1c-.06,0-.1.09-.16.13l.46.39a3.07,3.07,0,0,1-2.11,1.1c-1,0-2,.1-3,.11-.1,0-.2-.27-.29-.41v0l1.11-.46-.39-.9h0c.56.11,1.15.38,1.61-.22Z"/><path class="c" d="M182.87,44.05H181.5l-2.78.45h0l-2.07.23h0l-2.3.22L173,45.2l-2.52.21-1.64-.23c.09-.62-.41-.36-.68-.45,1-.15,2-.35,3-.44,2.92-.25,5.83-.45,8.75-.67.84-.06,1.67-.08,2.51-.13C182.84,43.47,183,43.66,182.87,44.05Z"/><path class="d" d="M173.43,33l2.76-1.15h0c1.26.08,2.29-.64,3.45-.92.49.13.66.38.22.75-.28.24-.6.43-.9.65a8.89,8.89,0,0,1-.81.42,1.08,1.08,0,0,1-.64,0,3.09,3.09,0,0,0-3.16.81c.84.55,1.31-.67,2.1-.43-.08.92-1.16.64-1.49,1.35.22.08.44.22.6.18a13.68,13.68,0,0,0,1.6-.54c.3-.12.51-.1.64.21l-2.29,1.38-1-.87c-.23-.38-.45-.77-.67-1.15Z"/><path class="e" d="M30.51,23.09c-.44.08-.88.14-1.31.25s-1,.3-1.47.45h-.41l.26-.94-2.11-.15-.06-.09,1.87-1.1c1.19-.26,2.38-.56,3.58-.76a2.84,2.84,0,0,1,1,.28l-.25.69-1.3.53-1,.3c.24.62.71.51,1.15.49Z"/><path class="f" d="M165.13,42.67c-1,.13-1.95.25-2.92.39a20.88,20.88,0,0,0-2.24.35,6.56,6.56,0,0,0-1.28.62h0c-.7-.17-1.31.64-2.11.16l.28-.6h0l1.85-.46.69-.26,3.45-.9h0a14.91,14.91,0,0,0,1.75-.31c.67-.2.73-.45.5-1.28l.12-.09c.69.64.36,1.44.3,2.18C165.52,42.56,165.27,42.61,165.13,42.67Z"/><path class="g" d="M50.53,19.19c-1.25-.08-2.5-.25-3.74-.24-1.76,0-3.51.14-5.26.2-.15,0-.31-.12-.69-.28a4,4,0,0,1,.79-.26c1.3-.06,2.59-.08,3.88-.14a3.19,3.19,0,0,0,.65-.19H50.3l.89.41C51.16,19.2,50.81,19.14,50.53,19.19Z"/><path class="h" d="M169.75,30.93l1.82,1.16c.18-1.72-1.37-2.1-1.94-3.08.24-.46.54-.22.81-.15l.91.92c.39.81.75,1.64,1.19,2.41a4.08,4.08,0,0,0,.89.81l.44.74-.45-.25c-.52-.31-1-.61-1.57-.93-.88-.53-1.74-1.07-2.61-1.61Z"/><path class="i" d="M168.8,45.18l1.65.23-.47,0-6,.25-.47,0-.51-.52c.17-.13.32-.35.5-.38a12.46,12.46,0,0,1,1.37-.05l.06.09-.69.42a6.31,6.31,0,0,0,1.95.18C167.08,45.36,167.94,45.26,168.8,45.18Z"/><path class="j" d="M167,27.72l.72.89a1.93,1.93,0,0,1,0,.24l-1.61-.22.19-1.38h.5Z"/><path class="i" d="M180.8,44.51h-2.08l2.78-.45c0,.08,0,.15,0,.22Z"/><path class="k" d="M142.59,6.31l-.75.34c-.14-.6.22-.82.54-1.06Z"/><path class="l" d="M94.69,39.6l-.63,0L94,39.44l1-.84v.84Z"/><path class="i" d="M161,45.66a1,1,0,0,1,1.22-.55l-.76.78Z"/><path class="m" d="M196.67,37.14l-1.37.49a1.53,1.53,0,0,0-1.61.22h0c-.71.2-.84.71-.72,1.36v0l-1.12-.61-.39.93.58.84-3,.23-.42,0-.71,0c.68-.36,1.56-.38,2.12-1.25a6.65,6.65,0,0,0-2.81.57c.09-.71.55-1,1.19-1.16s1.51-.6,2.27-.91l.72-.2,2.41-.7c.67-.18,1.33-.37,2-.52S196.71,36.52,196.67,37.14Z"/><path class="c" d="M184,34.4c-.51.31-1,.58-1.52.92a2.88,2.88,0,0,1-2,.67c-.13-.73-.13-.73.71-.92,1.51-.76,3-1.53,4.54-2.28a3.76,3.76,0,0,1,.93-.2A6.43,6.43,0,0,1,184,34.4Z"/><path class="n" d="M205.62,41.09l.26-.72,4.42-.9c.45.6,1,.14,1.56.2-.29.15-.57.31-.87.44s-.74.29-1.1.44c-.13.05-.28.17-.39.15a4.83,4.83,0,0,0-3.12.56C206.06,41.4,205.81,41.44,205.62,41.09Z"/><path class="o" d="M211.87,39a15.27,15.27,0,0,1,4.47-1.76c-1,1.22-2.39,1.56-3.75,2Z"/><path class="p" d="M211.87,39l.72.25-.73.43c-.52-.06-1.11.4-1.56-.2Z"/><path class="q" d="M112.93,26.12l1.59-2.77.73-.9h0l1.8-3.49.94.75.86-1,.54.28.65.88.89,1.87.24,1.37,0,.44.21,1.4.19.7.45.25.74.36-1.16.75v0c-.49-.05-1-.21-1.41.21l-1.37.2a5.14,5.14,0,0,0-.87.8c-.53.82-1,.83-1.55,0,0-.06-.12-.08-.25-.16a1.22,1.22,0,0,1-1.63-.57c-.76.77-1.42.29-2.1-.05h0C112.64,27,112.79,26.56,112.93,26.12Zm7.33-3.93L120,21.06l-.31-.27-1.07.95a3.23,3.23,0,0,0-.64.58c-.64.95-.79,2.31-2.27,2.53-.13,0-.27.28-.32.45-.11.38-.17.77-.28,1.27a16,16,0,0,0,5.16-1.43l.18-1.77Z"/><path class="r" d="M118.87,27.44l1.37-.2,1.41-.21v0l1.14,0,1,.11.63-.73.21-.05,2.33,0-.7.43c-.45.06-1-.16-1.39.27,1,.52,1,.52,1.39-.27.31,1,1.25.39,1.88.67-.14.53-.5.57-.89.61l-7.15.76c-.71.08-1.42.18-2.14.28.36-.23.83-.34.62-1C118.53,28,118.77,27.67,118.87,27.44Z"/><path class="s" d="M127,26.35l-2.33,0A12.47,12.47,0,0,1,126,26.1c.73,0,1.45,0,2.18,0a2.77,2.77,0,0,0,.64-.27,7.8,7.8,0,0,1-1.92-.44,4.91,4.91,0,0,0-1.94-.55,8.21,8.21,0,0,1-2.72-.56,1,1,0,0,1,1.46-.2c.44.26.85.35,1.34-.31l-1.29-.16,0-.2,1.87-.27a9.32,9.32,0,0,1,4.2.19,7.72,7.72,0,0,0-1,.19c-.35.11-.59.33-.46.75l-.87-.76-1.12.85a2.73,2.73,0,0,0,2.47,1,17.87,17.87,0,0,1,2.74,0l1.13,0c.3,0,.63-.09.74.43A21.92,21.92,0,0,1,127,26.35Z"/><path class="t" d="M118.85,18.71l-.86,1-.94-.75-1.8,3.49c-.11-.35-.1-.82-.64-.8s-.66.23-.75.7c0,.23-.41.4-.66.62-.67-1.32-.65-1.46.25-2.31.27-.27.52-.57.8-.83s.41-.44.63-.45a7,7,0,0,0,4-2,1.28,1.28,0,0,1,1.61,0l-.26,0A1.27,1.27,0,0,0,118.85,18.71Z"/><path class="u" d="M123.69,23.38l0,.2,0,.47a1,1,0,0,0-1.46.2,8.21,8.21,0,0,0,2.72.56,4.91,4.91,0,0,1,1.94.55,7.8,7.8,0,0,0,1.92.44,2.77,2.77,0,0,1-.64.27c-.73,0-1.45,0-2.18,0a12.47,12.47,0,0,0-1.34.22l-.21.05a1.58,1.58,0,0,0-1.64.62l-1.14,0,1.16-.75-.74-.36a17.58,17.58,0,0,0,1.78-.17c.33-.06.44-.3.1-.54-.33-.05-.66-.12-1-.15L121.42,25l-.21-1.4.9-.23.46,0Z"/><path class="e" d="M118.87,27.44c-.1.23-.34.51-.29.69.21.63-.26.74-.62,1l-.42,0-1.41.18c-1.51.48-2.7.18-3.36-1.39a3.48,3.48,0,0,0-.3-.48c.68.34,1.34.82,2.1.05a1.22,1.22,0,0,0,1.63.57c.13.08.21.1.25.16.57.86,1,.85,1.55,0A5.14,5.14,0,0,1,118.87,27.44Z"/><path class="v" d="M122.11,23.32l-.9.23,0-.44c.12-.22.4-.51.34-.63-.44-.85.06-1.52.45-2.32l-1.45-.78V17.57c.63.42.3,1.11.42,1.61.67.65,1.42-.51,2.1.22A4.19,4.19,0,0,0,122.11,23.32Z"/><path class="s" d="M120.51,17.57v1.81l1.45.78c-.39.8-.89,1.47-.45,2.32.06.12-.22.41-.34.63l-.24-1.37c.1-.54.19-1.08.32-1.76L120,19.87l-.65-.88c.46-.43,1-.8.81-1.58l.26,0A1.05,1.05,0,0,1,120.51,17.57Z"/><path class="w" d="M109.23,26.57a2.71,2.71,0,0,1,2.51-.13,2,2,0,0,1-2.09.72c-.19-.08-.28-.39-.42-.59Z"/><path class="l" d="M128.32,24.24c-.13-.42.11-.64.46-.75a7.72,7.72,0,0,1,1-.19c.4.39.25.72-.2.85A5.62,5.62,0,0,1,128.32,24.24Z"/><path class="v" d="M123.69,23.38l-1.12,0,3-.24Z"/><path class="w" d="M112.93,26.12c-.14.44-.29.88-.43,1.32C112.16,26.74,112.16,26.71,112.93,26.12Z"/><path class="r" d="M116.13,29.3l1.41-.18Z"/><path class="t" d="M115.25,22.45l-.73.9Z"/><path class="x" d="M18.77,11.37c-.08-.76.44-1.17.93-1.6a2.63,2.63,0,0,1,2.4.75l-.79.4-.3.44-1.05,1-.45.9c-.67.49-1.55.72-1.88,1.61s-.49,1.5-.66,2.26a1.2,1.2,0,0,0,.65,1.23.85.85,0,0,0,1.14-.08l1.33-.72A3.19,3.19,0,0,0,22.44,16c0-.92,0-1.84,0-2.76l.47-.89.92.62v.52c.18.84.37,1.68.55,2.53.09.45.17.91.28,1.52l-1.06-.2a4.48,4.48,0,0,0-2,.93,2.07,2.07,0,0,0,.51.23c1.06.11,2.13.19,3.19.29a1,1,0,0,0,1-.52c.45.33,1.06.25,1.46.47,1.25.69,2.62.29,3.89.64.4.11.88-.11,1.32-.08.63,0,.83-.11.85-.71s0-1.29.08-1.93c.57-.6.57-.6,1.38,0,0,.45,0,.89.08,1.33a6.38,6.38,0,0,0,.15.76h0c.29.58.78.45,1.28.39a4.64,4.64,0,0,1,.83,0c.07.71-.66.6-.87,1l-.51,1.15-1-.46-.68.44-.43-.46-1.08-.08L30.73,20a2.68,2.68,0,0,0-.55-.11l-5.41-.5a4.48,4.48,0,0,1-1.22,0,2.77,2.77,0,0,0-2.81.69c-.12.1-.25.18-.37.27-.53,0-1.07.46-1.57-.07l-.7-.4a2.9,2.9,0,0,0-1,0,4.05,4.05,0,0,1-2.29-.13,10.15,10.15,0,0,1-1.22-.25,4.72,4.72,0,0,1-.86-.45c.31-.95.36-1,1.2-1,.22,0,.43-.1.65-.14l-.17-1.23-.74.32c-.36.29-.76.55-1.09.87a8.79,8.79,0,0,0-.76.95l-.48.06c0-.16-.17-.37-.12-.48A4.05,4.05,0,0,1,13.34,16a1.59,1.59,0,0,0,.37-.27,1.75,1.75,0,0,0,.33-.06c1.32-.53,2-1.7,2.89-2.7h0c.36-.2.74-.38,1.08-.61S18.86,12,18.77,11.37Zm-3.23,6.48c.78-.65.8-.84.23-1.7A1.32,1.32,0,0,0,15.54,17.85Z"/><path class="y" d="M23.84,13.46v-.52l.43-.66h0c0-.23,0-.47.07-.69a2.26,2.26,0,0,1,.17-.43,2.57,2.57,0,0,0,1.18.82,2.54,2.54,0,0,1,1.09.95,2.56,2.56,0,0,0,1.36,1c.86.3,1.68.69,2.66,1.09l.67-.4-.32,1,.71.66.47.67c-.11.1-.22.28-.31.27a10.3,10.3,0,0,1-1.1-.25,6.56,6.56,0,0,0-3.8-1.86c-1.18-.15-2.33-.34-3-1.53C24.12,13.47,24,13.48,23.84,13.46Z"/><path class="z" d="M32.33,16.91l-.47-.67a3.46,3.46,0,0,0,2.07.39c0,.64-.06,1.28-.08,1.93s-.22.74-.85.71c-.44,0-.92.19-1.32.08-1.27-.35-2.64,0-3.89-.64-.4-.22-1-.14-1.46-.47V18c.3-.28.59-.57.89-.84s.74-.31,1,.19c-.29.2-.68.32-.65.84.68,0,.59-.47.64-.85l2-.21c.45,1-1,.74-1,1.61h2.29a3.52,3.52,0,0,0,.79-.07c.65-.14.7-.27.48-1l.57-.4,0-.22Z"/><path class="s" d="M21.57,23.28c-1.15-.64-2.22-.08-3.28.26s-2.14.77-3.21,1.16l.15-.77c0-.2,0-.4.08-.6.64.6.74.6,1.57-.12l-.68-.15,1.18-.88a.8.8,0,0,0,.93.5c1.12-.17,2.23-.39,3.34-.62.08,0,.11-.25.16-.38.57.32,1,0,1.55-.21l.44.46-2.49.63Z"/><path class="aa" d="M15.31,23.33c0,.2-.05.4-.08.6l-.15.77c-.45,0-.84-.06-.93-.57a.88.88,0,0,1,.61-1l.78-.64L18,21a.75.75,0,0,0,.79-.76c.5.53,1,.07,1.57.07v.22c-.51.25-1,.49-1.52.76s-1,.59-1.47.88l-1.18.88Z"/><path class="ab" d="M14.84,19.68a4.05,4.05,0,0,0,2.29.13,2.9,2.9,0,0,1,1,0c-.43.13-.88.26-1.31.41s-1,.36-1.48.55l-.42.25-1.65.66c-.57.27-1.13.57-1.73.8-.18.07-.44-.07-.67-.11.09-.21.13-.53.29-.62A16.25,16.25,0,0,1,12.77,21l1.87-.71C15,20.19,15,20,14.84,19.68Z"/><path class="j" d="M38.82,20.37a1.35,1.35,0,0,0,1.41.44c.21,0,.42,0,.64,0l-.25.22a7.22,7.22,0,0,1-1.24.48c-.81.19-1.63.3-2.45.44-.3,0-.54,0-.43-.42l2.22-1.23Z"/><path class="ac" d="M14,15.06a5.12,5.12,0,0,1,4.62-3.65,11.76,11.76,0,0,0-1,.75,9.41,9.41,0,0,0-.68.83h0c-.88-.33-1.32.33-1.83.82S14.33,14.65,14,15.06Z"/><path class="ad" d="M14.84,19.68c.11.27.14.51-.2.64L12.77,21c.28-1,.27-1-.45-1.47-.33-.24-.63-.53-1-.79l.48-.06.91.27a4.72,4.72,0,0,0,.86.45A10.15,10.15,0,0,0,14.84,19.68Z"/><path class="ae" d="M14,15.06c.38-.41.75-.85,1.15-1.25s1-1.15,1.83-.82c-.86,1-1.57,2.17-2.89,2.7a1.75,1.75,0,0,1-.33.06Z"/><path class="af" d="M21.57,23.28l-.26-.72,2.49-.63a1.3,1.3,0,0,1,1.24.31l-.75.41a2.75,2.75,0,0,0-1.83.7Z"/><path class="w" d="M40.62,21l.25-.22.89,0c.22.74.91.81,1.59,1a12.52,12.52,0,0,1-4.79.58c.92-.34,2-.25,2.8-1.21Z"/><path class="ag" d="M21.31,10.92l.79-.4a2.63,2.63,0,0,0-2.4-.75c.88-.73.87-.71,1.82-.18.68.38,1.4.71,2.11,1.06Z"/><path class="j" d="M37.65,19.18a4.64,4.64,0,0,0-.83,0c-.5.06-1,.19-1.28-.39.82,0,1.64,0,2.45.09,1.32.1,1.38.23.83,1.52l-.1-.09v-.85C38.06,20,37.94,19.42,37.65,19.18Z"/><path class="ah" d="M21.31,10.92l2.32-.27.88.5a2.26,2.26,0,0,0-.17.43c0,.22-.05.46-.07.69-.52-1.07-.75-1.21-1.8-1-.47.09-.94.22-1.41.33l0-.23Z"/><path class="j" d="M35.54,18.76a6.38,6.38,0,0,1-.15-.76c0-.44,0-.88-.08-1.33a3,3,0,0,1,.42.16c.81.4.85.63.28,1.31C35.84,18.34,35.7,18.55,35.54,18.76Z"/><path class="ad" d="M13.24,21.72l1.65-.66c-.39.75.13,1.07.65,1.39l-.78.64C14.59,21.82,14.4,21.65,13.24,21.72Z"/><path class="e" d="M22.46,23.35a2.75,2.75,0,0,1,1.83-.7l1.12,0,.06.09Z"/><path class="ae" d="M16.93,13a9.41,9.41,0,0,1,.68-.83,11.76,11.76,0,0,1,1-.75.65.65,0,0,1,.2,0c.09.59-.4.77-.76,1S17.29,12.79,16.93,13Z"/><path class="j" d="M40,19.37c-.06-.14-.15-.26-.12-.31s.17-.11.26-.13.12.14.1.17S40.15,19.25,40,19.37Z"/><path class="ai" d="M190.69,37.83c-.76.31-1.5.67-2.27.91s-1.1.45-1.19,1.16a.65.65,0,0,1-.2,0c-.11-.37-.33-.64-.73-.56-.91.17-1.82.4-2.73.61h0l-.25-.47,1.15-.46c1.55-.13,1.68-.18,2.06-.86l-1.15-.09,2.77-.67c-.11.45.21.54.52.51a10.3,10.3,0,0,0,1.31-.3Z"/><path class="aj" d="M174.54,34.89l1,.87c-.16.36-.33.71-.55,1.21a11.1,11.1,0,0,0,2.84-1l1.37-.21a6.77,6.77,0,0,1-.62.68,5.09,5.09,0,0,1-.74.46c-.77.77-1.86.82-2.79,1.23-.05,0-.14,0-.21-.07l.56-.45-.75-.32c0-.47,0-.89-.05-1.31Z"/><path class="ak" d="M174.81,38.08c.07,0,.16.09.21.07.93-.41,2-.46,2.79-1.23.31.41.41.79-.1,1.16a1.64,1.64,0,0,0-.62,1.4h-.23l0,0a1.23,1.23,0,0,0-1.38-.57c-.59.13-.83-.08-.94-.61Z"/><path class="al" d="M184.24,37.6l-1.46.65.07.25,1.64-.18a1.11,1.11,0,0,0,0,.19L182,39l-1.18.19.78-.94L181,38c.7-.2,1.24-.94,2.1-.66Z"/><path class="al" d="M183.76,36.88a19,19,0,0,1,2-.59,8,8,0,0,1,1.55,0c.16.53,0,.74-.43.81l-1.9.28c-.13-.14-.23-.35-.39-.41A3.33,3.33,0,0,0,183.76,36.88Z"/><path class="am" d="M181,38l.59.26-.78.94L182,39c-.22.13-.43.36-.66.38-.86.07-1.72.08-2.58.11a.53.53,0,0,1,0-.12l.93-.43a1.4,1.4,0,0,0,1.14-.71Z"/><path class="an" d="M176.86,39.47h.23l1.62-.07a.53.53,0,0,0,0,.12l-1,1.55-.9-.51Z"/><path class="ao" d="M184.47,38.51a1.11,1.11,0,0,1,0-.19l.9-.27,1.15.09c-.38.68-.51.73-2.06.86Z"/><path class="ap" d="M190,37.59a10.3,10.3,0,0,1-1.31.3c-.31,0-.63-.06-.52-.51.42-.12.84-.25,1.27-.35S190,37.19,190,37.59Z"/><path class="aq" d="M183.76,36.88a3.33,3.33,0,0,1,.78.07c.16.06.26.27.39.41l-.69.24-1.15-.23Z"/><path class="ak" d="M179.17,35.78,177.8,36C178.21,35.6,178.62,35.23,179.17,35.78Z"/><path class="al" d="M180.78,38.27a1.4,1.4,0,0,1-1.14.71C179.76,38.33,180.28,38.32,180.78,38.27Z"/><path class="ar" d="M34.17,20.83l.43.46.68-.44,1,.46,0,.16c-.37.05-.75.07-1.11.15a25.55,25.55,0,0,0-2.61.66c-.61.22-1.38.15-1.8.8h-.21l0-.06c-.07-.26-.14-.53-.2-.79l1.3-.53,2-.46Z"/><path class="as" d="M30.72,23.08c.42-.65,1.19-.58,1.8-.8a25.55,25.55,0,0,1,2.61-.66c.36-.08.74-.1,1.11-.15l.26,0c-.11.39.13.44.43.42l.75.52-1.17.22c-.25-.57-.68-.5-1.15-.33s-1.08.37-1.61.55c-.22-.43-.58-.42-1-.32Z"/><path class="at" d="M37.68,22.45l-.75-.52c.82-.14,1.64-.25,2.45-.44A7.22,7.22,0,0,0,40.62,21l.74.17c-.77,1-1.88.87-2.8,1.21Z"/><path class="au" d="M33.75,22.89c.53-.18,1.08-.35,1.61-.55s.9-.24,1.15.33l-1.38.47-1.38.18Z"/><path class="as" d="M33.75,23.32l1.38-.18C34.7,23.39,34.29,23.87,33.75,23.32Z"/><path class="z" d="M191.83,43.1c-.73.18-1.47.35-2.19.55-.44.12-.86.35-1.28,0a4.33,4.33,0,0,0,2.32-1.15l-.67-.41a.13.13,0,0,1,0-.12l4.15-1.35.25.06c-.09.43.26.37.49.44l-1.54.59c-.25.1-.51.19-.37.55Z"/><path class="av" d="M194.39,40.65l-.25-.06a.91.91,0,0,0,0-.24h-2.13l-.58-.84.39-.93,1.12.61c.09.14.19.41.29.41,1,0,2-.07,3-.11l0,.2Z"/><path class="aw" d="M196.23,39.69l0-.2a3.07,3.07,0,0,0,2.11-1.1l-.46-.39c.06,0,.1-.12.16-.13a8.78,8.78,0,0,1,1.13-.1A3.21,3.21,0,0,1,200,38c-.13.25-.2.58-.4.74a13.35,13.35,0,0,1-1.44.9c-.33.18-.68.33-1,.49C197,39.69,196.6,39.69,196.23,39.69Z"/><path class="ax" d="M191.83,43.1l1.14-.87a3.38,3.38,0,0,1,2.59.26,1.21,1.21,0,0,1-1.4.33,1.56,1.56,0,0,0-1.39.3Z"/><path class="ar" d="M196.23,39.69c.37,0,.74,0,.9.43l-2.25,1c-.23-.07-.58,0-.49-.44Z"/><path class="av" d="M193,39.21c-.12-.65,0-1.16.72-1.36q.18.43.39.9Z"/><path class="av" d="M193.69,37.85a1.53,1.53,0,0,1,1.61-.22C194.84,38.23,194.25,38,193.69,37.85Z"/><path class="i" d="M182.87,44.05c.1-.39,0-.58-.45-.56-.84,0-1.67.07-2.51.13-2.92.22-5.83.42-8.75.67-1,.09-2,.29-3,.44l-3.17.08-.06-.09,1.18-.63c-.83-.72-1.73-.08-2.5-.25-.2-.49.08-.62.4-.66s.75,0,1.13-.06c.7.47,1.4.08,2.1,0h0c.6.32,1.1,0,1.63-.22h0a4.77,4.77,0,0,0,1.19.28c2.58-.08,5.16-.21,7.74-.32h5.89c-.36.81.1.89.59.95Z"/><path class="c" d="M184.25,43.83c-.49-.06-.95-.14-.59-.95h-5.89a12.2,12.2,0,0,1,1.33-.2c1.36-.06,2.72,0,4.09-.12a1.75,1.75,0,0,0,1.53-.57h.44c.07.45.22.8.82.69.16-.67,0-1.48.79-1.86l1.15-.24.71,0c-.58.2-1.17.37-1.72.62-.2.09-.31.37-.47.56.21.13.41.35.63.37.68.07,1.37,0,2.06.07-1.08.51-1.08.51-.94,1.33-.87-.43-1.74,0-2.62,0a3.43,3.43,0,0,0-.57.12l-.34-.59Z"/><path class="ay" d="M188.19,43.57c-.14-.82-.14-.82.94-1.33l.88-.18.67.41a4.33,4.33,0,0,1-2.32,1.15Z"/><path class="az" d="M166.07,28.63l1.61.22-.72.74a4.38,4.38,0,0,0-2.44-.79c-.72.05-.87.18-.84.88a5,5,0,0,0,.07.56l-.87-1.15c-.19,1,.43,1.47.66,2.09l-.27,1.62-.2,0L162.14,30,162,28.6a2.28,2.28,0,0,1,.68-.2,9.72,9.72,0,0,1,1.32.17,3.25,3.25,0,0,1,2.11.06Z"/><path class="ba" d="M163.07,32.77l.2,0,.27.2a5,5,0,0,1,.29.73c.46,1.82.9,3.65,1.35,5.47l0,1.11-.12.09c-.32-.42,0-1.23-.89-1.34.55-.94,0-1.8-.16-2.66C163.79,35.18,163.4,34,163.07,32.77Z"/><path class="j" d="M166.07,28.63a3.25,3.25,0,0,0-2.11-.06C165,27.77,165.26,27.78,166.07,28.63Z"/><path class="j" d="M162,28.6l.18,1.41Z"/><path class="an" d="M165.22,40.31l0-1.11a4.64,4.64,0,0,1,.7,2.33c0,.24.23.55.42.77s.61.56.91.84c-.7.06-1.4.45-2.1,0l0-.45c.14-.06.39-.11.39-.18C165.58,41.75,165.91,41,165.22,40.31Z"/><path class="bb" d="M165,44.81l3.17-.08c.27.09.77-.17.68.45-.87.08-1.73.18-2.59.23a6.31,6.31,0,0,1-1.95-.18Z"/><path class="i" d="M176.65,44.74l-2.3.22Z"/><path class="i" d="M178.72,44.51l-2.07.23Z"/><path class="bc" d="M174.54,34.89l0,1.11c-.28-.49-.57-1-.81-1.46a7.57,7.57,0,0,1-.34-1l.45.25C174.09,34.12,174.31,34.51,174.54,34.89Z"/><path class="bd" d="M23.36,21.47c-.51.17-1,.53-1.55.21a4,4,0,0,1,.54-.61,3.34,3.34,0,0,1,.69-.32,6.86,6.86,0,0,1,.93-.4,1,1,0,0,0,.8-1l5.41.5a2.68,2.68,0,0,1,.55.11l2.36.74-.09.09-.68.19H31.9a2.84,2.84,0,0,0-1-.28c-1.2.2-2.39.5-3.58.76l-.68-.34L28,20.51l0-.22L26.29,20A1.29,1.29,0,0,1,25,21,9.32,9.32,0,0,0,23.36,21.47Z"/><path class="be" d="M23.36,21.47A9.32,9.32,0,0,1,25,21a1.29,1.29,0,0,0,1.33-1l1.66.27,0,.22-1.38.65.68.34-1.87,1.1-1.12,0,.75-.41a1.3,1.3,0,0,0-1.24-.31Z"/><path class="as" d="M31.9,21h.42a.68.68,0,0,0,.93,0l.43.21-2,.46Z"/><path class="as" d="M30.35,22.24c.06.26.13.53.2.79-.44,0-.91.13-1.15-.49Z"/><path class="bf" d="M167,29.59l.72-.74a1.93,1.93,0,0,0,0-.24c.27.14.55.28.81.43.51.29,1,.6.9,1.32,0,.18.22.38.35.57l-.51,0Z"/><path class="bg" d="M167,29.59,169.24,31c.87.54,1.73,1.08,2.61,1.61.52.32,1.05.62,1.57.93a7.57,7.57,0,0,0,.34,1c.24.5.53,1,.81,1.46,0,.42,0,.84.05,1.31l.75.32-.56.45-.25.19c-.62.38-1.55.44-1.57,1.65a7.87,7.87,0,0,1,3.89-.47l0,0c0,.37,0,.74,0,1.1l-1.12.49a5.26,5.26,0,0,1-1.42.89c-1.36.35-2.64,1.1-4.13.93a12.07,12.07,0,0,0-1.34,0h0l-1.63.22h0c-.3-.28-.63-.54-.91-.84s-.45-.53-.42-.77a4.64,4.64,0,0,0-.7-2.33c-.45-1.82-.89-3.65-1.35-5.47a5,5,0,0,0-.29-.73c.06-.63,0-1.3.53-1.79.08-.06,0-.34-.06-.51l-.26-.46a5,5,0,0,1-.07-.56c0-.7.12-.83.84-.88A4.38,4.38,0,0,1,167,29.59Zm.25,9.4,0,0c.11.54.23,1.08.38,1.81l.87-.95c1.77.19,2.31,0,4-1.39l.75-1.07c.89-.92.91-1.17.19-2.12l-.89-1.18-3-1.63-.5-.4c-1.33-1.3-2.91-2.12-3.89-1.9.22.72.45,1.43.67,2.14.16,1.45.32,2.9.49,4.34a2.63,2.63,0,0,0,.17.52Zm-1.8-1.32.38-.06a6.84,6.84,0,0,0-.24-1.29,10.5,10.5,0,0,1-.72-3.32,1.14,1.14,0,0,0-.6-1.13A14.45,14.45,0,0,0,165.41,37.67Z"/><path class="bh" d="M185.16,42h-.44l-.48,0c.27-.29.45-.57-.15-.66a5.09,5.09,0,0,0-.55,0l0-1.34h1.22l2.23,0a.65.65,0,0,0,.2,0,6.65,6.65,0,0,1,2.81-.57c-.56.87-1.44.89-2.12,1.25l-1.15.24c-.58,0-1.05.11-1.23.76C185.49,41.74,185.29,41.86,185.16,42Z"/><path class="bi" d="M190,42.06l-.88.18c-.69,0-1.38,0-2.06-.07-.22,0-.42-.24-.63-.37.16-.19.27-.47.47-.56.55-.25,1.14-.42,1.72-.62l.42,0,3.55.14L190,41.94A.13.13,0,0,0,190,42.06Z"/><path class="b" d="M190,41.94l2.61-1.22-3.55-.14,3-.23h2.13a.91.91,0,0,1,0,.24Z"/><path class="bj" d="M120.47,23.37l-.18,1.77a16,16,0,0,1-5.16,1.43c.11-.5.17-.89.28-1.27,0-.17.19-.43.32-.45,1.48-.22,1.63-1.58,2.27-2.53a3.23,3.23,0,0,1,.64-.58c.75.87.75.89.25,1.86-.14.27-.24.56-.36.85a5.81,5.81,0,0,0,1.37-.9A2,2,0,0,1,120.47,23.37Zm-3,2.42c-.87-.76-1.21-.67-1.65.33Z"/><path class="bk" d="M120.47,23.37a2,2,0,0,0-.57.18,5.81,5.81,0,0,1-1.37.9c.12-.29.22-.58.36-.85.5-1,.5-1-.25-1.86l1.07-.95.31.27c-.14.16-.42.37-.39.48.09.29,0,.82.63.65Z"/><path class="bl" d="M120.2,17.41c.22.78-.35,1.15-.81,1.58l-.54-.28A1.27,1.27,0,0,1,120.2,17.41Z"/><path class="bm" d="M121.42,25,123,25c.32,0,.65.1,1,.15a6,6,0,0,1-1.1.43,6.29,6.29,0,0,1-1.23,0Z"/><path class="bn" d="M120,19.87l1.21.11c-.13.68-.22,1.22-.32,1.76C120.63,21.12,120.34,20.5,120,19.87Z"/><path class="s" d="M121.61,25.65a6.29,6.29,0,0,0,1.23,0,6,6,0,0,0,1.1-.43c.34.24.23.48-.1.54a17.58,17.58,0,0,1-1.78.17Z"/><path class="bj" d="M120.26,22.19c-.59.17-.54-.36-.63-.65,0-.11.25-.32.39-.48Z"/><path class="s" d="M121.65,27l-1.41.21C120.66,26.82,121.16,27,121.65,27Z"/><path class="s" d="M126.26,26.78c-.38.79-.38.79-1.39.27.42-.43.94-.21,1.39-.27Z"/><path class="s" d="M122.78,27a1.58,1.58,0,0,1,1.64-.62l-.63.73Z"/><path class="bo" d="M123.67,24.05l0-.47,1.29.16C124.52,24.4,124.11,24.31,123.67,24.05Z"/><path class="bp" d="M32.76,17.62c.22.77.17.9-.48,1a3.52,3.52,0,0,1-.79.07H29.2c-.05-.87,1.42-.62,1-1.61l-2,.21h0c-.24-.5-.58-.55-1-.19s-.59.56-.89.84c-.26-.5-.69-.32-1.1-.26-.59.08-1.21.21-1.63-.43l1.06.2c-.11-.61-.19-1.07-.28-1.52-.18-.85-.37-1.69-.55-2.53.11,0,.28,0,.32.08.63,1.19,1.78,1.38,3,1.53a6.56,6.56,0,0,1,3.8,1.86A2.59,2.59,0,0,0,32.76,17.62Z"/><path class="ax" d="M21.06,11.59c.47-.11.94-.24,1.41-.33,1.05-.2,1.28-.06,1.8,1h0c-.44.15-.91-.47-1.35,0l-.47.89c-.64.1-.71.54-.66,1.08s.14,1.14-.5,1.47c-.16-.3-.49-.61-.46-.89C20.92,13.78,20.55,12.65,21.06,11.59Z"/><path class="bq" d="M23.61,17.31c.42.64,1,.51,1.63.43.41-.06.84-.24,1.1.26v.24a1,1,0,0,1-1,.52c-1.06-.1-2.13-.18-3.19-.29a2.07,2.07,0,0,1-.51-.23A4.48,4.48,0,0,1,23.61,17.31Z"/><path class="br" d="M21.06,11.59c-.51,1.06-.14,2.19-.23,3.28,0,.28.3.59.46.89.24.87.75.23,1.15.21a3.19,3.19,0,0,1-2.35,1.58c.86-.59.88-.62.51-1.5l-.43-1c0-.61,0-1.23.1-1.85,0-.35.12-.66-.31-.82l1.05-1C21,11.43,21,11.51,21.06,11.59Z"/><path class="ap" d="M24.77,19.4a1,1,0,0,1-.8,1,6.86,6.86,0,0,0-.93.4c-.14-.11-.29-.31-.44-.31-.74,0-1.49.06-2.23.1v-.22c.12-.09.25-.17.37-.27a2.77,2.77,0,0,1,2.81-.69A4.48,4.48,0,0,0,24.77,19.4Z"/><path class="ba" d="M20.17,15l.43,1c.37.88.35.91-.51,1.5l-1.33.72-.44-.19c.07-.57.12-1,.18-1.47s.17-.75.25-1.12c0,1.17,1.09.82,1.72,1.19l-.56-1.6Z"/><path class="aj" d="M18.5,16.61c-.06.45-.11.9-.18,1.47l.44.19a.85.85,0,0,1-1.14.08A1.2,1.2,0,0,1,17,17.12c.17-.76.44-1.51.66-2.26.59.27.31.75.26,1.16s-.24.77.21,1.17Z"/><path class="bs" d="M18.5,16.61l-.4.58c-.45-.4-.25-.79-.21-1.17s.33-.89-.26-1.16c.33-.89,1.21-1.12,1.88-1.61a2.89,2.89,0,0,0-.73,1.82l0,.42C18.67,15.86,18.58,16.24,18.5,16.61Z"/><path class="bt" d="M18.78,15.07a2.89,2.89,0,0,1,.73-1.82l.45-.9c.43.16.35.47.31.82-.07.62-.07,1.24-.1,1.85l-.26.06Z"/><path class="bu" d="M36.5,21.51l-.26,0,0-.16.51-1.15c.21-.38.94-.27.87-1,.29.24.41.85,1.07.25v.85Z"/><path class="bl" d="M22.44,16c-.4,0-.91.66-1.15-.21.64-.33.56-.91.5-1.47s0-1,.66-1.08C22.45,14.13,22.44,15.05,22.44,16Z"/><path class="bv" d="M12.76,19l-.91-.27a8.79,8.79,0,0,1,.76-.95c.33-.32.73-.58,1.09-.87l-.22.61,1.13.3c-.22,0-.43.12-.65.14C13.12,18,13.07,18,12.76,19Z"/><path class="ad" d="M15.31,20.81c.5-.19,1-.38,1.48-.55s.88-.28,1.31-.41l.7.4A.75.75,0,0,1,18,21l.44-.64Z"/><path class="bw" d="M15.54,17.85a1.32,1.32,0,0,1,.23-1.7C16.34,17,16.32,17.2,15.54,17.85Z"/><path class="bx" d="M14.61,17.8l-1.13-.3.22-.61.74-.32Z"/><path class="ah" d="M22.92,12.32c.44-.51.91.11,1.35,0l-.43.66Z"/><path class="bd" d="M33.68,21.25,33.25,21l-.25-.2.09-.09,1.08.08Z"/><path class="by" d="M32.76,17.62a2.59,2.59,0,0,1-1.84-.69,10.3,10.3,0,0,0,1.1.25c.09,0,.2-.17.31-.27l1,.09,0,.22Z"/><path class="w" d="M28.2,17.34c-.05.38,0,.86-.64.85,0-.52.36-.64.65-.84Z"/><path class="bz" d="M20.37,20.54c.74,0,1.49-.09,2.23-.1.15,0,.3.2.44.31a3.34,3.34,0,0,0-.69.32,4,4,0,0,0-.54.61c0,.13-.08.37-.16.38-1.11.23-2.22.45-3.34.62a.8.8,0,0,1-.93-.5c.49-.29,1-.6,1.47-.88S19.86,20.79,20.37,20.54Z"/><path class="ca" d="M15.31,23.33l.89-.27.68.15C16.05,23.93,16,23.93,15.31,23.33Z"/><path class="cb" d="M15.31,20.81l3.14-.44L18,21l-2.47,1.44c-.52-.32-1-.64-.65-1.39Z"/><path class="ab" d="M184.47,38.51V39l-1.15.46-2.16.62c-.54.7-.91,1.19-1.29,1.67l-2.1-.23,0-.44,1-1.55c.86,0,1.72,0,2.58-.11.23,0,.44-.25.66-.38Z"/><path class="ae" d="M179.88,41.75c.38-.48.75-1,1.29-1.67l2.16-.62.25.47c0,.45,0,.89,0,1.34l-.42,0c-.58.15-1.16.29-1.73.48A1.61,1.61,0,0,1,179.88,41.75Z"/><path class="m" d="M187,39.88l-2.23,0h-1.23c.91-.21,1.82-.44,2.73-.61C186.7,39.24,186.92,39.51,187,39.88Z"/><path class="at" d="M176.88,39.45a7.87,7.87,0,0,0-3.89.47c0-1.21.95-1.27,1.57-1.65.11.53.35.74.94.61A1.23,1.23,0,0,1,176.88,39.45Z"/><path class="cc" d="M177.75,41.08l0,.44c-.55.16-1.18.11-1.66.56-.08.09-.43,0-.59-.13s-.05-.33,0-.5a1.69,1.69,0,0,1,.22-.39l1.12-.49Z"/><path class="an" d="M175.73,41.06a1.69,1.69,0,0,0-.22.39c0,.17-.06.44,0,.5s.51.22.59.13c.48-.45,1.11-.4,1.66-.56l2.1.23a1.61,1.61,0,0,0,1.51,0c.57-.19,1.15-.33,1.73-.48l-.33.73,1.45-.08.48,0a1.75,1.75,0,0,1-1.53.57c-1.37.07-2.73.06-4.09.12a12.2,12.2,0,0,0-1.33.2c-2.58.11-5.16.24-7.74.32a4.77,4.77,0,0,1-1.19-.28,12.07,12.07,0,0,1,1.34,0c1.49.17,2.77-.58,4.13-.93A5.26,5.26,0,0,0,175.73,41.06Z"/><path class="an" d="M167.21,43.14l1.63-.22C168.31,43.12,167.81,43.46,167.21,43.14Z"/><path class="at" d="M185.16,42c.13-.13.33-.25.38-.41.18-.65.65-.78,1.23-.76-.78.38-.63,1.19-.79,1.86C185.38,42.79,185.23,42.44,185.16,42Z"/><path class="ba" d="M163.75,30.24l.26.46-.47.48c-.23-.62-.85-1.1-.66-2.09Z"/><path class="bn" d="M163.54,31.18l.47-.48c0,.17.14.45.06.51-.57.49-.47,1.16-.53,1.79l-.27-.2Z"/><path class="e" d="M33,20.84l.25.2a.68.68,0,0,1-.93,0Z"/><path class="cd" d="M173.23,37.42l-.75,1.07c-.45,0-.91,0-1.36,0a1.69,1.69,0,0,0-.85.24c-1,.79-2,.44-3.09.24l0,0c0-.43,0-.86.06-1.37.94.16,1.67.68,2.53.52-.13-.77-.13-.77-.67-.72-.92.07-1,0-1.41-.86a2.12,2.12,0,0,0-.27-.34,2.94,2.94,0,0,1,1.82-1.28c.84-.22.91-.42.66-1.25-.11-.4-.26-.8-.39-1.2l3,1.63a3,3,0,0,1-.23.52c-.44.78-.43.77.17,1.51a6.21,6.21,0,0,1,.47.78l-2.85-1.59c-1.14.34-1.47.59-1.65,1.28a10.15,10.15,0,0,0,2,.22,2,2,0,0,1,1.76.46c.32.3.73.23.79-.35Z"/><path class="z" d="M167.18,39c1,.2,2.1.55,3.09-.24a1.69,1.69,0,0,1,.85-.24c.45,0,.91,0,1.36,0-1.74,1.39-2.28,1.58-4,1.39l-.87.95C167.41,40.1,167.29,39.56,167.18,39Z"/><path class="c" d="M169,32.09l-1.7-.61c0,.36,0,.57.08.78s.06.35.09.55c-.69-.1-.69-.1-1.8-2.43,0,.8.08,1.38.11,1.95-.22-.71-.45-1.42-.67-2.14C166.13,30,167.71,30.79,169,32.09Z"/><path class="bn" d="M165.41,37.67a14.45,14.45,0,0,1-1.18-5.8,1.14,1.14,0,0,1,.6,1.13,10.5,10.5,0,0,0,.72,3.32,6.84,6.84,0,0,1,.24,1.29Z"/><path class="ce" d="M172.94,36.94a5.67,5.67,0,0,0-.47-.79c-.6-.74-.61-.73-.17-1.51a3,3,0,0,0,.23-.52l.89,1.18c.72,1,.7,1.2-.19,2.12L173,37Z"/><path class="s" d="M166.48,37.19l1-1a2.12,2.12,0,0,1,.27.34c.36.85.49.93,1.41.86.54-.05.54-.05.67.72-.86.16-1.59-.36-2.53-.52,0,.51,0,.94-.06,1.37Z"/><path class="cf" d="M184.24,42l-1.45.08.33-.73.42,0a5.09,5.09,0,0,1,.55,0C184.69,41.4,184.51,41.68,184.24,42Z"/><path class="j" d="M117.51,25.79l-1.65.33C116.3,25.12,116.64,25,117.51,25.79Z"/></svg>