<svg xmlns="http://www.w3.org/2000/svg" viewBox="0 0 197 60.85"><defs><style>.a{fill:#e4dcd8;}.b{fill:#edeef1;}.c{fill:#4f4848;}.d{fill:#b0b7bc;}.e{fill:#6e666a;}.f{fill:#5a514f;}.g{fill:#726d6e;}.h{fill:#4b4241;}.i{fill:#cbc4bf;}.j{fill:#ececf0;}.k{fill:#ccd0d4;}.l{fill:#d2cec9;}.m{fill:#f0f0f3;}.n{fill:#b7bcc1;}.o{fill:#c3c8cc;}.p{fill:#c0bab3;}.q{fill:#d6cccc;}.r{fill:#d6d9de;}.s{fill:#dddfe3;}.t{fill:#e1e1e6;}.u{fill:#d9cfcd;}.v{fill:#95898d;}.w{fill:#ccc8c2;}.x{fill:#5a5455;}.y{fill:#5e5b5a;}.z{fill:#d8dbdf;}.aa{fill:#524a49;}.ab{fill:#c3beb6;}.ac{fill:#9b9394;}.ad{fill:#9b9597;}.ae{fill:#d3d5d3;}.af{fill:#bcafb1;}.ag{fill:#dcdde2;}.ah{fill:#595050;}.ai{fill:#abb2b6;}.aj{fill:#8a8f91;}.ak{fill:#57504f;}.al{fill:#737474;}.am{fill:#b9b1b0;}.an{fill:#b1b7ba;}.ao{fill:#afaba8;}.ap{fill:#837b7f;}</style></defs><title>44543</title><path class="a" d="M104.45,23.85c.25.55.49,1.1.74,1.66-1.15.78-2.25,2.1-3.47,2.23a71.73,71.73,0,0,1-8.55,0L83.4,22.8c-.17,1.93-.26,3.06-.36,4.19H70.35a23.82,23.82,0,0,1-4.07-.47,16,16,0,0,1-3.18-1.65c2.92-2.38,5.81-4.78,6-9l4.16-3c.22,0,.45-.05.67-.06l1.93,1.07L76,12.42l5.12-.56c.88,1,1.55,2.46,2.66,3.05,2.94,1.55,6.06,2.75,9.11,4.09,2.76,3,5.52,6.06,10.29,4.86Z"/><path class="b" d="M25.18,44.83,13.71,45.9l-.14-1.2,3.9-.65L13.2,41.8c2.69.12,4.42.29,6.14.24a14.79,14.79,0,0,0,2.87-.69c-.58-.85-1-2.2-1.76-2.46-3.35-1.12-6.8-1.91-10.91-3,3.52,0,6.45.11,9.36,0,2.71-.13,5.41-.78,8.1-.76,1.77,0,4.17-3.68,5.38.68l5.54-3,4.17,1.67-.93,2.43L33.33,40,28,42Z"/><path class="c" d="M73.27,12.82l-4.16,3c-3.93-2.1-7.82-1.48-10.67,1.5-3.31,3.46-5.88,7.63-8.76,11.5l-5.49,2c1.69-2,3.39-4,5.05-6,2.57-3.13,4.74-6.7,7.74-9.33C61.66,11.45,67.39,11.07,73.27,12.82Z"/><path class="d" d="M25.18,44.83,28,42c3.84,3.3,7.94,2.75,12.14.82l8-.11,1,.34,1,2.76-16,1.06c-2-2.64-4.46-2.15-7-.93Z"/><path class="e" d="M41.16,36.88l.93-2.43,1.14-.66,3-1.84c0,.63-.07,1.26-.1,1.89l.46.72.49-.71,3.05-2.94,2.95.86-.86,1.15-4.07,5.87,0,.2c-2.6,1-4.6.31-5.95-2.16H41.06Z"/><path class="f" d="M92.85,19c-3-1.34-6.17-2.54-9.11-4.09-1.11-.59-1.78-2-2.66-3.05,6-1.51,9,4.45,14,5.69Z"/><path class="g" d="M92.85,19,95,17.55a10.66,10.66,0,0,1,1.09-.86c2.37,2.35,4.69,4.76,7,7.17C98.37,25.06,95.61,22,92.85,19Z"/><path class="h" d="M46.19,32l-3,1.84,1-2.94,5.49-2c.14.31.27.62.41.94Z"/><path class="i" d="M76,12.42l-.09,1.41-1.93-1.07Z"/><path class="j" d="M152.12,52.88l-18.88-1.47-.16,1.08,6-4.6a7.45,7.45,0,0,1,.95-.09c3.2,2,6.07.88,9.26-.41s6.9-1.67,10.58-2.5l5.41-4.09-27.18-1.95c-.07-.15-.2-.3-.2-.45s.14-.36.23-.37c2-.16,3.9-.29,5.85-.44a126,126,0,0,0-16-1.69c-2.64-.14-5.29,0-7.93,0l-1-1-1.13-2,6.81-1.43,5.39,2.35c5.81.33,11.63.89,17.44.93,4.5,0,9-.6,13.5-.93h24.08l-.07,1.36-6.4,2.54,11.1,4.78-19.68,7.3c-1.37-.18-2.83-.76-4.1-.48C161.34,50.39,156.75,51.69,152.12,52.88Z"/><path class="k" d="M140,47.8a7.45,7.45,0,0,0-.95.09c-3,.48-6,.85-8.93,1.48-3.34.72-6.64,1.68-10,2.54l-2.07-6,12.92-2.88-.17-2-6.85.65L120,36.88c0-.32.07-.63.12-1,2.64,0,5.29-.17,7.93,0a126,126,0,0,1,16,1.69c-2,.15-3.9.28-5.85.44-.09,0-.23.24-.23.37s.13.3.2.45l4.58,4.51Z"/><path class="l" d="M108.15,27.83l3,2.52c-.2,2.08-.41,4.16-.6,6.16l3.57,1.4-15,3-6,1-12-1.08c2.9-2.49,8-.33,10-4.8h12.73c-.58-3.26-4.41,1.1-3.58-3.11Q104.19,30.33,108.15,27.83Z"/><path class="m" d="M95.13,50.08c-1.54.19-3.07.42-4.61.56-1.32.11-2.65.08-4,.18-6,.47-11.93,1-19.15,1.56l2.93-2L67,48.8,71,47l17.14.87Z"/><path class="n" d="M71,47,67,48.8h-.45l-.45.06-4-.94-6.91-.18-5.06-2c-.33-.92-.66-1.84-1-2.76A46.06,46.06,0,0,1,56,42.73c5,.51,9.94,1.34,14.91,2l1.11.21Z"/><path class="o" d="M118.14,46l2.07,5.95L111.77,55c.26-1.27.4-2,.62-3.08h-4.28l-4.06-1.17A13,13,0,0,1,107,48.94C110.67,47.84,114.42,46.93,118.14,46Z"/><path class="o" d="M95.13,50.08l-7-2.2c-.09-.13-.23-.25-.26-.39s0-.39.11-.41l8.07-2,8.06-.15,5,1.51.09.81L99.48,48l2.61,1.84L98,51.08Z"/><path class="m" d="M50.09,45.76l5.06,2c-.37.31-.77.9-1.12.87-6.65-.55-13.29-1.18-19.94-1.79Z"/><path class="p" d="M114.12,37.91l-3.57-1.4c.19-2,.4-4.08.6-6.16l6.78,2.6,1.13,2-4.28-.51c.85,1.33,1.37,2.16,2.08,3.28Z"/><path class="q" d="M108.15,27.83q-4,2.51-7.91,5l-2-1.73c.11-.74.21-1.47.31-2.2l-5.41-.49a3.83,3.83,0,0,1,.08-.68,71.73,71.73,0,0,0,8.55,0c1.22-.13,2.32-1.45,3.47-2.23Z"/><path class="r" d="M161.07,33.87c-4.5.33-9,1-13.5.93-5.81,0-11.63-.6-17.44-.93Z"/><path class="m" d="M62.06,47.92l4,.94L48.9,53.08,48.65,52Z"/><path class="s" d="M152.12,52.88c4.63-1.19,9.22-2.49,13.88-3.51,1.27-.28,2.73.3,4.1.48-5.67,1.52-11.34,3.06-17,4.5C152.89,54.39,152.44,53.39,152.12,52.88Z"/><path class="t" d="M98,51.08l4.1-1.21,2,.91L108.11,52l-8.6,2.85Z"/><path class="u" d="M93.17,27.75a3.83,3.83,0,0,0-.08.68l-3.57.85c-.07.47-.13.95-.19,1.42l4.73,1.23c.38.48.75,1,.68.88L91.09,36c-2,4.47-7.09,2.31-10,4.8l-3,1.1c-2.45-.66-4.92-1.27-7.36-2C67.6,39,64.45,38,61.29,37l1-1.06c.27,0,.53,0,.8-.06l5-.45c3.85-4.26,7.56-8.78,14.28-7.78.19,0,.45-.41.68-.64.1-1.13.19-2.26.36-4.19Z"/><path class="v" d="M50.09,29.81c-.14-.32-.27-.63-.41-.94,2.88-3.87,5.45-8,8.76-11.5,2.85-3,6.74-3.6,10.67-1.5-.2,4.21-3.09,6.61-6,9l-1,1L53,31.77l-2.95-.86Z"/><path class="w" d="M62.09,25.89l1-1a16,16,0,0,0,3.18,1.65,23.82,23.82,0,0,0,4.07.47,12.6,12.6,0,0,1-.15,3.32,55.06,55.06,0,0,1-2.12,5.11l-5,.45c-1.17-1.6-2.33-3.21-3.38-4.67Z"/><path class="x" d="M68.08,35.41A55.06,55.06,0,0,0,70.2,30.3,12.6,12.6,0,0,0,70.35,27H83c-.23.23-.49.67-.68.64C75.64,26.63,71.93,31.15,68.08,35.41Z"/><path class="y" d="M42.21,36.83C43.56,39.3,45.56,40,48.16,39l0,3.67-8,.11L33.33,40l7.83-3.08-.1-.05.36.81Z"/><path class="z" d="M33.33,40l6.84,2.81C36,44.7,31.87,45.25,28,42Z"/><path class="aa" d="M48.13,42.66l0-3.67,0-.2,8.1-.13c3.91,1,7.88,1.73,11.69,3,1.23.4,2,2.06,3,3.14-5-.7-9.92-1.53-14.91-2a46.06,46.06,0,0,0-6.93.27Z"/><path class="ab" d="M62.09,25.89l-2.35,5.3c1,1.46,2.21,3.07,3.38,4.67-.27,0-.53,0-.8.06-1.5-.33-3-.56-4.49-1-1.91-.58-3.77-1.33-5.65-2L53,31.77Z"/><path class="ac" d="M52.18,32.92c1.88.67,3.74,1.42,5.65,2,1.46.44,3,.67,4.49,1-.34.36-.68.71-1,1.06l-5.08,1.68-8.1.13Z"/><path class="ad" d="M50.09,29.81v1.1L47,33.85a6,6,0,0,1-.95,0c0-.63.07-1.26.1-1.89Z"/><path class="ae" d="M42.21,36.83l-.79.81-.36-.81Z"/><path class="af" d="M46.09,33.84a6,6,0,0,0,.95,0l-.49.71Z"/><path class="ag" d="M140,47.8l2.65-4.44-4.58-4.51,27.18,1.95-5.41,4.09c-3.68.83-7.32,1.19-10.58,2.5S143.24,49.84,140,47.8Z"/><path class="ah" d="M114.12,37.91l2.74-.23c-.71-1.12-1.23-2-2.08-3.28l4.28.51,1,1c0,.32-.09.63-.12,1L106.2,43.05l-7.1-2.19Z"/><path class="ai" d="M104.05,50.78l-2-.91L99.48,48l9.78-.83-.09-.81-5-1.51L106,43.74c6.31.41,12.41-3.34,18.83-1,0,0,.18-.16.28-.25a5.76,5.76,0,0,0-.62-.59,1.35,1.35,0,0,0-.48-.13l6.85-.65.17,2L118.14,46c-3.72,1-7.47,1.89-11.15,3A13,13,0,0,0,104.05,50.78Z"/><path class="aj" d="M124,41.77a1.35,1.35,0,0,1,.48.13,5.76,5.76,0,0,1,.62.59c-.1.09-.23.27-.28.25-6.42-2.34-12.52,1.41-18.83,1,.06-.23.11-.46.17-.69L120,36.88Z"/><path class="ak" d="M78.13,41.86l3-1.1,12,1.08L93,43.1,75.17,44.82Z"/><path class="al" d="M93,43.1l.09-1.26,6-1,7.1,2.19c-.06.23-.11.46-.17.69l-1.89,1.14L96.08,45Z"/><path class="am" d="M91.09,36l3.65-3.15c.07.09-.3-.4-.68-.88l4.13-.81,2,1.73c-.83,4.21,3-.15,3.58,3.11Z"/><path class="an" d="M93,43.1,96.08,45l-8.07,2c-.07,0-.14.28-.11.41s.17.26.26.39L71,47l1-2,3.11-.16Z"/><path class="ao" d="M75.17,44.82,72.06,45,71,44.77c-1-1.08-1.82-2.74-3-3.14-3.81-1.24-7.78-2-11.69-3L61.29,37c3.16,1,6.31,2,9.48,2.9,2.44.71,4.91,1.32,7.36,2Z"/><path class="ap" d="M98.19,31.12l-4.13.81L89.33,30.7c.06-.47.12-.95.19-1.42l3.57-.85,5.41.49C98.4,29.65,98.3,30.38,98.19,31.12Z"/><path class="a" d="M102.45,20.49c.25.55.49,1.1.74,1.66-1.15.78-2.25,2.1-3.47,2.23a71.73,71.73,0,0,1-8.55,0L81.4,19.45c-.17,1.93-.26,3.06-.36,4.18H68.35a23.82,23.82,0,0,1-4.07-.47A16,16,0,0,1,61.1,21.5c2.92-2.38,5.81-4.78,6-9l4.16-3c.22,0,.45-.05.67-.06l1.93,1.07L74,9.06l5.12-.56c.88,1,1.55,2.46,2.66,3.05,2.94,1.55,6.06,2.75,9.11,4.09,2.76,3,5.52,6.06,10.29,4.86Z"/><path class="b" d="M23.18,41.47,11.71,42.54l-.14-1.2,3.9-.65L11.2,38.44c2.69.12,4.42.29,6.14.24A14.1,14.1,0,0,0,20.21,38c-.58-.85-1-2.2-1.76-2.46-3.35-1.12-6.8-1.91-10.91-3,3.52,0,6.45.11,9.36,0,2.71-.14,5.41-.79,8.1-.77,1.77,0,4.17-3.68,5.38.68l5.54-3,4.17,1.67-.93,2.43L31.33,36.6l-5.3,2Z"/><path class="c" d="M71.27,9.46l-4.16,3C63.18,10.41,59.29,11,56.44,14c-3.31,3.46-5.88,7.64-8.76,11.5l-5.49,2c1.69-2,3.39-4,5.05-6,2.57-3.13,4.74-6.7,7.74-9.33C59.66,8.09,65.39,7.71,71.27,9.46Z"/><path class="d" d="M23.18,41.47,26,38.59c3.84,3.3,7.94,2.75,12.14.82l8-.11,1,.34,1,2.77-16,1.05c-2-2.64-4.46-2.15-7-.93Z"/><path class="e" d="M39.16,33.52l.93-2.43,1.14-.66,3-1.84c0,.63-.07,1.26-.1,1.89l.46.72.49-.7,3.05-2.95,2.95.86-.86,1.15c-1.35,2-2.71,3.91-4.07,5.87l0,.2c-2.6,1-4.6.32-5.95-2.16H39.06Z"/><path class="f" d="M90.85,15.64c-3-1.34-6.17-2.54-9.11-4.09C80.63,11,80,9.54,79.08,8.5c6-1.5,9,4.45,14,5.69Z"/><path class="g" d="M90.85,15.64,93,14.19a10.66,10.66,0,0,1,1.09-.86c2.37,2.36,4.69,4.77,7,7.17C96.37,21.7,93.61,18.68,90.85,15.64Z"/><path class="h" d="M44.19,28.59l-3,1.84,1-2.94,5.49-2c.14.31.27.62.41.94Z"/><path class="i" d="M74,9.06l-.09,1.41L71.94,9.4Z"/><path class="j" d="M150.12,49.52l-18.88-1.47-.16,1.08,6-4.6a7.45,7.45,0,0,1,.95-.09c3.2,2,6.07.88,9.26-.41s6.9-1.67,10.58-2.5c1.39-1,3.25-2.46,5.41-4.09l-27.18-1.95c-.07-.15-.2-.3-.2-.45s.14-.36.23-.36c2-.17,3.9-.3,5.85-.45a126,126,0,0,0-16-1.69c-2.64-.14-5.29,0-7.93,0l-1-1-1.13-2,6.81-1.43,5.39,2.35c5.81.33,11.63.89,17.44.93,4.5,0,9-.6,13.5-.93h24.08l-.07,1.36-6.4,2.55,11.1,4.78L168.1,46.49c-1.37-.18-2.83-.76-4.1-.48C159.34,47,154.75,48.33,150.12,49.52Z"/><path class="k" d="M138,44.44a7.45,7.45,0,0,0-.95.09c-3,.48-6,.85-8.93,1.48-3.34.72-6.64,1.68-10,2.54l-2.07-5.95,12.92-2.89-.17-2-6.85.65L118,33.52c0-.32.07-.63.12-1,2.64,0,5.29-.17,7.93,0a126,126,0,0,1,16,1.69c-2,.15-3.9.28-5.85.45-.09,0-.23.23-.23.36s.13.3.2.45L140.69,40Z"/><path class="l" d="M106.15,24.47l3,2.53c-.2,2.07-.41,4.15-.6,6.15l3.57,1.4-15,3-6,1-12-1.08c2.9-2.48,8-.33,10-4.79h12.73c-.58-3.27-4.41,1.1-3.58-3.12Z"/><path class="m" d="M93.13,46.72c-1.54.19-3.07.42-4.61.56-1.32.11-2.65.08-4,.18-6,.47-11.93,1-19.15,1.56l2.93-2L65,45.44l4-1.79,17.14.87Z"/><path class="n" d="M69,43.65l-4,1.79h-.45l-.45.06-4-.94-6.91-.17-5.06-2c-.33-.93-.66-1.85-1-2.77A46.06,46.06,0,0,1,54,39.37c5,.51,9.94,1.34,14.91,2l1.11.22Z"/><path class="o" d="M116.14,42.6l2.07,5.95-8.44,3.12c.26-1.27.4-2,.62-3.08h-4.28l-4.06-1.17A13,13,0,0,1,105,45.58C108.67,44.48,112.42,43.57,116.14,42.6Z"/><path class="o" d="M93.13,46.72l-7-2.2c-.09-.13-.23-.25-.26-.39s0-.39.11-.41l8.07-2,8.06-.15,5,1.51.09.81-9.78.84,2.61,1.83L96,47.72Z"/><path class="m" d="M48.09,42.41l5.06,2c-.37.3-.77.89-1.12.86-6.65-.55-13.29-1.18-19.94-1.79Z"/><path class="p" d="M112.12,34.55l-3.57-1.4c.19-2,.4-4.08.6-6.15l6.78,2.59,1.13,2L112.78,31c.85,1.33,1.37,2.16,2.08,3.28Z"/><path class="q" d="M106.15,24.47l-7.91,5-2-1.73c.11-.74.21-1.47.31-2.2l-5.41-.49a3.83,3.83,0,0,1,.08-.68,71.73,71.73,0,0,0,8.55,0c1.22-.13,2.32-1.45,3.47-2.23Z"/><path class="r" d="M159.07,30.51c-4.5.33-9,1-13.5.93-5.81,0-11.63-.6-17.44-.93Z"/><path class="m" d="M60.06,44.56l4,.94L46.9,49.72l-.25-1.09Z"/><path class="s" d="M150.12,49.52C154.75,48.33,159.34,47,164,46c1.27-.28,2.73.3,4.1.48-5.67,1.52-11.34,3.06-17,4.5C150.89,51,150.44,50,150.12,49.52Z"/><path class="t" d="M96,47.72l4.1-1.21,2,.91,4.06,1.17-8.6,2.85Z"/><path class="u" d="M91.17,24.39a3.83,3.83,0,0,0-.08.68l-3.57.85c-.07.47-.13.95-.19,1.42l4.73,1.23.68.88-3.65,3.16c-2,4.46-7.09,2.31-10,4.79l-3,1.1c-2.45-.65-4.92-1.27-7.36-2-3.17-.93-6.32-1.93-9.48-2.9l1-1.06.8-.05,5-.46c3.85-4.26,7.56-8.78,14.28-7.78.19,0,.45-.41.68-.64.1-1.12.19-2.25.36-4.18Z"/><path class="v" d="M48.09,26.45c-.14-.32-.27-.63-.41-.94,2.88-3.86,5.45-8,8.76-11.5,2.85-3,6.74-3.6,10.67-1.5-.2,4.21-3.09,6.61-6,9l-1,1L51,28.41l-2.95-.86Z"/><path class="w" d="M60.09,22.53l1-1a16,16,0,0,0,3.18,1.65,23.82,23.82,0,0,0,4.07.47,12.6,12.6,0,0,1-.15,3.32,55.06,55.06,0,0,1-2.12,5.11l-5,.46-3.38-4.68Z"/><path class="x" d="M66.08,32.05a55.06,55.06,0,0,0,2.12-5.11,12.6,12.6,0,0,0,.15-3.32H81c-.23.23-.49.67-.68.64C73.64,23.27,69.93,27.79,66.08,32.05Z"/><path class="y" d="M40.21,33.47c1.35,2.48,3.35,3.14,5.95,2.16l0,3.67-8,.11L31.33,36.6l7.83-3.08-.1-.05.36.81Z"/><path class="z" d="M31.33,36.6l6.84,2.81c-4.2,1.93-8.3,2.48-12.14-.82Z"/><path class="aa" d="M46.13,39.3l0-3.67,0-.2,8.1-.13c3.91,1,7.88,1.73,11.69,3,1.23.4,2,2.06,3,3.14-5-.7-9.92-1.53-14.91-2a46.06,46.06,0,0,0-6.93.27Z"/><path class="ab" d="M60.09,22.53l-2.35,5.3,3.38,4.68-.8.05c-1.5-.32-3-.56-4.49-1-1.91-.58-3.77-1.33-5.65-2L51,28.41Z"/><path class="ac" d="M50.18,29.56c1.88.67,3.74,1.42,5.65,2,1.46.44,3,.68,4.49,1-.34.36-.68.71-1,1.06L54.21,35.3l-8.1.13C47.47,33.47,48.83,31.52,50.18,29.56Z"/><path class="ad" d="M48.09,26.45v1.1L45,30.5a7.49,7.49,0,0,1-.95,0c0-.63.07-1.26.1-1.89Z"/><path class="ae" d="M40.21,33.47l-.79.81-.36-.81Z"/><path class="af" d="M44.09,30.48a7.49,7.49,0,0,0,.95,0c-.17.23-.33.46-.49.7Z"/><path class="ag" d="M138,44.44,140.69,40l-4.58-4.51,27.18,1.95c-2.16,1.63-4,3.05-5.41,4.09-3.68.83-7.32,1.19-10.58,2.5S141.24,46.48,138,44.44Z"/><path class="ah" d="M112.12,34.55l2.74-.23c-.71-1.12-1.23-2-2.08-3.28l4.28.51,1,1c0,.32-.09.63-.12,1L104.2,39.69,97.1,37.5Z"/><path class="ai" d="M102.05,47.42l-2-.91-2.61-1.83,9.78-.84-.09-.81-5-1.51L104,40.38c6.31.41,12.41-3.34,18.83-1,0,0,.18-.16.28-.25a5.67,5.67,0,0,0-.62-.58,1.17,1.17,0,0,0-.48-.14l6.85-.65.17,2L116.14,42.6c-3.72,1-7.47,1.88-11.15,3A13,13,0,0,0,102.05,47.42Z"/><path class="aj" d="M122,38.41a1.17,1.17,0,0,1,.48.14,5.67,5.67,0,0,1,.62.58c-.1.09-.23.27-.28.25-6.42-2.34-12.52,1.41-18.83,1,.06-.23.11-.46.17-.69L118,33.52Z"/><path class="ak" d="M76.13,38.5l3-1.1,12,1.08L91,39.74,73.17,41.46Z"/><path class="al" d="M91,39.74l.09-1.26,6-1,7.1,2.19c-.06.23-.11.46-.17.69l-1.89,1.14-8.06.15Z"/><path class="am" d="M89.09,32.61l3.65-3.16-.68-.88,4.13-.81,2,1.73c-.83,4.22,3-.15,3.58,3.12Z"/><path class="an" d="M91,39.74l3.06,1.93-8.07,2c-.07,0-.14.28-.11.41s.17.26.26.39L69,43.65l1-2,3.11-.16Z"/><path class="ao" d="M73.17,41.46l-3.11.16L69,41.41c-1-1.08-1.82-2.74-3-3.14-3.81-1.24-7.78-2-11.69-3l5.08-1.68c3.16,1,6.31,2,9.48,2.9,2.44.71,4.91,1.33,7.36,2Z"/><path class="ap" d="M96.19,27.76l-4.13.81-4.73-1.23c.06-.47.12-.95.19-1.42l3.57-.85,5.41.49C96.4,26.29,96.3,27,96.19,27.76Z"/></svg>